<svg width="321" height="349" viewBox="0 0 321 349" fill="none" xmlns="http://www.w3.org/2000/svg">
<path d="M111.524 14.0635C91.089 23.1137 69.8588 32.7606 56.0367 50.2642C42.2147 67.7679 38.6846 95.6146 54.4457 111.428C61.9534 118.936 72.4442 122.566 81.344 128.434C90.2438 134.302 98.1492 144.446 95.5141 154.739C93.1639 161.077 88.9085 166.532 83.3328 170.353L31.3758 214.411C16.2114 227.24 -0.245816 242.755 0.00278199 262.645C0.614804 272.295 3.80882 281.604 9.25063 289.597C43.6566 345.788 125.545 366.275 182.374 332.908C190.18 328.334 197.936 322.267 200.522 313.615C204.748 299.592 194.058 285.619 192.368 271.049C189.733 248.622 208.924 229.329 229.26 219.433C249.595 209.538 272.665 205.112 291.111 192.084C300.721 185.47 308.497 176.527 313.714 166.092C318.931 155.657 321.418 144.069 320.943 132.412C319.302 109.24 301.9 87.3103 279.079 83.0338C265.207 80.3983 250.937 83.9786 236.817 84.277C222.697 84.5753 206.637 80.1497 200.522 67.3701C195.003 55.9828 199.478 42.5069 196.644 29.9262C192.567 12.3231 173.872 1.2341 155.874 0.0903945C137.875 -1.05331 122.711 8.94167 111.424 13.9143" fill="#FAC265"/>
</svg>
