<svg width="372" height="240" viewBox="0 0 372 240" fill="none" xmlns="http://www.w3.org/2000/svg">
<path d="M11.7258 111.853C2.92769 139.155 -4.63967 168.778 3.4291 196.353C11.4979 223.928 41.2658 247.089 68.572 237.988C81.4273 233.438 91.3651 223.382 102.032 215.237C119.729 202.023 140.632 193.751 162.592 191.272C184.552 188.793 206.778 192.196 226.984 201.131C245.766 209.731 263.225 223.336 283.83 224.383C308.401 225.657 330.146 208.548 345.463 189.391C362.33 168.277 374.821 141.703 371.447 114.902C368.074 88.1003 344.415 62.937 317.428 65.0756C299.193 66.5772 283.466 79.3637 265.277 80.6833C233.822 82.9584 211.667 52.3802 188.373 31.1756C162.48 7.6049 125.373 -6.95618 91.9577 3.37308C46.5994 17.3881 25.6752 68.2609 11.7258 111.808" fill="#FAC265"/>
</svg>
