<svg width="362" height="337" viewBox="0 0 362 337" fill="none" xmlns="http://www.w3.org/2000/svg">
<path d="M113.217 9.75124C92.9491 19.1609 84.9508 48.1288 97.4919 66.6372C100.909 71.6531 105.762 77.1746 103.821 82.8904C102.533 85.7753 100.374 88.1826 97.6471 89.7726C65.6149 113.102 25.3125 128.267 5.35542 162.406C0.0749499 171.427 -3.69125 182.276 5.97667 192.852C10.7873 197.927 17.1842 201.206 24.1088 202.145C40.455 204.594 55.9082 197.673 71.9826 196.079H72.4096C76.5757 195.789 80.7299 196.79 84.3084 198.946C87.8869 201.102 90.7163 204.308 92.4123 208.13C94.1084 211.951 94.5891 216.203 93.7891 220.308C92.9891 224.413 90.9471 228.171 87.9404 231.074L74.6616 243.828C60.4509 257.475 45.8132 271.668 41.1539 291.809C38.9782 300.453 39.7856 309.579 43.4447 317.705C57.1118 346.479 96.7541 339.519 118.303 319.961C138.105 301.997 150.102 276.489 170.603 259.303C176.732 253.613 184.381 249.83 192.618 248.416C206.945 246.783 219.797 255.998 231.717 264.28C256.294 281.427 284.094 296.708 315.001 292.626C322.415 291.797 329.587 289.484 336.09 285.823C342.594 282.163 348.296 277.23 352.857 271.318C377.202 238.151 348.508 196.934 318.495 181.42C313.405 178.775 309.054 174.901 305.834 170.149C302.614 165.397 300.627 159.916 300.052 154.202C297.606 129.628 322.805 125.117 338.375 112.947C346.424 106.676 352.164 97.9038 354.694 88.01C357.223 78.1162 356.399 67.6611 352.35 58.2876C348.301 48.914 341.257 41.1532 332.325 36.2247C323.393 31.2961 313.079 29.4791 303.003 31.0592C289.297 33.1978 277.416 41.3243 264.72 46.8846C252.023 52.4449 236.298 55.1667 225 46.8846C217.739 41.6743 213.895 33.0811 208.848 25.6933C186.639 -6.85185 141.561 -3.81896 113.256 9.32352" fill="#583123"/>
</svg>
