<svg width="344" height="312" viewBox="0 0 344 312" fill="none" xmlns="http://www.w3.org/2000/svg">
<path d="M184.147 5.95813C164.966 -1.53559 143.746 -1.97432 124.272 4.72019C108.179 10.5656 93.4111 19.5562 80.8288 31.1678C68.2466 42.7794 58.1018 56.7797 50.9861 72.3524C47.231 80.8941 44.425 90.55 47.2723 99.3805C55.0713 123.561 99.7608 129.05 84.039 160.204C81.8285 164.34 78.6069 167.848 74.6744 170.402C70.742 172.957 66.2268 174.474 61.5498 174.812C28.043 177.865 1.46863 208.318 0.0243761 241.041C-0.330619 254.663 3.19808 268.104 10.1981 279.796C17.1982 291.487 27.3806 300.944 39.5558 307.064C46.4168 310.684 54.1344 312.367 61.8799 311.933C85.7721 309.746 98.6054 282.264 120.145 271.824C155.303 254.782 193.349 287.793 231.56 294.973C248.717 298.16 266.44 296.005 282.334 288.799C298.227 281.593 311.527 269.683 320.436 254.677C329.345 239.671 333.434 222.293 332.151 204.889C330.869 187.485 324.276 170.894 313.263 157.357C309.024 153.048 305.587 148.017 303.112 142.502C299.234 130.906 306.702 118.816 314.213 109.16C331.915 86.3822 353.166 58.9415 339.797 31.5007C336.881 25.8558 332.868 20.8495 327.993 16.7753C323.118 12.701 317.479 9.64072 311.407 7.77374C282.109 -1.92338 253.636 7.77375 224.545 10.0433C210.952 11.3436 197.236 9.94121 184.188 5.91685" fill="#394C38"/>
</svg>
