<svg width="34" height="24" viewBox="0 0 34 24" fill="none" xmlns="http://www.w3.org/2000/svg">
<rect x="0.5" y="0.5" width="33" height="23" rx="3.5" fill="white" stroke="#D9D9D9"/>
<path d="M22.7917 14.7987C21.901 17.2102 19.6281 18.9406 16.9789 18.9406C14.3221 18.9406 12.0568 17.2221 11.1699 14.8026H11.8495C12.7018 16.8538 14.6753 18.2912 16.9789 18.2912C19.2749 18.2912 21.2483 16.8459 22.1045 14.8026H22.7917V14.7987Z" fill="#095AA5"/>
<path d="M22.7917 14.7987L22.7342 14.7749C21.8511 17.1627 19.6012 18.8733 16.9789 18.8733C14.3489 18.8733 12.1067 17.1706 11.2275 14.7749L11.1699 14.7987V14.862H11.8495V14.7987L11.7919 14.8224C12.6558 16.8973 14.6522 18.3506 16.9789 18.3506C19.3017 18.3506 21.2982 16.8894 22.1621 14.8224L22.1045 14.7987V14.862H22.7956L22.7917 14.7987L22.7917 14.7313H22.0584L22.0431 14.7709C21.1984 16.7904 19.2442 18.2199 16.9751 18.2199C14.6983 18.2199 12.7479 16.7984 11.9032 14.7709L11.8879 14.7313H11.0778L11.1085 14.8184C12.0031 17.2616 14.2952 19 16.9789 19C19.655 19 21.9509 17.2537 22.8532 14.8184L22.8839 14.7313H22.7917L22.7917 14.7987ZM22.1544 10.2132C21.9893 9.81326 21.7743 9.43708 21.5286 9.08862C21.4249 9.12821 21.3059 9.15197 21.1907 9.15197C20.6609 9.15197 20.2309 8.70848 20.2309 8.16202C20.2309 8.03927 20.2539 7.92047 20.2923 7.81356C19.3747 7.12455 18.2382 6.7167 17.0173 6.7167C14.7137 6.7167 12.7364 8.1541 11.8879 10.2132H11.216C12.1067 7.80168 14.372 6.06729 17.0211 6.06729C18.3956 6.06729 19.6665 6.53454 20.6916 7.31067C20.8375 7.21563 21.0103 7.16415 21.1984 7.16415C21.7321 7.16415 22.1621 7.61161 22.1621 8.15806C22.1621 8.34813 22.1122 8.5184 22.0239 8.66888C22.3579 9.13613 22.6343 9.66279 22.834 10.2092L22.1544 10.2132Z" fill="#095AA5"/>
<path d="M22.1544 10.2132L22.212 10.1895C22.043 9.78557 21.828 9.40147 21.5785 9.05301L21.5516 9.01341L21.5055 9.02925C21.4095 9.06489 21.2943 9.08865 21.1907 9.08865C20.945 9.08865 20.7184 8.98569 20.5572 8.81938C20.3959 8.65307 20.2961 8.4234 20.2961 8.16601C20.2961 8.05118 20.3153 7.9403 20.3537 7.84131L20.3691 7.79379L20.3307 7.76607C19.4015 7.06915 18.2536 6.65733 17.0173 6.65733C14.6868 6.65733 12.6864 8.11057 11.8303 10.1934L11.8878 10.2172V10.1538H11.216V10.2172L11.2735 10.2409C12.1528 7.85319 14.3988 6.13859 17.0211 6.13859C18.3803 6.13859 19.6396 6.59793 20.657 7.37009L20.6916 7.39781L20.7261 7.37405C20.8643 7.28694 21.0217 7.23546 21.1984 7.23546C21.4479 7.23546 21.6744 7.33841 21.8357 7.50868C22.0008 7.67896 22.1006 7.90862 22.1006 8.16601C22.1006 8.3442 22.0545 8.50259 21.9739 8.64515L21.9509 8.68079L21.9778 8.71642C22.3079 9.17576 22.5805 9.69846 22.7802 10.2409L22.8378 10.2172V10.1538H22.1544L22.1544 10.2132L22.1544 10.2766L22.9261 10.2726L22.8954 10.1855C22.6957 9.63114 22.4154 9.09657 22.0776 8.62931L22.0277 8.66891L22.0814 8.70058C22.1736 8.54219 22.2273 8.35608 22.2273 8.15413C22.2273 7.56808 21.7666 7.09291 21.1984 7.09291C20.9987 7.09291 20.8183 7.14834 20.6608 7.2513L20.6954 7.30673L20.7338 7.25526C19.6972 6.46726 18.411 6 17.0249 6C14.3489 6 12.0568 7.75023 11.1584 10.1855L11.1276 10.2726H11.9339L11.9493 10.233C12.7901 8.20165 14.7444 6.77612 17.0211 6.77612C18.2305 6.77612 19.3516 7.18002 20.2616 7.86111L20.2999 7.80963L20.2424 7.78587C20.2001 7.90071 20.1771 8.02742 20.1771 8.15809C20.1771 8.74018 20.634 9.2114 21.1984 9.2114C21.3212 9.2114 21.4479 9.18368 21.5554 9.14408L21.5324 9.08469L21.4825 9.12428C21.7244 9.46879 21.9355 9.84101 22.1006 10.237L22.116 10.2766H22.1582L22.1544 10.2132Z" fill="#095AA5"/>
<path d="M5.46843 11.4605C5.6028 11.3219 5.75638 11.215 5.92531 11.1477C6.09808 11.0764 6.2747 11.0408 6.45131 11.0408C6.62792 11.0408 6.80069 11.0764 6.96963 11.1477C7.1424 11.215 7.29597 11.318 7.43419 11.4605L7.62616 11.6585L7.24222 12.0585L7.04641 11.8605C6.96579 11.7773 6.8698 11.71 6.76998 11.6704C6.66631 11.6269 6.56265 11.6071 6.45515 11.6071C6.34764 11.6071 6.24398 11.6269 6.14032 11.6704C6.03665 11.714 5.94451 11.7773 5.86388 11.8605C5.78325 11.9397 5.71799 12.0347 5.67959 12.1416C5.63736 12.2485 5.61816 12.3555 5.61816 12.4663C5.61816 12.5772 5.63736 12.6841 5.67959 12.791C5.72182 12.8979 5.78325 12.993 5.86388 13.0761C6.02898 13.2464 6.22478 13.3296 6.45515 13.3296C6.56649 13.3296 6.67399 13.3098 6.77766 13.2662C6.88132 13.2227 6.96963 13.1593 7.05025 13.0761L7.24606 12.8781L7.63 13.2781L7.43803 13.4761C7.30365 13.6147 7.14624 13.7216 6.97346 13.7929C6.80453 13.8602 6.63176 13.8958 6.45515 13.8958C6.27854 13.8958 6.10192 13.8602 5.92915 13.7929C5.76022 13.7216 5.60664 13.6147 5.47226 13.4761C5.33789 13.3375 5.23422 13.1791 5.16895 13.0049C5.10368 12.8306 5.06913 12.6524 5.06913 12.4703C5.06913 12.2842 5.10368 12.102 5.16895 11.9278C5.23038 11.7575 5.33405 11.5991 5.46843 11.4605Z" fill="#095AA5"/>
<path d="M5.46843 11.4605L5.51448 11.5081C5.64502 11.3735 5.79091 11.2745 5.94833 11.2111C6.11342 11.1398 6.28236 11.1081 6.45129 11.1081C6.62022 11.1081 6.78531 11.1438 6.94657 11.2111C7.11166 11.2745 7.25756 11.3735 7.3881 11.5081L7.534 11.6586L7.23836 11.9674L7.08479 11.813L7.04255 11.8605L7.08863 11.813C7.00032 11.7219 6.9005 11.6546 6.78915 11.6071C6.67781 11.5635 6.56647 11.5398 6.45129 11.5398C6.33611 11.5398 6.22092 11.5635 6.11342 11.6071C6.00208 11.6546 5.90226 11.7219 5.81395 11.813L5.86002 11.8605L5.81779 11.813C5.72948 11.9001 5.66037 12.0031 5.61814 12.1179C5.57207 12.2327 5.55287 12.3476 5.55287 12.4664C5.55287 12.5852 5.57591 12.7039 5.61814 12.8148C5.66037 12.9297 5.72948 13.0326 5.81779 13.1237C5.99056 13.3058 6.20941 13.3969 6.45513 13.3969C6.57415 13.3969 6.68933 13.3732 6.80067 13.3296C6.91201 13.2821 7.01184 13.2148 7.09631 13.1237L7.05023 13.0801L7.09247 13.1276L7.24604 12.9732L7.54167 13.2821L7.39578 13.4326C7.26524 13.5672 7.11934 13.6662 6.95425 13.7375C6.79299 13.8008 6.6279 13.8365 6.45897 13.8365C6.29003 13.8365 6.1211 13.8048 5.95601 13.7375C5.79475 13.6701 5.64886 13.5672 5.51832 13.4326C5.38778 13.2979 5.29179 13.1474 5.23036 12.9851C5.16893 12.8188 5.13438 12.6485 5.13438 12.4743C5.13438 12.2961 5.16509 12.1219 5.23036 11.9555C5.29179 11.7892 5.38778 11.6427 5.51832 11.5081L5.46843 11.4605L5.42233 11.4131C5.28028 11.5596 5.17277 11.7219 5.10366 11.908C5.03455 12.0902 5 12.2803 5 12.4743C5 12.6644 5.03455 12.8505 5.10366 13.0326C5.17277 13.2148 5.28028 13.3811 5.42233 13.5276C5.56439 13.6741 5.7218 13.785 5.89842 13.8602C6.07887 13.9315 6.25932 13.9671 6.44745 13.9671C6.63174 13.9671 6.81219 13.9315 6.9888 13.8602C7.16925 13.785 7.33051 13.6741 7.47256 13.5276L7.70677 13.2821L7.23452 12.7871L6.99264 13.0326C6.91969 13.1118 6.83907 13.1672 6.74308 13.2068C6.6471 13.2464 6.54727 13.2662 6.44361 13.2662C6.2286 13.2662 6.05199 13.191 5.89458 13.0326C5.81779 12.9534 5.7602 12.8663 5.7218 12.7673C5.68341 12.6683 5.66421 12.5693 5.66421 12.4664C5.66421 12.3634 5.68341 12.2644 5.7218 12.1654C5.7602 12.0664 5.81395 11.9833 5.89074 11.908C5.96753 11.8288 6.05199 11.7694 6.14798 11.7298C6.24396 11.6902 6.33995 11.6704 6.43977 11.6704C6.53959 11.6704 6.63558 11.6902 6.73156 11.7298C6.82755 11.7694 6.91201 11.8288 6.9888 11.908L7.23068 12.1496L7.70293 11.6546L7.46873 11.4131C7.32667 11.2665 7.16541 11.1557 6.98496 11.0844C6.80835 11.0092 6.6279 10.9696 6.44361 10.9696C6.25932 10.9696 6.07503 11.0092 5.89458 11.0844C5.71797 11.1557 5.55671 11.2665 5.41465 11.4131L5.46843 11.4605ZM8.74724 11.8566C8.58215 12.0268 8.50152 12.2288 8.50152 12.4664C8.50152 12.597 8.5284 12.7237 8.58983 12.8425L9.46137 11.9437C9.56887 11.8368 9.6495 11.7536 9.70709 11.6942C9.54967 11.615 9.38458 11.5873 9.20797 11.611C9.03136 11.6388 8.88162 11.7219 8.74724 11.8566ZM10.1256 12.8821L10.5134 13.2821L10.3214 13.4801C10.1909 13.6147 10.0411 13.7216 9.87218 13.7929C9.70325 13.8642 9.52664 13.8998 9.34235 13.8998C9.15806 13.8998 8.98144 13.8642 8.81251 13.7929C8.64358 13.7216 8.49384 13.6187 8.3633 13.4801C8.22892 13.3415 8.12526 13.1831 8.05999 13.0089C7.99472 12.8307 7.96017 12.6485 7.96017 12.4664C7.96017 12.2842 7.99472 12.106 8.05999 11.9318C8.12526 11.7576 8.22509 11.5992 8.3633 11.4606C8.49768 11.322 8.65126 11.2151 8.82019 11.1477C8.99296 11.0765 9.16957 11.0408 9.34619 11.0408C9.5228 11.0408 9.69557 11.0765 9.8645 11.1477C10.0373 11.2151 10.1909 11.318 10.3291 11.4606L10.521 11.6586L8.9776 13.2425C9.13502 13.3217 9.30011 13.3494 9.47289 13.3256C9.6495 13.294 9.80307 13.2148 9.93745 13.0762L10.1256 12.8821Z" fill="#095AA5"/>
<path d="M8.74724 11.8566L8.70119 11.809C8.52457 11.9912 8.43627 12.2129 8.43627 12.4664C8.43627 12.6089 8.46698 12.7435 8.52841 12.8703L8.56681 12.9495L9.49978 11.9872L9.45371 11.9397L9.49594 11.9872C9.60344 11.8803 9.68791 11.7972 9.7455 11.7378L9.80693 11.6744L9.73014 11.6348C9.60344 11.5675 9.46906 11.5358 9.32701 11.5358C9.28093 11.5358 9.2387 11.5398 9.19263 11.5477C9.0045 11.5754 8.8394 11.6625 8.70119 11.809L8.74724 11.8566L8.79333 11.9041C8.91619 11.7774 9.05441 11.7061 9.21566 11.6823C9.25406 11.6784 9.29629 11.6744 9.33468 11.6744C9.45754 11.6744 9.56889 11.7021 9.68023 11.7576L9.70711 11.6982L9.66103 11.6506C9.60344 11.71 9.52281 11.7932 9.41531 11.8961L8.54377 12.795L8.58983 12.8425L8.64743 12.8148C8.59368 12.7039 8.56681 12.5891 8.56681 12.4664C8.56681 12.2446 8.63976 12.0625 8.79717 11.9001L8.74724 11.8566ZM10.1256 12.8821L10.0795 12.9297L10.4251 13.286L10.2792 13.4365C10.1525 13.5672 10.0104 13.6662 9.84916 13.7335C9.68791 13.8008 9.51898 13.8364 9.34236 13.8364C9.16575 13.8364 8.99682 13.8008 8.83556 13.7335C8.67431 13.6662 8.53225 13.5672 8.40555 13.4365C8.27501 13.3019 8.17903 13.1514 8.1176 12.9891C8.05617 12.8188 8.02161 12.6445 8.02161 12.4703C8.02161 12.2961 8.05233 12.1258 8.1176 11.9595C8.17903 11.7932 8.27501 11.6467 8.40555 11.512C8.53609 11.3774 8.68199 11.2784 8.8394 11.2151C9.0045 11.1477 9.17343 11.1121 9.34236 11.1121C9.5113 11.1121 9.67639 11.1477 9.83764 11.2151C10.0027 11.2784 10.1486 11.3774 10.2792 11.512L10.4251 11.6625L8.87012 13.2662L8.94691 13.3058C9.07361 13.3732 9.20798 13.4048 9.3462 13.4048C9.38844 13.4048 9.43451 13.4009 9.47674 13.3969C9.66487 13.3652 9.8338 13.2742 9.97586 13.1316L10.1678 12.9336L10.1256 12.8821L10.0795 12.8346L9.88756 13.0326C9.7647 13.1593 9.62264 13.2346 9.45754 13.2623L9.46906 13.3256L9.46138 13.2623C9.42299 13.2662 9.3846 13.2702 9.3462 13.2702C9.22718 13.2702 9.11584 13.2425 9.0045 13.187L8.97762 13.2464L9.02369 13.294L10.6055 11.6625L10.3713 11.421C10.2293 11.2745 10.068 11.1636 9.88756 11.0923C9.71094 11.0171 9.53049 10.9775 9.3462 10.9775C9.16191 10.9775 8.97762 11.0171 8.79717 11.0923C8.62056 11.1636 8.4593 11.2745 8.31725 11.421C8.17519 11.5675 8.07153 11.7338 8.00242 11.9159C7.93331 12.0981 7.89875 12.2842 7.89875 12.4743C7.89875 12.6643 7.93331 12.8544 8.00242 13.0405C8.07153 13.2227 8.17903 13.389 8.31725 13.5355C8.45546 13.6781 8.61288 13.785 8.78949 13.8602C8.9661 13.9354 9.15039 13.975 9.3462 13.975C9.53817 13.975 9.7263 13.9354 9.90291 13.8602C10.0795 13.785 10.2369 13.6741 10.3752 13.5355L10.6094 13.29L10.1294 12.795L10.0834 12.8425L10.1256 12.8821ZM10.8474 12.4664C10.8474 12.2684 10.882 12.0823 10.9511 11.912C11.024 11.7378 11.1238 11.5873 11.2467 11.4606C11.3734 11.3299 11.5231 11.2269 11.6921 11.1557C11.861 11.0804 12.0415 11.0408 12.2296 11.0408C12.4216 11.0408 12.602 11.0804 12.7671 11.1557C12.936 11.2269 13.0858 11.3299 13.2125 11.4606C13.3392 11.5873 13.439 11.7378 13.5081 11.912C13.581 12.0823 13.6194 12.2684 13.6194 12.4664V13.8998H13.0704V12.4664C13.0704 12.3476 13.0474 12.2367 13.0013 12.1337C12.9591 12.0268 12.9015 11.9357 12.8208 11.8605C12.7479 11.7813 12.6596 11.718 12.5559 11.6744C12.4523 11.6269 12.3448 11.6031 12.2296 11.6031C12.1144 11.6031 12.0069 11.6269 11.9032 11.6744C11.8034 11.718 11.7151 11.7774 11.6383 11.8605C11.5654 11.9357 11.5039 12.0268 11.4579 12.1337C11.4156 12.2367 11.3964 12.3476 11.3964 12.4664V13.8998H10.8474V12.4664Z" fill="#095AA5"/>
<path d="M10.8474 12.4664H10.9088C10.9088 12.2763 10.9434 12.0981 11.0087 11.9397L10.9511 11.9159L11.0087 11.9437C11.0816 11.7774 11.1738 11.6308 11.2928 11.512C11.4156 11.3853 11.5539 11.2903 11.7151 11.219C11.8764 11.1477 12.0453 11.1121 12.2257 11.1121C12.41 11.1121 12.5828 11.1477 12.7364 11.219C12.8976 11.2903 13.0397 11.3853 13.1626 11.512C13.2854 11.6348 13.3776 11.7774 13.4428 11.9437C13.5119 12.106 13.5465 12.2802 13.5465 12.4703V13.8404H13.1242V12.4703C13.1242 12.3436 13.1011 12.2248 13.0512 12.1139L12.9936 12.1417L13.0512 12.1179C13.0051 12.0031 12.9437 11.9041 12.8554 11.8209L12.8132 11.8684L12.8592 11.8249C12.7786 11.7378 12.6826 11.6704 12.5713 11.6229L12.5483 11.6823L12.5751 11.6229C12.4638 11.5714 12.3448 11.5477 12.2219 11.5477C12.099 11.5477 11.98 11.5714 11.8687 11.6229L11.8956 11.6823L11.8725 11.6229C11.765 11.6704 11.669 11.7338 11.5884 11.8209C11.5078 11.9041 11.4425 12.0031 11.3964 12.1139C11.3504 12.2248 11.3312 12.3436 11.3312 12.4703V13.8404H10.9088V12.4703H10.7821V13.9671H11.4579V12.4703C11.4579 12.3594 11.4771 12.2565 11.5155 12.1654L11.4579 12.1417L11.5155 12.1694C11.5577 12.0704 11.6153 11.9872 11.6806 11.9159C11.7535 11.8407 11.8341 11.7853 11.9263 11.7457C12.0223 11.7021 12.1221 11.6823 12.2296 11.6823C12.3371 11.6823 12.4369 11.7021 12.5329 11.7457C12.6289 11.7853 12.7095 11.8407 12.7748 11.9159C12.8477 11.9872 12.9015 12.0704 12.9399 12.1654C12.9821 12.2604 13.0013 12.3594 13.0013 12.4703V13.9671H13.677V12.4703C13.677 12.2644 13.6386 12.0664 13.5619 11.8882L13.5043 11.9159L13.5619 11.8922C13.4889 11.71 13.3852 11.5516 13.2509 11.417L13.2086 11.4645L13.2547 11.417C13.1203 11.2784 12.9667 11.1715 12.7901 11.0963L12.7671 11.1557L12.794 11.0963C12.6212 11.0171 12.4331 10.9775 12.2296 10.9775C12.0338 10.9775 11.8418 11.0171 11.6652 11.0963L11.6921 11.1557L11.669 11.0963C11.4924 11.1715 11.3388 11.2784 11.2045 11.417C11.0739 11.5516 10.9703 11.71 10.8935 11.8882C10.8205 12.0664 10.7821 12.2604 10.7821 12.4664H10.8474ZM14.3566 11.4606C14.491 11.322 14.6446 11.2151 14.8135 11.1477C14.9863 11.0765 15.1629 11.0408 15.3395 11.0408C15.5161 11.0408 15.6889 11.0765 15.8578 11.1477C16.0306 11.2151 16.1842 11.318 16.3224 11.4606L16.5143 11.6586L16.1304 12.0585L15.9346 11.8605C15.854 11.7774 15.758 11.71 15.6582 11.6704C15.5545 11.6269 15.4508 11.6071 15.3433 11.6071C15.2358 11.6071 15.1322 11.6269 15.0285 11.6704C14.9248 11.714 14.8327 11.7774 14.7521 11.8605C14.6714 11.9397 14.6062 12.0347 14.5678 12.1417C14.5255 12.2486 14.5063 12.3555 14.5063 12.4664C14.5063 12.5772 14.5255 12.6841 14.5678 12.7911C14.61 12.898 14.6714 12.993 14.7521 13.0762C14.9172 13.2464 15.113 13.3296 15.3433 13.3296C15.4547 13.3296 15.5622 13.3098 15.6658 13.2662C15.7695 13.2227 15.8578 13.1593 15.9384 13.0762L16.1342 12.8782L16.5182 13.2781L16.3262 13.4761C16.1918 13.6147 16.0344 13.7216 15.8616 13.7929C15.6927 13.8602 15.5199 13.8958 15.3433 13.8958C15.1667 13.8958 14.9901 13.8602 14.8173 13.7929C14.6484 13.7216 14.4948 13.6147 14.3604 13.4761C14.2261 13.3375 14.1224 13.1791 14.0571 13.0049C13.9919 12.8307 13.9573 12.6525 13.9573 12.4703C13.9573 12.2842 13.9919 12.1021 14.0571 11.9278C14.1186 11.7576 14.2184 11.5992 14.3566 11.4606Z" fill="#095AA5"/>
<path d="M14.3566 11.4606L14.4027 11.5081C14.5332 11.3735 14.6791 11.2745 14.8365 11.2111C15.0016 11.1398 15.1705 11.1081 15.3395 11.1081C15.5084 11.1081 15.6735 11.1438 15.8348 11.2111C15.9999 11.2745 16.1458 11.3735 16.2763 11.5081L16.4222 11.6586L16.1266 11.9674L15.973 11.813L15.9307 11.8605L15.9768 11.813C15.8885 11.7219 15.7887 11.6546 15.6773 11.6071C15.566 11.5635 15.4547 11.5398 15.3395 11.5398C15.2243 11.5398 15.1091 11.5635 15.0016 11.6071C14.8903 11.6546 14.7904 11.7219 14.7021 11.813L14.7482 11.8605L14.706 11.813C14.6177 11.9001 14.5486 12.0031 14.5063 12.1179C14.4641 12.2327 14.4411 12.3476 14.4411 12.4664C14.4411 12.5852 14.4641 12.7039 14.5063 12.8148C14.5524 12.9297 14.6177 13.0326 14.706 13.1237C14.8788 13.3058 15.0976 13.3969 15.3433 13.3969C15.4623 13.3969 15.5775 13.3732 15.6889 13.3296C15.8002 13.2821 15.9 13.2148 15.9845 13.1237L15.9384 13.0801L15.9807 13.1276L16.1342 12.9732L16.4299 13.2821L16.284 13.4326C16.1534 13.5672 16.0075 13.6662 15.8424 13.7375C15.6812 13.8008 15.5161 13.8365 15.3472 13.8365C15.1782 13.8365 15.0093 13.8048 14.8442 13.7375C14.6829 13.6701 14.537 13.5672 14.4065 13.4326C14.276 13.2979 14.18 13.1474 14.1186 12.9851C14.0571 12.8188 14.0226 12.6485 14.0226 12.4743C14.0226 12.2961 14.0533 12.1219 14.1186 11.9555C14.18 11.7892 14.276 11.6427 14.4065 11.5081L14.3566 11.4606L14.3105 11.4131C14.1685 11.5596 14.061 11.7219 13.9919 11.908C13.9227 12.0902 13.8882 12.2803 13.8882 12.4743C13.8882 12.6644 13.9227 12.8505 13.9919 13.0326C14.061 13.2148 14.1685 13.3811 14.3105 13.5276C14.4526 13.6741 14.61 13.785 14.7866 13.8602C14.9671 13.9315 15.1475 13.9671 15.3356 13.9671C15.5199 13.9671 15.7004 13.9315 15.877 13.8602C16.0574 13.785 16.2187 13.6741 16.3608 13.5276L16.595 13.2821L16.1227 12.7871L15.8808 13.0287C15.8079 13.1078 15.7273 13.1633 15.6313 13.2029C15.5353 13.2425 15.4355 13.2623 15.3318 13.2623C15.1168 13.2623 14.9363 13.187 14.7828 13.0287C14.706 12.9495 14.6484 12.8623 14.61 12.7633C14.5716 12.6644 14.5524 12.5654 14.5524 12.4624C14.5524 12.3594 14.5716 12.2605 14.61 12.1615C14.6484 12.0625 14.7021 11.9793 14.7789 11.9041C14.8557 11.8249 14.9402 11.7655 15.0362 11.7259C15.1322 11.6863 15.2281 11.6665 15.328 11.6665C15.4278 11.6665 15.5238 11.6863 15.6198 11.7259C15.7157 11.7655 15.8002 11.8249 15.877 11.9041L16.1189 12.1456L16.5911 11.6506L16.3569 11.4091C16.2149 11.2626 16.0536 11.1517 15.8732 11.0804C15.6965 11.0052 15.5161 10.9656 15.3318 10.9656C15.1475 10.9656 14.9632 11.0052 14.7828 11.0804C14.6062 11.1517 14.4449 11.2626 14.3028 11.4091L14.3566 11.4606ZM17.3897 12.4664C17.3897 12.5852 17.4089 12.7 17.4511 12.8029C17.4972 12.9099 17.5548 13.0009 17.6316 13.0841C17.7084 13.1593 17.8005 13.2227 17.9042 13.2702C18.0079 13.3138 18.1154 13.3336 18.2305 13.3336C18.3457 13.3336 18.4532 13.3138 18.5569 13.2702C18.6605 13.2227 18.7489 13.1633 18.8218 13.0841C18.8986 13.0049 18.96 12.9099 19.0023 12.8029C19.0483 12.696 19.0714 12.5852 19.0714 12.4664C19.0714 12.3476 19.0483 12.2367 19.0023 12.1337C18.96 12.0268 18.9024 11.9357 18.8218 11.8605C18.7489 11.7813 18.6605 11.718 18.5569 11.6744C18.4532 11.6269 18.3457 11.6031 18.2305 11.6031C18.1154 11.6031 18.004 11.6269 17.9042 11.6744C17.8005 11.718 17.7122 11.7774 17.6316 11.8605C17.5586 11.9357 17.4972 12.0268 17.4511 12.1337C17.4089 12.2367 17.3897 12.3476 17.3897 12.4664ZM16.8445 12.4664C16.8445 12.2684 16.8791 12.0823 16.9482 11.912C17.0211 11.7378 17.121 11.5873 17.2438 11.4606C17.3705 11.3299 17.5203 11.2269 17.6892 11.1557C17.8581 11.0804 18.0386 11.0408 18.2267 11.0408C18.4187 11.0408 18.5991 11.0804 18.7642 11.1557C18.9331 11.2269 19.0829 11.3299 19.2096 11.4606C19.3363 11.5873 19.4361 11.7378 19.5052 11.912C19.5782 12.0823 19.6166 12.2684 19.6166 12.4664C19.6166 12.6604 19.5782 12.8465 19.5052 13.0207C19.4361 13.195 19.3363 13.3494 19.2096 13.4801C19.0829 13.6107 18.9331 13.7137 18.7642 13.7929C18.5991 13.8642 18.4187 13.8998 18.2267 13.8998C18.0386 13.8998 17.8581 13.8642 17.6892 13.7929C17.5203 13.7177 17.3705 13.6107 17.2438 13.4801C17.121 13.3494 17.0211 13.195 16.9482 13.0207C16.8791 12.8465 16.8445 12.6644 16.8445 12.4664Z" fill="#095AA5"/>
<path d="M17.3897 12.4664L17.3283 12.4664C17.3283 12.5931 17.3513 12.7158 17.3936 12.8267C17.4435 12.9376 17.5049 13.0405 17.5855 13.1237C17.67 13.2068 17.766 13.2702 17.8735 13.3217C17.9848 13.3692 18.1 13.389 18.2229 13.389C18.3457 13.389 18.4647 13.3652 18.5722 13.3217C18.6836 13.2702 18.7757 13.2068 18.8564 13.1237C18.9408 13.0366 19.0061 12.9336 19.0483 12.8227L18.9907 12.799L19.0483 12.8267C19.0982 12.7119 19.1213 12.5891 19.1213 12.4624C19.1213 12.3357 19.0982 12.2169 19.0483 12.106L18.9907 12.1337L19.0483 12.11C19.0023 11.9951 18.937 11.8961 18.8525 11.813L18.8103 11.8605L18.8564 11.8169C18.7757 11.7298 18.6797 11.6625 18.5684 11.615L18.5454 11.6744L18.5722 11.615C18.4609 11.5635 18.3419 11.5398 18.219 11.5398C18.0962 11.5398 17.9771 11.5635 17.8658 11.615L17.8927 11.6744L17.8696 11.615C17.7583 11.6625 17.6623 11.7259 17.5778 11.813C17.4972 11.8961 17.4319 11.9951 17.3859 12.106C17.3398 12.2169 17.3206 12.3357 17.3206 12.4624H17.4473C17.4473 12.3515 17.4665 12.2486 17.5049 12.1575L17.4473 12.1337L17.5049 12.1615C17.5471 12.0625 17.6009 11.9793 17.67 11.908C17.7429 11.8328 17.8236 11.7774 17.9195 11.7378C18.0155 11.6942 18.1154 11.6744 18.2229 11.6744C18.3304 11.6744 18.4302 11.6942 18.5262 11.7378C18.6222 11.7774 18.7028 11.8328 18.7681 11.908C18.841 11.9793 18.8948 12.0625 18.9331 12.1575C18.9754 12.2525 18.9946 12.3515 18.9946 12.4624C18.9946 12.5733 18.9754 12.6762 18.9331 12.7752C18.8948 12.8742 18.841 12.9574 18.7681 13.0326C18.6989 13.1039 18.6183 13.1593 18.5223 13.2029L18.5492 13.2623L18.5262 13.2029C18.4302 13.2425 18.3304 13.2623 18.2229 13.2623C18.1154 13.2623 18.0155 13.2425 17.9195 13.2029L17.8965 13.2623L17.9234 13.2029C17.8274 13.1593 17.7429 13.0999 17.67 13.0286L17.6278 13.0762L17.6738 13.0326C17.6047 12.9574 17.551 12.8703 17.5049 12.7713L17.4473 12.799L17.5049 12.7752C17.4665 12.6762 17.4473 12.5733 17.4473 12.4624L17.3897 12.4664ZM16.8445 12.4664L16.9059 12.4664C16.9059 12.2763 16.9405 12.0981 17.0058 11.9397L16.9482 11.9159L17.0058 11.9437C17.0787 11.7774 17.1709 11.6308 17.2899 11.512C17.4127 11.3853 17.551 11.2903 17.7161 11.219C17.8773 11.1477 18.0462 11.1081 18.2267 11.1081C18.411 11.1081 18.5799 11.1438 18.7373 11.2151C18.8986 11.2824 19.0406 11.3814 19.1597 11.5081C19.2825 11.6308 19.3747 11.7734 19.4399 11.9397C19.5091 12.1021 19.5436 12.2763 19.5474 12.4664C19.5474 12.6525 19.5129 12.8267 19.4399 12.993C19.3747 13.1593 19.2787 13.3058 19.1558 13.4325C19.033 13.5593 18.8909 13.6583 18.7297 13.7295L18.7565 13.7889L18.7335 13.7295C18.5761 13.7969 18.4072 13.8325 18.219 13.8325C18.0386 13.8325 17.8658 13.7969 17.7045 13.7295L17.6815 13.7889L17.7084 13.7295C17.5471 13.6543 17.4051 13.5553 17.2822 13.4325L17.2361 13.4801L17.2822 13.4365C17.1632 13.3098 17.071 13.1633 16.9981 12.997L16.9405 13.0247L16.9981 13.0009C16.9328 12.8346 16.8983 12.6604 16.8983 12.4703H16.7716C16.7716 12.6723 16.8061 12.8663 16.8829 13.0484C16.9597 13.2306 17.0634 13.389 17.1901 13.5276C17.3244 13.6662 17.478 13.7731 17.6546 13.8523C17.8312 13.9275 18.0194 13.9671 18.2152 13.9671C18.4148 13.9671 18.603 13.9275 18.7757 13.8523C18.9523 13.7731 19.1059 13.6622 19.2403 13.5276C19.3747 13.389 19.4783 13.2306 19.5513 13.0484L19.4937 13.0247L19.5513 13.0524C19.6281 12.8703 19.6665 12.6762 19.6665 12.4703C19.6665 12.2644 19.6281 12.0664 19.5513 11.8882L19.4937 11.9159L19.5513 11.8922C19.4783 11.71 19.3747 11.5516 19.2403 11.417L19.1981 11.4645L19.2441 11.417C19.1098 11.2784 18.9562 11.1715 18.7796 11.0963L18.7565 11.1557L18.7834 11.0963C18.6106 11.0171 18.4225 10.9775 18.219 10.9775C18.0194 10.9775 17.8312 11.0171 17.6546 11.0963L17.6815 11.1557L17.6585 11.0963C17.4819 11.1715 17.3283 11.2784 17.1939 11.417C17.0634 11.5516 16.9597 11.71 16.8829 11.8882C16.81 12.0664 16.7716 12.2604 16.7716 12.4664L16.8445 12.4664ZM22.4539 11.0408V11.6071H20.7799C20.7031 11.6071 20.634 11.6348 20.5841 11.6902C20.5303 11.7457 20.5035 11.813 20.5035 11.8922C20.5035 11.9714 20.5303 12.0427 20.5841 12.1021C20.6378 12.1575 20.7031 12.1852 20.7799 12.1852H21.8933C22.0085 12.1852 22.116 12.209 22.2158 12.2565C22.3195 12.3 22.4078 12.3594 22.4807 12.4347C22.5575 12.5099 22.619 12.601 22.6612 12.7079C22.7073 12.8109 22.7303 12.9217 22.7303 13.0405C22.7303 13.1593 22.7073 13.2742 22.6612 13.3771C22.619 13.4801 22.5614 13.5711 22.4807 13.6503C22.4078 13.7256 22.3195 13.7889 22.2158 13.8364C22.116 13.88 22.0085 13.8998 21.8933 13.8998H20.227V13.3336H21.8933C21.9739 13.3336 22.043 13.3058 22.0968 13.2504C22.1506 13.195 22.1774 13.1237 22.1774 13.0405C22.1774 12.9613 22.1506 12.8901 22.0968 12.8386C22.043 12.7831 21.9739 12.7554 21.8933 12.7554H20.7799C20.6647 12.7554 20.5572 12.7356 20.4535 12.6921C20.3537 12.6445 20.2693 12.5852 20.1925 12.506C20.1195 12.4268 20.0581 12.3357 20.012 12.2327C19.9698 12.1258 19.9506 12.0149 19.9506 11.8961C19.9506 11.7774 19.9698 11.6665 20.012 11.5635C20.0581 11.4566 20.1157 11.3655 20.1925 11.2903C20.2654 11.2151 20.3537 11.1557 20.4535 11.1121C20.5572 11.0646 20.6647 11.0408 20.7799 11.0408H22.4539Z" fill="#095AA5"/>
<path d="M22.4539 11.0408L22.3924 11.0408V11.5437H20.7837C20.6916 11.5437 20.6071 11.5794 20.5419 11.6467C20.4766 11.714 20.442 11.8011 20.442 11.8961C20.442 11.9912 20.4766 12.0823 20.538 12.1496C20.6033 12.2169 20.6878 12.2525 20.7799 12.2525H21.8933C22.0008 12.2525 22.0968 12.2723 22.189 12.3159C22.2849 12.3555 22.3656 12.4109 22.4347 12.4782C22.5076 12.5495 22.5614 12.6327 22.5998 12.7277C22.642 12.8227 22.6612 12.9217 22.6612 13.0326C22.6612 13.1435 22.642 13.2464 22.5998 13.3454C22.5614 13.4405 22.5076 13.5236 22.4347 13.5989C22.3656 13.6701 22.2849 13.7256 22.189 13.7691L22.2158 13.8285L22.1928 13.7691C22.1006 13.8087 22.0047 13.8285 21.8972 13.8285H20.2923V13.393H21.8972C21.9931 13.393 22.0815 13.3573 22.1467 13.29C22.212 13.2227 22.2465 13.1316 22.2465 13.0326C22.2465 12.9376 22.212 12.8505 22.1467 12.7831C22.0815 12.7158 21.9931 12.6802 21.8972 12.6802H20.7837C20.6762 12.6802 20.5764 12.6604 20.4804 12.6208L20.4574 12.6802L20.4843 12.6208C20.3921 12.5772 20.3115 12.5218 20.2424 12.4505L20.1963 12.498L20.2424 12.4545C20.1733 12.3792 20.1157 12.2921 20.0735 12.1971L20.0159 12.2248L20.0735 12.2011C20.0351 12.1021 20.0159 11.9991 20.0159 11.8882C20.0159 11.7774 20.0351 11.6744 20.0735 11.5833L20.0159 11.5596L20.0735 11.5873C20.1157 11.4883 20.1733 11.4051 20.2385 11.3339C20.3077 11.2626 20.3844 11.2071 20.4766 11.1715C20.5726 11.1279 20.6724 11.1081 20.7799 11.1081H22.4539L22.4539 11.0408L22.4539 10.9735H20.7799C20.657 10.9735 20.538 10.9973 20.4267 11.0488L20.4536 11.1081L20.4305 11.0488C20.323 11.0923 20.2309 11.1596 20.1502 11.2428C20.0696 11.3259 20.0043 11.4249 19.9583 11.5358C19.9122 11.6467 19.893 11.7655 19.893 11.8922C19.893 12.0189 19.916 12.1417 19.9583 12.2525C20.0082 12.3594 20.0696 12.4584 20.1502 12.5456C20.2309 12.6287 20.323 12.6921 20.4267 12.7435C20.538 12.7911 20.6532 12.8109 20.7761 12.8109H21.8895C21.9586 12.8109 22.0047 12.8307 22.0469 12.8742C22.0891 12.9178 22.1083 12.9653 22.1083 13.0326C22.1083 13.1039 22.0891 13.1514 22.0469 13.195C22.0047 13.2385 21.9586 13.2583 21.8895 13.2583H20.1579V13.9552H21.8895C22.0123 13.9552 22.1275 13.9315 22.235 13.8879C22.3464 13.8404 22.4385 13.7731 22.5191 13.6899C22.6036 13.6028 22.6689 13.5038 22.7111 13.3969L22.6535 13.3732L22.7111 13.4009C22.761 13.286 22.7841 13.1633 22.7841 13.0366C22.7841 12.9099 22.761 12.7871 22.7111 12.6762L22.6535 12.7039L22.7111 12.6802C22.665 12.5654 22.5998 12.4664 22.5153 12.3832L22.4731 12.4307L22.5191 12.3832C22.4385 12.3 22.3425 12.2367 22.2312 12.1892L22.2082 12.2486L22.235 12.1892C22.1275 12.1377 22.0123 12.1139 21.8895 12.1139H20.7761C20.7108 12.1139 20.6647 12.0941 20.6225 12.0506L20.5764 12.0981L20.6225 12.0545C20.5803 12.007 20.5611 11.9555 20.5572 11.8882C20.5572 11.8209 20.5764 11.7734 20.6186 11.7298C20.6609 11.6863 20.707 11.6665 20.7722 11.6665H22.5076V10.9696H22.4539L22.4539 11.0408ZM25.8325 11.0408V12.4664C25.8325 12.6604 25.7941 12.8465 25.7212 13.0207C25.6521 13.195 25.5523 13.3494 25.4256 13.4801C25.2989 13.6107 25.1491 13.7137 24.9802 13.7929C24.8151 13.8642 24.6346 13.8998 24.4427 13.8998C24.2545 13.8998 24.0741 13.8642 23.9052 13.7929C23.7362 13.7177 23.5865 13.6147 23.4598 13.4801C23.3369 13.3494 23.2371 13.195 23.1642 13.0207C23.095 12.8465 23.0605 12.6604 23.0605 12.4664V11.0408H23.6057V12.4664C23.6057 12.5852 23.6249 12.7 23.6671 12.8029C23.7132 12.9099 23.7708 13.0009 23.8476 13.0841C23.9244 13.1593 24.0127 13.2227 24.1125 13.2702C24.2162 13.3138 24.3237 13.3336 24.4388 13.3336C24.554 13.3336 24.6615 13.3138 24.7652 13.2702C24.8688 13.2227 24.9572 13.1633 25.0301 13.0841C25.1069 13.0049 25.1683 12.9099 25.2106 12.8029C25.2566 12.696 25.2797 12.5852 25.2797 12.4664V11.0408H25.8325Z" fill="#095AA5"/>
<path d="M25.8325 11.0408L25.7711 11.0408V12.4664C25.7711 12.6525 25.7365 12.8267 25.6636 12.993C25.5983 13.1593 25.5023 13.3058 25.3795 13.4325C25.2566 13.5593 25.1145 13.6583 24.9533 13.7295L24.9802 13.7889L24.9571 13.7295C24.7997 13.7968 24.6308 13.8325 24.4426 13.8325C24.2622 13.8325 24.0894 13.7968 23.9282 13.7295L23.9051 13.7889L23.932 13.7295C23.7708 13.6543 23.6287 13.5553 23.5058 13.4325L23.4598 13.4801L23.5058 13.4365C23.3868 13.3098 23.2947 13.1633 23.2217 12.997L23.1641 13.0247L23.2217 13.0009C23.1564 12.8346 23.1219 12.6604 23.1219 12.4703V11.1081H23.5442V12.4703C23.5442 12.597 23.5673 12.7198 23.6095 12.8307C23.6594 12.9415 23.7208 13.0445 23.8015 13.1276C23.8859 13.2068 23.9781 13.2742 24.0856 13.3256C24.1969 13.3692 24.3121 13.3929 24.435 13.3929C24.5578 13.3929 24.6768 13.3692 24.7843 13.3256C24.8919 13.2742 24.9878 13.2108 25.0685 13.1276C25.1529 13.0405 25.2182 12.9376 25.2604 12.8267L25.2028 12.8029L25.2604 12.8307C25.3103 12.7158 25.3334 12.5931 25.3334 12.4664V11.1042H25.8325L25.8325 11.0408L25.8325 10.9775H25.2182V12.4703C25.2182 12.5812 25.199 12.6841 25.1568 12.7831C25.1184 12.8821 25.0646 12.9653 24.9917 13.0405C24.9226 13.1118 24.8419 13.1672 24.746 13.2108L24.7728 13.2702L24.7498 13.2108C24.6538 13.2504 24.554 13.2702 24.4465 13.2702C24.339 13.2702 24.2392 13.2504 24.1432 13.2108L24.1201 13.2702L24.147 13.2108C24.0549 13.1672 23.9704 13.1078 23.8974 13.0366L23.8552 13.0841L23.9013 13.0405C23.8322 12.9653 23.7784 12.8782 23.7324 12.7792L23.6748 12.8069L23.7324 12.7831C23.694 12.6841 23.6748 12.5812 23.6748 12.4703V10.9775H22.9914V12.4703C22.9914 12.6723 23.0297 12.8663 23.1027 13.0484C23.1795 13.2306 23.2831 13.389 23.4098 13.5276C23.5442 13.6662 23.6978 13.7731 23.8744 13.8523C24.051 13.9275 24.2392 13.9671 24.435 13.9671C24.6346 13.9671 24.8227 13.9275 24.9955 13.8523C25.1721 13.7731 25.3257 13.6662 25.4601 13.5276C25.5945 13.389 25.6981 13.2306 25.7711 13.0484L25.7135 13.0247L25.7711 13.0524C25.8479 12.8703 25.8863 12.6762 25.8863 12.4703V10.9775H25.8248L25.8325 11.0408ZM27.5525 13.3335C27.6677 13.3335 27.7752 13.3137 27.8751 13.2702C27.9787 13.2227 28.067 13.1633 28.14 13.0841C28.2168 13.0049 28.2782 12.9098 28.3204 12.8029C28.3665 12.696 28.3895 12.5851 28.3895 12.4664V11.6071H27.5564C27.4412 11.6071 27.3337 11.6308 27.23 11.6784C27.1264 11.7219 27.0381 11.7813 26.9574 11.8645C26.8845 11.9397 26.8231 12.0308 26.777 12.1377C26.7348 12.2406 26.7156 12.3515 26.7156 12.4703C26.7156 12.5891 26.7348 12.7039 26.777 12.8069C26.8231 12.9138 26.8807 13.0049 26.9574 13.088C27.0342 13.1633 27.1264 13.2266 27.23 13.2741C27.3299 13.3137 27.4374 13.3335 27.5525 13.3335ZM28.9386 9.89248V12.4664C28.9386 12.6604 28.9002 12.8465 28.8272 13.0207C28.7581 13.195 28.6583 13.3494 28.5316 13.4801C28.4087 13.6107 28.2628 13.7137 28.0939 13.7929C27.925 13.8642 27.7445 13.8998 27.5564 13.8998C27.3683 13.8998 27.1878 13.8642 27.0189 13.7929C26.8499 13.7176 26.7002 13.6107 26.5735 13.4801C26.4468 13.3494 26.3431 13.195 26.2702 13.0207C26.2011 12.8465 26.1665 12.6604 26.1665 12.4664C26.1665 12.2684 26.2011 12.0822 26.2702 11.912C26.3431 11.7377 26.4468 11.5873 26.5735 11.4606C26.7002 11.3299 26.8499 11.2269 27.0189 11.1557C27.1878 11.0804 27.3683 11.0408 27.5564 11.0408H28.3895V9.89248H28.9386Z" fill="#095AA5"/>
<path d="M27.5525 13.3335L27.5526 13.3969C27.6754 13.3969 27.7906 13.3732 27.8981 13.3296C28.0094 13.2781 28.1016 13.2148 28.1822 13.1316C28.2667 13.0445 28.3319 12.9416 28.3742 12.8307L28.3166 12.8069L28.3742 12.8346C28.4241 12.7198 28.4471 12.5971 28.4471 12.4703V11.5477H27.5487C27.4259 11.5477 27.3068 11.5715 27.1955 11.6229L27.2224 11.6823L27.1993 11.6229C27.088 11.6705 26.992 11.7338 26.9075 11.8209C26.8269 11.9041 26.7616 12.0031 26.7156 12.114C26.6695 12.2248 26.6503 12.3436 26.6503 12.4703C26.6503 12.5971 26.6733 12.7198 26.7156 12.8307C26.7616 12.9416 26.8269 13.0445 26.9075 13.1277C26.992 13.2108 27.088 13.2742 27.1955 13.3257C27.3068 13.3692 27.422 13.393 27.5449 13.393V13.2623C27.4374 13.2623 27.3375 13.2425 27.2416 13.2029L27.2185 13.2623L27.2454 13.2029C27.1494 13.1593 27.0649 13.0999 26.992 13.0287L26.9498 13.0762L26.9958 13.0326C26.9267 12.9574 26.873 12.8703 26.8269 12.7713L26.7693 12.799L26.8269 12.7752C26.7885 12.6762 26.7693 12.5733 26.7693 12.4624C26.7693 12.3515 26.7885 12.2486 26.8269 12.1575L26.7693 12.1338L26.8269 12.1615C26.8691 12.0625 26.9229 11.9793 26.992 11.908C27.0649 11.8328 27.1456 11.7774 27.2416 11.7378C27.3375 11.6942 27.4374 11.6744 27.5449 11.6744H28.3166V12.4703C28.3166 12.5812 28.2974 12.6842 28.2552 12.7832C28.2168 12.8822 28.163 12.9653 28.0901 13.0406C28.021 13.1118 27.9403 13.1673 27.8443 13.2108L27.8712 13.2702L27.8482 13.2108C27.756 13.2504 27.6601 13.2702 27.5526 13.2702L27.5525 13.3335ZM28.9386 9.89248L28.8771 9.89251V12.4664C28.8771 12.6525 28.8426 12.8307 28.7696 12.993C28.7044 13.1593 28.6084 13.3059 28.4855 13.4326C28.3665 13.5593 28.2283 13.6583 28.067 13.7296L28.0939 13.789L28.0709 13.7296C27.9096 13.7969 27.7407 13.8325 27.5564 13.8325C27.3759 13.8325 27.2032 13.7969 27.0419 13.7296L27.0189 13.789L27.0458 13.7296C26.8845 13.6543 26.7424 13.5553 26.6196 13.4326C26.4967 13.3059 26.4007 13.1593 26.3316 12.993L26.274 13.0208L26.3316 12.997C26.2664 12.8307 26.2318 12.6564 26.2318 12.4664C26.2318 12.2763 26.2664 12.0981 26.3316 11.9397L26.274 11.916L26.3316 11.9437C26.4046 11.7774 26.5006 11.6348 26.6196 11.5121C26.7424 11.3854 26.8807 11.2903 27.0419 11.219C27.2032 11.1478 27.3721 11.1082 27.5526 11.1082H28.451V9.95983H28.9386L28.9386 9.89248L28.9386 9.82519H28.3243V10.9735H27.5526C27.3567 10.9735 27.1686 11.0131 26.9882 11.0923L27.015 11.1517L26.992 11.0923C26.8154 11.1676 26.6618 11.2745 26.5274 11.4131L26.5735 11.4606L26.5313 11.4131C26.3969 11.5477 26.2932 11.7061 26.2164 11.8843C26.1435 12.0625 26.1051 12.2565 26.1051 12.4624C26.1051 12.6644 26.1435 12.8584 26.2164 13.0406C26.2932 13.2227 26.4007 13.3811 26.5313 13.5197C26.6657 13.6583 26.8192 13.7652 26.9958 13.8444C27.1725 13.9196 27.3606 13.9592 27.5564 13.9592C27.7522 13.9592 27.9403 13.9196 28.1169 13.8444C28.2936 13.7652 28.4471 13.6543 28.5738 13.5197L28.5278 13.4761L28.5738 13.5236C28.7082 13.3851 28.8119 13.2267 28.8848 13.0445L28.8272 13.0207L28.8848 13.0485C28.9616 12.8663 29 12.6723 29 12.4664V9.82915H28.9386L28.9386 9.89248Z" fill="#095AA5"/>
<path d="M20.6724 8.08477C20.6724 7.79298 20.9066 7.55878 21.1984 7.55878C21.4902 7.55878 21.7244 7.79298 21.7244 8.08477C21.7244 8.37657 21.4902 8.61077 21.1984 8.61077C20.9066 8.61077 20.6724 8.37273 20.6724 8.08477Z" fill="#FF690A"/>
</svg>
