<svg width="34" height="24" viewBox="0 0 34 24" fill="none" xmlns="http://www.w3.org/2000/svg">
<rect x="0.5" y="0.5" width="33" height="23" rx="3.5" fill="white" stroke="#D9D9D9"/>
<path d="M8.0727 8.31396V10.4501L6.91626 8.60211L7.52329 10.6576L5.8866 9.14768L7.06225 10.9765L5.05289 9.91992L6.68958 11.426L4.45738 10.865L6.4629 11.9254L4.15002 11.9101L6.38222 12.471L4.15002 12.9974H6.46675L4.46123 14.0577L6.69342 13.4968L5.05289 15.0067L7.05841 13.9502L5.8866 15.779L7.52329 14.2729L6.91626 16.3284L8.0727 14.4804V16.6011L8.649 14.611C8.49148 13.881 8.40695 13.1702 8.40695 12.4748C8.40695 11.7679 8.48763 11.0495 8.649 10.3233L8.0727 8.31396Z" fill="#F1B800"/>
<path d="M9.42121 8.45996L9.30979 8.73274C9.08696 9.28983 8.91791 9.81618 8.81033 10.3233C8.6605 10.9841 8.5875 11.7026 8.5875 12.4748C8.5875 13.224 8.66434 13.9348 8.81033 14.611C8.91791 15.1143 9.08311 15.6445 9.30979 16.2016L9.42121 16.4744C9.65557 17.0007 9.91683 17.481 10.2088 17.9189C9.87841 17.212 9.61331 16.5051 9.42121 15.7982C9.12153 14.684 8.9717 13.5775 8.9717 12.4748C8.9717 11.353 9.12153 10.2388 9.42121 9.13615C9.61331 8.42922 9.87456 7.71845 10.2088 7C9.93988 7.41494 9.67862 7.90287 9.42121 8.45996ZM12.1644 10.2734H11.6035V14.6417H12.1644V11.8985C12.1644 11.449 12.272 11.1071 12.4871 10.8689C12.6677 10.6768 12.9021 10.5807 13.194 10.5807C13.7819 10.5807 14.0777 10.9188 14.0777 11.5912V14.6417H14.6386V11.5604C14.6386 11.1647 14.5695 10.8574 14.4312 10.6422C14.2275 10.331 13.8626 10.1773 13.34 10.1773C12.8905 10.1773 12.5063 10.381 12.1836 10.7882H12.1682V10.2734H12.1644ZM15.9219 12.1675C15.8565 12.1867 15.7951 12.2097 15.7298 12.2328C15.2265 12.4441 14.9729 12.8475 14.9729 13.4353C14.9729 13.8195 15.0805 14.1307 15.2956 14.3651C15.4147 14.4842 15.5569 14.5726 15.7298 14.6379C15.8873 14.6917 16.0717 14.7186 16.2715 14.7186C16.8708 14.7186 17.3203 14.5111 17.62 14.0923H17.6392V14.6379H18.2309L18.1656 11.3338C18.1656 10.8497 17.9773 10.5193 17.6047 10.3387C17.3895 10.2311 17.086 10.1773 16.6903 10.1773C16.3061 10.1773 15.9833 10.2465 15.7298 10.3848C15.6837 10.404 15.6491 10.4271 15.6183 10.4501C15.2956 10.6422 15.1227 10.9419 15.1035 11.3491H15.7106C15.7106 11.2838 15.7144 11.2262 15.7298 11.1724C15.7605 11.0034 15.8489 10.8689 15.9872 10.7728C16.1447 10.6461 16.3675 10.5807 16.6442 10.5807C17.0091 10.5807 17.2589 10.6768 17.3972 10.8689C17.5355 11.0302 17.6047 11.28 17.6047 11.6258V11.9946L15.9219 12.1675ZM17.6047 13.1933C17.6047 13.493 17.4856 13.7504 17.2512 13.9655C17.0168 14.1884 16.7402 14.3036 16.4175 14.3036C16.137 14.3036 15.9219 14.2191 15.7759 14.0462C15.7567 14.0232 15.7374 14.0001 15.7298 13.9809C15.6222 13.8311 15.5684 13.639 15.5684 13.4046C15.5684 13.1894 15.6222 13.0127 15.7298 12.8744C15.8489 12.7054 16.0333 12.5863 16.2907 12.5209L17.6047 12.4095V13.1933ZM19.7562 9.32441H19.1952V10.2695H18.423V10.6729H19.1952V13.8003C19.1952 14.0808 19.2644 14.2883 19.4027 14.4266C19.5525 14.5649 19.8138 14.634 20.1903 14.634L20.7205 14.6187V14.1692L20.271 14.1999C20.0558 14.1999 19.9175 14.1538 19.8522 14.0577C19.7869 13.9617 19.7562 13.7696 19.7562 13.4814V10.6729H20.7205V10.2695H19.7562V9.32441ZM21.8116 10.258H21.1854V14.6379H21.8116V10.258ZM21.1854 9.32441V9.96602H21.8116V9.32441H21.1854ZM22.8221 10.2734H22.1958L23.6251 14.6379H24.2667L25.6805 10.2734H25.1503L23.9785 13.9655H23.9631L22.8221 10.2734ZM28.1855 10.865C28.3123 11.0264 28.3776 11.2761 28.3776 11.6219V11.9907L26.691 12.1675C26.057 12.3481 25.742 12.7707 25.742 13.4353C25.742 13.8195 25.8534 14.1307 26.0801 14.3651C26.3068 14.6033 26.6333 14.7224 27.0598 14.7224C27.6591 14.7224 28.101 14.5149 28.393 14.0962H28.4237V14.6417H29C28.9693 14.2998 28.9539 13.9271 28.9539 13.5352V11.3376C28.9539 10.5654 28.4544 10.1812 27.4594 10.1812C27.0137 10.1812 26.6487 10.2734 26.3682 10.454C26.057 10.6461 25.8918 10.9457 25.8688 11.353H26.4797C26.4797 11.0956 26.5719 10.9035 26.7524 10.7767C26.91 10.6499 27.1366 10.5846 27.4248 10.5846C27.7821 10.5769 28.0357 10.6729 28.1855 10.865ZM27.2058 14.3036C26.9292 14.3036 26.7102 14.2191 26.5488 14.0462C26.4105 13.8848 26.3413 13.6697 26.3413 13.4046C26.3413 12.9436 26.5834 12.6477 27.0636 12.5209L28.3814 12.4095V13.1971C28.3814 13.4968 28.27 13.7542 28.0433 13.9694C27.8013 14.1884 27.5247 14.3036 27.2058 14.3036Z" fill="#003772"/>
<path d="M22.1958 15.9058H22.4072L22.5032 15.3448L23.0641 16.0018L23.2255 15.0067H23.0449L22.9335 15.5677L22.3726 14.9107L22.1958 15.9058ZM25.0543 15.2641C25.1196 15.2027 25.1926 15.1719 25.2771 15.1719C25.3732 15.1719 25.4423 15.2027 25.4846 15.2641L25.5499 15.3295L25.5806 15.1066V15.0874L25.2925 15.0067C25.1542 15.0067 25.0312 15.049 24.9237 15.1335C24.8046 15.218 24.7392 15.3256 24.7316 15.4562L24.7162 15.5216C24.7162 15.6176 24.7546 15.7021 24.8276 15.779C24.9045 15.8635 25.012 15.9058 25.1503 15.9058L25.4577 15.8251L25.4731 15.8097L25.5192 15.5677L25.4231 15.6483L25.1657 15.7444L24.9736 15.6637C24.9198 15.6099 24.9006 15.5408 24.9121 15.4562L25.0543 15.2641ZM23.7711 15.6675H24.0746L24.1399 15.9096H24.3474L24.04 14.9145L23.4176 15.9058H23.6251L23.7711 15.6675ZM23.9785 15.3295L24.0246 15.5062H23.8825L23.9785 15.3295ZM27.5247 15.1374C27.4594 15.0528 27.3518 15.0106 27.202 15.0106C27.0637 15.0106 26.9407 15.0528 26.8331 15.1374C26.714 15.2219 26.6449 15.3256 26.6257 15.4447C26.6065 15.5715 26.6372 15.6868 26.7217 15.7828C26.8062 15.8673 26.9215 15.9096 27.0598 15.9096L27.4286 15.7982L27.6361 15.4754C27.6592 15.3448 27.6207 15.2334 27.5247 15.1374ZM27.3825 15.2488C27.4478 15.3026 27.4671 15.3679 27.444 15.4409L27.3172 15.6483C27.2519 15.7137 27.1751 15.7444 27.0752 15.7444C26.9907 15.7444 26.9253 15.7175 26.8831 15.6637C26.8293 15.6099 26.8101 15.5408 26.8216 15.4562L26.9484 15.2641C27.0252 15.2027 27.1021 15.1719 27.1904 15.1719C27.275 15.1681 27.3364 15.195 27.3825 15.2488ZM26.1147 15.0067L25.9533 15.9058H26.1454L26.2914 15.0067H26.1147ZM28.9846 15.0067H28.7925L28.6965 15.5677L28.1202 14.9107L27.9588 15.9058H28.1509L28.247 15.3448L28.8079 16.0018L28.9846 15.0067Z" fill="#F1B800"/>
</svg>
