<svg width="34" height="24" viewBox="0 0 34 24" fill="none" xmlns="http://www.w3.org/2000/svg">
<rect x="0.5" y="0.5" width="33" height="23" rx="3.5" fill="#F0D75B" stroke="#D9D9D9"/>
<path d="M33 21.9842V11.4632H28.6113L27.7764 8.00411H26.1887L24.2391 11.4674H23.8072L24.2021 9.0982L24.9877 9.13111L25.1769 8.00411H22.162L21.9728 9.13111L22.7666 9.0982L22.3717 11.4674H21.2242L21.3805 10.5213H20.1301L20.1877 10.1799H21.2941L21.4422 9.27918H20.3398L20.3933 8.95013H21.6026L21.7589 8.00411H19.1018L18.526 11.4715H16.9342C17.5183 11.3275 17.9584 10.8997 18.053 10.3404L18.4437 8.00411H17.0411L16.7039 10.0607C16.6792 10.2087 16.6216 10.4391 16.3913 10.4391C16.165 10.4391 15.9799 10.217 15.9799 10.217L15.4041 11.1465C15.5851 11.2905 15.8278 11.4057 16.0869 11.4674H15.4617L14.7913 10.3404C14.7296 10.2375 14.6514 10.1841 14.5856 10.1347L14.5897 10.1059C15.1491 9.94962 15.4165 9.72751 15.5028 9.20514C15.6468 8.33316 14.9476 8 14.0591 8H12.3275L11.7517 11.4674H13.1542L13.3393 10.3527H13.364L13.8082 11.4674H14.7584L1 11.4715V21.9924C1 22.6752 1.55116 23.2263 2.23393 23.2263L31.7661 23.2222C32.4447 23.2222 33 22.667 33 21.9842ZM13.5697 9.5383H13.471L13.5697 8.95013H13.6807C13.9275 8.95013 14.1373 8.98303 14.092 9.25039C14.0468 9.5054 13.8041 9.5383 13.5697 9.5383ZM26.7769 9.15578H26.8303C26.8344 9.30386 26.8344 9.45604 26.8509 9.60411L26.9167 10.217H26.3409L26.7769 9.15578ZM25.946 11.0396H27.0319L27.0895 11.4674H25.7609L25.946 11.0396Z" fill="url(#paint0_linear)"/>
<path d="M5.1789 11.4674H6.61438L7.00924 9.09409L7.79484 9.12699L7.97993 8H4.96502L4.77582 9.12699L5.57376 9.09409L5.1789 11.4674Z" fill="url(#paint1_linear)"/>
<path d="M8.56403 11.4674L8.75324 11.0355H9.8391L9.89668 11.4674H11.4144L10.5836 8H8.99591L7.0463 11.4674H8.56403ZM9.57997 9.15578H9.63344C9.63344 9.30386 9.63756 9.45604 9.65401 9.6L9.71982 10.2129H9.14398L9.57997 9.15578Z" fill="url(#paint2_linear)"/>
<path d="M29.5862 9.96194C30.0756 9.96194 30.4705 9.56708 30.4705 9.07762C30.4705 8.58816 30.0756 8.1933 29.5862 8.1933C29.0967 8.1933 28.7018 8.58816 28.7018 9.07762C28.7018 9.56708 29.0967 9.96194 29.5862 9.96194ZM29.5862 8.41541C29.9399 8.41541 30.2484 8.71978 30.2484 9.07762C30.2484 9.43134 29.944 9.73983 29.5862 9.73983C29.2324 9.73983 28.9239 9.43134 28.9239 9.07762C28.9239 8.72389 29.2324 8.41541 29.5862 8.41541Z" fill="url(#paint3_linear)"/>
<path d="M29.4298 9.48893V9.12286H29.545L29.7219 9.48893H29.9604L29.7671 9.12286C29.9028 9.11052 29.9851 9.04883 29.9851 8.8843C29.9851 8.79381 29.9604 8.70744 29.8823 8.65808C29.8165 8.61695 29.7219 8.62106 29.6437 8.62106H29.2201V9.48893H29.4298ZM29.6026 8.76914C29.6725 8.76914 29.7794 8.76914 29.7794 8.85962C29.7794 8.95011 29.7219 8.96657 29.6396 8.96657H29.4298V8.76914H29.6026Z" fill="url(#paint4_linear)"/>
<path d="M4.87043 14.4165L4.9239 14.4659C5.11721 14.6304 5.35578 14.762 5.63135 14.762C5.75063 14.762 5.94395 14.7126 5.96452 14.5687C5.98508 14.4206 5.82878 14.4083 5.72596 14.3877L5.49151 14.3466C5.03495 14.2643 4.68122 13.9929 4.75526 13.4828C4.87043 12.7137 5.64781 12.2818 6.3676 12.2818C6.74601 12.2818 7.07917 12.3723 7.37531 12.5656L6.92698 13.3923C6.74189 13.2525 6.5239 13.1456 6.26477 13.1456C6.15783 13.1456 6.00153 13.1826 5.98097 13.3183C5.96452 13.4376 6.10847 13.454 6.19896 13.4787L6.4622 13.5404C6.95578 13.6515 7.28482 13.9188 7.20256 14.47C7.08739 15.2474 6.31413 15.6299 5.59845 15.6299C5.18302 15.6299 4.71413 15.5188 4.37274 15.3337L4.87043 14.4165Z" fill="url(#paint5_linear)"/>
<path d="M7.88944 12.3269H9.04523L8.88482 13.421H9.62106L9.78147 12.3269H10.9373L10.4601 15.5763H9.30435L9.46888 14.4452H8.73263L8.56811 15.5763H7.41232L7.88944 12.3269Z" fill="url(#paint6_linear)"/>
<path d="M13.0391 13.347C13.4216 13.347 13.6149 13.6349 13.5655 13.9804C13.5121 14.3506 13.22 14.6056 12.854 14.6056C12.492 14.6056 12.274 14.3506 12.3275 13.9804C12.3769 13.6349 12.6565 13.347 13.0391 13.347ZM13.1954 12.2776C12.1918 12.2776 11.2704 12.9439 11.1182 13.964C10.9661 15.0087 11.6941 15.6339 12.7018 15.6339C13.7095 15.6339 14.6226 15.0087 14.7748 13.964C14.927 12.9398 14.199 12.2776 13.1954 12.2776Z" fill="url(#paint7_linear)"/>
<path d="M16.4694 13.2154H16.5846C16.782 13.2154 17.0247 13.2277 16.9877 13.4827C16.9506 13.746 16.7162 13.7789 16.5064 13.783H16.3871L16.4694 13.2154ZM14.964 15.5804H16.1198L16.2637 14.6015H16.8766C17.547 14.6015 18.0283 14.1861 18.127 13.5239C18.2463 12.7177 17.7321 12.3311 16.9589 12.3311H15.437L14.964 15.5804Z" fill="url(#paint8_linear)"/>
<path d="M19.6612 13.2154H19.7763C19.9738 13.2154 20.2164 13.2277 20.1794 13.4827C20.1424 13.746 19.908 13.783 19.6982 13.783H19.5789L19.6612 13.2154ZM18.1558 15.5763H19.3116L19.4555 14.5974H20.0684C20.7388 14.5974 21.22 14.1819 21.3188 13.5197C21.438 12.7136 20.9239 12.3269 20.1547 12.3269H18.6329L18.1558 15.5763Z" fill="url(#paint9_linear)"/>
<path d="M21.837 12.3269H23.038L22.5609 15.5804H21.3599L21.837 12.3269Z" fill="url(#paint10_linear)"/>
<path d="M23.5769 12.3269H24.7285L25.5429 14.1285H25.58C25.5717 13.857 25.5594 13.5773 25.6005 13.3017L25.7445 12.3269H26.892L26.4149 15.5804H25.2674L24.4612 13.8735H24.4242C24.4324 14.0997 24.4365 14.3095 24.4036 14.5233L24.2473 15.5804H23.0997L23.5769 12.3269Z" fill="url(#paint11_linear)"/>
<path d="M30.7131 13.6596C30.6267 14.1902 30.5609 14.6344 30.1126 15.0457C29.7054 15.42 29.1378 15.6257 28.6237 15.6257C27.6159 15.6257 26.8879 15.0128 27.0442 13.9681C27.2005 12.9069 28.089 12.2694 29.1255 12.2694C29.6972 12.2694 30.4458 12.5491 30.6226 13.1043L29.4422 13.5115C29.3764 13.347 29.2159 13.2606 29.0226 13.2606C28.5908 13.2606 28.3028 13.6226 28.2453 14.0175C28.1918 14.3753 28.3728 14.7126 28.7594 14.7126C28.9486 14.7126 29.2036 14.6262 29.29 14.4288H28.7471L28.8581 13.6596H30.7131Z" fill="url(#paint12_linear)"/>
<rect x="0.5" y="0.5" width="33" height="23" rx="3.5" stroke="#D9D9D9"/>
<defs>
<linearGradient id="paint0_linear" x1="2.02713" y1="22.7385" x2="33.1023" y2="8.92383" gradientUnits="userSpaceOnUse">
<stop stop-color="#004180"/>
<stop offset="0.327" stop-color="#004683"/>
<stop offset="0.701" stop-color="#00538D"/>
<stop offset="1" stop-color="#006498"/>
</linearGradient>
<linearGradient id="paint1_linear" x1="-2.17941" y1="13.2763" x2="28.8952" y2="-0.53813" gradientUnits="userSpaceOnUse">
<stop stop-color="#004180"/>
<stop offset="0.327" stop-color="#004683"/>
<stop offset="0.701" stop-color="#00538D"/>
<stop offset="1" stop-color="#006498"/>
</linearGradient>
<linearGradient id="paint2_linear" x1="-1.45064" y1="14.9148" x2="29.6235" y2="1.10059" gradientUnits="userSpaceOnUse">
<stop stop-color="#004180"/>
<stop offset="0.327" stop-color="#004683"/>
<stop offset="0.701" stop-color="#00538D"/>
<stop offset="1" stop-color="#006498"/>
</linearGradient>
<linearGradient id="paint3_linear" x1="1.49778" y1="21.5415" x2="32.5705" y2="7.72785" gradientUnits="userSpaceOnUse">
<stop stop-color="#004180"/>
<stop offset="0.327" stop-color="#004683"/>
<stop offset="0.701" stop-color="#00538D"/>
<stop offset="1" stop-color="#006498"/>
</linearGradient>
<linearGradient id="paint4_linear" x1="1.49778" y1="21.5415" x2="32.5705" y2="7.72785" gradientUnits="userSpaceOnUse">
<stop stop-color="#004180"/>
<stop offset="0.327" stop-color="#004683"/>
<stop offset="0.701" stop-color="#00538D"/>
<stop offset="1" stop-color="#006498"/>
</linearGradient>
<linearGradient id="paint5_linear" x1="-2.47705" y1="5.14766" x2="14.273" y2="22.808" gradientUnits="userSpaceOnUse">
<stop stop-color="#F2DD50"/>
<stop offset="0.01" stop-color="#F2DD50"/>
<stop offset="0.372" stop-color="#F0D859"/>
<stop offset="1" stop-color="#F0D75B"/>
</linearGradient>
<linearGradient id="paint6_linear" x1="-0.739138" y1="3.50093" x2="16.0092" y2="21.1596" gradientUnits="userSpaceOnUse">
<stop stop-color="#F2DD50"/>
<stop offset="0.01" stop-color="#F2DD50"/>
<stop offset="0.372" stop-color="#F0D859"/>
<stop offset="1" stop-color="#F0D75B"/>
</linearGradient>
<linearGradient id="paint7_linear" x1="1.24246" y1="1.62035" x2="17.9918" y2="19.28" gradientUnits="userSpaceOnUse">
<stop stop-color="#F2DD50"/>
<stop offset="0.01" stop-color="#F2DD50"/>
<stop offset="0.372" stop-color="#F0D859"/>
<stop offset="1" stop-color="#F0D75B"/>
</linearGradient>
<linearGradient id="paint8_linear" x1="3.00383" y1="-0.0495967" x2="19.7527" y2="17.6096" gradientUnits="userSpaceOnUse">
<stop stop-color="#F2DD50"/>
<stop offset="0.01" stop-color="#F2DD50"/>
<stop offset="0.372" stop-color="#F0D859"/>
<stop offset="1" stop-color="#F0D75B"/>
</linearGradient>
<linearGradient id="paint9_linear" x1="4.68354" y1="-1.64501" x2="21.4335" y2="16.0154" gradientUnits="userSpaceOnUse">
<stop stop-color="#F2DD50"/>
<stop offset="0.01" stop-color="#F2DD50"/>
<stop offset="0.372" stop-color="#F0D859"/>
<stop offset="1" stop-color="#F0D75B"/>
</linearGradient>
<linearGradient id="paint10_linear" x1="6.11529" y1="-3.00477" x2="22.8662" y2="14.6565" gradientUnits="userSpaceOnUse">
<stop stop-color="#F2DD50"/>
<stop offset="0.01" stop-color="#F2DD50"/>
<stop offset="0.372" stop-color="#F0D859"/>
<stop offset="1" stop-color="#F0D75B"/>
</linearGradient>
<linearGradient id="paint11_linear" x1="7.58987" y1="-4.40056" x2="24.3392" y2="13.2591" gradientUnits="userSpaceOnUse">
<stop stop-color="#F2DD50"/>
<stop offset="0.01" stop-color="#F2DD50"/>
<stop offset="0.372" stop-color="#F0D859"/>
<stop offset="1" stop-color="#F0D75B"/>
</linearGradient>
<linearGradient id="paint12_linear" x1="9.63684" y1="-6.34054" x2="26.3853" y2="11.3183" gradientUnits="userSpaceOnUse">
<stop stop-color="#F2DD50"/>
<stop offset="0.01" stop-color="#F2DD50"/>
<stop offset="0.372" stop-color="#F0D859"/>
<stop offset="1" stop-color="#F0D75B"/>
</linearGradient>
</defs>
</svg>
