<svg width="161" height="164" viewBox="0 0 161 164" fill="none" xmlns="http://www.w3.org/2000/svg">
<path d="M123.379 121.34C123.386 124.391 122.64 127.396 121.207 130.09C119.775 132.783 117.699 135.081 115.166 136.78C112.632 138.479 109.718 139.527 106.683 139.831C103.647 140.134 100.584 139.684 97.764 138.52C92.7493 136.387 87.3613 135.27 81.912 135.234L80.4421 135.237C74.8274 135.252 69.2713 136.38 64.0955 138.556C59.9569 140.29 55.3304 140.466 51.0722 139.051C46.8141 137.636 43.2128 134.726 40.935 130.86C38.6572 126.994 37.8571 122.434 38.6828 118.023C39.5086 113.613 41.9043 109.651 45.4264 106.871C51.8886 101.683 56.505 94.5489 58.5901 86.5283C61.0693 77.2377 66.964 67.4462 80.7898 67.4273C94.4734 67.4062 100.394 77.2225 102.953 86.5204C105.193 94.5642 109.914 101.696 116.444 106.9C118.607 108.634 120.354 110.832 121.554 113.331C122.755 115.831 123.378 118.568 123.379 121.34Z" fill="#394C38"/>
<path d="M49.8722 80.6014C49.8573 71.0991 43.5014 63.4059 35.6758 63.4182C27.8503 63.4305 21.5185 71.1436 21.5335 80.6459C21.5484 90.1481 27.9043 97.8412 35.7299 97.8289C43.5554 97.8166 49.8872 90.1036 49.8722 80.6014Z" fill="#394C38"/>
<path d="M76.466 43.1161C76.4511 33.6139 70.0952 25.9207 62.2696 25.933C54.4441 25.9452 48.1123 33.6584 48.1273 43.1606C48.1422 52.6629 54.4982 60.356 62.3237 60.3437C70.1492 60.3314 76.481 52.6184 76.466 43.1161Z" fill="#394C38"/>
<path d="M139.942 80.4595C139.927 70.9573 133.571 63.264 125.745 63.2763C117.92 63.2886 111.588 71.0018 111.603 80.504C111.618 90.0063 117.974 97.6994 125.799 97.6871C133.625 97.6748 139.957 89.9618 139.942 80.4595Z" fill="#394C38"/>
<path d="M113.234 43.0581C113.219 33.5559 106.863 25.8627 99.0379 25.875C91.2123 25.8873 84.8806 33.6004 84.8955 43.1027C84.9104 52.6049 91.2664 60.298 99.0919 60.2857C106.917 60.2734 113.249 52.5604 113.234 43.0581Z" fill="#394C38"/>
</svg>
