<svg width="941" height="382" viewBox="0 0 941 382" fill="none" xmlns="http://www.w3.org/2000/svg">
<path d="M50.8725 179.584C56.5898 179.584 61.2405 180.437 64.8245 182.144C68.4085 183.765 71.6938 185.685 74.6805 187.904C75.7045 188.757 76.5578 189.184 77.2405 189.184C78.8618 189.184 79.9285 186.581 80.4405 181.376H83.3845C83.2138 184.619 83.0858 188.587 83.0005 193.28C82.9152 197.973 82.8725 204.16 82.8725 211.84H79.9285C79.3312 207.232 78.4778 203.093 77.3685 199.424C76.2592 195.755 74.2538 192.64 71.3525 190.08C69.1338 187.691 66.3178 185.856 62.9045 184.576C59.5765 183.211 56.2058 182.528 52.7925 182.528C48.2698 182.528 44.3018 183.723 40.8885 186.112C37.5605 188.416 34.7445 191.616 32.4405 195.712C30.2218 199.723 28.5578 204.416 27.4485 209.792C26.3392 215.083 25.7845 220.757 25.7845 226.816C25.7845 242.176 28.0032 253.44 32.4405 260.608C36.9632 267.691 43.5765 271.232 52.2805 271.232C54.6698 271.232 56.7178 270.933 58.4245 270.336C60.2165 269.653 61.6672 268.971 62.7765 268.288C64.1418 267.349 65.0378 266.368 65.4645 265.344C65.8912 264.32 66.1045 263.04 66.1045 261.504V248.96C66.1045 245.205 65.7632 242.432 65.0805 240.64C64.3978 238.763 63.1178 237.483 61.2405 236.8C59.4485 236.117 56.7605 235.733 53.1765 235.648V233.088C54.8832 233.173 56.8885 233.259 59.1925 233.344C61.5818 233.344 64.0565 233.387 66.6165 233.472C69.2618 233.472 71.6512 233.472 73.7845 233.472C77.1125 233.472 80.1418 233.429 82.8725 233.344C85.6032 233.259 87.8645 233.173 89.6565 233.088V235.648C87.9498 235.733 86.6272 236.032 85.6885 236.544C84.8352 237.056 84.2805 238.08 84.0245 239.616C83.7685 241.152 83.6405 243.499 83.6405 246.656V272H81.0805C80.9952 270.549 80.6538 268.971 80.0565 267.264C79.4592 265.557 78.5632 264.704 77.3685 264.704C76.7712 264.704 76.0885 264.875 75.3205 265.216C74.5525 265.472 73.2298 266.112 71.3525 267.136C68.3658 269.099 65.1658 270.72 61.7525 272C58.4245 273.195 54.7552 273.792 50.7445 273.792C41.1872 273.792 33.0805 272 26.4245 268.416C19.8538 264.747 14.8618 259.499 11.4485 252.672C8.03517 245.76 6.3285 237.525 6.3285 227.968C6.3285 218.155 8.2485 209.621 12.0885 202.368C15.9285 195.115 21.1765 189.525 27.8325 185.6C34.5738 181.589 42.2538 179.584 50.8725 179.584ZM113.683 272.896C110.013 272.896 106.899 272.213 104.339 270.848C101.779 269.397 99.8585 267.477 98.5785 265.088C97.2985 262.613 96.6585 259.883 96.6585 256.896C96.6585 253.227 97.5118 250.24 99.2185 247.936C100.925 245.547 103.101 243.669 105.747 242.304C108.477 240.853 111.336 239.659 114.323 238.72C117.309 237.696 120.125 236.757 122.771 235.904C125.416 234.965 127.592 233.899 129.299 232.704C131.005 231.509 131.859 229.931 131.859 227.968V218.624C131.859 215.893 131.432 213.675 130.579 211.968C129.811 210.176 128.616 208.853 126.995 208C125.459 207.061 123.496 206.592 121.107 206.592C119.315 206.592 117.437 206.848 115.475 207.36C113.512 207.872 111.891 208.853 110.611 210.304C112.829 210.901 114.536 212.011 115.731 213.632C117.011 215.253 117.651 217.216 117.651 219.52C117.651 222.165 116.755 224.256 114.963 225.792C113.256 227.243 111.08 227.968 108.435 227.968C105.619 227.968 103.485 227.072 102.035 225.28C100.584 223.488 99.8585 221.397 99.8585 219.008C99.8585 216.619 100.456 214.656 101.651 213.12C102.845 211.499 104.509 210.048 106.643 208.768C108.776 207.317 111.507 206.165 114.835 205.312C118.163 204.459 121.789 204.032 125.715 204.032C129.469 204.032 132.797 204.459 135.699 205.312C138.6 206.08 141.075 207.488 143.123 209.536C145.171 211.499 146.493 213.931 147.091 216.832C147.688 219.733 147.987 223.275 147.987 227.456V262.528C147.987 264.661 148.243 266.197 148.755 267.136C149.267 267.989 150.077 268.416 151.187 268.416C152.04 268.416 152.851 268.203 153.619 267.776C154.387 267.349 155.24 266.752 156.179 265.984L157.587 268.16C155.709 269.611 153.747 270.763 151.699 271.616C149.651 272.469 147.176 272.896 144.275 272.896C141.288 272.896 138.899 272.469 137.107 271.616C135.4 270.763 134.12 269.525 133.267 267.904C132.499 266.283 132.072 264.363 131.987 262.144C129.939 265.557 127.421 268.203 124.435 270.08C121.448 271.957 117.864 272.896 113.683 272.896ZM121.363 265.728C123.411 265.728 125.288 265.173 126.995 264.064C128.787 262.955 130.408 261.291 131.859 259.072V233.216C131.005 234.496 129.768 235.648 128.147 236.672C126.611 237.696 124.947 238.72 123.155 239.744C121.363 240.768 119.656 241.963 118.035 243.328C116.499 244.608 115.176 246.229 114.067 248.192C113.043 250.069 112.531 252.501 112.531 255.488C112.531 258.816 113.341 261.376 114.963 263.168C116.584 264.875 118.717 265.728 121.363 265.728ZM185.458 184.832V205.952H201.842V208.512H185.458V259.456C185.458 262.528 186.012 264.704 187.122 265.984C188.231 267.264 189.81 267.904 191.858 267.904C193.82 267.904 195.612 267.179 197.234 265.728C198.855 264.192 200.306 261.675 201.586 258.176L203.89 259.2C202.61 263.381 200.604 266.88 197.874 269.696C195.228 272.427 191.474 273.792 186.61 273.792C183.708 273.792 181.234 273.408 179.186 272.64C177.223 271.957 175.516 270.933 174.066 269.568C172.188 267.605 170.908 265.259 170.226 262.528C169.628 259.797 169.33 256.171 169.33 251.648V208.512H158.066V205.952H169.33V188.16C172.402 188.075 175.26 187.776 177.906 187.264C180.551 186.752 183.068 185.941 185.458 184.832ZM238.528 204.032C244.416 204.032 249.621 205.227 254.144 207.616C258.752 209.92 262.378 213.632 265.024 218.752C267.754 223.872 269.12 230.613 269.12 238.976C269.12 247.339 267.754 254.08 265.024 259.2C262.378 264.32 258.752 268.032 254.144 270.336C249.621 272.64 244.416 273.792 238.528 273.792C232.64 273.792 227.392 272.64 222.784 270.336C218.176 268.032 214.549 264.32 211.904 259.2C209.258 254.08 207.936 247.339 207.936 238.976C207.936 230.613 209.258 223.872 211.904 218.752C214.549 213.632 218.176 209.92 222.784 207.616C227.392 205.227 232.64 204.032 238.528 204.032ZM238.528 206.592C234.517 206.592 231.232 209.152 228.672 214.272C226.197 219.307 224.96 227.541 224.96 238.976C224.96 250.411 226.197 258.645 228.672 263.68C231.232 268.715 234.517 271.232 238.528 271.232C242.453 271.232 245.696 268.715 248.256 263.68C250.816 258.645 252.096 250.411 252.096 238.976C252.096 227.541 250.816 219.307 248.256 214.272C245.696 209.152 242.453 206.592 238.528 206.592ZM301.964 204.032C305.548 204.032 308.62 204.544 311.18 205.568C313.74 206.592 315.617 207.488 316.812 208.256C319.713 210.389 321.462 209.024 322.06 204.16H324.876C324.705 206.635 324.577 209.579 324.492 212.992C324.406 216.32 324.364 220.8 324.364 226.432H321.548C321.121 223.275 320.31 220.203 319.116 217.216C317.921 214.229 316.172 211.755 313.868 209.792C311.564 207.744 308.534 206.72 304.78 206.72C302.134 206.72 299.916 207.488 298.124 209.024C296.417 210.56 295.564 212.736 295.564 215.552C295.564 218.112 296.332 220.373 297.868 222.336C299.404 224.213 301.366 226.005 303.756 227.712C306.23 229.333 308.79 231.125 311.436 233.088C314.508 235.136 317.238 237.227 319.628 239.36C322.017 241.408 323.937 243.712 325.388 246.272C326.838 248.747 327.564 251.691 327.564 255.104C327.564 259.029 326.454 262.4 324.236 265.216C322.102 267.947 319.244 270.08 315.66 271.616C312.161 273.067 308.278 273.792 304.012 273.792C301.708 273.792 299.617 273.579 297.74 273.152C295.862 272.725 294.198 272.171 292.748 271.488C291.638 270.891 290.614 270.336 289.676 269.824C288.822 269.312 287.926 268.885 286.988 268.544C286.134 268.117 285.366 268.288 284.684 269.056C284.086 269.824 283.617 271.104 283.276 272.896H280.46C280.63 270.165 280.758 266.837 280.844 262.912C280.929 258.987 280.972 253.781 280.972 247.296H283.788C284.385 251.989 285.281 256.128 286.476 259.712C287.756 263.211 289.59 265.984 291.98 268.032C294.369 269.995 297.441 270.976 301.196 270.976C302.817 270.976 304.353 270.635 305.804 269.952C307.34 269.269 308.577 268.203 309.516 266.752C310.54 265.301 311.052 263.339 311.052 260.864C311.052 257.109 309.772 253.995 307.212 251.52C304.652 249.045 301.452 246.4 297.612 243.584C294.71 241.451 291.98 239.36 289.42 237.312C286.945 235.264 284.897 232.96 283.276 230.4C281.74 227.84 280.972 224.811 280.972 221.312C280.972 217.472 281.953 214.315 283.916 211.84C285.878 209.28 288.438 207.36 291.596 206.08C294.838 204.715 298.294 204.032 301.964 204.032Z" fill="#FFF6EA"/>
<path d="M589.59 184.129C622.114 177.991 659.615 160.164 657.929 144.478C656.243 128.792 615.904 120.697 582.962 122.627C594.338 91.1755 598.349 49.4685 584.062 43.3017C569.776 37.1349 542.227 68.5415 527.091 98.5101C505.951 73.0959 472.394 49.2924 459.771 58.9422C447.149 68.592 459.922 108.051 477.789 135.87C445.264 142.009 407.734 159.824 409.449 175.522C411.164 191.221 451.474 199.302 484.416 197.373C473.002 228.913 469.03 270.531 483.316 276.698C497.603 282.865 525.164 251.429 540.288 221.49C561.427 246.904 594.956 270.695 607.607 261.058C620.259 251.42 607.43 212.008 589.59 184.129Z" fill="#FAC265"/>
<path d="M703.766 204.335L698.083 198.025C698.083 198.025 693.695 189.252 692.854 188.133L691.998 187C691.998 187 689.95 188.989 691.266 194.677C692.032 198.479 692.089 202.391 691.435 206.214C691.435 206.214 682.731 213.723 682.614 214.454C682.552 214.983 682.552 215.518 682.614 216.048C681.878 217.088 681.427 218.303 681.305 219.572C681.254 221.392 681.305 225.252 681.305 225.252C680.586 225.732 680.001 226.386 679.603 227.153C679.205 227.92 679.008 228.775 679.03 229.639C679.089 232.651 682.329 233.565 682.329 233.565C682.329 233.565 682.329 238.113 688.641 238.851C688.641 238.851 679.206 241.637 677.268 245.673L679.206 244.591L676.075 249.482L677.443 248.912C677.443 248.912 673.121 256.808 671.87 259.995C670.619 263.183 670.59 267.826 670.59 267.826H669.127C669.127 267.826 655.077 260.887 651.611 260.039C648.36 259.197 645.171 258.135 642.066 256.859C640.067 255.406 637.863 254.258 635.527 253.452C632.741 252.655 628.645 250.666 625.061 250.776C621.477 250.886 620 254.929 620 255.609C620 256.289 620.856 259.191 622.618 259.586C623.527 259.823 624.467 259.919 625.405 259.871C625.405 259.871 628.331 261.523 630.181 260.785L638.958 265.903L638.504 266.364L641.912 267.826L671.541 289.482L672.682 290.162L672.338 292.209L674.415 289.679L674.042 291.383L675.125 290.535L676.207 293.291L677.173 291.302L677.655 292.691L678.109 291.617L679.389 293.291C679.389 293.291 684.333 292.56 685.415 290.132L693.38 305.969H694.726L693.475 307.431L694.616 308.001L692.422 330.966L687.675 355.561C687.675 355.561 685.43 354.998 684.574 355.305C683.718 355.612 680.917 360.598 680.968 361.534C681.02 362.47 682.278 364.714 683.068 364.912C683.857 365.109 694.389 365.058 694.389 365.058C694.389 365.058 698.251 360.057 698.536 359.034C698.822 358.01 700.131 351.927 700.131 351.927L700.701 352.607L703.144 342.773L704.607 342.32L703.751 341.64L704.607 341.238L709.785 327.88V321.571L711.321 328.882C711.321 328.882 708.505 339.542 708.929 340.39C709.354 341.238 714.305 350.282 714.305 350.282C714.305 350.282 706.991 348.366 706.838 348.323C706.684 348.279 702.705 349.602 702.705 349.602C702.705 349.602 700.913 354.588 701.082 356.08C701.25 357.571 703.042 358.273 703.042 358.273L707.818 358.397C707.818 358.397 703.473 361.892 703.342 362.236C703.21 362.58 703.51 366.879 703.51 366.879C703.51 366.879 705.989 369.269 706.757 369.269H717.077C717.077 369.269 752.045 367.178 754.436 367.01C755.055 367.019 755.662 366.846 756.183 366.512C756.703 366.177 757.113 365.697 757.362 365.131L764.354 365.175C764.354 365.175 784.058 365.35 790.121 366.798C796.184 368.246 811.016 371.916 811.016 371.916C811.016 371.916 802.657 372.252 799.073 371.916C795.489 371.58 787.729 369.401 783.121 372.062C778.514 374.723 781.761 378.818 789.865 379.841C797.969 380.865 822.96 383.497 827.992 380.865C833.024 378.233 830.289 371.229 830.289 371.229L832 372.852C830.212 369.742 827.834 367.01 825.001 364.809L826.712 364.978C826.712 364.978 820.312 360.971 804.449 357.988C788.585 355.005 775.105 353.038 771.69 349.887C768.274 346.736 768.962 341.443 772.889 335.045C776.817 328.648 777.49 309.727 773.569 295.228L775.449 297.422L771.207 284.642L772.575 285.753C772.575 285.753 768.655 269.719 758.188 261.765L760.58 261.874C756.533 259.148 752.316 256.682 747.956 254.49C740.898 250.966 734.192 247.647 728.94 246.63C723.689 245.614 719.271 243.918 719.615 241.41L720.734 240.175L720.778 239.195L723.426 240.094L722.694 238.003L724.354 239.465L723.886 236.614L724.779 237.345L724.047 230.948L725.583 232.352L723.389 225.962L723.945 221.312C725.525 219.206 726.692 216.819 727.382 214.278C728.509 210.096 732.773 204.986 731.829 199.012C731.829 199.012 721.253 206.689 718.869 206.857C716.485 207.025 712.725 207.113 712.725 207.113C710.031 205.424 706.943 204.466 703.766 204.335Z" fill="#394C38"/>
<path d="M442.032 278.869C439.886 272.271 435.612 267.724 426.055 270.749C423.705 271.519 421.447 272.536 419.319 273.784C419.875 271.392 420.167 268.947 420.189 266.494C420.189 256.615 414.49 254 407.45 254C400.409 254 394.71 256.615 394.71 266.494C394.73 268.789 394.991 271.076 395.487 273.319C393.492 272.135 391.378 271.158 389.178 270.403C379.686 267.223 375.3 271.697 373.071 278.258C370.841 284.819 371.479 291.016 380.981 294.16C383.317 294.949 385.734 295.484 388.188 295.755C386.306 297.344 384.6 299.124 383.099 301.068C377.123 309.005 380.12 314.454 385.764 318.582C391.407 322.71 397.578 323.959 403.555 316.022C405.02 314.034 406.261 311.895 407.255 309.643C408.207 311.89 409.405 314.029 410.826 316.022C416.664 324.059 422.854 322.911 428.571 318.883C434.289 314.855 437.406 309.424 431.532 301.432C430.069 299.462 428.394 297.653 426.536 296.037C429.004 295.833 431.442 295.366 433.808 294.643C443.364 291.618 444.151 285.466 442.032 278.869Z" fill="#FFF6EA"/>
<path d="M941 179.492C940.999 177.828 940.663 176.181 940.011 174.651C939.359 173.12 938.404 171.738 937.206 170.586C936.007 169.434 934.588 168.537 933.034 167.948C931.48 167.36 929.824 167.092 928.164 167.16L911.979 167.867L926.342 160.354C927.809 159.579 929.106 158.515 930.153 157.226C931.2 155.937 931.977 154.45 932.437 152.853C932.897 151.257 933.03 149.584 932.829 147.934C932.628 146.285 932.096 144.693 931.266 143.254C930.436 141.811 929.322 140.551 927.993 139.55C926.663 138.55 925.144 137.83 923.529 137.433C921.914 137.037 920.235 136.972 918.594 137.244C916.953 137.515 915.384 138.117 913.982 139.012L900.309 147.71L909.008 134.03C910.641 131.196 911.083 127.828 910.236 124.667C909.389 121.507 907.324 118.813 904.495 117.177C901.665 115.542 898.303 115.1 895.147 115.948C891.992 116.796 889.302 118.865 887.67 121.699L880.168 136.086L880.874 119.874C880.945 118.21 880.679 116.549 880.093 114.991C879.506 113.432 878.611 112.009 877.461 110.807C876.31 109.604 874.929 108.647 873.4 107.992C871.871 107.338 870.226 107.001 868.564 107C866.901 107.001 865.256 107.338 863.727 107.992C862.198 108.647 860.817 109.604 859.667 110.807C858.517 112.009 857.621 113.432 857.035 114.991C856.448 116.549 856.182 118.21 856.253 119.874L856.959 136.086L849.457 121.699C848.649 120.295 847.573 119.065 846.29 118.078C845.007 117.092 843.542 116.368 841.98 115.948C840.418 115.528 838.788 115.421 837.184 115.631C835.58 115.842 834.034 116.368 832.633 117.177C831.231 117.987 830.003 119.065 829.018 120.35C828.033 121.636 827.31 123.103 826.891 124.667C826.472 126.232 826.365 127.865 826.575 129.471C826.786 131.078 827.31 132.627 828.119 134.03L836.802 147.71L823.145 139.012C821.743 138.117 820.174 137.515 818.533 137.244C816.892 136.972 815.213 137.037 813.598 137.433C811.983 137.83 810.464 138.55 809.135 139.55C807.805 140.551 806.691 141.811 805.861 143.254C805.029 144.692 804.495 146.284 804.293 147.934C804.091 149.584 804.223 151.258 804.683 152.855C805.143 154.453 805.921 155.94 806.97 157.229C808.018 158.517 809.316 159.58 810.785 160.354L825.148 167.867L808.963 167.16C807.293 167.074 805.623 167.329 804.054 167.91C802.485 168.49 801.051 169.385 799.838 170.538C798.626 171.692 797.66 173.08 797 174.62C796.34 176.159 796 177.817 796 179.492C796 181.167 796.34 182.825 797 184.364C797.66 185.903 798.626 187.292 799.838 188.445C801.051 189.599 802.485 190.493 804.054 191.074C805.623 191.655 807.293 191.91 808.963 191.823L825.148 191.116L810.785 198.63C809.384 199.44 808.156 200.518 807.171 201.803C806.186 203.088 805.463 204.555 805.044 206.12C804.624 207.685 804.517 209.317 804.728 210.924C804.938 212.53 805.463 214.079 806.271 215.483C807.08 216.886 808.156 218.117 809.439 219.103C810.722 220.09 812.186 220.814 813.749 221.234C815.311 221.654 816.941 221.761 818.544 221.55C820.148 221.339 821.695 220.814 823.096 220.004L836.753 211.29L828.069 224.986C827.261 226.39 826.737 227.939 826.526 229.545C826.315 231.152 826.423 232.784 826.842 234.349C827.261 235.914 827.984 237.381 828.969 238.666C829.954 239.951 831.182 241.029 832.583 241.839C833.984 242.649 835.531 243.174 837.135 243.385C838.739 243.596 840.368 243.488 841.931 243.069C843.493 242.649 844.957 241.925 846.24 240.938C847.523 239.951 848.6 238.721 849.408 237.317L856.909 222.931L856.204 239.143C856.135 240.805 856.403 242.464 856.99 244.021C857.578 245.577 858.474 246.998 859.623 248.199C860.773 249.4 862.154 250.356 863.681 251.009C865.209 251.662 866.853 251.999 868.514 252C870.175 251.999 871.819 251.662 873.347 251.009C874.875 250.356 876.255 249.4 877.405 248.199C878.555 246.998 879.451 245.577 880.038 244.021C880.626 242.464 880.894 240.805 880.825 239.143L880.119 222.931L887.621 237.317C888.429 238.721 889.505 239.951 890.788 240.938C892.071 241.925 893.536 242.649 895.098 243.069C896.66 243.488 898.29 243.596 899.894 243.385C901.498 243.174 903.044 242.649 904.445 241.839C905.846 241.029 907.075 239.951 908.06 238.666C909.045 237.381 909.768 235.914 910.187 234.349C910.606 232.784 910.713 231.152 910.503 229.545C910.292 227.939 909.768 226.39 908.959 224.986L900.26 211.29L913.933 220.004C915.334 220.814 916.88 221.339 918.484 221.55C920.088 221.761 921.718 221.654 923.28 221.234C924.842 220.814 926.307 220.09 927.59 219.103C928.873 218.117 929.949 216.886 930.757 215.483C931.566 214.079 932.09 212.53 932.301 210.924C932.511 209.317 932.404 207.685 931.985 206.12C931.566 204.555 930.843 203.088 929.858 201.803C928.873 200.518 927.645 199.44 926.244 198.63L911.881 191.116L928.065 191.823C929.733 191.906 931.4 191.648 932.966 191.065C934.531 190.483 935.962 189.588 937.172 188.435C938.381 187.281 939.344 185.894 940.002 184.357C940.66 182.82 941 181.164 941 179.492Z" fill="#FFF6EA"/>
</svg>
