<svg width="339" height="312" viewBox="0 0 339 312" fill="none" xmlns="http://www.w3.org/2000/svg">
<path d="M134.369 28.5772L125.314 18.5238C125.314 18.5238 118.322 4.54455 116.981 2.76219L115.618 0.956543C115.618 0.956543 112.355 4.12517 114.453 13.1884C115.672 19.2473 115.763 25.4792 114.721 31.5711C114.721 31.5711 100.853 43.535 100.666 44.6999C100.567 45.5435 100.567 46.3959 100.666 47.2395C99.4935 48.8974 98.7744 50.8331 98.5805 52.8545C98.4989 55.7552 98.5805 61.906 98.5805 61.906C97.4353 62.6706 96.5023 63.7125 95.8686 64.9347C95.2349 66.1569 94.921 67.5195 94.9562 68.8957C95.0494 73.6952 100.212 75.1514 100.212 75.1514C100.212 75.1514 100.212 82.3973 110.269 83.5739C110.269 83.5739 95.2359 88.0123 92.1477 94.4427L95.2359 92.7186L90.2482 100.512L92.4274 99.6034C92.4274 99.6034 85.5401 112.185 83.5474 117.264C81.5546 122.343 81.508 129.74 81.508 129.74H79.1773C79.1773 129.74 56.7908 118.685 51.267 117.334C46.0883 115.992 41.0072 114.299 36.0591 112.266C32.8739 109.952 29.363 108.122 25.6408 106.838C21.2008 105.568 14.6748 102.399 8.96455 102.574C3.2543 102.749 0.900269 109.191 0.900269 110.274C0.900269 111.358 2.26376 115.982 5.07227 116.612C6.5203 116.989 8.01773 117.142 9.51227 117.066C9.51227 117.066 14.1737 119.699 17.122 118.522L31.1063 126.677L30.3838 127.41L35.8144 129.74L83.023 164.246L84.8409 165.329L84.2932 168.591L87.6028 164.56L87.0085 167.275L88.7332 165.923L90.4579 170.315L91.9962 167.146L92.7653 169.36L93.4879 167.647L95.5273 170.315C95.5273 170.315 103.405 169.15 105.13 165.283L117.82 190.515H119.965L117.972 192.845L119.79 193.754L116.294 230.344L108.731 269.533C108.731 269.533 105.153 268.636 103.79 269.125C102.426 269.614 97.9628 277.559 98.0444 279.05C98.126 280.541 100.13 284.118 101.389 284.432C102.648 284.747 119.429 284.665 119.429 284.665C119.429 284.665 125.582 276.697 126.036 275.066C126.491 273.435 128.577 263.743 128.577 263.743L129.486 264.826L133.378 249.158L135.709 248.436L134.345 247.352L135.709 246.712L143.959 225.428V215.375L146.407 227.024C146.407 227.024 141.92 244.009 142.596 245.36C143.272 246.712 151.161 261.122 151.161 261.122C151.161 261.122 139.508 258.07 139.263 258C139.018 257.93 132.679 260.039 132.679 260.039C132.679 260.039 129.824 267.983 130.092 270.36C130.36 272.736 133.215 273.855 133.215 273.855L140.825 274.053C140.825 274.053 133.902 279.621 133.693 280.169C133.483 280.716 133.961 287.566 133.961 287.566C133.961 287.566 137.911 291.375 139.135 291.375H155.578C155.578 291.375 211.294 288.044 215.105 287.776C216.09 287.79 217.058 287.514 217.887 286.981C218.716 286.449 219.37 285.684 219.766 284.782L230.907 284.852C230.907 284.852 262.301 285.131 271.962 287.438C281.623 289.744 305.256 295.592 305.256 295.592C305.256 295.592 291.936 296.128 286.226 295.592C280.516 295.057 268.152 291.585 260.81 295.825C253.468 300.066 258.642 306.589 271.554 308.22C284.467 309.851 324.287 314.045 332.304 309.851C340.322 305.657 335.964 294.497 335.964 294.497L338.691 297.084C335.841 292.128 332.053 287.776 327.538 284.269L330.265 284.537C330.265 284.537 320.068 278.153 294.792 273.4C269.515 268.647 248.037 265.514 242.595 260.493C237.153 255.472 238.248 247.038 244.506 236.845C250.764 226.651 251.837 196.503 245.59 173.402L248.585 176.897L241.826 156.534L244.005 158.305C244.005 158.305 237.759 132.758 221.083 120.083L224.893 120.258C218.445 115.914 211.726 111.985 204.779 108.492C193.534 102.877 182.847 97.5881 174.48 95.9688C166.113 94.3496 159.074 91.6469 159.622 87.6512L161.405 85.6824L161.475 84.1214L165.693 85.5543L164.528 82.2226L167.173 84.5524L166.428 80.0092L167.849 81.1741L166.684 70.9809L169.131 73.2176L165.635 63.036L166.521 55.627C169.039 52.2712 170.897 48.4685 171.998 44.4203C173.793 37.7569 180.587 29.614 179.083 20.0965C179.083 20.0965 162.232 32.3283 158.433 32.5962C154.634 32.8642 148.644 33.004 148.644 33.004C144.352 30.3125 139.431 28.7867 134.369 28.5772Z" fill="#394C38"/>
</svg>
