
<svg width="941" height="382" viewBox="0 0 941 382" fill="none" xmlns="http://www.w3.org/2000/svg">
<path d="M4.858 169.376C6.99133 169.461 9.722 169.547 13.05 169.632C16.378 169.717 19.706 169.76 23.034 169.76C27.2153 169.76 31.1833 169.717 34.938 169.632C38.6927 169.547 41.338 169.504 42.874 169.504C54.3087 169.504 62.7993 171.851 68.346 176.544C73.978 181.237 76.794 187.296 76.794 194.72C76.794 197.792 76.2393 201.035 75.13 204.448C74.0207 207.776 72.1007 210.891 69.37 213.792C66.6393 216.608 62.8847 218.912 58.106 220.704C53.4127 222.496 47.3967 223.392 40.058 223.392H27.258V220.832H38.778C44.154 220.832 48.25 219.68 51.066 217.376C53.9673 215.072 55.8873 212.043 56.826 208.288C57.85 204.533 58.362 200.48 58.362 196.128C58.362 188.021 57.0393 181.963 54.394 177.952C51.7487 173.941 47.1833 171.936 40.698 171.936C37.1993 171.936 34.8953 172.661 33.786 174.112C32.762 175.563 32.25 178.507 32.25 182.944V245.92C32.25 249.163 32.5913 251.595 33.274 253.216C33.9567 254.837 35.2793 255.904 37.242 256.416C39.2047 256.928 42.0207 257.227 45.69 257.312V260C43.2153 259.829 40.0153 259.744 36.09 259.744C32.1647 259.659 28.1113 259.616 23.93 259.616C20.346 259.616 16.89 259.659 13.562 259.744C10.234 259.744 7.33267 259.829 4.858 260V257.44C7.674 257.269 9.76467 256.928 11.13 256.416C12.5807 255.904 13.5193 254.88 13.946 253.344C14.458 251.808 14.714 249.504 14.714 246.432V182.944C14.714 179.787 14.458 177.483 13.946 176.032C13.5193 174.496 12.5807 173.472 11.13 172.96C9.76467 172.363 7.674 172.021 4.858 171.936V169.376ZM113.709 192.032C121.218 192.032 127.106 194.293 131.373 198.816C135.64 203.339 137.773 210.549 137.773 220.448H94.637L94.509 218.016H122.925C123.096 213.835 122.84 209.995 122.157 206.496C121.474 202.912 120.365 200.053 118.829 197.92C117.378 195.787 115.458 194.72 113.069 194.72C109.826 194.72 107.01 196.64 104.621 200.48C102.232 204.235 100.738 210.421 100.141 219.04L100.653 219.808C100.482 220.917 100.354 222.112 100.269 223.392C100.269 224.672 100.269 225.952 100.269 227.232C100.269 233.12 101.122 237.984 102.829 241.824C104.536 245.664 106.754 248.48 109.485 250.272C112.216 252.064 115.032 252.96 117.933 252.96C119.896 252.96 121.901 252.661 123.949 252.064C125.997 251.467 128.002 250.357 129.965 248.736C131.928 247.115 133.72 244.811 135.341 241.824L137.773 242.848C136.834 245.835 135.256 248.821 133.037 251.808C130.904 254.709 128.13 257.099 124.717 258.976C121.304 260.853 117.293 261.792 112.685 261.792C106.882 261.792 101.762 260.512 97.325 257.952C92.8877 255.392 89.4317 251.595 86.957 246.56C84.4823 241.44 83.245 235.211 83.245 227.872C83.245 220.107 84.525 213.579 87.085 208.288C89.7303 202.997 93.357 198.987 97.965 196.256C102.573 193.44 107.821 192.032 113.709 192.032ZM188.074 192.032C190.719 192.032 192.895 192.587 194.602 193.696C196.394 194.805 197.717 196.213 198.57 197.92C199.423 199.627 199.85 201.419 199.85 203.296C199.85 206.112 198.997 208.459 197.29 210.336C195.669 212.213 193.493 213.152 190.762 213.152C188.202 213.152 186.111 212.469 184.49 211.104C182.869 209.739 182.058 207.861 182.058 205.472C182.058 203.339 182.57 201.547 183.594 200.096C184.703 198.645 185.941 197.493 187.306 196.64C186.367 196.128 185.301 195.957 184.106 196.128C182.058 196.299 180.181 197.024 178.474 198.304C176.767 199.584 175.317 201.163 174.122 203.04C172.927 204.917 171.989 206.923 171.306 209.056C170.709 211.189 170.41 213.237 170.41 215.2V246.816C170.41 250.997 171.477 253.813 173.61 255.264C175.743 256.629 178.858 257.312 182.954 257.312V260C180.991 259.915 178.133 259.829 174.378 259.744C170.709 259.573 166.869 259.488 162.858 259.488C159.53 259.488 156.202 259.573 152.874 259.744C149.631 259.829 147.199 259.915 145.578 260V257.312C148.735 257.312 150.954 256.672 152.234 255.392C153.599 254.112 154.282 251.68 154.282 248.096V207.776C154.282 203.936 153.642 201.12 152.362 199.328C151.167 197.451 148.906 196.512 145.578 196.512V193.824C148.309 194.08 150.954 194.208 153.514 194.208C156.671 194.208 159.658 194.08 162.474 193.824C165.375 193.483 168.021 193.013 170.41 192.416V205.728C171.434 203.339 172.757 201.12 174.378 199.072C176.085 197.024 178.09 195.36 180.394 194.08C182.783 192.715 185.343 192.032 188.074 192.032ZM246.824 192.032C249.469 192.032 251.645 192.587 253.352 193.696C255.144 194.805 256.467 196.213 257.32 197.92C258.173 199.627 258.6 201.419 258.6 203.296C258.6 206.112 257.747 208.459 256.04 210.336C254.419 212.213 252.243 213.152 249.512 213.152C246.952 213.152 244.861 212.469 243.24 211.104C241.619 209.739 240.808 207.861 240.808 205.472C240.808 203.339 241.32 201.547 242.344 200.096C243.453 198.645 244.691 197.493 246.056 196.64C245.117 196.128 244.051 195.957 242.856 196.128C240.808 196.299 238.931 197.024 237.224 198.304C235.517 199.584 234.067 201.163 232.872 203.04C231.677 204.917 230.739 206.923 230.056 209.056C229.459 211.189 229.16 213.237 229.16 215.2V246.816C229.16 250.997 230.227 253.813 232.36 255.264C234.493 256.629 237.608 257.312 241.704 257.312V260C239.741 259.915 236.883 259.829 233.128 259.744C229.459 259.573 225.619 259.488 221.608 259.488C218.28 259.488 214.952 259.573 211.624 259.744C208.381 259.829 205.949 259.915 204.328 260V257.312C207.485 257.312 209.704 256.672 210.984 255.392C212.349 254.112 213.032 251.68 213.032 248.096V207.776C213.032 203.936 212.392 201.12 211.112 199.328C209.917 197.451 207.656 196.512 204.328 196.512V193.824C207.059 194.08 209.704 194.208 212.264 194.208C215.421 194.208 218.408 194.08 221.224 193.824C224.125 193.483 226.771 193.013 229.16 192.416V205.728C230.184 203.339 231.507 201.12 233.128 199.072C234.835 197.024 236.84 195.36 239.144 194.08C241.533 192.715 244.093 192.032 246.824 192.032ZM293.59 192.032C299.478 192.032 304.683 193.227 309.206 195.616C313.814 197.92 317.441 201.632 320.086 206.752C322.817 211.872 324.182 218.613 324.182 226.976C324.182 235.339 322.817 242.08 320.086 247.2C317.441 252.32 313.814 256.032 309.206 258.336C304.683 260.64 299.478 261.792 293.59 261.792C287.702 261.792 282.454 260.64 277.846 258.336C273.238 256.032 269.611 252.32 266.966 247.2C264.321 242.08 262.998 235.339 262.998 226.976C262.998 218.613 264.321 211.872 266.966 206.752C269.611 201.632 273.238 197.92 277.846 195.616C282.454 193.227 287.702 192.032 293.59 192.032ZM293.59 194.592C289.579 194.592 286.294 197.152 283.734 202.272C281.259 207.307 280.022 215.541 280.022 226.976C280.022 238.411 281.259 246.645 283.734 251.68C286.294 256.715 289.579 259.232 293.59 259.232C297.515 259.232 300.758 256.715 303.318 251.68C305.878 246.645 307.158 238.411 307.158 226.976C307.158 215.541 305.878 207.307 303.318 202.272C300.758 197.152 297.515 194.592 293.59 194.592ZM357.026 192.032C360.61 192.032 363.682 192.544 366.242 193.568C368.802 194.592 370.679 195.488 371.874 196.256C374.775 198.389 376.525 197.024 377.122 192.16H379.938C379.767 194.635 379.639 197.579 379.554 200.992C379.469 204.32 379.426 208.8 379.426 214.432H376.61C376.183 211.275 375.373 208.203 374.178 205.216C372.983 202.229 371.234 199.755 368.93 197.792C366.626 195.744 363.597 194.72 359.842 194.72C357.197 194.72 354.978 195.488 353.186 197.024C351.479 198.56 350.626 200.736 350.626 203.552C350.626 206.112 351.394 208.373 352.93 210.336C354.466 212.213 356.429 214.005 358.818 215.712C361.293 217.333 363.853 219.125 366.498 221.088C369.57 223.136 372.301 225.227 374.69 227.36C377.079 229.408 378.999 231.712 380.45 234.272C381.901 236.747 382.626 239.691 382.626 243.104C382.626 247.029 381.517 250.4 379.298 253.216C377.165 255.947 374.306 258.08 370.722 259.616C367.223 261.067 363.341 261.792 359.074 261.792C356.77 261.792 354.679 261.579 352.802 261.152C350.925 260.725 349.261 260.171 347.81 259.488C346.701 258.891 345.677 258.336 344.738 257.824C343.885 257.312 342.989 256.885 342.05 256.544C341.197 256.117 340.429 256.288 339.746 257.056C339.149 257.824 338.679 259.104 338.338 260.896H335.522C335.693 258.165 335.821 254.837 335.906 250.912C335.991 246.987 336.034 241.781 336.034 235.296H338.85C339.447 239.989 340.343 244.128 341.538 247.712C342.818 251.211 344.653 253.984 347.042 256.032C349.431 257.995 352.503 258.976 356.258 258.976C357.879 258.976 359.415 258.635 360.866 257.952C362.402 257.269 363.639 256.203 364.578 254.752C365.602 253.301 366.114 251.339 366.114 248.864C366.114 245.109 364.834 241.995 362.274 239.52C359.714 237.045 356.514 234.4 352.674 231.584C349.773 229.451 347.042 227.36 344.482 225.312C342.007 223.264 339.959 220.96 338.338 218.4C336.802 215.84 336.034 212.811 336.034 209.312C336.034 205.472 337.015 202.315 338.978 199.84C340.941 197.28 343.501 195.36 346.658 194.08C349.901 192.715 353.357 192.032 357.026 192.032Z" fill="#FFF6EA"/>
<path d="M494.387 156.726C493.026 152.554 490.317 149.678 484.26 151.591C482.771 152.078 481.34 152.721 479.991 153.51C480.344 151.998 480.528 150.452 480.542 148.9C480.542 142.654 476.93 141 472.468 141C468.006 141 464.394 142.654 464.394 148.9C464.407 150.352 464.572 151.798 464.886 153.217C463.622 152.468 462.282 151.85 460.887 151.373C454.871 149.361 452.092 152.191 450.679 156.34C449.265 160.489 449.67 164.407 455.692 166.395C457.173 166.894 458.704 167.232 460.26 167.404C459.067 168.408 457.986 169.535 457.035 170.763C453.247 175.782 455.147 179.228 458.724 181.839C462.3 184.449 466.212 185.239 469.999 180.22C470.928 178.963 471.715 177.61 472.345 176.186C472.948 177.607 473.707 178.96 474.608 180.22C478.308 185.302 482.231 184.576 485.855 182.029C489.479 179.482 491.455 176.048 487.731 170.994C486.804 169.748 485.743 168.604 484.565 167.582C486.129 167.453 487.674 167.158 489.174 166.701C495.231 164.788 495.729 160.898 494.387 156.726Z" fill="#FFF6EA"/>
<path d="M631.996 279.44C631.862 279.02 631.648 278.631 631.366 278.295C631.128 277.805 630.949 277.289 630.833 276.756C629.984 274.889 628.759 273.222 627.237 271.862C626.549 271.341 625.734 271.016 624.88 270.923C620.175 267.801 616.691 263.561 612.402 260.369C611.279 259.476 610.017 258.779 608.668 258.306C607.511 258.001 606.325 257.82 605.131 257.766C601.877 257.485 598.639 257.08 595.401 256.686C592.584 256.334 589.682 255.956 587.202 254.558C587.805 251.409 588.391 248.427 588.978 245.451C589.113 244.822 589.211 244.186 589.272 243.545C589.372 242.172 589.118 240.797 588.535 239.554C588.469 238.833 588.192 238.149 587.741 237.588C587.33 237.048 586.834 236.578 586.455 236.011C585.388 234.39 585.388 232.349 584.828 230.502C584.135 228.158 582.55 226.181 581.729 223.88C581.078 222.065 580.923 220.099 580.411 218.241C580.257 217.765 580.139 217.278 580.059 216.783C580.024 216.331 580.035 215.877 580.091 215.427C580.215 214.092 580.393 212.765 580.624 211.447C580.746 210.473 580.573 209.484 580.128 208.611C579.673 207.782 579.04 207.066 578.277 206.516C577.858 206.26 577.502 205.911 577.237 205.495C577.13 205.245 577.075 204.976 577.075 204.704C577.075 204.431 577.13 204.162 577.237 203.912C577.298 203.72 577.402 203.544 577.541 203.399C577.745 203.266 577.973 203.176 578.213 203.134C578.452 203.092 578.697 203.1 578.933 203.156C580.55 203.274 582.166 202.92 583.59 202.136C584.572 201.595 585.527 200.828 586.642 200.828C586.982 200.844 587.321 200.883 587.655 200.947C588.861 201.101 590.085 200.914 591.192 200.407C591.347 200.328 591.51 200.265 591.678 200.218C592.045 200.191 592.414 200.191 592.782 200.218C593.694 200.137 594.339 199.3 594.862 198.538C595.15 198.174 595.37 197.761 595.513 197.318C595.564 197.064 595.556 196.801 595.489 196.551C595.423 196.301 595.299 196.069 595.129 195.876C595.3 195.946 595.417 195.698 595.566 195.579C595.716 195.46 596.1 195.536 596.319 195.687C596.537 195.838 596.799 196.032 597.06 195.973C597.169 195.937 597.265 195.87 597.335 195.778C597.406 195.686 597.447 195.576 597.455 195.46C597.463 195.226 597.397 194.995 597.268 194.801C596.977 194.368 596.601 194.001 596.164 193.721C593.742 191.987 590.829 191.107 588.162 189.778C588.605 189.573 589.133 189.384 589.656 189.189C591.72 188.444 593.833 187.661 595.481 186.197C597.289 184.577 598.356 182.325 599.37 180.121C599.86 179.53 600.231 178.847 600.463 178.112C600.709 177.491 600.949 176.875 601.157 176.243C601.273 175.947 601.332 175.632 601.333 175.314C601.331 175.154 601.288 174.998 601.208 174.86C601.129 174.722 601.016 174.606 600.88 174.526C600.474 174.32 599.999 174.558 599.546 174.585C598.596 173.972 597.503 173.624 596.377 173.575C595.291 173.529 594.203 173.572 593.123 173.705L584.279 174.509C583.012 174.51 581.759 174.239 580.603 173.715C579.643 173.273 578.688 172.554 578.469 171.512C578.451 171.339 578.394 171.173 578.304 171.026C578.069 170.745 577.605 170.864 577.274 170.707C576.944 170.551 576.853 170.297 576.613 170.113C576.155 169.866 575.631 169.779 575.119 169.865C573.684 169.865 572.324 169.276 570.937 168.903C568.174 168.152 565.266 168.26 562.402 168.363C560.615 163.923 559.964 159.343 557.931 155.314C557.718 154.834 557.416 154.399 557.04 154.034C556.851 153.854 556.62 153.724 556.369 153.654C556.118 153.584 555.854 153.578 555.6 153.635C554.891 153.84 554.533 154.623 554.299 155.331C553.943 156.357 553.651 157.397 553.424 158.452C552.694 157.38 552.017 156.271 551.397 155.131C551.144 154.649 550.838 154.197 550.484 153.786C550.126 153.373 549.638 153.098 549.103 153.008C548.979 152.988 548.852 153.006 548.74 153.062C548.632 153.151 548.559 153.275 548.532 153.413C548.337 154.342 548.299 155.297 548.42 156.238C548.544 158.507 548.368 160.783 547.897 163.005C547.582 164.496 547.14 165.96 546.916 167.467C546.633 168.973 546.753 170.528 547.262 171.971C546.759 173.02 546.495 174.17 546.489 175.336C546.527 175.796 546.536 176.257 546.516 176.718C546.383 177.512 546.049 178.257 545.545 178.879C545.156 179.304 544.872 179.817 544.718 180.375C544.694 180.664 544.694 180.955 544.718 181.244C544.718 181.92 544.574 182.584 544.531 183.259C544.447 183.936 544.598 184.621 544.958 185.198C541.199 191.069 538.994 197.821 538.556 204.804C538.498 205.819 538.503 206.937 539.133 207.731C539.479 208.163 540.007 208.509 540.071 209.065C540.069 209.408 540.002 209.747 539.874 210.064C539.74 210.591 539.783 211.148 539.997 211.647C539.217 212.744 538.375 213.793 537.473 214.79C536.835 215.58 536.12 216.304 535.34 216.95C534.849 217.334 534.31 217.653 533.83 218.031C533.241 218.557 532.704 219.141 532.23 219.775L530.032 222.476C529.757 222.77 529.546 223.12 529.413 223.502C529.351 224.071 529.375 224.646 529.482 225.209C529.536 226.289 529.002 227.412 529.36 228.449C528.699 232.331 527.054 235.974 524.585 239.019C522.222 242.043 519.315 244.582 516.423 247.12L497.571 263.502C496.338 264.533 495.171 265.642 494.077 266.823C493.218 267.79 492.477 268.843 491.554 269.772C488.964 272.34 485.506 273.813 481.882 273.893C480.455 273.968 479.027 273.744 477.69 273.234C473.897 271.69 471.918 267.374 471.363 263.275C470.883 259.669 471.224 256 472.36 252.548C473.897 248.643 475.177 244.355 475.438 239.964C475.757 235.547 474.859 231.128 472.846 227.196C471.245 228.428 469.304 229.789 467.703 231.015L467.559 230.475L466.578 231.836C466.536 231.916 466.477 231.987 466.407 232.044C466.336 232.101 466.254 232.142 466.167 232.165C466.002 232.165 465.831 232.073 465.666 232.111C465.532 232.163 465.422 232.263 465.356 232.392C464.758 233.316 464.232 234.286 463.782 235.292C463.647 234.924 463.492 234.564 463.318 234.212C461.51 236.451 460.396 239.181 460.118 242.06C459.896 241.844 459.644 241.662 459.371 241.52C458.703 243.563 458.316 245.689 458.219 247.839C457.862 247.563 457.555 247.227 457.312 246.845C457.153 248.033 457.119 249.236 457.21 250.431C456.834 250.418 456.467 250.309 456.143 250.113L456.352 252.17C456.346 252.459 456.445 252.739 456.629 252.959C456.161 252.757 455.711 252.515 455.285 252.235C455.492 253.296 455.908 254.304 456.506 255.2C456.067 255.373 455.593 255.434 455.125 255.379C455.231 256.096 455.593 256.75 456.143 257.215C455.755 257.215 455.367 257.237 454.981 257.28C455.259 258.059 455.687 258.775 456.239 259.386C455.86 259.385 455.482 259.327 455.119 259.213C455.382 260.081 455.751 260.912 456.218 261.687C455.745 261.707 455.272 261.664 454.81 261.557C455.111 262.424 455.561 263.23 456.138 263.939C455.763 264.009 455.38 264.02 455.002 263.971C455.384 264.622 455.822 265.239 456.309 265.813C456.12 265.851 455.942 265.933 455.79 266.052C455.637 266.171 455.513 266.324 455.429 266.499C455.368 266.834 455.418 267.18 455.573 267.482C455.806 268.072 456.075 268.648 456.378 269.205C456.321 269.173 456.259 269.154 456.194 269.148C456.129 269.143 456.064 269.151 456.003 269.172C455.942 269.194 455.886 269.228 455.838 269.273C455.791 269.317 455.753 269.372 455.727 269.432C455.686 269.558 455.673 269.693 455.691 269.825C455.709 269.957 455.756 270.083 455.829 270.193C455.962 270.42 456.154 270.609 456.309 270.825L455.615 270.744C456.375 272.313 457.538 273.645 458.981 274.601C458.438 275.009 457.833 275.327 457.189 275.54C457.908 276.561 458.897 277.355 460.043 277.83C459.609 277.927 459.2 278.111 458.837 278.371C459.76 279.386 460.864 280.217 462.091 280.817C461.643 281.013 461.224 281.273 460.848 281.59C461.694 282.207 462.708 282.543 463.75 282.551C463.503 283.117 463.048 283.562 462.481 283.793C464.331 284.92 466.486 285.426 468.637 285.241L466.503 287.255C467.298 287.719 468.227 287.892 469.133 287.747C468.922 288.13 468.62 288.453 468.253 288.686C469.206 288.896 470.195 288.855 471.128 288.568C470.699 288.892 470.291 289.244 469.907 289.621C470.211 289.907 470.691 289.788 471.091 289.675C471.491 289.561 471.998 289.497 472.243 289.837C472.283 289.922 472.341 289.998 472.414 290.058C472.487 290.099 472.571 290.115 472.654 290.102C473.122 290.091 473.589 290.033 474.046 289.929C474.194 289.881 474.351 289.868 474.505 289.891C474.734 289.939 474.889 290.15 475.092 290.28C475.678 290.658 476.436 290.28 477.023 289.885C476.415 291.23 476.452 292.775 476.457 294.206C476.463 295.638 476.377 297.231 475.481 298.376C474.788 299.056 473.982 299.38 473.459 299.996C472.974 300.666 472.716 301.477 472.723 302.308C472.606 304.398 473.134 306.531 472.643 308.567C472.403 309.556 471.928 310.474 471.63 311.446C471.259 312.408 471.279 313.48 471.683 314.428C471.056 314.868 470.585 315.5 470.339 316.232C470.565 316.08 470.836 316.011 471.107 316.037L470.147 317.355L470.947 317.458L469.245 319.396C469.472 319.305 469.711 319.247 469.955 319.224C469.744 319.709 469.477 320.168 469.16 320.59C469.406 320.401 469.693 320.271 469.997 320.212C469.403 320.816 468.903 321.508 468.514 322.264C468.679 322.206 468.855 322.184 469.03 322.202C469.204 322.22 469.372 322.276 469.522 322.367C469.09 323.334 468.706 324.031 468.359 324.743C468.479 324.648 468.619 324.582 468.768 324.55C468.917 324.518 469.071 324.522 469.218 324.56C468.984 324.981 468.754 325.402 468.52 325.818C468.743 325.861 468.975 325.825 469.176 325.716C468.779 326.278 468.448 326.885 468.189 327.525C468.8 327.405 469.424 327.369 470.045 327.417C467.127 331.111 462.86 332.969 458.624 334.352C457.466 334.73 456.245 335.119 455.423 336.015C454.244 337.274 454.148 339.18 453.972 340.909C453.658 343.847 453.17 346.763 452.511 349.642C452.013 351.557 451.656 353.507 451.444 355.475C451.425 356.86 451.246 358.238 450.91 359.58C450.756 360.12 450.548 360.584 450.377 361.092C450.168 361.751 450.047 362.436 450.019 363.128C449.984 363.338 449.997 363.552 450.057 363.755C450.117 363.959 450.223 364.145 450.366 364.3C450.638 364.522 451.044 364.533 451.3 364.77C451.652 365.1 451.572 365.667 451.694 366.131C451.788 366.42 451.947 366.683 452.158 366.9C452.369 367.116 452.626 367.28 452.911 367.379C453.48 367.57 454.077 367.66 454.676 367.644C456.197 367.626 457.718 367.688 459.232 367.827C459.73 367.911 460.232 367.969 460.736 368C461.451 367.985 462.163 367.925 462.87 367.822C463.646 367.806 464.42 367.72 465.18 367.563C465.561 367.48 465.916 367.305 466.215 367.053C466.514 366.801 466.749 366.479 466.898 366.115C467.469 366.239 467.911 366.337 468.354 366.412C468.424 366.412 468.509 366.412 468.557 366.38C468.605 366.347 468.6 366.223 468.557 366.147C468.258 365.435 467.319 365.305 466.738 364.808C466.242 364.376 466.023 363.69 465.548 363.236C465.151 362.927 464.724 362.659 464.273 362.437C463.937 362.226 463.638 361.967 463.302 361.762C462.033 360.979 460.448 361.054 458.965 361.152C458.851 360.358 458.799 359.556 458.811 358.754C458.893 357.884 459.072 357.027 459.344 356.199C460.16 353.385 461.014 350.495 462.812 348.205C464.136 346.626 465.723 345.294 467.501 344.268C469.506 342.941 471.719 341.967 474.046 341.389C477.61 340.59 481.418 341.184 484.891 340.034C484.64 341.292 483.712 342.14 482.949 343.074C482.187 344.009 481.541 345.235 481.882 346.385C482.051 346.876 482.312 347.329 482.651 347.719C484.87 350.528 487.884 352.548 490.62 354.843C492.797 356.669 494.808 358.694 496.819 360.709C497.398 361.247 497.91 361.855 498.345 362.518C498.665 363.058 498.932 363.69 499.497 363.928C499.856 364.043 500.237 364.067 500.607 363.998L503.877 363.652C504.747 363.794 505.633 363.807 506.507 363.69C506.938 363.593 507.374 363.523 507.814 363.479C508.228 363.499 508.641 363.541 509.051 363.604C510.027 363.695 511.009 363.49 511.991 363.512C512.401 363.552 512.814 363.542 513.223 363.485C513.682 363.388 514.098 363.128 514.562 363.064C515.026 362.999 515.629 363.123 515.949 362.772C516.04 362.663 516.105 362.534 516.136 362.395C516.168 362.256 516.166 362.111 516.13 361.973C516.086 361.763 515.993 361.567 515.86 361.401C515.726 361.235 515.555 361.103 515.362 361.017C515.785 360.956 516.214 360.956 516.637 361.017C516.84 361.044 517.112 361.017 517.133 360.8C517.127 360.744 517.108 360.689 517.078 360.641C517.049 360.592 517.009 360.551 516.962 360.52C516.44 360.074 515.831 359.743 515.175 359.547C514.672 359.444 514.177 359.307 513.692 359.137C512.748 358.732 512.092 357.814 511.11 357.479C510.043 357.106 508.864 357.527 507.808 357.943C506.613 357.943 505.674 357.97 504.73 358.008C504.305 358.055 503.874 358.022 503.461 357.911C503.035 357.737 502.649 357.478 502.324 357.149C500.847 355.815 499.508 354.331 498.329 352.721C497.71 351.878 496.856 350.971 496.643 349.944C496.451 349.077 496.451 348.177 496.643 347.309C497.534 343.458 500.777 340.347 503.925 338.003C506.437 336.134 509.286 334.557 511.041 331.954C511.798 330.836 512.316 329.577 512.967 328.4C514.076 326.396 515.602 324.571 516.167 322.345C516.498 321.06 516.488 319.677 517.016 318.462C517.33 317.749 517.81 317.128 518.083 316.41C518.563 315.216 518.461 313.877 518.349 312.597C518.211 310.976 518.077 309.383 517.938 307.779C518.563 305.856 520.723 305.435 522.297 306.159C522.91 306.434 523.55 306.85 524.196 306.699C524.539 306.56 524.867 306.388 525.177 306.186C525.684 305.937 526.276 305.926 526.81 305.727C528.223 305.186 528.869 303.566 529.349 302.13C529.588 301.559 529.685 300.938 529.632 300.32C529.493 299.505 528.848 298.857 528.65 298.052C530.517 296.383 532.704 294.752 535.244 294.595C536.844 294.493 538.444 295 540.045 294.817C541.421 294.655 542.712 293.99 544.056 293.736C545.401 293.483 546.724 293.655 548.057 293.445C549.962 293.142 551.658 292.105 553.296 291.084C555.568 289.799 557.425 288.886 559.126 287.725C560.428 286.839 561.639 285.819 562.924 284.906C563.89 284.225 564.898 283.604 565.906 282.983L574.084 277.96C574.453 277.713 574.851 277.514 575.269 277.366C575.792 277.236 576.336 277.21 576.869 277.29C579.888 277.614 582.662 279.11 585.634 279.753C587.661 280.191 589.762 280.218 591.795 280.617C594.852 281.217 597.823 282.648 600.922 282.383C601.648 282.756 602.288 282.762 602.747 283.075C603.03 283.324 603.293 283.595 603.536 283.885C603.755 284.092 604.016 284.248 604.301 284.342C604.586 284.435 604.887 284.464 605.185 284.425C605.453 284.356 605.729 284.322 606.006 284.322C606.218 284.363 606.422 284.44 606.609 284.549L608.593 285.575C609.703 286.148 610.85 286.758 611.591 287.768C611.821 288.076 612.002 288.416 612.221 288.724C612.765 289.412 613.407 290.014 614.125 290.512C614.381 291.209 614.739 291.981 615.443 292.229C615.944 292.408 616.51 292.267 617.011 292.429C617.662 292.635 618.078 293.272 618.574 293.731C619.165 294.261 619.919 294.567 620.708 294.595C621.241 294.595 621.738 294.498 622.255 294.498C622.82 294.565 623.391 294.565 623.957 294.498C624.345 294.375 624.72 294.214 625.077 294.017C625.437 293.819 625.856 293.759 626.256 293.85C626.402 293.841 626.548 293.876 626.675 293.95C626.802 294.024 626.904 294.133 626.971 294.266C627.029 294.377 627.103 294.478 627.189 294.568C627.233 294.613 627.289 294.643 627.35 294.655C627.41 294.668 627.473 294.662 627.531 294.638C627.696 294.563 627.712 294.33 627.686 294.147C627.638 293.786 627.541 293.433 627.397 293.099C627.869 293.064 628.341 293.153 628.768 293.358C628.928 293.423 629.147 293.472 629.249 293.326C629.277 293.269 629.292 293.206 629.292 293.142C629.292 293.078 629.277 293.015 629.249 292.959C629.042 292.457 628.796 291.973 628.512 291.511C627.904 289.891 627.232 288.406 626.032 287.406C625.365 286.866 624.565 286.472 623.871 285.943C623.338 285.521 622.847 285.014 622.271 284.62C621.551 284.117 620.719 283.831 619.956 283.399C619.024 282.829 618.159 282.153 617.379 281.384L609.217 273.947C608.431 273.182 607.572 272.498 606.652 271.906C604.8 270.825 602.021 270.35 600.058 269.497C601.083 269.496 602.103 269.348 603.088 269.059C604.078 268.768 605.131 268.783 606.113 269.102C606.635 269.355 607.132 269.659 607.596 270.01C607.548 269.659 607.5 269.313 607.457 268.962C607.759 269.309 608.12 269.599 608.524 269.815C608.791 269.934 609.084 269.988 609.351 270.102C610.204 270.447 610.764 271.295 611.586 271.722C611.709 271.391 611.767 271.039 611.757 270.685C612.861 271.527 613.538 272.802 614.333 273.926C614.368 273.99 614.422 274.041 614.488 274.071C614.574 274.086 614.662 274.071 614.739 274.028L615.907 273.488C616.9 274.088 617.749 274.903 618.393 275.875C618.857 276.626 619.182 277.496 619.897 278.036C620.612 278.576 621.497 278.576 622.175 279.078C622.447 279.3 622.655 279.618 622.922 279.829C623.642 280.455 624.672 280.536 625.621 280.574C626.13 280.616 626.642 280.581 627.141 280.472C627.573 280.353 627.968 280.131 628.39 279.996C628.598 279.914 628.821 279.878 629.044 279.892C629.267 279.906 629.484 279.969 629.681 280.077C630.017 280.299 630.214 280.72 630.587 280.855C630.629 280.876 630.676 280.883 630.722 280.875C630.768 280.867 630.811 280.845 630.844 280.812C630.865 280.753 630.865 280.687 630.844 280.628C630.769 280.22 630.609 279.834 630.374 279.494C630.835 279.422 631.306 279.466 631.745 279.624C631.773 279.638 631.804 279.646 631.836 279.646C631.867 279.646 631.898 279.638 631.926 279.624C631.955 279.603 631.976 279.575 631.988 279.542C632.001 279.51 632.003 279.474 631.996 279.44ZM582.604 190.831C584.129 191.263 585.217 191.685 586.338 191.998C587.058 192.198 587.879 192.435 588.194 193.116L586.684 193.24C586.52 193.265 586.352 193.25 586.194 193.197C585.959 193.094 585.842 192.84 585.703 192.624C585.564 192.408 585.329 192.203 585.084 192.273C584.956 192.331 584.84 192.413 584.743 192.516C584.695 192.568 584.633 192.605 584.565 192.623C584.497 192.64 584.425 192.637 584.359 192.614C584.276 192.556 584.211 192.475 584.172 192.381C584.009 192.099 583.746 191.89 583.436 191.798C583.241 191.765 583.052 191.709 582.87 191.631C582.74 191.551 582.641 191.427 582.592 191.28C582.544 191.134 582.548 190.975 582.604 190.831ZM580.726 190.588C580.807 190.499 580.908 190.43 581.02 190.386C581.131 190.342 581.252 190.324 581.371 190.334C581.388 190.532 581.355 190.731 581.275 190.912C581.237 191.003 581.179 191.085 581.106 191.151C581.034 191.217 580.947 191.267 580.854 191.296C580.817 191.306 580.778 191.306 580.742 191.296C580.712 191.28 580.687 191.258 580.667 191.231C580.609 191.131 580.584 191.014 580.596 190.898C580.609 190.782 580.658 190.673 580.736 190.588H580.726ZM578.987 190.648C579.012 190.587 579.052 190.535 579.104 190.496C579.202 190.408 579.317 190.341 579.442 190.301C579.567 190.261 579.699 190.248 579.83 190.264C579.844 190.379 579.832 190.495 579.794 190.604C579.756 190.712 579.693 190.811 579.611 190.891C579.569 190.928 579.52 190.957 579.467 190.974C579.414 190.991 579.358 190.998 579.302 190.992C579.246 190.986 579.192 190.969 579.144 190.942C579.095 190.914 579.052 190.876 579.019 190.831C578.985 190.777 578.973 190.711 578.987 190.648Z" fill="#394C38"/>
<path d="M738 129.001C738 120.837 729.012 112.318 712.14 114.032C725.282 103.323 725.612 90.9305 719.841 85.1592C714.069 79.3879 701.688 79.7183 690.968 92.8604C692.682 75.9999 684.163 67 675.999 67C667.835 67 659.316 75.9885 661.029 92.8604C650.309 79.7183 637.931 79.3879 632.159 85.1592C626.388 90.9305 626.718 103.312 639.86 114.032C622.986 112.318 614 120.837 614 129.001C614 137.165 622.986 145.682 639.86 143.971C626.718 154.679 626.388 167.069 632.159 172.841C637.931 178.612 650.309 178.282 661.029 165.14C659.316 182 667.837 191 675.999 191C684.16 191 692.682 182.012 690.968 165.14C701.688 178.282 714.067 178.612 719.841 172.841C725.614 167.069 725.282 154.688 712.14 143.971C729.012 145.682 738 137.163 738 129.001Z" fill="#FAC265"/>
<path d="M929 177.992C928.999 176.339 928.665 174.704 928.017 173.184C927.37 171.664 926.422 170.291 925.232 169.148C924.041 168.004 922.632 167.113 921.089 166.528C919.546 165.944 917.901 165.677 916.253 165.746L900.18 166.448L914.443 158.986C915.9 158.216 917.188 157.159 918.228 155.88C919.268 154.6 920.039 153.123 920.496 151.537C920.952 149.952 921.085 148.29 920.885 146.652C920.685 145.014 920.158 143.433 919.333 142.004C918.509 140.571 917.403 139.319 916.082 138.326C914.762 137.332 913.254 136.617 911.65 136.223C910.046 135.83 908.378 135.766 906.749 136.035C905.119 136.305 903.561 136.902 902.168 137.791L888.589 146.429L897.229 132.844C898.85 130.029 899.289 126.684 898.448 123.546C897.607 120.407 895.556 117.731 892.746 116.107C889.936 114.483 886.597 114.044 883.464 114.886C880.33 115.728 877.659 117.783 876.038 120.598L868.588 134.885L869.289 118.785C869.359 117.133 869.095 115.483 868.513 113.936C867.93 112.388 867.041 110.975 865.899 109.78C864.757 108.586 863.385 107.635 861.867 106.986C860.348 106.336 858.714 106.001 857.063 106C855.412 106.001 853.778 106.336 852.26 106.986C850.741 107.635 849.37 108.586 848.228 109.78C847.085 110.975 846.196 112.388 845.614 113.936C845.031 115.483 844.767 117.133 844.837 118.785L845.538 134.885L838.089 120.598C837.286 119.204 836.217 117.982 834.943 117.002C833.669 116.022 832.214 115.303 830.663 114.886C829.111 114.469 827.493 114.362 825.9 114.572C824.307 114.781 822.771 115.303 821.38 116.107C819.989 116.911 818.769 117.982 817.79 119.258C816.812 120.535 816.094 121.991 815.678 123.546C815.262 125.1 815.155 126.721 815.364 128.316C815.574 129.912 816.094 131.45 816.897 132.844L825.52 146.429L811.958 137.791C810.565 136.902 809.007 136.305 807.377 136.035C805.748 135.766 804.081 135.83 802.477 136.223C800.872 136.617 799.365 137.332 798.044 138.326C796.723 139.319 795.617 140.571 794.793 142.004C793.966 143.432 793.437 145.013 793.236 146.652C793.035 148.291 793.167 149.953 793.624 151.539C794.08 153.125 794.853 154.603 795.894 155.882C796.935 157.162 798.224 158.218 799.683 158.986L813.947 166.448L797.874 165.746C796.215 165.66 794.556 165.913 792.998 166.49C791.441 167.066 790.016 167.954 788.812 169.1C787.608 170.246 786.649 171.625 785.993 173.153C785.338 174.682 785 176.328 785 177.992C785 179.655 785.338 181.302 785.993 182.83C786.649 184.359 787.608 185.738 788.812 186.884C790.016 188.029 791.441 188.917 792.998 189.494C794.556 190.071 796.215 190.324 797.874 190.238L813.947 189.536L799.683 196.998C798.292 197.802 797.072 198.873 796.094 200.149C795.115 201.425 794.398 202.882 793.981 204.436C793.565 205.991 793.458 207.612 793.668 209.207C793.877 210.802 794.398 212.341 795.2 213.735C796.003 215.128 797.072 216.35 798.346 217.33C799.62 218.31 801.075 219.029 802.626 219.446C804.178 219.863 805.796 219.97 807.389 219.76C808.982 219.551 810.518 219.029 811.909 218.225L825.472 209.571L816.848 223.172C816.045 224.566 815.525 226.105 815.315 227.7C815.106 229.296 815.213 230.917 815.629 232.471C816.045 234.025 816.763 235.482 817.742 236.758C818.72 238.034 819.94 239.105 821.331 239.909C822.723 240.713 824.258 241.235 825.851 241.444C827.444 241.654 829.062 241.547 830.614 241.13C832.165 240.713 833.62 239.994 834.894 239.014C836.168 238.034 837.237 236.813 838.04 235.419L845.489 221.131L844.788 237.231C844.72 238.882 844.986 240.53 845.57 242.076C846.153 243.621 847.043 245.033 848.185 246.225C849.327 247.418 850.697 248.367 852.215 249.016C853.732 249.664 855.365 249.999 857.014 250C858.664 249.999 860.296 249.664 861.814 249.016C863.331 248.367 864.702 247.418 865.844 246.225C866.986 245.033 867.875 243.621 868.459 242.076C869.042 240.53 869.308 238.882 869.24 237.231L868.539 221.131L875.989 235.419C876.792 236.813 877.86 238.034 879.135 239.014C880.409 239.994 881.863 240.713 883.415 241.13C884.966 241.547 886.585 241.654 888.177 241.444C889.77 241.235 891.306 240.713 892.697 239.909C894.089 239.105 895.309 238.034 896.287 236.758C897.265 235.482 897.983 234.025 898.399 232.471C898.816 230.917 898.922 229.296 898.713 227.7C898.504 226.105 897.983 224.566 897.18 223.172L888.541 209.571L902.119 218.225C903.511 219.029 905.047 219.551 906.64 219.76C908.232 219.97 909.851 219.863 911.402 219.446C912.954 219.029 914.408 218.31 915.682 217.33C916.956 216.35 918.025 215.128 918.828 213.735C919.631 212.341 920.152 210.802 920.361 209.207C920.57 207.612 920.463 205.991 920.047 204.436C919.631 202.882 918.913 201.425 917.935 200.149C916.956 198.873 915.737 197.802 914.345 196.998L900.082 189.536L916.155 190.238C917.811 190.32 919.467 190.064 921.021 189.485C922.576 188.907 923.997 188.018 925.198 186.873C926.399 185.728 927.356 184.35 928.009 182.823C928.663 181.297 929 179.653 929 177.992Z" fill="#FFF6EA"/>
<path d="M768.359 267.323C769.7 264.299 768.301 259.428 757.284 255.859C748.625 253.053 738.89 251.231 733.321 250.63C738.911 250.304 748.755 248.957 757.513 246.589C768.692 243.567 770.331 238.772 769.142 235.685C767.953 232.598 763.517 230.144 753.203 235.411C745.095 239.551 736.919 245.144 732.561 248.657C736.283 244.475 742.292 236.561 746.81 228.693C752.578 218.651 750.346 214.103 747.322 212.762C744.298 211.421 739.427 212.819 735.859 223.836C733.053 232.498 731.231 242.23 730.629 247.801C730.304 242.211 728.957 232.367 726.589 223.607C723.566 212.43 718.771 210.791 715.685 211.98C712.599 213.17 710.143 217.604 715.41 227.917C719.551 236.025 725.144 244.201 728.658 248.561C724.475 244.837 716.562 238.828 708.694 234.31C698.651 228.544 694.103 230.774 692.762 233.798C691.421 236.822 692.82 241.693 703.838 245.262C712.497 248.068 722.231 249.889 727.8 250.492C722.211 250.816 712.366 252.164 703.608 254.533C692.429 257.555 690.79 262.348 691.979 265.435C693.169 268.523 697.604 270.977 707.918 265.71C716.026 261.571 724.203 255.976 728.561 252.464C724.839 256.646 718.829 264.559 714.311 272.428C708.543 282.47 710.775 287.018 713.799 288.359C716.823 289.7 721.694 288.301 725.263 277.284C728.068 268.623 729.89 258.891 730.492 253.32C730.818 258.91 732.163 268.755 734.533 277.514C737.555 288.691 742.35 290.331 745.436 289.14C748.523 287.949 750.979 283.516 745.711 273.204C741.57 265.096 735.977 256.919 732.463 252.56C736.647 256.283 744.559 262.292 752.428 266.81C762.47 272.577 767.018 270.347 768.359 267.323Z" fill="#FFF6EA"/>
</svg>
