<svg width="948" height="307" viewBox="0 0 948 307" fill="none" xmlns="http://www.w3.org/2000/svg">
<path d="M4.858 119.376C6.99133 119.461 9.722 119.547 13.05 119.632C16.378 119.717 19.706 119.76 23.034 119.76C27.2153 119.76 31.1833 119.717 34.938 119.632C38.6927 119.547 41.338 119.504 42.874 119.504C54.3087 119.504 62.7993 121.851 68.346 126.544C73.978 131.237 76.794 137.296 76.794 144.72C76.794 147.792 76.2393 151.035 75.13 154.448C74.0207 157.776 72.1007 160.891 69.37 163.792C66.6393 166.608 62.8847 168.912 58.106 170.704C53.4127 172.496 47.3967 173.392 40.058 173.392H27.258V170.832H38.778C44.154 170.832 48.25 169.68 51.066 167.376C53.9673 165.072 55.8873 162.043 56.826 158.288C57.85 154.533 58.362 150.48 58.362 146.128C58.362 138.021 57.0393 131.963 54.394 127.952C51.7487 123.941 47.1833 121.936 40.698 121.936C37.1993 121.936 34.8953 122.661 33.786 124.112C32.762 125.563 32.25 128.507 32.25 132.944V195.92C32.25 199.163 32.5913 201.595 33.274 203.216C33.9567 204.837 35.2793 205.904 37.242 206.416C39.2047 206.928 42.0207 207.227 45.69 207.312V210C43.2153 209.829 40.0153 209.744 36.09 209.744C32.1647 209.659 28.1113 209.616 23.93 209.616C20.346 209.616 16.89 209.659 13.562 209.744C10.234 209.744 7.33267 209.829 4.858 210V207.44C7.674 207.269 9.76467 206.928 11.13 206.416C12.5807 205.904 13.5193 204.88 13.946 203.344C14.458 201.808 14.714 199.504 14.714 196.432V132.944C14.714 129.787 14.458 127.483 13.946 126.032C13.5193 124.496 12.5807 123.472 11.13 122.96C9.76467 122.363 7.674 122.021 4.858 121.936V119.376ZM113.709 142.032C121.218 142.032 127.106 144.293 131.373 148.816C135.64 153.339 137.773 160.549 137.773 170.448H94.637L94.509 168.016H122.925C123.096 163.835 122.84 159.995 122.157 156.496C121.474 152.912 120.365 150.053 118.829 147.92C117.378 145.787 115.458 144.72 113.069 144.72C109.826 144.72 107.01 146.64 104.621 150.48C102.232 154.235 100.738 160.421 100.141 169.04L100.653 169.808C100.482 170.917 100.354 172.112 100.269 173.392C100.269 174.672 100.269 175.952 100.269 177.232C100.269 183.12 101.122 187.984 102.829 191.824C104.536 195.664 106.754 198.48 109.485 200.272C112.216 202.064 115.032 202.96 117.933 202.96C119.896 202.96 121.901 202.661 123.949 202.064C125.997 201.467 128.002 200.357 129.965 198.736C131.928 197.115 133.72 194.811 135.341 191.824L137.773 192.848C136.834 195.835 135.256 198.821 133.037 201.808C130.904 204.709 128.13 207.099 124.717 208.976C121.304 210.853 117.293 211.792 112.685 211.792C106.882 211.792 101.762 210.512 97.325 207.952C92.8877 205.392 89.4317 201.595 86.957 196.56C84.4823 191.44 83.245 185.211 83.245 177.872C83.245 170.107 84.525 163.579 87.085 158.288C89.7303 152.997 93.357 148.987 97.965 146.256C102.573 143.44 107.821 142.032 113.709 142.032ZM188.074 142.032C190.719 142.032 192.895 142.587 194.602 143.696C196.394 144.805 197.717 146.213 198.57 147.92C199.423 149.627 199.85 151.419 199.85 153.296C199.85 156.112 198.997 158.459 197.29 160.336C195.669 162.213 193.493 163.152 190.762 163.152C188.202 163.152 186.111 162.469 184.49 161.104C182.869 159.739 182.058 157.861 182.058 155.472C182.058 153.339 182.57 151.547 183.594 150.096C184.703 148.645 185.941 147.493 187.306 146.64C186.367 146.128 185.301 145.957 184.106 146.128C182.058 146.299 180.181 147.024 178.474 148.304C176.767 149.584 175.317 151.163 174.122 153.04C172.927 154.917 171.989 156.923 171.306 159.056C170.709 161.189 170.41 163.237 170.41 165.2V196.816C170.41 200.997 171.477 203.813 173.61 205.264C175.743 206.629 178.858 207.312 182.954 207.312V210C180.991 209.915 178.133 209.829 174.378 209.744C170.709 209.573 166.869 209.488 162.858 209.488C159.53 209.488 156.202 209.573 152.874 209.744C149.631 209.829 147.199 209.915 145.578 210V207.312C148.735 207.312 150.954 206.672 152.234 205.392C153.599 204.112 154.282 201.68 154.282 198.096V157.776C154.282 153.936 153.642 151.12 152.362 149.328C151.167 147.451 148.906 146.512 145.578 146.512V143.824C148.309 144.08 150.954 144.208 153.514 144.208C156.671 144.208 159.658 144.08 162.474 143.824C165.375 143.483 168.021 143.013 170.41 142.416V155.728C171.434 153.339 172.757 151.12 174.378 149.072C176.085 147.024 178.09 145.36 180.394 144.08C182.783 142.715 185.343 142.032 188.074 142.032ZM246.824 142.032C249.469 142.032 251.645 142.587 253.352 143.696C255.144 144.805 256.467 146.213 257.32 147.92C258.173 149.627 258.6 151.419 258.6 153.296C258.6 156.112 257.747 158.459 256.04 160.336C254.419 162.213 252.243 163.152 249.512 163.152C246.952 163.152 244.861 162.469 243.24 161.104C241.619 159.739 240.808 157.861 240.808 155.472C240.808 153.339 241.32 151.547 242.344 150.096C243.453 148.645 244.691 147.493 246.056 146.64C245.117 146.128 244.051 145.957 242.856 146.128C240.808 146.299 238.931 147.024 237.224 148.304C235.517 149.584 234.067 151.163 232.872 153.04C231.677 154.917 230.739 156.923 230.056 159.056C229.459 161.189 229.16 163.237 229.16 165.2V196.816C229.16 200.997 230.227 203.813 232.36 205.264C234.493 206.629 237.608 207.312 241.704 207.312V210C239.741 209.915 236.883 209.829 233.128 209.744C229.459 209.573 225.619 209.488 221.608 209.488C218.28 209.488 214.952 209.573 211.624 209.744C208.381 209.829 205.949 209.915 204.328 210V207.312C207.485 207.312 209.704 206.672 210.984 205.392C212.349 204.112 213.032 201.68 213.032 198.096V157.776C213.032 153.936 212.392 151.12 211.112 149.328C209.917 147.451 207.656 146.512 204.328 146.512V143.824C207.059 144.08 209.704 144.208 212.264 144.208C215.421 144.208 218.408 144.08 221.224 143.824C224.125 143.483 226.771 143.013 229.16 142.416V155.728C230.184 153.339 231.507 151.12 233.128 149.072C234.835 147.024 236.84 145.36 239.144 144.08C241.533 142.715 244.093 142.032 246.824 142.032ZM293.59 142.032C299.478 142.032 304.683 143.227 309.206 145.616C313.814 147.92 317.441 151.632 320.086 156.752C322.817 161.872 324.182 168.613 324.182 176.976C324.182 185.339 322.817 192.08 320.086 197.2C317.441 202.32 313.814 206.032 309.206 208.336C304.683 210.64 299.478 211.792 293.59 211.792C287.702 211.792 282.454 210.64 277.846 208.336C273.238 206.032 269.611 202.32 266.966 197.2C264.321 192.08 262.998 185.339 262.998 176.976C262.998 168.613 264.321 161.872 266.966 156.752C269.611 151.632 273.238 147.92 277.846 145.616C282.454 143.227 287.702 142.032 293.59 142.032ZM293.59 144.592C289.579 144.592 286.294 147.152 283.734 152.272C281.259 157.307 280.022 165.541 280.022 176.976C280.022 188.411 281.259 196.645 283.734 201.68C286.294 206.715 289.579 209.232 293.59 209.232C297.515 209.232 300.758 206.715 303.318 201.68C305.878 196.645 307.158 188.411 307.158 176.976C307.158 165.541 305.878 157.307 303.318 152.272C300.758 147.152 297.515 144.592 293.59 144.592ZM357.026 142.032C360.61 142.032 363.682 142.544 366.242 143.568C368.802 144.592 370.679 145.488 371.874 146.256C374.775 148.389 376.525 147.024 377.122 142.16H379.938C379.767 144.635 379.639 147.579 379.554 150.992C379.469 154.32 379.426 158.8 379.426 164.432H376.61C376.183 161.275 375.373 158.203 374.178 155.216C372.983 152.229 371.234 149.755 368.93 147.792C366.626 145.744 363.597 144.72 359.842 144.72C357.197 144.72 354.978 145.488 353.186 147.024C351.479 148.56 350.626 150.736 350.626 153.552C350.626 156.112 351.394 158.373 352.93 160.336C354.466 162.213 356.429 164.005 358.818 165.712C361.293 167.333 363.853 169.125 366.498 171.088C369.57 173.136 372.301 175.227 374.69 177.36C377.079 179.408 378.999 181.712 380.45 184.272C381.901 186.747 382.626 189.691 382.626 193.104C382.626 197.029 381.517 200.4 379.298 203.216C377.165 205.947 374.306 208.08 370.722 209.616C367.223 211.067 363.341 211.792 359.074 211.792C356.77 211.792 354.679 211.579 352.802 211.152C350.925 210.725 349.261 210.171 347.81 209.488C346.701 208.891 345.677 208.336 344.738 207.824C343.885 207.312 342.989 206.885 342.05 206.544C341.197 206.117 340.429 206.288 339.746 207.056C339.149 207.824 338.679 209.104 338.338 210.896H335.522C335.693 208.165 335.821 204.837 335.906 200.912C335.991 196.987 336.034 191.781 336.034 185.296H338.85C339.447 189.989 340.343 194.128 341.538 197.712C342.818 201.211 344.653 203.984 347.042 206.032C349.431 207.995 352.503 208.976 356.258 208.976C357.879 208.976 359.415 208.635 360.866 207.952C362.402 207.269 363.639 206.203 364.578 204.752C365.602 203.301 366.114 201.339 366.114 198.864C366.114 195.109 364.834 191.995 362.274 189.52C359.714 187.045 356.514 184.4 352.674 181.584C349.773 179.451 347.042 177.36 344.482 175.312C342.007 173.264 339.959 170.96 338.338 168.4C336.802 165.84 336.034 162.811 336.034 159.312C336.034 155.472 337.015 152.315 338.978 149.84C340.941 147.28 343.501 145.36 346.658 144.08C349.901 142.715 353.357 142.032 357.026 142.032Z" fill="#FFF6EA"/>
<path d="M494.387 88.7259C493.026 84.5538 490.317 81.6783 484.26 83.5915C482.771 84.078 481.34 84.7214 479.991 85.5104C480.344 83.9977 480.528 82.4521 480.542 80.9004C480.542 74.6538 476.93 73 472.468 73C468.006 73 464.394 74.6538 464.394 80.9004C464.407 82.3519 464.572 83.7983 464.886 85.2165C463.622 84.4677 462.282 83.8497 460.887 83.3725C454.871 81.3614 452.092 84.1908 450.679 88.3398C449.265 92.4888 449.67 96.4073 455.692 98.3954C457.173 98.8943 458.704 99.2325 460.26 99.4038C459.067 100.408 457.986 101.535 457.035 102.763C453.247 107.782 455.147 111.228 458.724 113.839C462.3 116.449 466.212 117.239 469.999 112.22C470.928 110.963 471.715 109.61 472.345 108.186C472.948 109.607 473.707 110.96 474.608 112.22C478.308 117.302 482.231 116.576 485.855 114.029C489.479 111.482 491.455 108.048 487.731 102.994C486.804 101.748 485.743 100.604 484.565 99.5824C486.129 99.4533 487.674 99.1576 489.174 98.7008C495.231 96.7876 495.729 92.8979 494.387 88.7259Z" fill="#FFF6EA"/>
<path d="M631.996 219.264C631.862 218.848 631.648 218.463 631.366 218.129C631.128 217.644 630.949 217.132 630.833 216.604C629.984 214.755 628.759 213.104 627.237 211.757C626.549 211.24 625.734 210.919 624.88 210.826C620.175 207.733 616.691 203.533 612.402 200.37C611.279 199.486 610.017 198.795 608.668 198.326C607.511 198.025 606.326 197.845 605.131 197.791C601.877 197.513 598.639 197.112 595.401 196.721C592.584 196.373 589.682 195.999 587.202 194.613C587.805 191.493 588.391 188.54 588.978 185.591C589.113 184.968 589.211 184.338 589.272 183.703C589.372 182.343 589.118 180.98 588.535 179.748C588.469 179.035 588.192 178.357 587.741 177.801C587.33 177.266 586.834 176.8 586.455 176.238C585.388 174.633 585.388 172.611 584.828 170.781C584.135 168.458 582.55 166.5 581.729 164.221C581.078 162.423 580.923 160.475 580.411 158.634C580.257 158.163 580.139 157.68 580.059 157.19C580.024 156.742 580.035 156.292 580.091 155.847C580.215 154.523 580.393 153.209 580.624 151.903C580.746 150.938 580.573 149.959 580.128 149.094C579.673 148.273 579.04 147.564 578.277 147.018C577.858 146.765 577.502 146.419 577.237 146.007C577.13 145.759 577.075 145.492 577.075 145.223C577.075 144.953 577.13 144.686 577.237 144.439C577.298 144.248 577.402 144.074 577.541 143.931C577.745 143.798 577.973 143.709 578.213 143.668C578.452 143.626 578.697 143.634 578.933 143.69C580.55 143.806 582.166 143.455 583.59 142.678C584.572 142.143 585.527 141.384 586.642 141.384C586.982 141.399 587.321 141.438 587.655 141.501C588.861 141.653 590.085 141.468 591.192 140.966C591.347 140.888 591.51 140.825 591.678 140.779C592.045 140.752 592.414 140.752 592.782 140.779C593.694 140.699 594.339 139.869 594.862 139.115C595.15 138.754 595.37 138.345 595.513 137.906C595.564 137.654 595.556 137.394 595.489 137.146C595.423 136.898 595.299 136.669 595.129 136.477C595.3 136.546 595.417 136.3 595.566 136.183C595.716 136.065 596.1 136.14 596.319 136.29C596.537 136.439 596.799 136.632 597.06 136.573C597.169 136.538 597.265 136.471 597.335 136.38C597.406 136.289 597.447 136.18 597.455 136.065C597.463 135.833 597.397 135.605 597.268 135.412C596.977 134.983 596.601 134.619 596.164 134.342C593.742 132.624 590.829 131.752 588.162 130.436C588.605 130.233 589.133 130.045 589.656 129.853C591.72 129.114 593.833 128.338 595.481 126.888C597.289 125.283 598.356 123.052 599.37 120.869C599.86 120.283 600.231 119.607 600.463 118.878C600.709 118.263 600.949 117.653 601.157 117.027C601.273 116.734 601.332 116.422 601.333 116.107C601.331 115.948 601.288 115.793 601.208 115.656C601.129 115.519 601.016 115.405 600.88 115.325C600.474 115.122 599.999 115.358 599.546 115.384C598.596 114.777 597.503 114.432 596.377 114.384C595.291 114.338 594.203 114.381 593.123 114.512L584.279 115.309C583.012 115.31 581.759 115.042 580.603 114.523C579.643 114.084 578.688 113.372 578.469 112.34C578.451 112.169 578.394 112.004 578.304 111.858C578.069 111.58 577.605 111.698 577.274 111.542C576.944 111.387 576.853 111.136 576.613 110.954C576.155 110.709 575.631 110.623 575.119 110.708C573.684 110.708 572.324 110.124 570.937 109.755C568.174 109.012 565.266 109.119 562.402 109.22C560.615 104.822 559.964 100.284 557.931 96.2928C557.718 95.8167 557.416 95.3861 557.04 95.0247C556.851 94.8462 556.62 94.7168 556.369 94.6478C556.118 94.5788 555.854 94.5723 555.6 94.6287C554.891 94.832 554.533 95.6079 554.299 96.3088C553.943 97.3255 553.651 98.3564 553.424 99.4016C552.694 98.3391 552.017 97.2409 551.397 96.1109C551.144 95.6333 550.838 95.1863 550.484 94.7785C550.126 94.3695 549.638 94.0973 549.103 94.008C548.979 93.9876 548.852 94.0063 548.74 94.0615C548.632 94.1497 548.559 94.2727 548.532 94.4093C548.337 95.3291 548.299 96.2753 548.42 97.2078C548.544 99.456 548.368 101.711 547.897 103.912C547.582 105.389 547.14 106.839 546.916 108.332C546.633 109.824 546.753 111.364 547.262 112.795C546.759 113.834 546.495 114.973 546.489 116.128C546.527 116.584 546.536 117.041 546.516 117.498C546.383 118.284 546.049 119.022 545.545 119.638C545.156 120.059 544.872 120.567 544.718 121.12C544.694 121.407 544.694 121.695 544.718 121.982C544.718 122.651 544.574 123.309 544.531 123.978C544.447 124.648 544.598 125.327 544.958 125.898C541.199 131.715 538.994 138.404 538.556 145.322C538.498 146.328 538.503 147.435 539.133 148.222C539.479 148.65 540.007 148.992 540.071 149.543C540.069 149.883 540.002 150.219 539.874 150.533C539.74 151.055 539.783 151.607 539.997 152.101C539.217 153.188 538.375 154.228 537.473 155.215C536.835 155.998 536.12 156.715 535.34 157.356C534.849 157.735 534.31 158.051 533.83 158.426C533.241 158.947 532.704 159.526 532.23 160.154L530.032 162.829C529.757 163.121 529.546 163.467 529.413 163.846C529.351 164.41 529.375 164.98 529.482 165.537C529.536 166.607 529.002 167.72 529.36 168.747C528.699 172.593 527.054 176.202 524.585 179.219C522.222 182.215 519.315 184.73 516.423 187.245L497.571 203.474C496.338 204.495 495.171 205.594 494.077 206.764C493.218 207.722 492.477 208.766 491.554 209.686C488.964 212.23 485.506 213.69 481.882 213.769C480.455 213.843 479.027 213.621 477.69 213.116C473.897 211.585 471.918 207.31 471.363 203.249C470.883 199.677 471.224 196.042 472.36 192.622C473.897 188.754 475.177 184.505 475.438 180.155C475.757 175.779 474.859 171.401 472.846 167.506C471.245 168.726 469.304 170.074 467.703 171.289L467.559 170.754L466.578 172.102C466.536 172.182 466.477 172.253 466.407 172.309C466.336 172.365 466.254 172.406 466.167 172.429C466.002 172.429 465.831 172.338 465.666 172.375C465.532 172.426 465.422 172.526 465.356 172.653C464.758 173.569 464.232 174.529 463.782 175.527C463.647 175.162 463.492 174.805 463.318 174.457C461.51 176.674 460.396 179.38 460.118 182.231C459.896 182.018 459.644 181.838 459.371 181.696C458.703 183.72 458.316 185.827 458.219 187.957C457.862 187.683 457.555 187.35 457.312 186.972C457.153 188.149 457.119 189.34 457.21 190.525C456.834 190.512 456.467 190.403 456.143 190.209L456.352 192.248C456.346 192.533 456.445 192.811 456.629 193.029C456.161 192.83 455.711 192.59 455.285 192.312C455.492 193.363 455.908 194.362 456.506 195.25C456.067 195.42 455.593 195.481 455.125 195.426C455.231 196.137 455.593 196.784 456.143 197.245C455.755 197.245 455.367 197.267 454.981 197.31C455.259 198.082 455.687 198.791 456.239 199.396C455.86 199.396 455.482 199.338 455.119 199.225C455.382 200.085 455.751 200.908 456.218 201.676C455.745 201.696 455.272 201.653 454.81 201.547C455.111 202.406 455.561 203.205 456.138 203.907C455.763 203.977 455.38 203.987 455.002 203.939C455.384 204.584 455.822 205.194 456.309 205.764C456.12 205.802 455.942 205.883 455.79 206C455.637 206.118 455.513 206.27 455.429 206.443C455.368 206.775 455.418 207.118 455.573 207.417C455.806 208.002 456.075 208.572 456.378 209.124C456.321 209.093 456.259 209.074 456.194 209.068C456.129 209.062 456.064 209.07 456.003 209.092C455.942 209.113 455.886 209.147 455.838 209.191C455.791 209.235 455.753 209.289 455.727 209.349C455.686 209.474 455.673 209.607 455.691 209.738C455.709 209.869 455.756 209.994 455.829 210.103C455.962 210.328 456.154 210.515 456.309 210.729L455.615 210.649C456.375 212.203 457.538 213.522 458.981 214.469C458.438 214.875 457.833 215.189 457.189 215.4C457.908 216.412 458.897 217.198 460.043 217.669C459.609 217.765 459.2 217.947 458.837 218.204C459.76 219.211 460.864 220.033 462.091 220.628C461.643 220.822 461.224 221.08 460.848 221.393C461.694 222.005 462.708 222.338 463.75 222.346C463.503 222.906 463.048 223.348 462.481 223.576C464.331 224.692 466.486 225.194 468.637 225.01L466.503 227.006C467.298 227.466 468.227 227.637 469.133 227.493C468.922 227.873 468.62 228.193 468.253 228.424C469.206 228.632 470.195 228.591 471.128 228.307C470.699 228.628 470.291 228.976 469.907 229.35C470.211 229.633 470.691 229.516 471.091 229.403C471.491 229.291 471.998 229.227 472.243 229.564C472.283 229.649 472.341 229.724 472.414 229.783C472.487 229.824 472.571 229.839 472.654 229.826C473.122 229.816 473.589 229.758 474.046 229.655C474.194 229.608 474.351 229.595 474.505 229.617C474.734 229.666 474.889 229.874 475.092 230.003C475.678 230.377 476.436 230.003 477.023 229.612C476.415 230.944 476.452 232.475 476.457 233.893C476.463 235.311 476.377 236.889 475.481 238.023C474.788 238.698 473.982 239.019 473.459 239.629C472.974 240.292 472.716 241.096 472.723 241.919C472.606 243.99 473.134 246.103 472.643 248.12C472.403 249.1 471.928 250.009 471.63 250.972C471.259 251.926 471.279 252.987 471.683 253.926C471.056 254.362 470.585 254.989 470.339 255.713C470.565 255.563 470.836 255.495 471.107 255.52L470.147 256.826L470.947 256.928L469.245 258.849C469.472 258.758 469.711 258.7 469.955 258.677C469.744 259.159 469.477 259.613 469.16 260.031C469.406 259.843 469.693 259.715 469.997 259.657C469.403 260.255 468.903 260.941 468.514 261.69C468.679 261.632 468.855 261.611 469.03 261.628C469.204 261.646 469.372 261.702 469.522 261.792C469.09 262.749 468.706 263.44 468.359 264.146C468.479 264.051 468.619 263.986 468.768 263.954C468.917 263.923 469.071 263.926 469.218 263.964C468.984 264.381 468.754 264.799 468.52 265.211C468.743 265.253 468.975 265.217 469.176 265.109C468.779 265.666 468.448 266.268 468.189 266.901C468.8 266.783 469.424 266.747 470.045 266.794C467.127 270.454 462.86 272.295 458.624 273.665C457.466 274.039 456.245 274.425 455.423 275.313C454.244 276.56 454.148 278.448 453.972 280.161C453.658 283.071 453.17 285.961 452.511 288.813C452.013 290.71 451.656 292.641 451.444 294.592C451.425 295.963 451.246 297.328 450.91 298.658C450.756 299.193 450.548 299.653 450.377 300.156C450.168 300.81 450.047 301.488 450.019 302.174C449.984 302.381 449.997 302.594 450.057 302.795C450.117 302.996 450.223 303.181 450.366 303.335C450.638 303.554 451.044 303.565 451.3 303.8C451.652 304.127 451.572 304.688 451.694 305.149C451.788 305.435 451.947 305.696 452.158 305.91C452.369 306.125 452.626 306.287 452.911 306.385C453.48 306.574 454.077 306.663 454.676 306.647C456.197 306.63 457.718 306.691 459.232 306.829C459.73 306.912 460.232 306.969 460.736 307C461.451 306.985 462.163 306.926 462.87 306.823C463.646 306.808 464.42 306.722 465.18 306.567C465.561 306.485 465.916 306.312 466.215 306.062C466.514 305.812 466.749 305.493 466.898 305.133C467.469 305.256 467.911 305.352 468.354 305.427C468.424 305.427 468.509 305.427 468.557 305.395C468.605 305.363 468.6 305.24 468.557 305.165C468.258 304.458 467.319 304.33 466.738 303.838C466.242 303.41 466.023 302.73 465.548 302.281C465.151 301.974 464.724 301.709 464.273 301.489C463.937 301.28 463.638 301.023 463.302 300.82C462.033 300.044 460.448 300.119 458.965 300.215C458.851 299.429 458.799 298.634 458.811 297.84C458.893 296.978 459.072 296.129 459.344 295.309C460.16 292.521 461.014 289.658 462.812 287.39C464.136 285.825 465.723 284.505 467.501 283.489C469.506 282.174 471.719 281.209 474.046 280.637C477.61 279.845 481.418 280.434 484.891 279.294C484.64 280.541 483.712 281.381 482.949 282.306C482.187 283.232 481.541 284.447 481.882 285.586C482.051 286.073 482.312 286.522 482.651 286.908C484.87 289.69 487.884 291.692 490.62 293.966C492.797 295.774 494.808 297.781 496.819 299.776C497.398 300.31 497.91 300.912 498.345 301.569C498.665 302.104 498.932 302.73 499.497 302.966C499.856 303.08 500.237 303.104 500.607 303.035L503.877 302.693C504.747 302.833 505.633 302.846 506.507 302.73C506.938 302.634 507.374 302.564 507.814 302.521C508.228 302.541 508.641 302.582 509.051 302.645C510.027 302.735 511.009 302.532 511.991 302.554C512.401 302.593 512.814 302.584 513.223 302.527C513.682 302.43 514.098 302.174 514.562 302.109C515.026 302.045 515.629 302.168 515.949 301.82C516.04 301.713 516.105 301.585 516.136 301.447C516.168 301.309 516.166 301.165 516.13 301.029C516.086 300.821 515.993 300.627 515.86 300.462C515.726 300.298 515.555 300.167 515.362 300.081C515.785 300.021 516.214 300.021 516.637 300.081C516.84 300.108 517.112 300.081 517.133 299.867C517.127 299.811 517.108 299.757 517.078 299.709C517.049 299.661 517.009 299.62 516.962 299.589C516.44 299.147 515.831 298.819 515.175 298.626C514.672 298.524 514.177 298.388 513.692 298.219C512.748 297.818 512.092 296.908 511.11 296.577C510.043 296.208 508.864 296.625 507.808 297.037C506.613 297.037 505.674 297.064 504.73 297.101C504.305 297.147 503.874 297.115 503.461 297.005C503.035 296.833 502.649 296.576 502.324 296.25C500.847 294.928 499.508 293.458 498.329 291.863C497.71 291.028 496.856 290.129 496.643 289.112C496.451 288.253 496.451 287.361 496.643 286.501C497.534 282.686 500.777 279.604 503.925 277.282C506.437 275.431 509.286 273.868 511.041 271.289C511.798 270.181 512.316 268.935 512.967 267.768C514.076 265.783 515.602 263.975 516.167 261.77C516.498 260.497 516.488 259.127 517.016 257.923C517.33 257.217 517.81 256.601 518.083 255.89C518.563 254.707 518.461 253.38 518.349 252.112C518.211 250.507 518.077 248.928 517.938 247.339C518.563 245.434 520.723 245.017 522.297 245.734C522.91 246.007 523.55 246.419 524.196 246.269C524.539 246.132 524.867 245.962 525.177 245.761C525.684 245.515 526.276 245.504 526.81 245.306C528.223 244.771 528.869 243.166 529.349 241.742C529.588 241.177 529.685 240.561 529.632 239.95C529.493 239.142 528.848 238.5 528.65 237.702C530.517 236.049 532.704 234.433 535.244 234.278C536.844 234.176 538.444 234.679 540.045 234.497C541.421 234.337 542.712 233.679 544.056 233.427C545.401 233.176 546.724 233.347 548.057 233.138C549.962 232.839 551.658 231.811 553.296 230.8C555.568 229.527 557.425 228.622 559.126 227.472C560.428 226.594 561.639 225.583 562.924 224.679C563.89 224.005 564.898 223.389 565.906 222.774L574.084 217.798C574.453 217.553 574.851 217.355 575.269 217.209C575.792 217.08 576.336 217.055 576.869 217.134C579.888 217.455 582.662 218.937 585.634 219.574C587.661 220.008 589.762 220.034 591.795 220.43C594.852 221.024 597.823 222.442 600.922 222.18C601.648 222.549 602.288 222.554 602.747 222.865C603.03 223.112 603.293 223.38 603.536 223.667C603.755 223.873 604.016 224.027 604.301 224.12C604.586 224.212 604.887 224.241 605.185 224.202C605.453 224.134 605.729 224.1 606.006 224.101C606.218 224.141 606.422 224.217 606.609 224.326L608.593 225.342C609.703 225.909 610.85 226.514 611.591 227.515C611.821 227.82 612.002 228.157 612.221 228.462C612.765 229.143 613.407 229.74 614.125 230.233C614.381 230.923 614.739 231.688 615.443 231.934C615.944 232.111 616.51 231.972 617.011 232.132C617.662 232.336 618.078 232.967 618.574 233.422C619.165 233.947 619.919 234.25 620.708 234.278C621.241 234.278 621.738 234.182 622.255 234.182C622.82 234.249 623.391 234.249 623.957 234.182C624.345 234.06 624.72 233.9 625.077 233.705C625.437 233.509 625.856 233.45 626.256 233.54C626.402 233.531 626.548 233.565 626.675 233.639C626.802 233.712 626.904 233.821 626.971 233.952C627.029 234.061 627.103 234.162 627.189 234.251C627.233 234.295 627.289 234.325 627.35 234.338C627.41 234.35 627.473 234.344 627.531 234.321C627.696 234.246 627.712 234.016 627.686 233.834C627.638 233.476 627.541 233.127 627.397 232.796C627.869 232.761 628.341 232.849 628.768 233.053C628.928 233.117 629.147 233.165 629.249 233.021C629.277 232.964 629.292 232.902 629.292 232.839C629.292 232.775 629.277 232.713 629.249 232.657C629.042 232.16 628.796 231.68 628.512 231.223C627.904 229.617 627.232 228.146 626.032 227.156C625.365 226.621 624.565 226.23 623.871 225.706C623.338 225.289 622.847 224.786 622.271 224.395C621.551 223.898 620.719 223.614 619.956 223.186C619.024 222.621 618.159 221.952 617.379 221.19L609.217 213.822C608.431 213.064 607.572 212.386 606.652 211.799C604.8 210.729 602.021 210.258 600.058 209.413C601.083 209.412 602.103 209.266 603.088 208.98C604.078 208.691 605.131 208.706 606.113 209.022C606.635 209.273 607.132 209.574 607.596 209.921C607.548 209.574 607.5 209.231 607.457 208.883C607.759 209.227 608.12 209.514 608.524 209.729C608.791 209.846 609.084 209.9 609.351 210.012C610.204 210.355 610.764 211.195 611.586 211.618C611.709 211.29 611.767 210.941 611.757 210.59C612.861 211.425 613.538 212.688 614.333 213.801C614.368 213.864 614.422 213.915 614.488 213.945C614.574 213.96 614.662 213.945 614.739 213.902L615.907 213.367C616.9 213.962 617.749 214.769 618.393 215.732C618.857 216.476 619.182 217.337 619.897 217.873C620.612 218.408 621.497 218.408 622.175 218.905C622.447 219.125 622.655 219.44 622.922 219.649C623.642 220.27 624.672 220.35 625.621 220.387C626.13 220.429 626.642 220.395 627.141 220.286C627.573 220.168 627.968 219.949 628.39 219.815C628.598 219.733 628.821 219.698 629.044 219.712C629.267 219.725 629.484 219.788 629.681 219.895C630.017 220.115 630.214 220.532 630.587 220.666C630.629 220.686 630.676 220.693 630.722 220.685C630.768 220.678 630.811 220.656 630.844 220.623C630.865 220.564 630.865 220.5 630.844 220.441C630.769 220.037 630.609 219.654 630.374 219.317C630.835 219.246 631.306 219.29 631.745 219.446C631.773 219.46 631.804 219.468 631.836 219.468C631.867 219.468 631.898 219.46 631.926 219.446C631.955 219.426 631.976 219.398 631.988 219.365C632.001 219.333 632.003 219.298 631.996 219.264ZM582.604 131.479C584.129 131.907 585.217 132.325 586.338 132.635C587.058 132.833 587.879 133.069 588.194 133.743L586.684 133.866C586.52 133.89 586.352 133.875 586.194 133.823C585.959 133.721 585.842 133.47 585.703 133.256C585.564 133.042 585.329 132.838 585.084 132.908C584.956 132.965 584.84 133.047 584.743 133.149C584.695 133.2 584.633 133.237 584.565 133.254C584.497 133.271 584.425 133.268 584.359 133.245C584.276 133.188 584.211 133.108 584.172 133.015C584.009 132.735 583.746 132.528 583.436 132.437C583.241 132.404 583.052 132.349 582.87 132.271C582.74 132.192 582.641 132.069 582.592 131.924C582.544 131.779 582.548 131.622 582.604 131.479ZM580.726 131.239C580.807 131.15 580.908 131.082 581.02 131.038C581.131 130.994 581.252 130.977 581.371 130.987C581.388 131.183 581.355 131.38 581.275 131.56C581.237 131.65 581.179 131.731 581.106 131.796C581.034 131.862 580.947 131.911 580.854 131.939C580.817 131.95 580.778 131.95 580.742 131.939C580.712 131.924 580.687 131.902 580.667 131.875C580.609 131.776 580.584 131.66 580.596 131.545C580.609 131.431 580.658 131.323 580.736 131.239H580.726ZM578.987 131.297C579.012 131.238 579.052 131.186 579.104 131.148C579.202 131.06 579.317 130.994 579.442 130.954C579.567 130.914 579.699 130.902 579.83 130.917C579.844 131.031 579.832 131.146 579.794 131.254C579.756 131.362 579.693 131.459 579.611 131.538C579.569 131.575 579.52 131.603 579.467 131.621C579.414 131.638 579.358 131.644 579.302 131.639C579.246 131.633 579.192 131.616 579.144 131.589C579.095 131.561 579.052 131.524 579.019 131.479C578.985 131.425 578.973 131.36 578.987 131.297Z" fill="#394C38"/>
<path d="M723 62.0011C723 53.8375 714.012 45.3183 697.14 47.0317C710.282 36.323 710.612 23.9305 704.841 18.1592C699.069 12.3879 686.688 12.7183 675.968 25.8604C677.682 8.99987 669.163 0 660.999 0C652.835 0 644.316 8.98848 646.029 25.8604C635.309 12.7183 622.931 12.3879 617.159 18.1592C611.388 23.9305 611.718 36.3116 624.86 47.0317C607.986 45.3183 599 53.8375 599 62.0011C599 70.1648 607.986 78.6816 624.86 76.9705C611.718 87.6792 611.388 100.069 617.159 105.841C622.931 111.612 635.309 111.282 646.029 98.1396C644.316 115 652.837 124 660.999 124C669.16 124 677.682 115.012 675.968 98.1396C686.688 111.282 699.067 111.612 704.841 105.841C710.614 100.069 710.282 87.6884 697.14 76.9705C714.012 78.6816 723 70.1625 723 62.0011Z" fill="#FAC265"/>
<path d="M948 104.992C947.999 103.339 947.665 101.704 947.017 100.184C946.37 98.6644 945.422 97.2914 944.232 96.1476C943.041 95.0037 941.632 94.1128 940.089 93.5282C938.546 92.9435 936.901 92.6773 935.253 92.7455L919.18 93.4477L933.443 85.9856C934.9 85.2159 936.188 84.1595 937.228 82.8796C938.268 81.5998 939.039 80.1228 939.496 78.5372C939.952 76.9516 940.085 75.29 939.885 73.6519C939.685 72.0139 939.158 70.433 938.333 69.0041C937.509 67.5706 936.403 66.3194 935.082 65.3259C933.762 64.3323 932.254 63.6172 930.65 63.2235C929.046 62.8298 927.378 62.7657 925.749 63.0352C924.119 63.3047 922.561 63.9021 921.168 64.7914L907.589 73.4291L916.229 59.8439C917.85 57.029 918.289 53.6843 917.448 50.5456C916.607 47.4069 914.556 44.7312 911.746 43.1073C908.936 41.4833 905.597 41.0441 902.464 41.8862C899.33 42.7283 896.659 44.7827 895.038 47.5976L887.588 61.8849L888.289 45.7851C888.359 44.1327 888.095 42.4831 887.513 40.9356C886.93 39.3881 886.041 37.9746 884.899 36.7802C883.757 35.5859 882.385 34.6353 880.867 33.9856C879.348 33.336 877.714 33.0007 876.063 33C874.412 33.0007 872.778 33.336 871.26 33.9856C869.741 34.6353 868.37 35.5859 867.228 36.7802C866.085 37.9746 865.196 39.3881 864.614 40.9356C864.031 42.4831 863.767 44.1327 863.837 45.7851L864.538 61.8849L857.089 47.5976C856.286 46.2038 855.217 44.982 853.943 44.0021C852.669 43.0221 851.214 42.3031 849.663 41.8862C848.111 41.4692 846.493 41.3624 844.9 41.572C843.307 41.7815 841.771 42.3032 840.38 43.1073C838.989 43.9114 837.769 44.9821 836.79 46.2584C835.812 47.5347 835.094 48.9915 834.678 50.5456C834.262 52.0997 834.155 53.7208 834.364 55.3162C834.574 56.9116 835.094 58.4501 835.897 59.8439L844.52 73.4291L830.958 64.7914C829.565 63.9021 828.007 63.3047 826.377 63.0352C824.748 62.7657 823.081 62.8298 821.477 63.2235C819.872 63.6172 818.365 64.3323 817.044 65.3259C815.723 66.3194 814.617 67.5706 813.793 69.0041C812.966 70.4324 812.437 72.0134 812.236 73.652C812.035 75.2906 812.167 76.953 812.624 78.5392C813.08 80.1254 813.853 81.6028 814.894 82.8824C815.935 84.1621 817.224 85.2176 818.683 85.9856L832.947 93.4477L816.874 92.7455C815.215 92.6597 813.556 92.9129 811.998 93.4895C810.441 94.0662 809.016 94.9544 807.812 96.1C806.608 97.2456 805.649 98.6247 804.993 100.153C804.338 101.682 804 103.328 804 104.992C804 106.655 804.338 108.302 804.993 109.83C805.649 111.359 806.608 112.738 807.812 113.884C809.016 115.029 810.441 115.917 811.998 116.494C813.556 117.071 815.215 117.324 816.874 117.238L832.947 116.536L818.683 123.998C817.292 124.802 816.072 125.873 815.094 127.149C814.115 128.425 813.398 129.882 812.981 131.436C812.565 132.991 812.458 134.612 812.668 136.207C812.877 137.802 813.398 139.341 814.2 140.735C815.003 142.128 816.072 143.35 817.346 144.33C818.62 145.31 820.075 146.029 821.626 146.446C823.178 146.863 824.796 146.97 826.389 146.76C827.982 146.551 829.518 146.029 830.909 145.225L844.472 136.571L835.848 150.172C835.045 151.566 834.525 153.105 834.315 154.7C834.106 156.296 834.213 157.917 834.629 159.471C835.045 161.025 835.763 162.482 836.742 163.758C837.72 165.034 838.94 166.105 840.331 166.909C841.723 167.713 843.258 168.235 844.851 168.444C846.444 168.654 848.062 168.547 849.614 168.13C851.165 167.713 852.62 166.994 853.894 166.014C855.168 165.034 856.237 163.813 857.04 162.419L864.489 148.131L863.788 164.231C863.72 165.882 863.986 167.53 864.57 169.076C865.153 170.621 866.043 172.033 867.185 173.225C868.327 174.418 869.697 175.367 871.215 176.016C872.732 176.664 874.365 176.999 876.014 177C877.664 176.999 879.296 176.664 880.814 176.016C882.331 175.367 883.702 174.418 884.844 173.225C885.986 172.033 886.875 170.621 887.459 169.076C888.042 167.53 888.308 165.882 888.24 164.231L887.539 148.131L894.989 162.419C895.792 163.813 896.86 165.034 898.135 166.014C899.409 166.994 900.863 167.713 902.415 168.13C903.966 168.547 905.585 168.654 907.177 168.444C908.77 168.235 910.306 167.713 911.697 166.909C913.089 166.105 914.309 165.034 915.287 163.758C916.265 162.482 916.983 161.025 917.399 159.471C917.816 157.917 917.922 156.296 917.713 154.7C917.504 153.105 916.983 151.566 916.18 150.172L907.541 136.571L921.119 145.225C922.511 146.029 924.047 146.551 925.64 146.76C927.232 146.97 928.851 146.863 930.402 146.446C931.954 146.029 933.408 145.31 934.682 144.33C935.956 143.35 937.025 142.128 937.828 140.735C938.631 139.341 939.152 137.802 939.361 136.207C939.57 134.612 939.463 132.991 939.047 131.436C938.631 129.882 937.913 128.425 936.935 127.149C935.956 125.873 934.737 124.802 933.345 123.998L919.082 116.536L935.155 117.238C936.811 117.32 938.467 117.064 940.021 116.485C941.576 115.907 942.997 115.018 944.198 113.873C945.399 112.728 946.356 111.35 947.009 109.823C947.663 108.297 948 106.653 948 104.992Z" fill="#FFF6EA"/>
<path d="M762.359 204.323C763.7 201.299 762.301 196.428 751.283 192.859C742.624 190.053 732.89 188.231 727.32 187.63C732.91 187.304 742.755 185.957 751.513 183.589C762.692 180.567 764.331 175.772 763.142 172.685C761.952 169.598 757.517 167.144 747.203 172.411C739.095 176.551 730.918 182.144 726.561 185.657C730.282 181.475 736.292 173.561 740.81 165.693C746.578 155.651 744.346 151.103 741.322 149.762C738.298 148.421 733.427 149.819 729.858 160.836C727.053 169.498 725.231 179.23 724.629 184.801C724.303 179.211 722.957 169.367 720.588 160.607C717.566 149.43 712.771 147.791 709.685 148.98C706.599 150.17 704.142 154.604 709.41 164.917C713.551 173.025 719.144 181.201 722.658 185.561C718.474 181.837 710.562 175.828 702.693 171.31C692.651 165.544 688.103 167.774 686.762 170.798C685.421 173.822 686.82 178.693 697.837 182.262C706.496 185.068 716.231 186.889 721.8 187.492C716.21 187.816 706.366 189.164 697.607 191.533C686.428 194.555 684.79 199.348 685.979 202.435C687.168 205.523 691.604 207.977 701.918 202.71C710.025 198.571 718.202 192.976 722.561 189.464C718.838 193.646 712.829 201.559 708.311 209.428C702.543 219.47 704.775 224.018 707.799 225.359C710.823 226.7 715.694 225.301 719.262 214.284C722.068 205.623 723.89 195.891 724.492 190.32C724.817 195.91 726.163 205.755 728.532 214.514C731.555 225.691 736.349 227.331 739.436 226.14C742.522 224.949 744.978 220.516 739.711 210.204C735.57 202.096 729.977 193.919 726.463 189.56C730.646 193.283 738.559 199.292 746.427 203.81C756.47 209.577 761.018 207.347 762.359 204.323Z" fill="#FFF6EA"/>
</svg>
