<svg width="951" height="307" viewBox="0 0 951 307" fill="none" xmlns="http://www.w3.org/2000/svg">
<path d="M4.858 110.376C6.99133 110.461 9.722 110.547 13.05 110.632C16.378 110.717 19.706 110.76 23.034 110.76C27.2153 110.76 31.1833 110.717 34.938 110.632C38.6927 110.547 41.338 110.504 42.874 110.504C54.3087 110.504 62.7993 112.851 68.346 117.544C73.978 122.237 76.794 128.296 76.794 135.72C76.794 138.792 76.2393 142.035 75.13 145.448C74.0207 148.776 72.1007 151.891 69.37 154.792C66.6393 157.608 62.8847 159.912 58.106 161.704C53.4127 163.496 47.3967 164.392 40.058 164.392H27.258V161.832H38.778C44.154 161.832 48.25 160.68 51.066 158.376C53.9673 156.072 55.8873 153.043 56.826 149.288C57.85 145.533 58.362 141.48 58.362 137.128C58.362 129.021 57.0393 122.963 54.394 118.952C51.7487 114.941 47.1833 112.936 40.698 112.936C37.1993 112.936 34.8953 113.661 33.786 115.112C32.762 116.563 32.25 119.507 32.25 123.944V186.92C32.25 190.163 32.5913 192.595 33.274 194.216C33.9567 195.837 35.2793 196.904 37.242 197.416C39.2047 197.928 42.0207 198.227 45.69 198.312V201C43.2153 200.829 40.0153 200.744 36.09 200.744C32.1647 200.659 28.1113 200.616 23.93 200.616C20.346 200.616 16.89 200.659 13.562 200.744C10.234 200.744 7.33267 200.829 4.858 201V198.44C7.674 198.269 9.76467 197.928 11.13 197.416C12.5807 196.904 13.5193 195.88 13.946 194.344C14.458 192.808 14.714 190.504 14.714 187.432V123.944C14.714 120.787 14.458 118.483 13.946 117.032C13.5193 115.496 12.5807 114.472 11.13 113.96C9.76467 113.363 7.674 113.021 4.858 112.936V110.376ZM113.709 133.032C121.218 133.032 127.106 135.293 131.373 139.816C135.64 144.339 137.773 151.549 137.773 161.448H94.637L94.509 159.016H122.925C123.096 154.835 122.84 150.995 122.157 147.496C121.474 143.912 120.365 141.053 118.829 138.92C117.378 136.787 115.458 135.72 113.069 135.72C109.826 135.72 107.01 137.64 104.621 141.48C102.232 145.235 100.738 151.421 100.141 160.04L100.653 160.808C100.482 161.917 100.354 163.112 100.269 164.392C100.269 165.672 100.269 166.952 100.269 168.232C100.269 174.12 101.122 178.984 102.829 182.824C104.536 186.664 106.754 189.48 109.485 191.272C112.216 193.064 115.032 193.96 117.933 193.96C119.896 193.96 121.901 193.661 123.949 193.064C125.997 192.467 128.002 191.357 129.965 189.736C131.928 188.115 133.72 185.811 135.341 182.824L137.773 183.848C136.834 186.835 135.256 189.821 133.037 192.808C130.904 195.709 128.13 198.099 124.717 199.976C121.304 201.853 117.293 202.792 112.685 202.792C106.882 202.792 101.762 201.512 97.325 198.952C92.8877 196.392 89.4317 192.595 86.957 187.56C84.4823 182.44 83.245 176.211 83.245 168.872C83.245 161.107 84.525 154.579 87.085 149.288C89.7303 143.997 93.357 139.987 97.965 137.256C102.573 134.44 107.821 133.032 113.709 133.032ZM188.074 133.032C190.719 133.032 192.895 133.587 194.602 134.696C196.394 135.805 197.717 137.213 198.57 138.92C199.423 140.627 199.85 142.419 199.85 144.296C199.85 147.112 198.997 149.459 197.29 151.336C195.669 153.213 193.493 154.152 190.762 154.152C188.202 154.152 186.111 153.469 184.49 152.104C182.869 150.739 182.058 148.861 182.058 146.472C182.058 144.339 182.57 142.547 183.594 141.096C184.703 139.645 185.941 138.493 187.306 137.64C186.367 137.128 185.301 136.957 184.106 137.128C182.058 137.299 180.181 138.024 178.474 139.304C176.767 140.584 175.317 142.163 174.122 144.04C172.927 145.917 171.989 147.923 171.306 150.056C170.709 152.189 170.41 154.237 170.41 156.2V187.816C170.41 191.997 171.477 194.813 173.61 196.264C175.743 197.629 178.858 198.312 182.954 198.312V201C180.991 200.915 178.133 200.829 174.378 200.744C170.709 200.573 166.869 200.488 162.858 200.488C159.53 200.488 156.202 200.573 152.874 200.744C149.631 200.829 147.199 200.915 145.578 201V198.312C148.735 198.312 150.954 197.672 152.234 196.392C153.599 195.112 154.282 192.68 154.282 189.096V148.776C154.282 144.936 153.642 142.12 152.362 140.328C151.167 138.451 148.906 137.512 145.578 137.512V134.824C148.309 135.08 150.954 135.208 153.514 135.208C156.671 135.208 159.658 135.08 162.474 134.824C165.375 134.483 168.021 134.013 170.41 133.416V146.728C171.434 144.339 172.757 142.12 174.378 140.072C176.085 138.024 178.09 136.36 180.394 135.08C182.783 133.715 185.343 133.032 188.074 133.032ZM246.824 133.032C249.469 133.032 251.645 133.587 253.352 134.696C255.144 135.805 256.467 137.213 257.32 138.92C258.173 140.627 258.6 142.419 258.6 144.296C258.6 147.112 257.747 149.459 256.04 151.336C254.419 153.213 252.243 154.152 249.512 154.152C246.952 154.152 244.861 153.469 243.24 152.104C241.619 150.739 240.808 148.861 240.808 146.472C240.808 144.339 241.32 142.547 242.344 141.096C243.453 139.645 244.691 138.493 246.056 137.64C245.117 137.128 244.051 136.957 242.856 137.128C240.808 137.299 238.931 138.024 237.224 139.304C235.517 140.584 234.067 142.163 232.872 144.04C231.677 145.917 230.739 147.923 230.056 150.056C229.459 152.189 229.16 154.237 229.16 156.2V187.816C229.16 191.997 230.227 194.813 232.36 196.264C234.493 197.629 237.608 198.312 241.704 198.312V201C239.741 200.915 236.883 200.829 233.128 200.744C229.459 200.573 225.619 200.488 221.608 200.488C218.28 200.488 214.952 200.573 211.624 200.744C208.381 200.829 205.949 200.915 204.328 201V198.312C207.485 198.312 209.704 197.672 210.984 196.392C212.349 195.112 213.032 192.68 213.032 189.096V148.776C213.032 144.936 212.392 142.12 211.112 140.328C209.917 138.451 207.656 137.512 204.328 137.512V134.824C207.059 135.08 209.704 135.208 212.264 135.208C215.421 135.208 218.408 135.08 221.224 134.824C224.125 134.483 226.771 134.013 229.16 133.416V146.728C230.184 144.339 231.507 142.12 233.128 140.072C234.835 138.024 236.84 136.36 239.144 135.08C241.533 133.715 244.093 133.032 246.824 133.032ZM293.59 133.032C299.478 133.032 304.683 134.227 309.206 136.616C313.814 138.92 317.441 142.632 320.086 147.752C322.817 152.872 324.182 159.613 324.182 167.976C324.182 176.339 322.817 183.08 320.086 188.2C317.441 193.32 313.814 197.032 309.206 199.336C304.683 201.64 299.478 202.792 293.59 202.792C287.702 202.792 282.454 201.64 277.846 199.336C273.238 197.032 269.611 193.32 266.966 188.2C264.321 183.08 262.998 176.339 262.998 167.976C262.998 159.613 264.321 152.872 266.966 147.752C269.611 142.632 273.238 138.92 277.846 136.616C282.454 134.227 287.702 133.032 293.59 133.032ZM293.59 135.592C289.579 135.592 286.294 138.152 283.734 143.272C281.259 148.307 280.022 156.541 280.022 167.976C280.022 179.411 281.259 187.645 283.734 192.68C286.294 197.715 289.579 200.232 293.59 200.232C297.515 200.232 300.758 197.715 303.318 192.68C305.878 187.645 307.158 179.411 307.158 167.976C307.158 156.541 305.878 148.307 303.318 143.272C300.758 138.152 297.515 135.592 293.59 135.592ZM357.026 133.032C360.61 133.032 363.682 133.544 366.242 134.568C368.802 135.592 370.679 136.488 371.874 137.256C374.775 139.389 376.525 138.024 377.122 133.16H379.938C379.767 135.635 379.639 138.579 379.554 141.992C379.469 145.32 379.426 149.8 379.426 155.432H376.61C376.183 152.275 375.373 149.203 374.178 146.216C372.983 143.229 371.234 140.755 368.93 138.792C366.626 136.744 363.597 135.72 359.842 135.72C357.197 135.72 354.978 136.488 353.186 138.024C351.479 139.56 350.626 141.736 350.626 144.552C350.626 147.112 351.394 149.373 352.93 151.336C354.466 153.213 356.429 155.005 358.818 156.712C361.293 158.333 363.853 160.125 366.498 162.088C369.57 164.136 372.301 166.227 374.69 168.36C377.079 170.408 378.999 172.712 380.45 175.272C381.901 177.747 382.626 180.691 382.626 184.104C382.626 188.029 381.517 191.4 379.298 194.216C377.165 196.947 374.306 199.08 370.722 200.616C367.223 202.067 363.341 202.792 359.074 202.792C356.77 202.792 354.679 202.579 352.802 202.152C350.925 201.725 349.261 201.171 347.81 200.488C346.701 199.891 345.677 199.336 344.738 198.824C343.885 198.312 342.989 197.885 342.05 197.544C341.197 197.117 340.429 197.288 339.746 198.056C339.149 198.824 338.679 200.104 338.338 201.896H335.522C335.693 199.165 335.821 195.837 335.906 191.912C335.991 187.987 336.034 182.781 336.034 176.296H338.85C339.447 180.989 340.343 185.128 341.538 188.712C342.818 192.211 344.653 194.984 347.042 197.032C349.431 198.995 352.503 199.976 356.258 199.976C357.879 199.976 359.415 199.635 360.866 198.952C362.402 198.269 363.639 197.203 364.578 195.752C365.602 194.301 366.114 192.339 366.114 189.864C366.114 186.109 364.834 182.995 362.274 180.52C359.714 178.045 356.514 175.4 352.674 172.584C349.773 170.451 347.042 168.36 344.482 166.312C342.007 164.264 339.959 161.96 338.338 159.4C336.802 156.84 336.034 153.811 336.034 150.312C336.034 146.472 337.015 143.315 338.978 140.84C340.941 138.28 343.501 136.36 346.658 135.08C349.901 133.715 353.357 133.032 357.026 133.032Z" fill="#FFF6EA"/>
<path d="M497.387 88.7259C496.026 84.5538 493.317 81.6783 487.26 83.5915C485.771 84.078 484.34 84.7214 482.991 85.5104C483.344 83.9977 483.528 82.4521 483.542 80.9004C483.542 74.6538 479.93 73 475.468 73C471.006 73 467.394 74.6538 467.394 80.9004C467.407 82.3519 467.572 83.7983 467.886 85.2165C466.622 84.4677 465.282 83.8497 463.887 83.3725C457.871 81.3614 455.092 84.1908 453.679 88.3398C452.265 92.4888 452.67 96.4073 458.692 98.3954C460.173 98.8943 461.704 99.2325 463.26 99.4038C462.067 100.408 460.986 101.535 460.035 102.763C456.247 107.782 458.147 111.228 461.724 113.839C465.3 116.449 469.212 117.239 472.999 112.22C473.928 110.963 474.715 109.61 475.345 108.186C475.948 109.607 476.707 110.96 477.608 112.22C481.308 117.302 485.231 116.576 488.855 114.029C492.479 111.482 494.455 108.048 490.731 102.994C489.804 101.748 488.743 100.604 487.565 99.5824C489.129 99.4533 490.674 99.1576 492.174 98.7008C498.231 96.7876 498.729 92.8979 497.387 88.7259Z" fill="#FFF6EA"/>
<path d="M634.996 219.264C634.862 218.848 634.648 218.463 634.366 218.129C634.128 217.644 633.949 217.132 633.833 216.604C632.984 214.755 631.759 213.104 630.237 211.757C629.549 211.24 628.734 210.919 627.88 210.826C623.175 207.733 619.691 203.533 615.402 200.37C614.279 199.486 613.017 198.795 611.668 198.326C610.511 198.025 609.325 197.845 608.131 197.791C604.877 197.513 601.639 197.112 598.401 196.721C595.584 196.373 592.682 195.999 590.202 194.613C590.805 191.493 591.391 188.54 591.978 185.591C592.113 184.968 592.211 184.338 592.272 183.703C592.372 182.343 592.118 180.98 591.535 179.748C591.469 179.035 591.192 178.357 590.741 177.801C590.33 177.266 589.834 176.8 589.455 176.238C588.388 174.633 588.388 172.611 587.828 170.781C587.135 168.458 585.55 166.5 584.729 164.221C584.078 162.423 583.923 160.475 583.411 158.634C583.257 158.163 583.139 157.68 583.059 157.19C583.024 156.742 583.035 156.292 583.091 155.847C583.215 154.523 583.393 153.209 583.624 151.903C583.746 150.938 583.573 149.959 583.128 149.094C582.673 148.273 582.04 147.564 581.277 147.018C580.858 146.765 580.502 146.419 580.237 146.007C580.13 145.759 580.075 145.492 580.075 145.223C580.075 144.953 580.13 144.686 580.237 144.439C580.298 144.248 580.402 144.074 580.541 143.931C580.745 143.798 580.973 143.709 581.213 143.668C581.452 143.626 581.697 143.634 581.933 143.69C583.55 143.806 585.166 143.455 586.59 142.678C587.572 142.143 588.527 141.384 589.642 141.384C589.982 141.399 590.321 141.438 590.655 141.501C591.861 141.653 593.085 141.468 594.192 140.966C594.347 140.888 594.51 140.825 594.678 140.779C595.045 140.752 595.414 140.752 595.782 140.779C596.694 140.699 597.339 139.869 597.862 139.115C598.15 138.754 598.37 138.345 598.513 137.906C598.564 137.654 598.556 137.394 598.489 137.146C598.423 136.898 598.299 136.669 598.129 136.477C598.3 136.546 598.417 136.3 598.566 136.183C598.716 136.065 599.1 136.14 599.319 136.29C599.537 136.439 599.799 136.632 600.06 136.573C600.169 136.538 600.265 136.471 600.335 136.38C600.406 136.289 600.447 136.18 600.455 136.065C600.463 135.833 600.397 135.605 600.268 135.412C599.977 134.983 599.601 134.619 599.164 134.342C596.742 132.624 593.829 131.752 591.162 130.436C591.605 130.233 592.133 130.045 592.656 129.853C594.72 129.114 596.833 128.338 598.481 126.888C600.289 125.283 601.356 123.052 602.37 120.869C602.86 120.283 603.231 119.607 603.463 118.878C603.709 118.263 603.949 117.653 604.157 117.027C604.273 116.734 604.332 116.422 604.333 116.107C604.331 115.948 604.288 115.793 604.208 115.656C604.129 115.519 604.016 115.405 603.88 115.325C603.474 115.122 602.999 115.358 602.546 115.384C601.596 114.777 600.503 114.432 599.377 114.384C598.291 114.338 597.203 114.381 596.123 114.512L587.279 115.309C586.012 115.31 584.759 115.042 583.603 114.523C582.643 114.084 581.688 113.372 581.469 112.34C581.451 112.169 581.394 112.004 581.304 111.858C581.069 111.58 580.605 111.698 580.274 111.542C579.944 111.387 579.853 111.136 579.613 110.954C579.155 110.709 578.631 110.623 578.119 110.708C576.684 110.708 575.324 110.124 573.937 109.755C571.174 109.012 568.266 109.119 565.402 109.22C563.615 104.822 562.964 100.284 560.931 96.2928C560.718 95.8167 560.416 95.3861 560.04 95.0247C559.851 94.8462 559.62 94.7168 559.369 94.6478C559.118 94.5788 558.854 94.5723 558.6 94.6287C557.891 94.832 557.533 95.6079 557.299 96.3088C556.943 97.3255 556.651 98.3564 556.424 99.4016C555.694 98.3391 555.017 97.2409 554.397 96.1109C554.144 95.6333 553.838 95.1863 553.484 94.7785C553.126 94.3695 552.638 94.0973 552.103 94.008C551.979 93.9876 551.852 94.0063 551.74 94.0615C551.632 94.1497 551.559 94.2727 551.532 94.4093C551.337 95.3291 551.299 96.2753 551.42 97.2078C551.544 99.456 551.368 101.711 550.897 103.912C550.582 105.389 550.14 106.839 549.916 108.332C549.633 109.824 549.753 111.364 550.262 112.795C549.759 113.834 549.495 114.973 549.489 116.128C549.527 116.584 549.536 117.041 549.516 117.498C549.383 118.284 549.049 119.022 548.545 119.638C548.156 120.059 547.872 120.567 547.718 121.12C547.694 121.407 547.694 121.695 547.718 121.982C547.718 122.651 547.574 123.309 547.531 123.978C547.447 124.648 547.598 125.327 547.958 125.898C544.199 131.715 541.994 138.404 541.556 145.322C541.498 146.328 541.503 147.435 542.133 148.222C542.479 148.65 543.007 148.992 543.071 149.543C543.069 149.883 543.002 150.219 542.874 150.533C542.74 151.055 542.783 151.607 542.997 152.101C542.217 153.188 541.375 154.228 540.473 155.215C539.835 155.998 539.12 156.715 538.34 157.356C537.849 157.735 537.31 158.051 536.83 158.426C536.241 158.947 535.704 159.526 535.23 160.154L533.032 162.829C532.757 163.121 532.546 163.467 532.413 163.846C532.351 164.41 532.375 164.98 532.482 165.537C532.536 166.607 532.002 167.72 532.36 168.747C531.699 172.593 530.054 176.202 527.585 179.219C525.222 182.215 522.315 184.73 519.423 187.245L500.571 203.474C499.338 204.495 498.171 205.594 497.077 206.764C496.218 207.722 495.477 208.766 494.554 209.686C491.964 212.23 488.506 213.69 484.882 213.769C483.455 213.843 482.027 213.621 480.69 213.116C476.897 211.585 474.918 207.31 474.363 203.249C473.883 199.677 474.224 196.042 475.36 192.622C476.897 188.754 478.177 184.505 478.438 180.155C478.757 175.779 477.859 171.401 475.846 167.506C474.245 168.726 472.304 170.074 470.703 171.289L470.559 170.754L469.578 172.102C469.536 172.182 469.477 172.253 469.407 172.309C469.336 172.365 469.254 172.406 469.167 172.429C469.002 172.429 468.831 172.338 468.666 172.375C468.532 172.426 468.422 172.526 468.356 172.653C467.758 173.569 467.232 174.529 466.782 175.527C466.647 175.162 466.492 174.805 466.318 174.457C464.51 176.674 463.396 179.38 463.118 182.231C462.896 182.018 462.644 181.838 462.371 181.696C461.703 183.72 461.316 185.827 461.219 187.957C460.862 187.683 460.555 187.35 460.312 186.972C460.153 188.149 460.119 189.34 460.21 190.525C459.834 190.512 459.467 190.403 459.143 190.209L459.352 192.248C459.346 192.533 459.445 192.811 459.629 193.029C459.161 192.83 458.711 192.59 458.285 192.312C458.492 193.363 458.908 194.362 459.506 195.25C459.067 195.42 458.593 195.481 458.125 195.426C458.231 196.137 458.593 196.784 459.143 197.245C458.755 197.245 458.367 197.267 457.981 197.31C458.259 198.082 458.687 198.791 459.239 199.396C458.86 199.396 458.482 199.338 458.119 199.225C458.382 200.085 458.751 200.908 459.218 201.676C458.745 201.696 458.272 201.653 457.81 201.547C458.111 202.406 458.561 203.205 459.138 203.907C458.763 203.977 458.38 203.987 458.002 203.939C458.384 204.584 458.822 205.194 459.309 205.764C459.12 205.802 458.942 205.883 458.79 206C458.637 206.118 458.513 206.27 458.429 206.443C458.368 206.775 458.418 207.118 458.573 207.417C458.806 208.002 459.075 208.572 459.378 209.124C459.321 209.093 459.259 209.074 459.194 209.068C459.129 209.062 459.064 209.07 459.003 209.092C458.942 209.113 458.886 209.147 458.838 209.191C458.791 209.235 458.753 209.289 458.727 209.349C458.686 209.474 458.673 209.607 458.691 209.738C458.709 209.869 458.756 209.994 458.829 210.103C458.962 210.328 459.154 210.515 459.309 210.729L458.615 210.649C459.375 212.203 460.538 213.522 461.981 214.469C461.438 214.875 460.833 215.189 460.189 215.401C460.908 216.412 461.897 217.198 463.043 217.669C462.609 217.765 462.2 217.947 461.837 218.204C462.76 219.211 463.864 220.033 465.091 220.628C464.643 220.822 464.224 221.08 463.848 221.393C464.694 222.005 465.708 222.338 466.75 222.346C466.503 222.906 466.048 223.348 465.481 223.576C467.331 224.692 469.486 225.194 471.637 225.01L469.503 227.006C470.298 227.466 471.227 227.637 472.133 227.493C471.922 227.873 471.62 228.193 471.253 228.424C472.206 228.632 473.195 228.591 474.128 228.307C473.699 228.628 473.291 228.976 472.907 229.35C473.211 229.634 473.691 229.516 474.091 229.403C474.491 229.291 474.998 229.227 475.243 229.564C475.283 229.649 475.341 229.724 475.414 229.783C475.487 229.824 475.571 229.839 475.654 229.826C476.122 229.816 476.589 229.758 477.046 229.655C477.194 229.608 477.351 229.595 477.505 229.617C477.734 229.666 477.889 229.874 478.092 230.003C478.678 230.377 479.436 230.003 480.023 229.612C479.415 230.944 479.452 232.475 479.457 233.893C479.463 235.311 479.377 236.889 478.481 238.023C477.788 238.698 476.982 239.019 476.459 239.629C475.974 240.292 475.716 241.096 475.723 241.919C475.606 243.99 476.134 246.103 475.643 248.12C475.403 249.1 474.928 250.009 474.63 250.972C474.259 251.926 474.279 252.987 474.683 253.926C474.056 254.362 473.585 254.989 473.339 255.713C473.565 255.563 473.836 255.495 474.107 255.52L473.147 256.826L473.947 256.928L472.245 258.849C472.472 258.758 472.711 258.7 472.955 258.677C472.744 259.159 472.477 259.613 472.16 260.031C472.406 259.843 472.693 259.715 472.997 259.657C472.403 260.255 471.903 260.941 471.514 261.69C471.679 261.632 471.855 261.611 472.03 261.628C472.204 261.646 472.372 261.702 472.522 261.792C472.09 262.749 471.706 263.44 471.359 264.146C471.479 264.051 471.619 263.986 471.768 263.954C471.917 263.923 472.071 263.926 472.218 263.964C471.984 264.381 471.754 264.799 471.52 265.211C471.743 265.253 471.975 265.217 472.176 265.109C471.779 265.666 471.448 266.268 471.189 266.901C471.8 266.783 472.424 266.747 473.045 266.794C470.127 270.454 465.86 272.295 461.624 273.665C460.466 274.039 459.245 274.425 458.423 275.313C457.244 276.56 457.148 278.448 456.972 280.161C456.658 283.071 456.17 285.961 455.511 288.813C455.013 290.71 454.656 292.641 454.444 294.592C454.425 295.963 454.246 297.328 453.91 298.658C453.756 299.193 453.548 299.653 453.377 300.156C453.168 300.81 453.047 301.488 453.019 302.174C452.984 302.381 452.997 302.594 453.057 302.795C453.117 302.996 453.223 303.181 453.366 303.335C453.638 303.554 454.044 303.565 454.3 303.8C454.652 304.127 454.572 304.688 454.694 305.149C454.788 305.435 454.947 305.696 455.158 305.91C455.369 306.125 455.626 306.287 455.911 306.385C456.48 306.574 457.077 306.663 457.676 306.647C459.197 306.63 460.718 306.691 462.232 306.829C462.73 306.912 463.232 306.969 463.736 307C464.451 306.985 465.163 306.926 465.87 306.823C466.646 306.808 467.42 306.722 468.18 306.567C468.561 306.485 468.916 306.312 469.215 306.062C469.514 305.812 469.749 305.493 469.898 305.133C470.469 305.256 470.911 305.352 471.354 305.427C471.424 305.427 471.509 305.427 471.557 305.395C471.605 305.363 471.6 305.24 471.557 305.165C471.258 304.458 470.319 304.33 469.738 303.838C469.242 303.41 469.023 302.73 468.548 302.281C468.151 301.974 467.724 301.709 467.273 301.489C466.937 301.28 466.638 301.023 466.302 300.82C465.033 300.044 463.448 300.119 461.965 300.215C461.851 299.429 461.799 298.634 461.811 297.84C461.893 296.978 462.072 296.129 462.344 295.309C463.16 292.521 464.014 289.658 465.812 287.39C467.136 285.825 468.723 284.505 470.501 283.489C472.506 282.174 474.719 281.209 477.046 280.637C480.61 279.845 484.418 280.434 487.891 279.294C487.64 280.541 486.712 281.381 485.949 282.306C485.187 283.232 484.541 284.447 484.882 285.586C485.051 286.073 485.312 286.522 485.651 286.908C487.87 289.69 490.884 291.692 493.62 293.966C495.797 295.774 497.808 297.781 499.819 299.776C500.398 300.31 500.91 300.912 501.345 301.569C501.665 302.104 501.932 302.73 502.497 302.966C502.856 303.08 503.237 303.104 503.607 303.035L506.877 302.693C507.747 302.833 508.633 302.846 509.507 302.73C509.938 302.634 510.374 302.564 510.814 302.521C511.228 302.541 511.641 302.582 512.051 302.645C513.027 302.735 514.009 302.532 514.991 302.554C515.401 302.593 515.814 302.584 516.223 302.527C516.682 302.43 517.098 302.174 517.562 302.109C518.026 302.045 518.629 302.168 518.949 301.82C519.04 301.713 519.105 301.585 519.136 301.447C519.168 301.309 519.166 301.165 519.13 301.029C519.086 300.821 518.993 300.627 518.86 300.462C518.726 300.298 518.555 300.167 518.362 300.081C518.785 300.021 519.214 300.021 519.637 300.081C519.84 300.108 520.112 300.081 520.133 299.867C520.127 299.811 520.108 299.757 520.078 299.709C520.049 299.661 520.009 299.62 519.962 299.589C519.44 299.147 518.831 298.819 518.175 298.626C517.672 298.524 517.177 298.388 516.692 298.219C515.748 297.818 515.092 296.908 514.11 296.577C513.043 296.208 511.864 296.625 510.808 297.037C509.613 297.037 508.674 297.064 507.73 297.101C507.305 297.147 506.874 297.115 506.461 297.005C506.035 296.833 505.649 296.576 505.324 296.25C503.847 294.928 502.508 293.458 501.329 291.863C500.71 291.028 499.856 290.129 499.643 289.112C499.451 288.253 499.451 287.361 499.643 286.501C500.534 282.686 503.777 279.604 506.925 277.282C509.437 275.431 512.286 273.868 514.041 271.289C514.798 270.181 515.316 268.935 515.967 267.768C517.076 265.783 518.602 263.975 519.167 261.77C519.498 260.497 519.488 259.127 520.016 257.923C520.33 257.217 520.81 256.601 521.083 255.89C521.563 254.707 521.461 253.38 521.349 252.112C521.211 250.507 521.077 248.928 520.938 247.339C521.563 245.434 523.723 245.017 525.297 245.734C525.91 246.007 526.55 246.419 527.196 246.269C527.539 246.132 527.867 245.962 528.177 245.761C528.684 245.515 529.276 245.504 529.81 245.306C531.223 244.771 531.869 243.166 532.349 241.742C532.588 241.177 532.685 240.561 532.632 239.95C532.493 239.142 531.848 238.5 531.65 237.702C533.517 236.049 535.704 234.433 538.244 234.278C539.844 234.176 541.444 234.679 543.045 234.497C544.421 234.337 545.712 233.679 547.056 233.427C548.401 233.176 549.724 233.347 551.057 233.138C552.962 232.839 554.658 231.811 556.296 230.8C558.568 229.527 560.425 228.622 562.126 227.472C563.428 226.594 564.639 225.583 565.924 224.679C566.89 224.005 567.898 223.389 568.906 222.774L577.084 217.798C577.453 217.553 577.851 217.355 578.269 217.209C578.792 217.08 579.336 217.055 579.869 217.134C582.888 217.455 585.662 218.937 588.634 219.574C590.661 220.008 592.762 220.034 594.795 220.43C597.852 221.024 600.823 222.442 603.922 222.18C604.648 222.549 605.288 222.554 605.747 222.865C606.03 223.112 606.293 223.38 606.536 223.667C606.755 223.873 607.016 224.027 607.301 224.12C607.586 224.212 607.887 224.241 608.185 224.202C608.453 224.134 608.729 224.1 609.006 224.101C609.218 224.141 609.422 224.217 609.609 224.326L611.593 225.342C612.703 225.909 613.85 226.514 614.591 227.515C614.821 227.82 615.002 228.157 615.221 228.462C615.765 229.143 616.407 229.74 617.125 230.233C617.381 230.923 617.739 231.688 618.443 231.934C618.944 232.111 619.51 231.972 620.011 232.132C620.662 232.336 621.078 232.967 621.574 233.422C622.165 233.947 622.919 234.25 623.708 234.278C624.241 234.278 624.738 234.182 625.255 234.182C625.82 234.249 626.391 234.249 626.957 234.182C627.345 234.06 627.72 233.9 628.077 233.705C628.437 233.509 628.856 233.45 629.256 233.54C629.402 233.531 629.548 233.565 629.675 233.639C629.802 233.712 629.904 233.821 629.971 233.952C630.029 234.061 630.103 234.162 630.189 234.251C630.233 234.295 630.289 234.325 630.35 234.338C630.41 234.35 630.473 234.344 630.531 234.321C630.696 234.246 630.712 234.016 630.686 233.834C630.638 233.476 630.541 233.127 630.397 232.796C630.869 232.761 631.341 232.849 631.768 233.053C631.928 233.117 632.147 233.165 632.249 233.021C632.277 232.964 632.292 232.902 632.292 232.839C632.292 232.775 632.277 232.713 632.249 232.657C632.042 232.16 631.796 231.68 631.512 231.223C630.904 229.617 630.232 228.146 629.032 227.156C628.365 226.621 627.565 226.23 626.871 225.706C626.338 225.289 625.847 224.786 625.271 224.395C624.551 223.898 623.719 223.614 622.956 223.186C622.024 222.621 621.159 221.952 620.379 221.19L612.217 213.822C611.431 213.064 610.572 212.386 609.652 211.799C607.8 210.729 605.021 210.258 603.058 209.413C604.083 209.412 605.103 209.266 606.088 208.98C607.078 208.691 608.131 208.706 609.113 209.022C609.635 209.273 610.132 209.574 610.596 209.921C610.548 209.574 610.5 209.231 610.457 208.883C610.759 209.227 611.12 209.514 611.524 209.729C611.791 209.846 612.084 209.9 612.351 210.012C613.204 210.355 613.764 211.195 614.586 211.618C614.709 211.29 614.767 210.941 614.757 210.59C615.861 211.425 616.538 212.688 617.333 213.801C617.368 213.864 617.422 213.915 617.488 213.945C617.574 213.96 617.662 213.945 617.739 213.902L618.907 213.367C619.9 213.962 620.749 214.769 621.393 215.732C621.857 216.476 622.182 217.337 622.897 217.873C623.612 218.408 624.497 218.408 625.175 218.905C625.447 219.125 625.655 219.44 625.922 219.649C626.642 220.27 627.672 220.35 628.621 220.387C629.13 220.429 629.642 220.395 630.141 220.286C630.573 220.168 630.968 219.949 631.39 219.815C631.598 219.733 631.821 219.698 632.044 219.712C632.267 219.725 632.484 219.788 632.681 219.895C633.017 220.115 633.214 220.532 633.587 220.666C633.629 220.686 633.676 220.693 633.722 220.685C633.768 220.678 633.811 220.656 633.844 220.623C633.865 220.564 633.865 220.5 633.844 220.441C633.769 220.037 633.609 219.654 633.374 219.317C633.835 219.246 634.306 219.29 634.745 219.446C634.773 219.46 634.804 219.468 634.836 219.468C634.867 219.468 634.898 219.46 634.926 219.446C634.955 219.426 634.976 219.398 634.988 219.365C635.001 219.333 635.003 219.298 634.996 219.264ZM585.604 131.479C587.129 131.907 588.217 132.325 589.338 132.635C590.058 132.833 590.879 133.068 591.194 133.743L589.684 133.866C589.52 133.89 589.352 133.875 589.194 133.823C588.959 133.721 588.842 133.47 588.703 133.256C588.564 133.042 588.329 132.838 588.084 132.908C587.956 132.965 587.84 133.047 587.743 133.149C587.695 133.2 587.633 133.237 587.565 133.254C587.497 133.271 587.425 133.268 587.359 133.245C587.276 133.188 587.211 133.108 587.172 133.015C587.009 132.735 586.746 132.528 586.436 132.437C586.241 132.404 586.052 132.349 585.87 132.271C585.74 132.192 585.641 132.069 585.592 131.924C585.544 131.779 585.548 131.622 585.604 131.479ZM583.726 131.239C583.807 131.15 583.908 131.082 584.02 131.038C584.131 130.994 584.252 130.977 584.371 130.987C584.388 131.183 584.355 131.38 584.275 131.56C584.237 131.65 584.179 131.731 584.106 131.796C584.034 131.862 583.947 131.911 583.854 131.939C583.817 131.95 583.778 131.95 583.742 131.939C583.712 131.924 583.687 131.902 583.667 131.875C583.609 131.776 583.584 131.66 583.596 131.545C583.609 131.431 583.658 131.323 583.736 131.239H583.726ZM581.987 131.297C582.012 131.238 582.052 131.186 582.104 131.148C582.202 131.06 582.317 130.994 582.442 130.954C582.567 130.914 582.699 130.902 582.83 130.917C582.844 131.031 582.832 131.146 582.794 131.254C582.756 131.362 582.693 131.459 582.611 131.538C582.569 131.575 582.52 131.603 582.467 131.621C582.414 131.638 582.358 131.644 582.302 131.639C582.246 131.633 582.192 131.616 582.144 131.589C582.095 131.561 582.052 131.524 582.019 131.479C581.985 131.425 581.973 131.36 581.987 131.297Z" fill="#394C38"/>
<path d="M726 62.0011C726 53.8375 717.012 45.3183 700.14 47.0317C713.282 36.323 713.612 23.9305 707.841 18.1592C702.069 12.3879 689.688 12.7183 678.968 25.8604C680.682 8.99987 672.163 0 663.999 0C655.835 0 647.316 8.98848 649.029 25.8604C638.309 12.7183 625.931 12.3879 620.159 18.1592C614.388 23.9305 614.718 36.3116 627.86 47.0317C610.986 45.3183 602 53.8375 602 62.0011C602 70.1648 610.986 78.6816 627.86 76.9705C614.718 87.6792 614.388 100.069 620.159 105.841C625.931 111.612 638.309 111.282 649.029 98.1396C647.316 115 655.837 124 663.999 124C672.16 124 680.682 115.012 678.968 98.1396C689.688 111.282 702.067 111.612 707.841 105.841C713.614 100.069 713.282 87.6884 700.14 76.9705C717.012 78.6816 726 70.1625 726 62.0011Z" fill="#FAC265"/>
<path d="M951 104.992C950.999 103.339 950.665 101.704 950.017 100.184C949.37 98.6644 948.422 97.2914 947.232 96.1476C946.041 95.0037 944.632 94.1128 943.089 93.5282C941.546 92.9435 939.901 92.6773 938.253 92.7455L922.18 93.4477L936.443 85.9856C937.9 85.2159 939.188 84.1595 940.228 82.8796C941.268 81.5998 942.039 80.1228 942.496 78.5372C942.952 76.9516 943.085 75.29 942.885 73.6519C942.685 72.0139 942.158 70.433 941.333 69.0041C940.509 67.5706 939.403 66.3194 938.082 65.3259C936.762 64.3323 935.254 63.6172 933.65 63.2235C932.046 62.8298 930.378 62.7657 928.749 63.0352C927.119 63.3047 925.561 63.9021 924.168 64.7914L910.589 73.4291L919.229 59.8439C920.85 57.029 921.289 53.6843 920.448 50.5456C919.607 47.4069 917.556 44.7312 914.746 43.1073C911.936 41.4833 908.597 41.0441 905.464 41.8862C902.33 42.7283 899.659 44.7827 898.038 47.5976L890.588 61.8849L891.289 45.7851C891.359 44.1327 891.095 42.4831 890.513 40.9356C889.93 39.3881 889.041 37.9746 887.899 36.7802C886.757 35.5859 885.385 34.6353 883.867 33.9856C882.348 33.336 880.714 33.0007 879.063 33C877.412 33.0007 875.778 33.336 874.26 33.9856C872.741 34.6353 871.37 35.5859 870.228 36.7802C869.085 37.9746 868.196 39.3881 867.614 40.9356C867.031 42.4831 866.767 44.1327 866.837 45.7851L867.538 61.8849L860.089 47.5976C859.286 46.2038 858.217 44.982 856.943 44.0021C855.669 43.0221 854.214 42.3031 852.663 41.8862C851.111 41.4692 849.493 41.3624 847.9 41.572C846.307 41.7815 844.771 42.3032 843.38 43.1073C841.989 43.9114 840.769 44.9821 839.79 46.2584C838.812 47.5347 838.094 48.9915 837.678 50.5456C837.262 52.0997 837.155 53.7208 837.364 55.3162C837.574 56.9116 838.094 58.4501 838.897 59.8439L847.52 73.4291L833.958 64.7914C832.565 63.9021 831.007 63.3047 829.377 63.0352C827.748 62.7657 826.081 62.8298 824.477 63.2235C822.872 63.6172 821.365 64.3323 820.044 65.3259C818.723 66.3194 817.617 67.5706 816.793 69.0041C815.966 70.4324 815.437 72.0134 815.236 73.652C815.035 75.2906 815.167 76.953 815.624 78.5392C816.08 80.1254 816.853 81.6028 817.894 82.8824C818.935 84.1621 820.224 85.2176 821.683 85.9856L835.947 93.4477L819.874 92.7455C818.215 92.6597 816.556 92.9129 814.998 93.4895C813.441 94.0662 812.016 94.9544 810.812 96.1C809.608 97.2456 808.649 98.6247 807.993 100.153C807.338 101.682 807 103.328 807 104.992C807 106.655 807.338 108.302 807.993 109.83C808.649 111.359 809.608 112.738 810.812 113.884C812.016 115.029 813.441 115.917 814.998 116.494C816.556 117.071 818.215 117.324 819.874 117.238L835.947 116.536L821.683 123.998C820.292 124.802 819.072 125.873 818.094 127.149C817.115 128.425 816.398 129.882 815.981 131.436C815.565 132.991 815.458 134.612 815.668 136.207C815.877 137.802 816.398 139.341 817.2 140.735C818.003 142.128 819.072 143.35 820.346 144.33C821.62 145.31 823.075 146.029 824.626 146.446C826.178 146.863 827.796 146.97 829.389 146.76C830.982 146.551 832.518 146.029 833.909 145.225L847.472 136.571L838.848 150.172C838.045 151.566 837.525 153.105 837.315 154.7C837.106 156.296 837.213 157.917 837.629 159.471C838.045 161.025 838.763 162.482 839.742 163.758C840.72 165.034 841.94 166.105 843.331 166.909C844.723 167.713 846.258 168.235 847.851 168.444C849.444 168.654 851.062 168.547 852.614 168.13C854.165 167.713 855.62 166.994 856.894 166.014C858.168 165.034 859.237 163.813 860.04 162.419L867.489 148.131L866.788 164.231C866.72 165.882 866.986 167.53 867.57 169.076C868.153 170.621 869.043 172.033 870.185 173.225C871.327 174.418 872.697 175.367 874.215 176.016C875.732 176.664 877.365 176.999 879.014 177C880.664 176.999 882.296 176.664 883.814 176.016C885.331 175.367 886.702 174.418 887.844 173.225C888.986 172.033 889.875 170.621 890.459 169.076C891.042 167.53 891.308 165.882 891.24 164.231L890.539 148.131L897.989 162.419C898.792 163.813 899.86 165.034 901.135 166.014C902.409 166.994 903.863 167.713 905.415 168.13C906.966 168.547 908.585 168.654 910.177 168.444C911.77 168.235 913.306 167.713 914.697 166.909C916.089 166.105 917.309 165.034 918.287 163.758C919.265 162.482 919.983 161.025 920.399 159.471C920.816 157.917 920.922 156.296 920.713 154.7C920.504 153.105 919.983 151.566 919.18 150.172L910.541 136.571L924.119 145.225C925.511 146.029 927.047 146.551 928.64 146.76C930.232 146.97 931.851 146.863 933.402 146.446C934.954 146.029 936.408 145.31 937.682 144.33C938.956 143.35 940.025 142.128 940.828 140.735C941.631 139.341 942.152 137.802 942.361 136.207C942.57 134.612 942.463 132.991 942.047 131.436C941.631 129.882 940.913 128.425 939.935 127.149C938.956 125.873 937.737 124.802 936.345 123.998L922.082 116.536L938.155 117.238C939.811 117.32 941.467 117.064 943.021 116.485C944.576 115.907 945.997 115.018 947.198 113.873C948.399 112.728 949.356 111.35 950.009 109.823C950.663 108.297 951 106.653 951 104.992Z" fill="#FFF6EA"/>
<path d="M765.359 204.323C766.7 201.299 765.301 196.428 754.283 192.859C745.624 190.053 735.89 188.231 730.32 187.63C735.91 187.304 745.755 185.957 754.513 183.589C765.691 180.567 767.331 175.772 766.142 172.685C764.952 169.598 760.517 167.144 750.203 172.411C742.095 176.551 733.918 182.144 729.561 185.657C733.282 181.475 739.292 173.561 743.81 165.693C749.578 155.651 747.346 151.103 744.322 149.762C741.298 148.421 736.427 149.819 732.858 160.836C730.053 169.498 728.231 179.23 727.629 184.801C727.303 179.211 725.957 169.367 723.588 160.607C720.566 149.43 715.771 147.791 712.685 148.98C709.599 150.17 707.142 154.604 712.41 164.917C716.551 173.025 722.144 181.201 725.658 185.561C721.474 181.837 713.562 175.828 705.693 171.31C695.651 165.544 691.103 167.774 689.762 170.798C688.421 173.822 689.82 178.693 700.837 182.262C709.496 185.068 719.231 186.889 724.8 187.492C719.21 187.816 709.366 189.164 700.607 191.533C689.428 194.555 687.79 199.348 688.979 202.435C690.168 205.523 694.604 207.977 704.918 202.71C713.025 198.571 721.202 192.976 725.561 189.464C721.838 193.646 715.829 201.559 711.311 209.428C705.543 219.47 707.775 224.018 710.799 225.359C713.823 226.7 718.694 225.301 722.262 214.284C725.068 205.623 726.89 195.891 727.492 190.32C727.817 195.91 729.163 205.755 731.532 214.514C734.555 225.691 739.349 227.331 742.436 226.14C745.522 224.949 747.978 220.516 742.711 210.204C738.57 202.096 732.977 193.919 729.463 189.56C733.646 193.283 741.559 199.292 749.427 203.81C759.47 209.577 764.018 207.347 765.359 204.323Z" fill="#FFF6EA"/>
</svg>
