<svg width="249" height="236" viewBox="0 0 249 236" fill="none" xmlns="http://www.w3.org/2000/svg">
<path d="M180.59 142.129C213.114 135.991 250.615 118.164 248.929 102.478C247.243 86.7915 206.904 78.6975 173.962 80.6271C185.338 49.1755 189.349 7.46855 175.062 1.3017C160.776 -4.86515 133.227 26.5415 118.091 56.5101C96.9513 31.0959 63.3937 7.29245 50.7713 16.9422C38.1488 26.592 50.9225 66.0507 68.7888 93.8705C36.2643 100.009 -1.266 117.824 0.449164 133.522C2.16432 149.221 42.474 157.302 75.4163 155.373C64.0021 186.913 60.0295 228.531 74.3161 234.698C88.6027 240.865 116.164 209.429 131.288 179.49C152.427 204.904 185.956 228.695 198.607 219.058C211.259 209.42 198.43 170.008 180.59 142.129Z" fill="#FAC265"/>
</svg>
