<svg width="71" height="68" viewBox="0 0 71 68" fill="none" xmlns="http://www.w3.org/2000/svg">
<path d="M70.0322 24.8688C67.8858 18.2712 63.6116 13.7239 54.0546 16.7493C51.7051 17.5187 49.4469 18.5361 47.3195 19.7839C47.8753 17.3918 48.1669 14.9475 48.1891 12.4936C48.1891 2.61537 42.4901 0 35.4496 0C28.4091 0 22.7102 2.61537 22.7102 12.4936C22.7304 14.7891 22.9908 17.0763 23.4873 19.3191C21.492 18.135 19.3775 17.1577 17.1777 16.403C7.68551 13.2227 3.30025 17.6971 1.0706 24.2583C-1.15904 30.8195 -0.520687 37.0162 8.98073 40.1601C11.3168 40.9492 13.7335 41.4839 16.1878 41.7548C14.3057 43.3436 12.6 45.1245 11.0994 47.0676C5.12281 55.0048 8.12033 60.4543 13.7638 64.5824C19.4073 68.7105 25.5782 69.9589 31.5547 62.0217C33.0205 60.0345 34.2614 57.8955 35.2554 55.6427C36.2071 57.8904 37.4045 60.0294 38.8265 62.0217C44.6643 70.0592 50.8536 68.911 56.5711 64.8831C62.2886 60.8553 65.4064 55.424 59.5316 47.4321C58.0689 45.4615 56.3938 43.6527 54.5357 42.0373C57.0037 41.8331 59.4419 41.3656 61.8075 40.6431C71.3644 37.6176 72.1508 31.4665 70.0322 24.8688Z" fill="#FFF6EA"/>
</svg>
