<svg width="145" height="145" viewBox="0 0 145 145" fill="none" xmlns="http://www.w3.org/2000/svg">
<path d="M145 72.4918C144.999 70.8278 144.663 69.1812 144.011 67.6508C143.359 66.1204 142.404 64.7378 141.206 63.5861C140.007 62.4343 138.588 61.5372 137.034 60.9485C135.48 60.3598 133.824 60.0918 132.164 60.1604L115.979 60.8675L130.342 53.3535C131.809 52.5785 133.106 51.5148 134.153 50.226C135.2 48.9373 135.977 47.4501 136.437 45.8534C136.897 44.2568 137.03 42.5837 136.829 40.9342C136.628 39.2848 136.096 37.693 135.266 36.2541C134.436 34.8107 133.322 33.5508 131.993 32.5504C130.663 31.5499 129.144 30.8298 127.529 30.4333C125.914 30.0369 124.235 29.9724 122.594 30.2438C120.953 30.5151 119.384 31.1167 117.982 32.0121L104.309 40.7098L113.008 27.0303C114.641 24.1959 115.083 20.8279 114.236 17.6674C113.389 14.5069 111.324 11.8127 108.495 10.1775C105.665 8.54223 102.303 8.09992 99.1473 8.94787C95.9921 9.79581 93.3024 11.8645 91.6698 14.6989L84.1685 29.0855L84.8743 12.8739C84.9451 11.21 84.6793 9.54899 84.0926 7.99073C83.5059 6.43246 82.6106 5.00918 81.4605 3.8065C80.3105 2.60382 78.9294 1.64662 77.4004 0.992462C75.8715 0.338301 74.2261 0.000705028 72.5635 0C70.9009 0.000705028 69.2557 0.338301 67.7267 0.992462C66.1977 1.64662 64.8167 2.60382 63.6666 3.8065C62.5165 5.00918 61.6212 6.43246 61.0345 7.99073C60.4479 9.54899 60.1819 11.21 60.2528 12.8739L60.9586 29.0855L53.4573 14.6989C52.6489 13.2955 51.5726 12.0652 50.2896 11.0785C49.0066 10.0917 47.5421 9.36772 45.9798 8.94787C44.4175 8.52801 42.7879 8.42051 41.1841 8.63148C39.5803 8.84245 38.0337 9.36777 36.6326 10.1775C35.2315 10.9871 34.0033 12.0653 33.0182 13.3505C32.033 14.6356 31.3102 16.1025 30.8911 17.6674C30.4719 19.2324 30.3646 20.8647 30.5753 22.4712C30.7859 24.0776 31.3103 25.6268 32.1187 27.0303L40.8018 40.7098L27.1451 32.0121C25.7427 31.1167 24.1738 30.5151 22.5329 30.2438C20.892 29.9724 19.2133 30.0369 17.598 30.4333C15.9827 30.8298 14.4643 31.5499 13.1345 32.5504C11.8047 33.5508 10.6911 34.8107 9.86082 36.2541C9.02861 37.6924 8.49531 39.2843 8.29297 40.9343C8.09064 42.5843 8.22347 44.2582 8.68345 45.8555C9.14342 47.4527 9.92106 48.9403 10.9696 50.2288C12.0182 51.5174 13.316 52.5802 14.7851 53.3535L29.1477 60.8675L12.9631 60.1604C11.293 60.074 9.62272 60.3289 8.05403 60.9096C6.48535 61.4903 5.05106 62.3846 3.83839 63.5382C2.62573 64.6918 1.66007 66.0804 1.0002 67.6197C0.340326 69.159 0 70.8166 0 72.4918C0 74.1669 0.340326 75.8246 1.0002 77.3639C1.66007 78.9031 2.62573 80.2918 3.83839 81.4454C5.05106 82.5989 6.48535 83.4933 8.05403 84.0739C9.62272 84.6546 11.293 84.9095 12.9631 84.8231L29.1477 84.1161L14.7851 91.63C13.384 92.4397 12.1558 93.5179 11.1707 94.803C10.1856 96.0882 9.46277 97.5551 9.04361 99.12C8.62445 100.685 8.51716 102.317 8.72778 103.924C8.9384 105.53 9.46285 107.079 10.2712 108.483C11.0795 109.886 12.1559 111.117 13.4389 112.103C14.7219 113.09 16.1863 113.814 17.7486 114.234C19.311 114.654 20.9406 114.761 22.5444 114.55C24.1482 114.339 25.6948 113.814 27.0959 113.004L40.7526 104.29L32.0694 117.986C31.2611 119.39 30.7366 120.939 30.526 122.545C30.3154 124.152 30.4227 125.784 30.8418 127.349C31.261 128.914 31.9838 130.381 32.9689 131.666C33.954 132.951 35.1822 134.029 36.5834 134.839C37.9845 135.649 39.5311 136.174 41.1349 136.385C42.7387 136.596 44.3683 136.488 45.9306 136.069C47.4929 135.649 48.9574 134.925 50.2403 133.938C51.5233 132.951 52.5997 131.721 53.408 130.317L60.9094 115.931L60.2036 132.143C60.135 133.805 60.4026 135.464 60.9903 137.021C61.578 138.577 62.4736 139.998 63.6235 141.199C64.7733 142.4 66.1536 143.356 67.6814 144.009C69.2093 144.662 70.8531 144.999 72.5143 145C74.1755 144.999 75.8193 144.662 77.3472 144.009C78.875 143.356 80.2553 142.4 81.4052 141.199C82.555 139.998 83.4507 138.577 84.0383 137.021C84.626 135.464 84.8936 133.805 84.825 132.143L84.1192 115.931L91.6206 130.317C92.4289 131.721 93.5053 132.951 94.7883 133.938C96.0713 134.925 97.5358 135.649 99.0981 136.069C100.66 136.488 102.29 136.596 103.894 136.385C105.498 136.174 107.044 135.649 108.445 134.839C109.846 134.029 111.075 132.951 112.06 131.666C113.045 130.381 113.768 128.914 114.187 127.349C114.606 125.784 114.713 124.152 114.503 122.545C114.292 120.939 113.768 119.39 112.959 117.986L104.26 104.29L117.933 113.004C119.334 113.814 120.88 114.339 122.484 114.55C124.088 114.761 125.718 114.654 127.28 114.234C128.842 113.814 130.307 113.09 131.59 112.103C132.873 111.117 133.949 109.886 134.757 108.483C135.566 107.079 136.09 105.53 136.301 103.924C136.511 102.317 136.404 100.685 135.985 99.12C135.566 97.5551 134.843 96.0882 133.858 94.803C132.873 93.5179 131.645 92.4397 130.244 91.63L115.881 84.1161L132.065 84.8231C133.733 84.9055 135.4 84.6477 136.966 84.0652C138.531 83.4827 139.962 82.5877 141.172 81.4345C142.381 80.2814 143.344 78.8941 144.002 77.3568C144.66 75.8196 145 74.1644 145 72.4918Z" fill="#FFF6EA"/>
</svg>
