<svg width="1157" height="382" viewBox="0 0 1157 382" fill="none" xmlns="http://www.w3.org/2000/svg">
<g clip-path="url(#clip0_451_81)">
<path d="M58.624 272V269.44C61.44 269.269 63.5307 268.928 64.896 268.416C66.3467 267.904 67.2853 266.88 67.712 265.344C68.224 263.808 68.48 261.504 68.48 258.432V194.944C68.48 191.787 68.224 189.483 67.712 188.032C67.2853 186.496 66.3467 185.472 64.896 184.96C63.5307 184.363 61.44 184.021 58.624 183.936V181.376C60.928 181.461 63.7867 181.547 67.2 181.632C70.6133 181.717 74.0267 181.76 77.44 181.76C81.1947 181.76 84.6933 181.717 87.936 181.632C91.264 181.547 93.9093 181.461 95.872 181.376V183.936C93.1413 184.021 91.0507 184.363 89.6 184.96C88.2347 185.472 87.296 186.496 86.784 188.032C86.272 189.483 86.016 191.787 86.016 194.944V258.432C86.016 261.504 86.272 263.808 86.784 265.344C87.296 266.88 88.2347 267.904 89.6 268.416C91.0507 268.928 93.1413 269.269 95.872 269.44V272C93.9093 271.829 91.264 271.744 87.936 271.744C84.6933 271.659 81.1947 271.616 77.44 271.616C74.0267 271.616 70.6133 271.659 67.2 271.744C63.7867 271.744 60.928 271.829 58.624 272ZM4.608 272V269.44C7.424 269.269 9.51467 268.928 10.88 268.416C12.3307 267.904 13.2693 266.88 13.696 265.344C14.208 263.808 14.464 261.504 14.464 258.432V194.944C14.464 191.787 14.208 189.483 13.696 188.032C13.2693 186.496 12.3307 185.472 10.88 184.96C9.51467 184.363 7.424 184.021 4.608 183.936V181.376C6.74133 181.461 9.472 181.547 12.8 181.632C16.128 181.717 19.712 181.76 23.552 181.76C26.9653 181.76 30.336 181.717 33.664 181.632C36.992 181.547 39.7227 181.461 41.856 181.376V183.936C39.1253 184.021 37.0347 184.363 35.584 184.96C34.2187 185.472 33.28 186.496 32.768 188.032C32.256 189.483 32 191.787 32 194.944V258.432C32 261.504 32.256 263.808 32.768 265.344C33.28 266.88 34.2187 267.904 35.584 268.416C37.0347 268.928 39.1253 269.269 41.856 269.44V272C39.7227 271.829 36.992 271.744 33.664 271.744C30.336 271.659 26.9653 271.616 23.552 271.616C19.712 271.616 16.128 271.659 12.8 271.744C9.472 271.744 6.74133 271.829 4.608 272ZM24.96 227.712V225.152H75.52V227.712H24.96ZM120.995 272.896C117.326 272.896 114.211 272.213 111.651 270.848C109.091 269.397 107.171 267.477 105.891 265.088C104.611 262.613 103.971 259.883 103.971 256.896C103.971 253.227 104.824 250.24 106.531 247.936C108.238 245.547 110.414 243.669 113.059 242.304C115.79 240.853 118.648 239.659 121.635 238.72C124.622 237.696 127.438 236.757 130.083 235.904C132.728 234.965 134.904 233.899 136.611 232.704C138.318 231.509 139.171 229.931 139.171 227.968V218.624C139.171 215.893 138.744 213.675 137.891 211.968C137.123 210.176 135.928 208.853 134.307 208C132.771 207.061 130.808 206.592 128.419 206.592C126.627 206.592 124.75 206.848 122.787 207.36C120.824 207.872 119.203 208.853 117.923 210.304C120.142 210.901 121.848 212.011 123.043 213.632C124.323 215.253 124.963 217.216 124.963 219.52C124.963 222.165 124.067 224.256 122.275 225.792C120.568 227.243 118.392 227.968 115.747 227.968C112.931 227.968 110.798 227.072 109.347 225.28C107.896 223.488 107.171 221.397 107.171 219.008C107.171 216.619 107.768 214.656 108.963 213.12C110.158 211.499 111.822 210.048 113.955 208.768C116.088 207.317 118.819 206.165 122.147 205.312C125.475 204.459 129.102 204.032 133.027 204.032C136.782 204.032 140.11 204.459 143.011 205.312C145.912 206.08 148.387 207.488 150.435 209.536C152.483 211.499 153.806 213.931 154.403 216.832C155 219.733 155.299 223.275 155.299 227.456V262.528C155.299 264.661 155.555 266.197 156.067 267.136C156.579 267.989 157.39 268.416 158.499 268.416C159.352 268.416 160.163 268.203 160.931 267.776C161.699 267.349 162.552 266.752 163.491 265.984L164.899 268.16C163.022 269.611 161.059 270.763 159.011 271.616C156.963 272.469 154.488 272.896 151.587 272.896C148.6 272.896 146.211 272.469 144.419 271.616C142.712 270.763 141.432 269.525 140.579 267.904C139.811 266.283 139.384 264.363 139.299 262.144C137.251 265.557 134.734 268.203 131.747 270.08C128.76 271.957 125.176 272.896 120.995 272.896ZM128.675 265.728C130.723 265.728 132.6 265.173 134.307 264.064C136.099 262.955 137.72 261.291 139.171 259.072V233.216C138.318 234.496 137.08 235.648 135.459 236.672C133.923 237.696 132.259 238.72 130.467 239.744C128.675 240.768 126.968 241.963 125.347 243.328C123.811 244.608 122.488 246.229 121.379 248.192C120.355 250.069 119.843 252.501 119.843 255.488C119.843 258.816 120.654 261.376 122.275 263.168C123.896 264.875 126.03 265.728 128.675 265.728ZM213.634 204.032C216.962 204.032 219.735 204.501 221.954 205.44C224.258 206.379 226.05 207.573 227.33 209.024C228.866 210.645 229.933 212.821 230.53 215.552C231.127 218.197 231.426 221.568 231.426 225.664V260.096C231.426 263.68 232.023 266.112 233.218 267.392C234.498 268.672 236.631 269.312 239.618 269.312V272C238.082 271.915 235.778 271.829 232.706 271.744C229.634 271.573 226.647 271.488 223.746 271.488C220.674 271.488 217.687 271.573 214.786 271.744C211.97 271.829 209.837 271.915 208.386 272V269.312C210.861 269.312 212.61 268.672 213.634 267.392C214.743 266.112 215.298 263.68 215.298 260.096V221.312C215.298 219.008 215.127 216.96 214.786 215.168C214.445 213.291 213.719 211.84 212.61 210.816C211.501 209.707 209.794 209.152 207.49 209.152C204.845 209.152 202.455 209.92 200.322 211.456C198.189 212.992 196.482 215.125 195.202 217.856C194.007 220.501 193.41 223.488 193.41 226.816V260.096C193.41 263.68 193.922 266.112 194.946 267.392C195.97 268.672 197.762 269.312 200.322 269.312V272C198.871 271.915 196.738 271.829 193.922 271.744C191.191 271.573 188.375 271.488 185.474 271.488C182.317 271.488 179.117 271.573 175.874 271.744C172.631 271.829 170.199 271.915 168.578 272V269.312C171.735 269.312 173.954 268.672 175.234 267.392C176.599 266.112 177.282 263.68 177.282 260.096V219.776C177.282 215.936 176.642 213.12 175.362 211.328C174.167 209.451 171.906 208.512 168.578 208.512V205.824C171.309 206.08 173.954 206.208 176.514 206.208C179.671 206.208 182.658 206.08 185.474 205.824C188.375 205.483 191.021 205.013 193.41 204.416V217.216C195.543 212.523 198.402 209.152 201.986 207.104C205.57 205.056 209.453 204.032 213.634 204.032ZM252.162 204.032C255.49 204.032 258.263 204.501 260.482 205.44C262.786 206.379 264.578 207.573 265.858 209.024C267.394 210.645 268.461 212.821 269.058 215.552C269.655 218.197 269.954 221.568 269.954 225.664V260.096C269.954 263.68 270.594 266.112 271.874 267.392C273.239 268.672 275.501 269.312 278.658 269.312V272C277.122 271.915 274.733 271.829 271.49 271.744C268.333 271.573 265.261 271.488 262.274 271.488C259.202 271.488 256.215 271.573 253.314 271.744C250.498 271.829 248.365 271.915 246.914 272V269.312C249.389 269.312 251.138 268.672 252.162 267.392C253.271 266.112 253.826 263.68 253.826 260.096V221.312C253.826 219.008 253.613 216.96 253.186 215.168C252.845 213.291 252.077 211.84 250.882 210.816C249.687 209.707 247.895 209.152 245.506 209.152C242.861 209.152 240.471 209.963 238.338 211.584C236.205 213.205 234.498 215.381 233.218 218.112C232.023 220.757 231.383 223.744 231.298 227.072L230.658 217.856C232.962 212.565 236.034 208.939 239.874 206.976C243.714 205.013 247.81 204.032 252.162 204.032ZM308.151 204.032C311.735 204.032 314.807 204.544 317.367 205.568C319.927 206.592 321.804 207.488 322.999 208.256C325.9 210.389 327.65 209.024 328.247 204.16H331.063C330.892 206.635 330.764 209.579 330.679 212.992C330.594 216.32 330.551 220.8 330.551 226.432H327.735C327.308 223.275 326.498 220.203 325.303 217.216C324.108 214.229 322.359 211.755 320.055 209.792C317.751 207.744 314.722 206.72 310.967 206.72C308.322 206.72 306.103 207.488 304.311 209.024C302.604 210.56 301.751 212.736 301.751 215.552C301.751 218.112 302.519 220.373 304.055 222.336C305.591 224.213 307.554 226.005 309.943 227.712C312.418 229.333 314.978 231.125 317.623 233.088C320.695 235.136 323.426 237.227 325.815 239.36C328.204 241.408 330.124 243.712 331.575 246.272C333.026 248.747 333.751 251.691 333.751 255.104C333.751 259.029 332.642 262.4 330.423 265.216C328.29 267.947 325.431 270.08 321.847 271.616C318.348 273.067 314.466 273.792 310.199 273.792C307.895 273.792 305.804 273.579 303.927 273.152C302.05 272.725 300.386 272.171 298.935 271.488C297.826 270.891 296.802 270.336 295.863 269.824C295.01 269.312 294.114 268.885 293.175 268.544C292.322 268.117 291.554 268.288 290.871 269.056C290.274 269.824 289.804 271.104 289.463 272.896H286.647C286.818 270.165 286.946 266.837 287.031 262.912C287.116 258.987 287.159 253.781 287.159 247.296H289.975C290.572 251.989 291.468 256.128 292.663 259.712C293.943 263.211 295.778 265.984 298.167 268.032C300.556 269.995 303.628 270.976 307.383 270.976C309.004 270.976 310.54 270.635 311.991 269.952C313.527 269.269 314.764 268.203 315.703 266.752C316.727 265.301 317.239 263.339 317.239 260.864C317.239 257.109 315.959 253.995 313.399 251.52C310.839 249.045 307.639 246.4 303.799 243.584C300.898 241.451 298.167 239.36 295.607 237.312C293.132 235.264 291.084 232.96 289.463 230.4C287.927 227.84 287.159 224.811 287.159 221.312C287.159 217.472 288.14 214.315 290.103 211.84C292.066 209.28 294.626 207.36 297.783 206.08C301.026 204.715 304.482 204.032 308.151 204.032ZM366.395 184.832V205.952H382.779V208.512H366.395V259.456C366.395 262.528 366.95 264.704 368.059 265.984C369.168 267.264 370.747 267.904 372.795 267.904C374.758 267.904 376.55 267.179 378.171 265.728C379.792 264.192 381.243 261.675 382.523 258.176L384.827 259.2C383.547 263.381 381.542 266.88 378.811 269.696C376.166 272.427 372.411 273.792 367.547 273.792C364.646 273.792 362.171 273.408 360.123 272.64C358.16 271.957 356.454 270.933 355.003 269.568C353.126 267.605 351.846 265.259 351.163 262.528C350.566 259.797 350.267 256.171 350.267 251.648V208.512H339.003V205.952H350.267V188.16C353.339 188.075 356.198 187.776 358.843 187.264C361.488 186.752 364.006 185.941 366.395 184.832ZM419.209 204.032C426.718 204.032 432.606 206.293 436.873 210.816C441.14 215.339 443.273 222.549 443.273 232.448H400.137L400.009 230.016H428.425C428.596 225.835 428.34 221.995 427.657 218.496C426.974 214.912 425.865 212.053 424.329 209.92C422.878 207.787 420.958 206.72 418.569 206.72C415.326 206.72 412.51 208.64 410.121 212.48C407.732 216.235 406.238 222.421 405.641 231.04L406.153 231.808C405.982 232.917 405.854 234.112 405.769 235.392C405.769 236.672 405.769 237.952 405.769 239.232C405.769 245.12 406.622 249.984 408.329 253.824C410.036 257.664 412.254 260.48 414.985 262.272C417.716 264.064 420.532 264.96 423.433 264.96C425.396 264.96 427.401 264.661 429.449 264.064C431.497 263.467 433.502 262.357 435.465 260.736C437.428 259.115 439.22 256.811 440.841 253.824L443.273 254.848C442.334 257.835 440.756 260.821 438.537 263.808C436.404 266.709 433.63 269.099 430.217 270.976C426.804 272.853 422.793 273.792 418.185 273.792C412.382 273.792 407.262 272.512 402.825 269.952C398.388 267.392 394.932 263.595 392.457 258.56C389.982 253.44 388.745 247.211 388.745 239.872C388.745 232.107 390.025 225.579 392.585 220.288C395.23 214.997 398.857 210.987 403.465 208.256C408.073 205.44 413.321 204.032 419.209 204.032ZM493.574 204.032C496.219 204.032 498.395 204.587 500.102 205.696C501.894 206.805 503.217 208.213 504.07 209.92C504.923 211.627 505.35 213.419 505.35 215.296C505.35 218.112 504.497 220.459 502.79 222.336C501.169 224.213 498.993 225.152 496.262 225.152C493.702 225.152 491.611 224.469 489.99 223.104C488.369 221.739 487.558 219.861 487.558 217.472C487.558 215.339 488.07 213.547 489.094 212.096C490.203 210.645 491.441 209.493 492.806 208.64C491.867 208.128 490.801 207.957 489.606 208.128C487.558 208.299 485.681 209.024 483.974 210.304C482.267 211.584 480.817 213.163 479.622 215.04C478.427 216.917 477.489 218.923 476.806 221.056C476.209 223.189 475.91 225.237 475.91 227.2V258.816C475.91 262.997 476.977 265.813 479.11 267.264C481.243 268.629 484.358 269.312 488.454 269.312V272C486.491 271.915 483.633 271.829 479.878 271.744C476.209 271.573 472.369 271.488 468.358 271.488C465.03 271.488 461.702 271.573 458.374 271.744C455.131 271.829 452.699 271.915 451.078 272V269.312C454.235 269.312 456.454 268.672 457.734 267.392C459.099 266.112 459.782 263.68 459.782 260.096V219.776C459.782 215.936 459.142 213.12 457.862 211.328C456.667 209.451 454.406 208.512 451.078 208.512V205.824C453.809 206.08 456.454 206.208 459.014 206.208C462.171 206.208 465.158 206.08 467.974 205.824C470.875 205.483 473.521 205.013 475.91 204.416V217.728C476.934 215.339 478.257 213.12 479.878 211.072C481.585 209.024 483.59 207.36 485.894 206.08C488.283 204.715 490.843 204.032 493.574 204.032ZM534.276 204.032C537.86 204.032 540.932 204.544 543.492 205.568C546.052 206.592 547.929 207.488 549.124 208.256C552.025 210.389 553.775 209.024 554.372 204.16H557.188C557.017 206.635 556.889 209.579 556.804 212.992C556.719 216.32 556.676 220.8 556.676 226.432H553.86C553.433 223.275 552.623 220.203 551.428 217.216C550.233 214.229 548.484 211.755 546.18 209.792C543.876 207.744 540.847 206.72 537.092 206.72C534.447 206.72 532.228 207.488 530.436 209.024C528.729 210.56 527.876 212.736 527.876 215.552C527.876 218.112 528.644 220.373 530.18 222.336C531.716 224.213 533.679 226.005 536.068 227.712C538.543 229.333 541.103 231.125 543.748 233.088C546.82 235.136 549.551 237.227 551.94 239.36C554.329 241.408 556.249 243.712 557.7 246.272C559.151 248.747 559.876 251.691 559.876 255.104C559.876 259.029 558.767 262.4 556.548 265.216C554.415 267.947 551.556 270.08 547.972 271.616C544.473 273.067 540.591 273.792 536.324 273.792C534.02 273.792 531.929 273.579 530.052 273.152C528.175 272.725 526.511 272.171 525.06 271.488C523.951 270.891 522.927 270.336 521.988 269.824C521.135 269.312 520.239 268.885 519.3 268.544C518.447 268.117 517.679 268.288 516.996 269.056C516.399 269.824 515.929 271.104 515.588 272.896H512.772C512.943 270.165 513.071 266.837 513.156 262.912C513.241 258.987 513.284 253.781 513.284 247.296H516.1C516.697 251.989 517.593 256.128 518.788 259.712C520.068 263.211 521.903 265.984 524.292 268.032C526.681 269.995 529.753 270.976 533.508 270.976C535.129 270.976 536.665 270.635 538.116 269.952C539.652 269.269 540.889 268.203 541.828 266.752C542.852 265.301 543.364 263.339 543.364 260.864C543.364 257.109 542.084 253.995 539.524 251.52C536.964 249.045 533.764 246.4 529.924 243.584C527.023 241.451 524.292 239.36 521.732 237.312C519.257 235.264 517.209 232.96 515.588 230.4C514.052 227.84 513.284 224.811 513.284 221.312C513.284 217.472 514.265 214.315 516.228 211.84C518.191 209.28 520.751 207.36 523.908 206.08C527.151 204.715 530.607 204.032 534.276 204.032Z" fill="#FFF6EA"/>
<path d="M728.384 289.254C719.554 286.374 712.384 296.354 716.704 305.674C717.464 307.324 702.414 287.474 697.264 281.844C692.114 276.214 695.544 263.144 695.544 263.144C708.854 263.144 721.414 253.044 713.044 241.454C704.674 229.864 691.354 241.454 691.354 241.454C691.354 241.454 681.494 237.024 680.014 235.794C678.534 234.564 674.104 229.634 674.104 229.634V211.334C659.104 208.084 658.334 229.634 658.334 229.634C646.994 234.184 645.024 240.474 645.024 240.474C645.024 240.474 641.824 243.064 638.864 245.034C637.971 245.697 637.233 246.547 636.701 247.525C636.169 248.502 635.856 249.583 635.784 250.694C634.306 252.421 632.988 254.279 631.844 256.244C630.734 258.464 631.594 261.784 631.594 261.784C630.059 262.995 628.787 264.507 627.855 266.226C626.923 267.945 626.351 269.836 626.174 271.784C624.574 263.654 620.874 264.644 620.874 264.644L620.754 266.364C620.203 265.917 619.503 265.695 618.795 265.741C618.087 265.788 617.423 266.099 616.934 266.614L618.534 268.214C615.334 268.214 616.074 271.784 616.074 271.784L619.074 271.544L621.164 273.264C620.766 273.443 620.434 273.741 620.214 274.118C619.993 274.494 619.896 274.929 619.934 275.364C619.934 275.364 624.614 279.424 625.494 281.154C626.374 282.884 626.704 298.154 626.704 298.154C623.384 302.834 627.944 305.914 627.944 305.914L629.944 304.914C629.944 304.914 634.254 321.914 640.784 334.604C647.314 347.294 654.234 348.864 654.234 348.864C654.234 348.864 648.694 350.714 648.444 353.554C648.343 354.318 648.481 355.094 648.839 355.776C649.197 356.459 649.758 357.013 650.444 357.364L652.794 355.644L654.634 357.004L658.334 354.164L661.534 353.674C668.064 360.574 681.864 359.674 681.864 359.674C674.474 363.244 672.014 362.254 667.944 362.504C663.874 362.754 663.264 365.954 663.264 365.954L665.484 367.064C665.199 367.458 665.045 367.932 665.045 368.419C665.045 368.905 665.199 369.38 665.484 369.774L669.794 369.154C670.284 370.884 677.794 368.414 677.794 368.414C677.794 368.414 688.634 364.724 692.574 363.734C696.514 362.744 695.654 360.284 695.654 360.284C695.654 360.284 698.654 359.914 708.944 353.284C715.768 353.432 722.588 352.865 729.294 351.594C747.884 348.064 752.764 333.094 752.764 317.594C752.774 304.274 736.884 292.024 728.384 289.254Z" fill="#394C38"/>
<path d="M717.616 154.338C717.49 154.234 717.383 154.142 717.272 154.056C717.155 153.966 717.07 153.985 716.98 154.111C716.897 154.226 716.808 154.335 716.731 154.454C716.69 154.516 716.645 154.591 716.643 154.661C716.637 154.948 716.476 155.177 716.373 155.427C716.324 155.549 716.197 155.586 716.082 155.527C715.967 155.467 715.862 155.389 715.746 155.334C715.258 155.107 714.739 155.018 714.205 155.006C713.609 154.992 713.024 155.045 712.443 155.202C712.105 155.294 711.771 155.374 711.462 155.545C711.053 155.769 710.615 155.911 710.166 156.043C709.17 156.336 708.226 156.754 707.435 157.459C707.117 157.744 706.799 158.03 706.48 158.314C706.228 158.536 705.974 158.757 705.723 158.98C705.665 159.032 705.606 159.086 705.562 159.148C705.196 159.671 704.732 160.114 704.369 160.633C703.998 161.165 703.609 161.686 703.323 162.274C703.295 162.332 703.269 162.393 703.232 162.446C702.925 162.887 702.748 163.392 702.53 163.877C702.482 163.984 702.437 164.092 702.381 164.195C702.15 164.615 701.916 165.036 701.683 165.455C701.664 165.489 701.648 165.526 701.625 165.557C701.293 165.983 701.134 166.497 700.914 166.98C700.801 167.228 700.681 167.475 700.544 167.71C700.195 168.308 699.955 168.948 699.783 169.62C699.615 170.275 699.426 170.924 699.182 171.555C699.074 171.834 699.008 172.129 698.891 172.403C698.635 173.003 698.468 173.631 698.3 174.258C698.225 174.533 698.185 174.818 698.129 175.099C698.098 175.252 698.083 175.41 698.033 175.557C697.85 176.097 697.684 176.644 697.375 177.135C697.231 177.363 697.126 177.617 697.008 177.862C696.994 177.89 696.999 177.955 697.019 177.968C697.056 177.993 697.111 178.002 697.157 178C697.192 177.998 697.226 177.968 697.261 177.951C697.551 177.808 697.848 177.688 698.156 177.585C698.486 177.475 698.805 177.332 699.125 177.193C699.456 177.05 699.775 176.873 700.113 176.748C700.619 176.56 701.131 176.382 701.678 176.345C701.895 176.33 702.109 176.271 702.323 176.223C702.687 176.143 703.05 176.05 703.415 175.973C703.54 175.947 703.672 175.952 703.801 175.945C704.225 175.92 704.652 175.909 705.075 175.866C705.434 175.831 705.787 175.746 706.145 175.707C706.647 175.652 707.134 175.532 707.623 175.413C707.685 175.398 707.748 175.383 707.809 175.362C708.429 175.143 709.048 174.925 709.668 174.704C709.68 174.701 709.693 174.699 709.705 174.692C710.178 174.419 710.708 174.285 711.203 174.068C711.708 173.844 712.199 173.584 712.673 173.288C712.992 173.09 713.277 172.847 713.592 172.646C713.963 172.41 714.336 172.177 714.697 171.927C715.499 171.37 716.209 170.714 716.807 169.932C717.09 169.562 717.387 169.2 717.708 168.862C718.117 168.432 718.391 167.92 718.664 167.402C718.772 167.195 718.888 166.991 718.988 166.78C719.093 166.558 719.189 166.33 719.279 166.102C719.396 165.798 719.505 165.492 719.613 165.186C719.695 164.953 719.743 164.712 719.766 164.463C719.831 163.764 719.904 163.065 719.98 162.366C720.026 161.946 719.99 161.533 719.894 161.125C719.8 160.722 719.738 160.308 719.571 159.925C719.363 159.448 719.146 158.978 718.867 158.538C718.498 157.954 718.052 157.433 717.634 156.887C717.445 156.64 717.28 156.378 717.044 156.17C716.968 156.103 716.961 156.014 716.999 155.92C717.126 155.595 717.197 155.249 717.375 154.939C717.477 154.763 717.531 154.557 717.616 154.338Z" fill="#FFF6EA"/>
<path d="M1050.87 237.268C1050.96 237.185 1051.05 237.113 1051.14 237.044C1051.23 236.973 1051.29 236.988 1051.36 237.088C1051.43 237.179 1051.5 237.265 1051.56 237.359C1051.59 237.409 1051.63 237.468 1051.63 237.523C1051.63 237.751 1051.76 237.932 1051.84 238.13C1051.88 238.226 1051.98 238.255 1052.07 238.209C1052.16 238.161 1052.24 238.1 1052.33 238.056C1052.71 237.876 1053.12 237.806 1053.53 237.797C1054 237.786 1054.46 237.827 1054.91 237.952C1055.18 238.024 1055.44 238.088 1055.68 238.223C1056 238.4 1056.34 238.513 1056.7 238.618C1057.48 238.849 1058.21 239.18 1058.83 239.739C1059.08 239.964 1059.33 240.19 1059.58 240.415C1059.78 240.591 1059.98 240.766 1060.17 240.943C1060.22 240.984 1060.26 241.026 1060.3 241.076C1060.59 241.489 1060.95 241.84 1061.23 242.251C1061.52 242.672 1061.83 243.085 1062.05 243.55C1062.07 243.596 1062.09 243.645 1062.12 243.686C1062.36 244.035 1062.5 244.436 1062.67 244.819C1062.71 244.904 1062.75 244.99 1062.79 245.071C1062.97 245.404 1063.15 245.736 1063.34 246.069C1063.35 246.096 1063.36 246.125 1063.38 246.149C1063.64 246.487 1063.76 246.894 1063.94 247.276C1064.03 247.472 1064.12 247.668 1064.23 247.854C1064.5 248.327 1064.69 248.834 1064.82 249.366C1064.95 249.884 1065.1 250.398 1065.29 250.898C1065.38 251.119 1065.43 251.352 1065.52 251.569C1065.72 252.044 1065.85 252.541 1065.98 253.037C1066.04 253.256 1066.07 253.481 1066.12 253.703C1066.14 253.824 1066.15 253.95 1066.19 254.066C1066.34 254.494 1066.46 254.927 1066.71 255.315C1066.82 255.496 1066.9 255.697 1066.99 255.891C1067 255.913 1067 255.964 1066.99 255.975C1066.96 255.994 1066.91 256.001 1066.88 256C1066.85 255.998 1066.82 255.975 1066.8 255.961C1066.57 255.848 1066.34 255.753 1066.1 255.671C1065.84 255.585 1065.59 255.471 1065.34 255.361C1065.08 255.248 1064.83 255.108 1064.56 255.009C1064.17 254.86 1063.77 254.719 1063.34 254.69C1063.17 254.678 1063 254.631 1062.83 254.594C1062.55 254.53 1062.27 254.456 1061.98 254.395C1061.88 254.374 1061.78 254.379 1061.68 254.373C1061.35 254.353 1061.01 254.345 1060.68 254.311C1060.4 254.283 1060.12 254.215 1059.84 254.184C1059.45 254.141 1059.07 254.046 1058.69 253.952C1058.64 253.94 1058.59 253.928 1058.54 253.912C1058.06 253.739 1057.57 253.565 1057.09 253.391C1057.08 253.388 1057.07 253.386 1057.06 253.381C1056.69 253.165 1056.27 253.059 1055.88 252.887C1055.49 252.71 1055.11 252.504 1054.73 252.27C1054.48 252.113 1054.26 251.921 1054.01 251.762C1053.72 251.575 1053.43 251.39 1053.15 251.192C1052.52 250.751 1051.97 250.232 1051.5 249.613C1051.28 249.32 1051.04 249.033 1050.79 248.766C1050.47 248.425 1050.26 248.02 1050.05 247.61C1049.96 247.446 1049.87 247.285 1049.79 247.118C1049.71 246.942 1049.63 246.761 1049.56 246.58C1049.47 246.34 1049.39 246.098 1049.3 245.855C1049.24 245.671 1049.2 245.48 1049.18 245.283C1049.13 244.729 1049.08 244.176 1049.02 243.623C1048.98 243.291 1049.01 242.964 1049.08 242.641C1049.16 242.322 1049.21 241.994 1049.34 241.69C1049.5 241.313 1049.67 240.941 1049.89 240.592C1050.18 240.13 1050.52 239.718 1050.85 239.286C1051 239.09 1051.13 238.882 1051.31 238.718C1051.37 238.665 1051.38 238.595 1051.35 238.52C1051.25 238.262 1051.19 237.989 1051.05 237.744C1050.97 237.604 1050.93 237.441 1050.87 237.268Z" fill="#FFF6EA"/>
<path d="M772.688 218.312C772.811 218.271 772.915 218.234 773.021 218.201C773.132 218.168 773.188 218.206 773.218 218.324C773.245 218.433 773.279 218.539 773.302 218.648C773.313 218.706 773.325 218.774 773.306 218.826C773.228 219.04 773.28 219.254 773.284 219.468C773.285 219.572 773.367 219.635 773.468 219.624C773.568 219.612 773.667 219.585 773.768 219.577C774.189 219.547 774.594 219.629 774.986 219.771C775.425 219.929 775.837 220.134 776.216 220.415C776.436 220.578 776.656 220.732 776.834 220.945C777.068 221.226 777.346 221.455 777.636 221.68C778.279 222.178 778.848 222.754 779.223 223.498C779.374 223.799 779.523 224.099 779.675 224.399C779.795 224.635 779.917 224.87 780.036 225.106C780.064 225.16 780.091 225.216 780.106 225.275C780.223 225.764 780.434 226.223 780.551 226.709C780.67 227.206 780.804 227.701 780.844 228.216C780.848 228.267 780.849 228.319 780.861 228.369C780.959 228.781 780.943 229.204 780.964 229.624C780.968 229.716 780.97 229.809 780.981 229.9C781.029 230.276 781.08 230.653 781.13 231.028C781.134 231.059 781.134 231.09 781.143 231.12C781.263 231.528 781.232 231.953 781.254 232.372C781.266 232.586 781.282 232.802 781.315 233.015C781.398 233.555 781.39 234.095 781.323 234.64C781.258 235.171 781.21 235.703 781.207 236.239C781.206 236.475 781.17 236.711 781.177 236.946C781.192 237.462 781.133 237.972 781.077 238.483C781.052 238.707 781 238.929 780.961 239.152C780.939 239.274 780.905 239.395 780.899 239.517C780.878 239.968 780.843 240.419 780.927 240.868C780.967 241.077 780.971 241.294 780.987 241.508C780.989 241.534 780.967 241.58 780.949 241.584C780.914 241.591 780.872 241.583 780.839 241.568C780.814 241.557 780.797 241.525 780.777 241.503C780.607 241.315 780.424 241.142 780.229 240.979C780.02 240.805 779.828 240.609 779.634 240.415C779.434 240.216 779.251 239.995 779.041 239.807C778.725 239.525 778.403 239.249 778.014 239.067C777.861 238.994 777.721 238.89 777.579 238.795C777.336 238.632 777.098 238.461 776.854 238.3C776.77 238.245 776.672 238.212 776.58 238.17C776.278 238.032 775.969 237.903 775.673 237.752C775.421 237.624 775.188 237.461 774.938 237.331C774.587 237.148 774.266 236.922 773.944 236.696C773.902 236.667 773.861 236.638 773.822 236.606C773.433 236.269 773.044 235.932 772.655 235.594C772.647 235.587 772.638 235.582 772.631 235.575C772.365 235.239 772.016 234.99 771.717 234.689C771.413 234.382 771.129 234.05 770.868 233.698C770.692 233.461 770.553 233.201 770.381 232.964C770.178 232.685 769.972 232.407 769.781 232.12C769.356 231.482 769.025 230.796 768.813 230.051C768.713 229.697 768.599 229.346 768.462 229.006C768.287 228.572 768.233 228.117 768.183 227.657C768.163 227.474 768.137 227.291 768.125 227.106C768.111 226.913 768.106 226.717 768.107 226.523C768.108 226.266 768.116 226.01 768.125 225.753C768.132 225.558 768.166 225.367 768.221 225.176C768.373 224.641 768.52 224.105 768.665 223.568C768.751 223.245 768.896 222.95 769.083 222.676C769.267 222.406 769.431 222.117 769.663 221.882C769.951 221.589 770.243 221.304 770.574 221.057C771.01 220.731 771.484 220.473 771.946 220.188C772.154 220.06 772.35 219.913 772.582 219.826C772.656 219.798 772.686 219.735 772.686 219.654C772.686 219.378 772.734 219.103 772.692 218.824C772.668 218.665 772.688 218.498 772.688 218.312Z" fill="#FFF6EA"/>
<path d="M982.834 210.116C982.661 210.479 982.549 210.556 982.245 210.475C981.869 210.374 981.505 210.227 981.127 210.138C980.454 209.977 979.776 209.844 979.099 209.701C978.443 209.562 977.787 209.426 977.081 209.278C977.05 209.385 977.011 209.516 976.971 209.65C976.797 209.764 976.608 209.779 976.412 209.723C976.1 209.632 975.775 209.569 975.483 209.435C974.686 209.071 973.827 208.934 972.995 208.697C972.808 208.644 972.624 208.578 972.44 208.516C972.179 208.427 971.947 208.317 971.634 208.422C971.322 208.527 970.998 208.356 970.715 208.184C970.122 207.824 969.482 207.561 968.847 207.289C968.469 207.129 968.067 207.03 967.712 206.811C967.603 206.743 967.491 206.696 967.361 206.808C967.204 206.944 967.032 206.874 966.877 206.787C966.269 206.447 965.687 206.069 965.214 205.552C964.869 205.175 964.46 204.914 963.995 204.717C963.839 204.652 963.695 204.55 963.558 204.449C963.348 204.297 963.149 204.13 962.945 203.967C962.81 203.86 962.685 203.763 962.482 203.787C962.371 203.802 962.23 203.73 962.128 203.658C961.682 203.349 961.259 203.003 960.956 202.55C960.602 202.02 960.11 201.632 959.657 201.202C959.236 200.803 958.808 200.413 958.384 200.016C958.321 199.958 958.271 199.852 958.201 199.839C957.842 199.769 957.683 199.463 957.459 199.238C957.093 198.871 956.738 198.494 956.378 198.121C956.303 198.044 956.217 197.975 956.152 197.888C955.854 197.485 955.472 197.202 955.03 196.956C954.562 196.694 954.144 196.339 953.725 195.997C953.543 195.85 953.368 195.771 953.13 195.811C953.111 195.743 953.076 195.681 953.081 195.624C953.104 195.404 953.03 195.234 952.824 195.151C952.118 194.865 951.993 194.272 952 193.612C952.003 193.391 952.149 193.234 952.369 193.256C952.872 193.309 953.133 193.043 953.299 192.624C953.339 192.525 953.374 192.425 953.412 192.32C953.313 192.144 953.221 191.978 953.121 191.799C953.609 191.234 954.248 191.072 954.926 191.002C955.007 190.993 955.101 191.017 955.177 191.051C955.766 191.32 956.361 191.576 956.981 191.769C957.098 191.808 957.212 191.888 957.3 191.978C957.552 192.233 957.864 192.357 958.195 192.479C958.927 192.75 959.671 192.772 960.432 192.671C961.341 192.55 962.242 192.591 963.138 192.798C963.732 192.936 964.336 192.978 964.947 192.962C965.987 192.933 967.026 192.916 968.067 192.896C968.301 192.892 968.55 192.854 968.687 193.129C968.709 193.172 968.796 193.197 968.856 193.203C969.392 193.271 969.929 193.341 970.467 193.395C970.789 193.429 971.12 193.407 971.438 193.465C971.754 193.521 972.068 193.622 972.362 193.753C972.545 193.834 972.721 193.895 972.918 193.9C973.295 193.91 973.648 194.019 973.977 194.185C974.426 194.41 974.899 194.555 975.381 194.684C975.82 194.801 976.255 194.932 976.686 195.073C976.844 195.126 976.987 195.225 977.128 195.298C977.103 195.444 977.085 195.546 977.063 195.677C977.332 195.76 977.602 195.834 977.865 195.925C978.006 195.974 978.195 196.015 978.262 196.121C978.442 196.41 978.722 196.477 979.005 196.561C979.026 196.569 979.047 196.575 979.066 196.585C980.201 197.189 981.456 197.46 982.659 197.876C982.762 197.911 982.869 197.933 982.969 197.973C983.406 198.138 983.43 198.185 983.372 198.682C983.571 198.811 983.774 198.932 983.967 199.066C984.892 199.708 985.842 200.302 986.865 200.783C987.217 200.948 987.538 201.162 987.933 201.238C988.091 201.268 988.23 201.397 988.386 201.486C988.372 201.571 988.367 201.632 988.351 201.688C988.335 201.748 988.308 201.804 988.277 201.885C988.915 202.183 989.542 202.472 990.166 202.77C990.322 202.844 990.486 202.919 990.612 203.031C991.009 203.387 991.492 203.573 991.977 203.754C992.647 204.002 993.323 204.234 993.991 204.486C994.331 204.614 994.699 204.705 994.925 205.038C994.966 205.098 995.07 205.13 995.151 205.147C995.795 205.273 996.381 205.561 996.995 205.769C997.938 206.088 998.891 206.378 999.833 206.702C1001.44 207.254 1003.09 207.567 1004.79 207.671C1005.33 207.706 1005.86 207.8 1006.4 207.884C1006.61 207.919 1006.81 208.005 1006.98 208.058C1007.04 208.244 1006.94 208.305 1006.86 208.373C1006.64 208.56 1006.37 208.641 1006.1 208.708C1004.98 208.983 1003.87 209.26 1002.75 209.532C1001.4 209.863 1000.03 210.063 998.663 210.262C997.952 210.366 997.242 210.419 996.526 210.426C996.376 210.427 996.212 210.429 996.077 210.483C995.283 210.808 994.461 210.725 993.641 210.679C993.49 210.669 993.34 210.646 993.189 210.629C992.967 210.604 992.775 210.628 992.595 210.801C992.378 211.008 992.081 211.017 991.795 210.988C990.848 210.894 989.903 210.766 988.954 210.704C988.069 210.644 987.179 210.651 986.292 210.629C986.154 210.626 986.043 210.657 985.998 210.816C985.964 210.938 985.857 210.971 985.74 210.956C985.59 210.938 985.437 210.923 985.292 210.881C984.524 210.66 983.737 210.494 983.004 210.156C982.966 210.14 982.921 210.136 982.834 210.116Z" fill="#FFF6EA"/>
<path d="M1007.21 296.603C1007.28 296.873 1007.25 296.963 1007.06 297.048C1006.82 297.154 1006.56 297.229 1006.32 297.341C1005.9 297.54 1005.49 297.757 1005.07 297.967C1004.66 298.171 1004.26 298.376 1003.83 298.596C1003.86 298.668 1003.89 298.755 1003.93 298.845C1003.89 298.981 1003.8 299.069 1003.67 299.122C1003.47 299.205 1003.27 299.31 1003.06 299.361C1002.48 299.503 1001.97 299.794 1001.43 300.02C1001.31 300.071 1001.18 300.113 1001.06 300.158C1000.88 300.221 1000.71 300.259 1000.6 300.45C1000.48 300.639 1000.23 300.685 1000.01 300.712C999.54 300.769 999.089 300.898 998.637 301.021C998.369 301.095 998.114 301.212 997.832 301.245C997.745 301.255 997.665 301.276 997.647 301.393C997.624 301.533 997.503 301.568 997.384 301.587C996.916 301.662 996.444 301.704 995.969 301.625C995.622 301.567 995.293 301.6 994.963 301.691C994.852 301.722 994.732 301.728 994.615 301.732C994.439 301.738 994.261 301.732 994.083 301.731C993.965 301.73 993.856 301.731 993.761 301.83C993.709 301.886 993.603 301.907 993.519 301.911C993.149 301.933 992.775 301.926 992.416 301.809C991.998 301.673 991.569 301.671 991.143 301.631C990.746 301.593 990.35 301.564 989.953 301.529C989.895 301.525 989.822 301.489 989.779 301.511C989.561 301.626 989.343 301.528 989.126 301.501C988.773 301.458 988.421 301.404 988.068 301.356C987.995 301.346 987.919 301.345 987.847 301.325C987.514 301.233 987.189 301.243 986.849 301.297C986.489 301.354 986.113 301.34 985.743 301.333C985.583 301.33 985.457 301.362 985.349 301.485C985.309 301.456 985.264 301.438 985.242 301.404C985.157 301.275 985.043 301.215 984.899 301.257C984.403 301.402 984.076 301.135 983.79 300.774C983.693 300.652 983.701 300.505 983.826 300.424C984.113 300.239 984.132 299.983 984.035 299.685C984.012 299.615 983.986 299.545 983.96 299.472C983.831 299.419 983.71 299.368 983.578 299.314C983.585 298.799 983.848 298.44 984.173 298.114C984.212 298.074 984.271 298.047 984.326 298.034C984.753 297.928 985.177 297.814 985.587 297.655C985.665 297.626 985.76 297.622 985.846 297.633C986.091 297.664 986.309 297.598 986.536 297.524C987.039 297.359 987.438 297.054 987.792 296.676C988.215 296.224 988.705 295.863 989.266 295.594C989.637 295.416 989.973 295.182 990.286 294.913C990.817 294.454 991.354 294.003 991.891 293.55C992.012 293.448 992.126 293.322 992.318 293.412C992.349 293.426 992.405 293.402 992.439 293.381C992.75 293.189 993.062 292.999 993.368 292.799C993.552 292.68 993.715 292.528 993.907 292.424C994.098 292.32 994.307 292.241 994.518 292.187C994.65 292.153 994.769 292.111 994.874 292.03C995.076 291.875 995.309 291.784 995.555 291.734C995.889 291.665 996.2 291.543 996.51 291.407C996.791 291.284 997.077 291.17 997.365 291.063C997.471 291.024 997.589 291.017 997.695 290.997C997.746 291.086 997.782 291.149 997.828 291.23C998.005 291.16 998.179 291.086 998.358 291.023C998.453 290.99 998.57 290.932 998.652 290.961C998.873 291.041 999.049 290.958 999.235 290.883C999.249 290.878 999.263 290.873 999.277 290.87C1000.14 290.715 1000.91 290.327 1001.73 290.041C1001.8 290.017 1001.86 289.983 1001.93 289.962C1002.23 289.866 1002.27 289.881 1002.46 290.175C1002.62 290.16 1002.78 290.14 1002.94 290.13C1003.7 290.084 1004.46 290.002 1005.21 289.828C1005.47 289.768 1005.73 289.747 1005.97 289.62C1006.07 289.569 1006.2 289.58 1006.32 289.562C1006.35 289.614 1006.37 289.649 1006.39 289.686C1006.41 289.726 1006.42 289.767 1006.44 289.824C1006.9 289.714 1007.36 289.605 1007.82 289.501C1007.93 289.475 1008.05 289.445 1008.16 289.452C1008.53 289.477 1008.86 289.372 1009.2 289.264C1009.66 289.113 1010.11 288.951 1010.57 288.803C1010.81 288.729 1011.04 288.622 1011.31 288.706C1011.35 288.72 1011.42 288.694 1011.47 288.669C1011.87 288.463 1012.3 288.369 1012.71 288.221C1013.35 287.993 1013.97 287.745 1014.61 287.52C1015.7 287.135 1016.7 286.602 1017.63 285.936C1017.93 285.726 1018.25 285.549 1018.57 285.367C1018.7 285.297 1018.84 285.259 1018.95 285.214C1019.07 285.288 1019.04 285.364 1019.03 285.435C1018.99 285.631 1018.89 285.789 1018.77 285.943C1018.31 286.566 1017.85 287.19 1017.39 287.813C1016.83 288.565 1016.2 289.257 1015.57 289.948C1015.24 290.307 1014.89 290.637 1014.52 290.946C1014.44 291.01 1014.36 291.081 1014.31 291.168C1014.04 291.681 1013.57 291.986 1013.12 292.31C1013.03 292.369 1012.95 292.42 1012.86 292.476C1012.73 292.557 1012.64 292.651 1012.62 292.822C1012.6 293.026 1012.45 293.157 1012.29 293.263C1011.75 293.615 1011.2 293.948 1010.67 294.318C1010.18 294.662 1009.72 295.044 1009.25 295.41C1009.17 295.467 1009.13 295.531 1009.17 295.637C1009.21 295.717 1009.17 295.781 1009.1 295.822C1009.01 295.876 1008.93 295.933 1008.83 295.972C1008.33 296.179 1007.85 296.424 1007.32 296.552C1007.29 296.559 1007.26 296.577 1007.21 296.603Z" fill="#FFF6EA"/>
<path d="M1155.72 112.043C1154.01 109.459 1151.47 107.541 1148.52 106.608C1149.66 105.267 1150.42 103.634 1150.7 101.89C1150.98 100.147 1150.77 98.3598 1150.1 96.7269C1149.23 94.9513 1147.91 93.4338 1146.27 92.3246C1144.64 91.2155 1142.74 90.553 1140.77 90.4028C1141.1 89.3405 1141.33 88.2485 1141.46 87.1419C1141.44 84.8925 1140.73 82.7028 1139.44 80.867C1138.22 79.0435 1136.34 77.7669 1134.2 77.3097C1134.54 75.5969 1134.18 73.8212 1133.22 72.3689C1132.64 71.4831 1131.92 70.6984 1131.09 70.0467L1130.8 69.7503C1130.04 69.2027 1129.23 68.7388 1128.38 68.3669L1127.19 67.873H1126.9C1125.21 67.2647 1123.48 66.7856 1121.72 66.4401C1119.81 66.342 1117.98 65.6512 1116.48 64.4638C1115.75 63.6904 1114.84 63.0933 1113.84 62.7169C1112.84 62.3405 1111.77 62.1946 1110.71 62.2899C1109.11 62.6682 1107.68 63.5765 1106.66 64.8678C1105.64 66.159 1105.08 67.7577 1105.08 69.4046C1103.92 69.1655 1102.72 69.2861 1101.63 69.7503C1101.18 68.4114 1100.52 67.1581 1099.65 66.0447C1099.52 65.8033 1099.37 65.5721 1099.21 65.3531C1099.33 65.55 1099.48 65.7322 1099.65 65.8965C1099.79 64.8103 1100.07 63.7472 1100.49 62.7345L1100.74 61.8945C1102.21 61.8649 1103.66 61.5248 1105 60.8962C1106.34 60.2677 1107.52 59.3647 1108.49 58.2463C1109.45 57.1278 1110.17 55.8188 1110.59 54.4044C1111.02 52.99 1111.14 51.5018 1110.95 50.0368C1111 49.124 1110.91 48.2099 1110.71 47.3194C1111.94 46.6371 1113.02 45.7145 1113.89 44.6063C1114.76 43.498 1115.39 42.2267 1115.76 40.8675C1116.13 39.5084 1116.22 38.0892 1116.03 36.6938C1115.84 35.2984 1115.37 33.9553 1114.66 32.7441C1114.27 31.8856 1113.79 31.0735 1113.23 30.3232C1111.9 28.6908 1110.16 27.4415 1108.19 26.7034C1106.22 25.9654 1104.09 25.7652 1102.02 26.1235C1099.4 26.9635 1100.14 26.9634 1098.17 25.4812C1098.22 24.9389 1098.22 24.3931 1098.17 23.8508C1098.17 23.6038 1098.17 23.3567 1098.17 23.159C1098.04 22.7267 1097.86 22.3119 1097.63 21.9239C1097.53 21.6999 1097.42 21.4849 1097.28 21.2815C1096.89 20.3968 1096.34 19.5927 1095.65 18.9101C1095.65 18.9101 1095.36 18.9101 1095.21 18.9101C1094.86 18.5912 1094.48 18.3096 1094.07 18.0701C1095.32 17.8336 1096.49 17.3141 1097.5 16.5516C1098.51 15.789 1099.33 14.8041 1099.9 13.6729C1105.48 12.1907 1113.08 8.73199 1112.58 2.11138C1112.54 0.352507 1112.03 -1.3624 1111.1 -2.85636C1110.17 -4.35032 1108.86 -5.56899 1107.3 -6.38657C1108.64 -7.3161 1109.76 -8.52337 1110.6 -9.92612C1111.43 -11.3289 1111.95 -12.8944 1112.12 -14.5162C1112.29 -16.138 1112.12 -17.7781 1111.6 -19.3251C1111.08 -20.8721 1110.24 -22.2898 1109.13 -23.4817L1108.88 -23.8276C1108.21 -24.5157 1107.42 -25.0838 1106.56 -25.5074H1106.17C1105.4 -25.9058 1104.59 -26.2046 1103.75 -26.3967H1103.35L1101.23 -26.7426H1099.9H1097.68C1096.98 -28.6683 1095.71 -30.3302 1094.03 -31.4985C1092.35 -32.6668 1090.34 -33.2838 1088.3 -33.2643C1088.86 -35.5596 1088.68 -37.973 1087.8 -40.1631C1086.91 -42.3531 1085.36 -44.2089 1083.36 -45.4679C1081.35 -46.5624 1079.08 -47.09 1076.8 -46.9943C1074.51 -46.8986 1072.29 -46.1832 1070.38 -44.9245C1069.22 -45.5015 1067.92 -45.7682 1066.63 -45.6989C1065.33 -45.6297 1064.07 -45.2268 1062.98 -44.5292C1062.84 -44.7157 1062.73 -44.9143 1062.63 -45.1222C1061.42 -46.8831 1059.7 -48.2284 1057.7 -48.976C1056.11 -49.6238 1054.38 -49.8234 1052.69 -49.5533C1051 -49.2832 1049.42 -48.5537 1048.12 -47.4444L1047.77 -47.9383C1047 -49.1129 1046.07 -50.1768 1045.01 -51.1005C1043.77 -52.1558 1042.31 -52.9103 1040.74 -53.3046C1039.16 -53.6989 1037.51 -53.7223 1035.93 -53.3732C1033.85 -52.643 1031.97 -51.4495 1030.42 -49.8831C1028.87 -48.3166 1027.7 -46.4183 1026.99 -44.3317C1026.49 -42.6237 1026.35 -40.8267 1026.6 -39.0624C1026.85 -37.298 1027.47 -35.6072 1028.42 -34.1043C1029.16 -32.2762 1026.75 -31.041 1024.92 -29.9046C1024.47 -30.7076 1023.92 -31.454 1023.29 -32.128C1021.99 -33.3689 1020.39 -34.2537 1018.65 -34.6971C1017.54 -34.9221 1016.4 -34.9221 1015.29 -34.6971C1015.27 -34.8772 1015.27 -35.0607 1015.29 -35.2407C1015.09 -36.837 1014.72 -38.4089 1014.21 -39.9343C1014.12 -40.31 1013.95 -40.6629 1013.72 -40.9718C1016.23 -44.3316 1017.96 -51.298 1014.65 -54.5589C1009.64 -58.7204 1003.39 -61.0857 996.883 -61.2784C994.947 -61.3843 993.006 -61.2348 991.108 -60.8338C989.993 -61.189 988.855 -61.4695 987.702 -61.6736C987.011 -64.4404 985.679 -67.405 984.889 -69.6778C983.556 -73.3833 985.481 -77.1382 980.94 -79.3121C979.555 -79.9354 978.064 -80.2876 976.547 -80.3497C975.707 -81.0589 974.756 -81.6264 973.734 -82.0296C973.779 -82.4731 973.779 -82.9201 973.734 -83.3636C974.325 -85.5475 974.325 -87.8497 973.734 -90.0336C973.256 -91.8462 972.161 -93.435 970.638 -94.5263C969.115 -95.6176 967.26 -96.143 965.392 -96.0119C964.241 -95.7373 963.162 -95.2208 962.226 -94.4967C961.289 -93.7727 960.518 -92.8576 959.962 -91.8122C959.624 -91.9124 959.264 -91.9124 958.926 -91.8122C954.533 -90.5276 953.545 -87.4643 954.829 -82.9682C955.569 -80.152 954.829 -76.2983 952.114 -79.7568C950.778 -81.6194 949.274 -83.3559 947.622 -84.9447C943.821 -88.0573 936.072 -86.6738 932.024 -84.6975C927.977 -82.7212 928.618 -79.7568 929.112 -75.9525C929.22 -75.2482 929.437 -74.5649 929.754 -73.9267C931.086 -71.6046 930.001 -72.1481 926.496 -75.5078C925.96 -77.0096 925.299 -78.4639 924.522 -79.8557C924.127 -80.5474 920.77 -84.4012 920.82 -84.3023C920.892 -84.9921 920.892 -85.6876 920.82 -86.3774C920.79 -86.4908 920.79 -86.6098 920.82 -86.7233C920.82 -87.2667 920.523 -87.7609 920.326 -88.3043L920.079 -88.6995C919.884 -89.1964 919.618 -89.6624 919.289 -90.0829C919.236 -90.2165 919.152 -90.3352 919.043 -90.4288C918.753 -90.9145 918.405 -91.3627 918.006 -91.7629C917.083 -92.7876 916.058 -93.7147 914.946 -94.5297C914.255 -94.9744 913.712 -95.4684 913.119 -95.8637C910.76 -97.6972 907.945 -98.8505 904.978 -99.1988C902.012 -99.5471 899.007 -99.0772 896.288 -97.84C893.326 -96.4566 892.487 -93.3439 891.352 -90.6265C890.759 -91.3182 890.167 -92.0593 889.624 -92.8004C887.748 -95.4685 886.959 -99.0752 883.158 -99.5693C879.676 -99.8827 876.192 -98.9934 873.286 -97.0494C871.842 -98.3159 870.165 -99.2893 868.35 -99.9151C869.011 -101.119 869.422 -102.445 869.557 -103.812C869.693 -105.179 869.551 -106.559 869.14 -107.87C868.559 -109.695 867.611 -111.381 866.355 -112.826C865.099 -114.27 863.56 -115.442 861.834 -116.269C860.151 -117.253 858.291 -117.895 856.36 -118.158C854.428 -118.421 852.464 -118.299 850.58 -117.801C848.112 -116.862 846.977 -114.54 844.41 -113.65L843.571 -113.255L842.386 -112.563L841.695 -112.168L839.672 -110.884C837.993 -109.895 838.635 -108.512 836.907 -108.957C836.223 -109.088 835.53 -109.17 834.834 -109.204H832.564C832.764 -109.715 832.912 -110.244 833.008 -110.785C833.205 -113.459 832.399 -116.111 830.747 -118.221C829.094 -120.332 826.715 -121.75 824.074 -122.198C822.593 -126.694 819.878 -130.745 814.646 -130.301C812.637 -130.276 810.714 -129.476 809.28 -128.068C807.845 -126.66 807.009 -124.752 806.946 -122.741C806.192 -122.778 805.439 -122.642 804.746 -122.342C804.053 -122.042 803.438 -121.587 802.948 -121.012L802.652 -120.666C802.172 -121.618 801.5 -122.46 800.677 -123.137L799.739 -123.779L800.085 -124.224L800.43 -124.668L800.776 -125.064C800.984 -125.307 801.166 -125.572 801.319 -125.854V-126.101L801.714 -126.892V-127.188C801.761 -127.549 801.761 -127.914 801.714 -128.275C801.769 -130.014 801.403 -131.74 800.646 -133.305C799.89 -134.871 798.766 -136.231 797.37 -137.267C795.631 -138.623 793.64 -139.619 791.513 -140.195C789.386 -140.772 787.165 -140.919 784.981 -140.627C784.276 -141.76 783.311 -142.708 782.167 -143.394C781.405 -143.792 780.558 -144 779.699 -144C778.839 -144 777.993 -143.792 777.231 -143.394C776.441 -142.998 775.948 -141.961 775.306 -141.417C773.642 -142.452 771.639 -142.789 769.728 -142.356C768.482 -142.103 767.332 -141.507 766.408 -140.633C765.483 -139.76 764.821 -138.646 764.496 -137.415C763.836 -134.306 764.364 -131.062 765.977 -128.324C766.839 -127.158 767.851 -126.112 768.988 -125.212C770.024 -124.718 769.975 -124.322 768.988 -123.977C768.603 -123.202 768.066 -122.513 767.408 -121.951C766.607 -123.173 765.545 -124.203 764.299 -124.965C763.323 -125.703 762.206 -126.234 761.018 -126.523C759.829 -126.811 758.594 -126.853 757.388 -126.645C753.045 -125.508 751.81 -120.37 751.465 -115.973C750.806 -115.835 750.162 -115.636 749.54 -115.38H749.244L747.96 -114.688C747.753 -114.536 747.555 -114.371 747.368 -114.194C747.115 -114.006 746.883 -113.791 746.677 -113.552L746.134 -112.909L745.69 -112.218C745.529 -111.952 745.397 -111.671 745.295 -111.378V-110.735C745.189 -110.396 745.107 -110.049 745.048 -109.698V-109.006C744.999 -108.629 744.999 -108.247 745.048 -107.87C745.027 -107.607 745.027 -107.342 745.048 -107.079C745.088 -106.66 745.17 -106.246 745.295 -105.844C745.468 -105.112 745.717 -104.4 746.035 -103.719C746.861 -101.872 747.905 -100.131 749.145 -98.5317C748.004 -98.0977 746.987 -97.3878 746.187 -96.4655C745.386 -95.5431 744.825 -94.4368 744.555 -93.2451C743.826 -93.4518 743.06 -93.488 742.315 -93.3509C741.571 -93.2139 740.868 -92.9072 740.26 -92.4546L739.915 -92.1581C739.613 -93.2011 739.11 -94.1746 738.434 -95.0237L737.694 -95.8142L738.088 -96.1107C738.55 -96.4311 738.98 -96.7951 739.372 -97.1976C739.612 -97.4383 739.827 -97.7032 740.014 -97.9882C740.211 -98.2929 740.361 -98.6262 740.458 -98.9764C740.865 -100.697 740.859 -102.491 740.438 -104.209C740.018 -105.927 739.195 -107.52 738.039 -108.858C735.151 -112.308 731.017 -114.475 726.538 -114.886C726.107 -116.168 725.34 -117.311 724.317 -118.196C723.684 -118.831 722.89 -119.282 722.02 -119.499C721.151 -119.717 720.238 -119.693 719.381 -119.431C718.492 -119.431 717.802 -118.344 717.061 -117.949C716.37 -118.645 715.547 -119.197 714.64 -119.57C713.733 -119.943 712.76 -120.131 711.78 -120.123C710.507 -120.152 709.254 -119.807 708.175 -119.131C707.096 -118.455 706.238 -117.477 705.708 -116.318C704.413 -113.397 704.289 -110.089 705.363 -107.079C705.953 -105.749 706.717 -104.503 707.633 -103.374C708.571 -102.632 708.423 -102.237 707.238 -102.188C706.684 -101.529 706.015 -100.977 705.264 -100.557C704.712 -101.927 703.889 -103.17 702.845 -104.214C702.044 -105.158 701.055 -105.927 699.942 -106.471C698.83 -107.015 697.617 -107.323 696.379 -107.376C691.937 -107.376 689.666 -102.435 688.482 -98.2846C687.29 -98.3167 686.103 -98.1326 684.977 -97.7412L683.99 -97.2471L683.447 -96.9012L682.756 -96.3578C682.546 -96.1727 682.348 -95.9747 682.164 -95.7649L681.719 -95.1719L681.226 -94.3321L680.93 -93.6897C680.784 -93.3075 680.685 -92.9096 680.633 -92.504V-91.8617C680.606 -91.3515 680.606 -90.8402 680.633 -90.3301V-89.7865C680.662 -89.0051 680.761 -88.2279 680.93 -87.4643C682.02 -82.6449 684.274 -78.1664 687.494 -74.4208C686.294 -72.9982 685.464 -71.3011 685.076 -69.4801C683.003 -70.4682 680.979 -71.8516 678.758 -69.4801C676.536 -67.1085 676.438 -64.0947 674.562 -61.7725C673.351 -60.0964 672.612 -58.1258 672.421 -56.0663C672.23 -54.0067 672.594 -51.9335 673.476 -50.063C672.306 -50.1539 671.136 -49.8858 670.122 -49.2944C669.108 -48.703 668.298 -47.8163 667.8 -46.7526C666.876 -45.1276 666.305 -43.3264 666.121 -41.4659C665.65 -41.1932 665.259 -40.8014 664.986 -40.3297C664.47 -39.528 664.224 -38.5812 664.287 -37.6292C664.349 -36.6772 664.715 -35.7705 665.332 -35.043C664.943 -34.5557 664.642 -34.0038 664.443 -33.4125C663.319 -33.6336 662.162 -33.6336 661.037 -33.4125C659.505 -33.0904 658.129 -32.2537 657.138 -31.041C657.056 -31.0032 656.982 -30.9484 656.923 -30.8803C656.863 -30.8122 656.819 -30.7322 656.792 -30.6457C656.057 -31.2257 655.186 -31.6075 654.261 -31.7545C653.336 -31.9016 652.39 -31.809 651.511 -31.4857C650.229 -32.5269 648.689 -33.2008 647.055 -33.4357C645.421 -33.6706 643.754 -33.4576 642.231 -32.8196C640.7 -32.0913 639.44 -30.8948 638.633 -29.4028C637.825 -27.9109 637.513 -26.2007 637.739 -24.5192C636.291 -24.6351 634.842 -24.3162 633.576 -23.6034C632.31 -22.8905 631.285 -21.816 630.632 -20.5172H628.114H626.584H625.054C624.511 -20.4614 623.979 -20.3284 623.474 -20.122H622.981C622.442 -19.93 621.941 -19.6457 621.5 -19.282H621.253C620.508 -18.5568 619.876 -17.7241 619.377 -16.8116C618.722 -15.1454 618.564 -13.3244 618.923 -11.5701C619.283 -9.81574 620.143 -8.2037 621.401 -6.93013C620.228 -6.45623 619.204 -5.67326 618.44 -4.66421C617.675 -3.65516 617.197 -2.45764 617.058 -1.19884C616.268 3.39606 621.5 6.50872 625.399 8.04035C625.722 8.89112 626.238 9.65519 626.906 10.2725C627.574 10.8898 628.376 11.3435 629.249 11.5977L628.41 12.0918C628.298 12.1295 628.177 12.1295 628.065 12.0918C627.618 12.5235 627.22 13.0041 626.88 13.5247C626.894 13.623 626.894 13.7228 626.88 13.8211C626.67 14.168 626.488 14.5316 626.337 14.9081V15.2538C626.226 15.6426 626.144 16.039 626.09 16.4397C624.659 17.329 625.103 17.4278 623.277 16.4397C621.825 16.0484 620.297 16.043 618.842 16.4243C617.388 16.8056 616.058 17.5603 614.984 18.6136C614.512 19.144 614.098 19.7236 613.75 20.3428C613.173 21.1666 612.763 22.0963 612.545 23.0787C612.327 24.061 612.304 25.0769 612.478 26.068C612.653 27.0592 613.02 28.0062 613.56 28.8551C614.1 29.7039 614.802 30.4377 615.626 31.0148C615.44 31.6422 615.324 32.2886 615.281 32.9418C615.044 34.0733 615.064 35.2436 615.34 36.3661C615.616 37.4887 616.141 38.5347 616.876 39.4267C617.61 40.3187 618.536 41.0339 619.584 41.5192C620.633 42.0045 621.777 42.2476 622.931 42.2304C622.374 42.5006 621.859 42.85 621.401 43.2679C620.22 44.1165 618.807 44.582 617.354 44.6019L615.281 44.9478L613.257 45.4913L612.714 45.7383H612.22C611.581 46.008 610.969 46.339 610.394 46.7265L609.9 47.0723C609.29 47.5276 608.757 48.0782 608.321 48.7028C607.935 49.2308 607.658 49.8302 607.505 50.4663C607.353 51.1024 607.328 51.7626 607.432 52.4084C605.782 52.6924 604.311 53.6153 603.335 54.9775C602.281 56.4121 601.695 58.1376 601.657 59.9183C601.72 60.7548 601.869 61.5827 602.101 62.3886C600.589 62.4513 599.12 62.9082 597.839 63.7141C596.557 64.5201 595.508 65.6471 594.796 66.9835C594.225 68.2238 594.014 69.6003 594.189 70.9549C594.363 72.3095 594.916 73.5873 595.783 74.6418C593.494 75.2686 591.479 76.6421 590.058 78.5448C587.244 82.7445 590.551 87.8336 594.056 90.1063C596.232 91.1025 598.623 91.5383 601.011 91.3744C603.399 91.2105 605.708 90.4519 607.728 89.1676C609.852 87.7858 611.895 86.2846 613.849 84.6715C614.836 84.0292 616.86 85.7584 617.502 86.3019C618.143 86.8453 618.045 89.0688 618.094 90.2546C618.124 90.6148 618.227 90.9652 618.397 91.2844C618.567 91.6036 618.799 91.8848 619.081 92.1113C619.363 92.3377 619.687 92.5045 620.035 92.6014C620.383 92.6984 620.747 92.7236 621.105 92.6755C623.296 92.5517 625.439 91.9792 627.4 90.9934C629.361 90.0076 631.099 88.6294 632.507 86.9442L633.05 86.3019C634.383 88.1794 630.681 90.4521 629.595 91.9837C629.316 92.3229 629.107 92.7142 628.981 93.1349C628.855 93.5556 628.813 93.9973 628.859 94.4342C628.905 94.871 629.038 95.2943 629.249 95.6795C629.46 96.0646 629.745 96.4039 630.089 96.6775C631.212 97.4873 632.555 97.9354 633.939 97.9621C636.456 97.9621 635.913 98.4561 634.975 100.679C634.28 102.121 634.053 103.746 634.328 105.323C634.602 106.901 635.364 108.352 636.505 109.474C639.911 113.13 645.785 111.648 649.734 108.832C653.09 110.413 656.447 107.992 659.063 104.929L662.025 107.152C662.016 107.3 662.016 107.448 662.025 107.597C662.467 108.695 663.316 109.58 664.394 110.067C665.127 110.432 665.963 110.537 666.763 110.363C667.653 110.973 668.615 111.471 669.626 111.846C669.874 114.16 670.725 116.368 672.094 118.25C673.463 120.131 675.301 121.62 677.425 122.567C680.623 123.497 684.018 123.499 687.217 122.572C690.415 121.644 693.285 119.826 695.491 117.33C696.408 117.809 697.366 118.206 698.354 118.516C701.068 119.306 703.586 119.109 704.721 116.786C706.053 117.23 707.463 117.385 708.859 117.24C710.255 117.095 711.604 116.654 712.816 115.946C716.567 113.13 715.087 108.338 712.816 105.077C713.408 105.917 716.024 104.484 716.765 104.385H717.555L718.048 104.681C719.389 106.032 720.88 107.226 722.491 108.239C723.596 109.078 724.932 109.557 726.319 109.61C727.705 109.663 729.074 109.287 730.24 108.535C731.212 109.661 732.407 110.571 733.75 111.209C735.093 111.847 736.554 112.199 738.039 112.241C738.955 112.279 739.865 112.412 740.754 112.636C741.759 113.388 742.898 113.942 744.11 114.267C745.441 114.879 746.81 115.407 748.207 115.848C749.092 116.803 750.168 117.561 751.366 118.071C752.003 118.529 752.701 118.895 753.439 119.158L754.97 119.553C755.376 121.486 756.258 123.286 757.536 124.79C758.109 125.521 758.876 126.076 759.749 126.39C760.622 126.705 761.566 126.767 762.472 126.569C765.434 130.077 769.728 132.399 772.887 129.484C774.479 130.419 776.241 131.023 778.07 131.263C780.143 133.98 782.068 136.846 783.845 139.711C785.966 144.655 788.338 149.487 790.953 154.188L792.878 157.696C792.855 157.876 792.855 158.059 792.878 158.239C792.91 158.427 792.978 158.607 793.08 158.768C793.182 158.93 793.314 159.069 793.47 159.178C794.319 161.232 795.36 163.201 796.58 165.057C799.986 172.765 803.343 180.571 807.143 187.933C808.676 191.534 810.614 194.949 812.918 198.111C814.35 200.334 815.781 202.508 817.361 204.584C818.94 206.659 820.026 207.844 821.359 209.524C823.097 212.605 825.45 215.296 828.269 217.43C830.194 219.307 832.218 221.086 834.291 222.864C836.907 225.434 839.672 227.805 842.238 230.621C843.374 231.807 844.558 233.042 845.694 234.327C846.761 235.716 847.718 237.186 848.556 238.724C849.294 240.319 850.152 241.855 851.123 243.319C852.313 246.979 853.204 250.73 853.788 254.535C854.43 258.438 855.467 262.143 856.454 265.898C856.503 266.721 856.503 267.546 856.454 268.369C856.454 270.839 856.059 273.309 855.911 275.879C855.763 278.448 854.628 280.572 853.887 282.894C852.253 277.616 850.052 272.53 847.322 267.726C847.322 267.726 847.322 267.726 847.076 267.726C846.826 266.749 846.628 265.76 846.483 264.762C846.483 264.317 845.792 264.367 845.694 264.762C845.482 267.821 845.782 270.893 846.582 273.853L844.904 271.63C844.904 271.284 844.262 271.63 844.361 272.074C845.141 274.857 846.234 277.542 847.618 280.078C848.107 281.277 848.487 282.517 848.754 283.784C849.189 287.341 849.403 290.922 849.396 294.505C849.396 294.901 849.396 295.296 849.396 295.691C848.891 297.41 848.196 299.068 847.322 300.632V300.928C844.114 306.561 838.931 311.403 835.871 316.739C832.81 322.075 823.432 344.357 821.754 349.446C821.162 351.275 820.618 353.053 820.125 354.832C819.774 354.488 819.394 354.173 818.99 353.893H818.743L815.534 353.399C814.8 353.167 814.034 353.05 813.264 353.053L811.438 353.646L808.673 354.535C808.494 354.507 808.31 354.507 808.13 354.535H807.439L806.403 354.881L805.959 355.622C805.815 355.794 805.683 355.976 805.564 356.166L804.922 356.907C804.33 357.5 803.885 358.142 803.342 358.784L802.503 359.674L801.269 360.86L800.628 361.551C801.664 363.33 802.553 365.158 803.491 367.085C804.725 367.678 805.959 368.221 807.242 368.715L808.032 369.061L822.84 368.221L823.481 367.628C823.464 367.547 823.464 367.463 823.481 367.381L823.778 367.085L824.518 366.541L826.394 368.715C828.467 369.259 830.589 369.654 832.712 370H833.156L851.024 367.085H851.37H852.505L853.147 366.541L853.788 365.998L854.085 365.751C854.913 365.198 855.66 364.533 856.306 363.775C856.489 364.06 856.654 364.357 856.8 364.664L857.737 366.492L858.626 366.838L861.193 367.974L871.065 367.431H871.854L872.644 366.739C873.178 366.379 873.66 365.946 874.076 365.454C874.38 364.514 874.513 363.527 874.47 362.539V362.243L872.99 360.81L870.966 358.784C870.377 357.997 869.679 357.299 868.893 356.709H868.646L866.573 356.413C866.01 356.255 865.429 356.171 864.845 356.166L861.736 357.105H861.143H860.551H859.959C859.317 356.363 858.527 354.733 857.885 354.091C857.244 353.794 856.651 353.399 856.108 353.201L855.368 352.856L854.578 353.152L852.505 353.893L851.469 354.239C851.311 353.492 851.228 352.73 851.222 351.966C852.555 345.494 854.973 336.848 856.701 329.881C857.972 327.168 859.076 324.379 860.008 321.531C860.118 321.532 860.224 321.492 860.306 321.419C860.388 321.346 860.44 321.245 860.452 321.136C861.291 317.924 862.18 314.762 863.019 311.551L863.414 309.97C864.702 306.913 865.742 303.757 866.523 300.533L868.004 298.013C870.474 294.634 871.945 290.628 872.249 286.452C872.656 285.346 872.758 284.152 872.545 282.993C872.496 282.352 872.496 281.708 872.545 281.066C872.545 278.794 872.891 276.472 872.94 274.149C873.194 270.706 873.095 267.246 872.644 263.823C873.559 261.496 874.012 259.012 873.977 256.511C873.977 252.558 873.286 248.556 873.977 244.604C874.668 240.651 875.556 235.957 876.149 231.609C877.383 222.42 883.158 215.404 885.083 206.51C885.873 203.052 886.514 199.742 887.353 196.629C891.277 187.204 896.917 178.593 903.988 171.233C906.66 168.099 908.795 164.543 910.306 160.71C912.978 155.735 915.145 150.505 916.772 145.097C916.772 144.405 917.216 143.565 917.414 142.725C921.116 146.727 926.15 149.198 929.852 145.739C931.583 147.005 933.634 147.76 935.772 147.917C937.91 148.075 940.049 147.628 941.946 146.628C942.619 146.216 943.192 145.659 943.624 144.998L944.364 145.245C947.375 146.085 951.62 145.69 952.459 141.836C952.459 141.589 952.459 141.342 952.459 141.095C958.58 144.109 965.935 145.69 966.774 139.168C967.119 136.352 965.737 136.006 967.07 133.684C968.374 133.465 969.661 133.151 970.92 132.745C972.203 133.041 973.585 133.486 974.523 133.585C975.654 133.763 976.813 133.637 977.879 133.221C978.946 132.804 979.883 132.111 980.595 131.213C981.666 132.174 982.947 132.872 984.335 133.249C985.724 133.626 987.181 133.674 988.591 133.387C990.039 134.526 991.727 135.32 993.527 135.709C993.478 135.854 993.478 136.01 993.527 136.154C993.715 137.386 994.081 138.584 994.613 139.711C995.705 141.717 997.284 143.416 999.203 144.652C1000.01 145.217 1000.95 145.575 1001.93 145.696C1002.91 145.816 1003.91 145.696 1004.83 145.344C1007.45 144.405 1007.05 146.629 1008.09 149.198C1008.9 151.231 1010.25 153.007 1011.98 154.337C1013.72 155.668 1015.79 156.504 1017.96 156.757C1022.9 157.152 1027.83 157.152 1030.15 152.113C1030.82 150.142 1030.82 148.006 1030.15 146.036C1029.68 144.433 1029.58 142.743 1029.86 141.095C1029.86 140.255 1031.34 137.142 1031.68 139.761C1032.03 142.259 1033.31 144.531 1035.28 146.111C1037.24 147.691 1039.73 148.459 1042.25 148.259C1044.14 147.556 1046.15 147.204 1048.17 147.221C1049.42 147.721 1050.63 148.333 1051.77 149.049C1052.62 149.494 1053.54 149.766 1054.49 149.851C1055.44 149.935 1056.39 149.831 1057.3 149.544C1058.12 149.21 1058.86 148.714 1059.48 148.085C1060.1 147.457 1060.58 146.709 1060.9 145.887C1060.9 145.294 1061.3 144.702 1061.5 144.01C1061.94 141.836 1059.32 139.069 1061.05 137.34C1061.94 138.526 1062.78 139.761 1063.57 140.947C1067.02 145.887 1071.86 150.334 1076.9 148.21C1081.83 152.014 1089.53 154.237 1094.17 149.692C1095.67 148.248 1096.69 146.389 1097.13 144.356C1097.56 142.322 1097.37 140.206 1096.59 138.279C1095.36 135.265 1094.62 134.919 1098.02 134.82C1099.78 134.796 1101.49 134.264 1102.96 133.288C1103.43 132.961 1103.83 132.539 1104.14 132.049C1104.44 131.56 1104.64 131.013 1104.72 130.443C1104.81 129.873 1104.77 129.292 1104.62 128.736C1104.47 128.18 1104.21 127.661 1103.85 127.211C1102.51 125.136 1097.78 121.974 1099.7 119.652C1099.84 119.957 1100.02 120.24 1100.24 120.492C1102.04 122.762 1104.28 124.646 1106.83 126.03C1109.37 127.414 1112.17 128.269 1115.05 128.545C1115.53 128.637 1116.02 128.629 1116.49 128.522C1116.96 128.415 1117.41 128.211 1117.8 127.923C1118.18 127.635 1118.51 127.27 1118.75 126.85C1118.99 126.429 1119.15 125.964 1119.2 125.482C1119.2 124 1118.8 121.431 1120.14 120.541C1121.47 119.652 1123.64 117.774 1125.07 118.565C1127.56 120.793 1130.18 122.871 1132.92 124.79C1137.86 127.557 1145.26 130.027 1150.74 126.717C1154.69 124.148 1159.28 117.676 1155.72 112.043ZM630.977 45.5406L630.434 46.2817C630.307 46.438 630.192 46.6032 630.089 46.7758H629.299C628.788 46.5007 628.408 46.0337 628.241 45.4778C628.075 44.9218 628.135 44.3224 628.41 43.8114C628.685 43.3003 629.152 42.9195 629.707 42.7527C630.263 42.5859 630.861 42.6469 631.372 42.9221C631.372 42.9221 631.372 43.5149 631.372 44.1572C631.419 44.6517 631.278 45.1456 630.977 45.5406ZM661.778 102.409L660.642 101.421L661.432 100.383C661.665 100.659 661.82 100.993 661.881 101.349C661.941 101.705 661.906 102.071 661.778 102.409ZM695.293 -16.1693H694.701C694.905 -16.587 695.232 -16.9319 695.639 -17.1575C696.675 -17.6516 697.268 -16.7129 697.662 -15.4777C696.901 -15.7854 696.106 -16.0009 695.293 -16.1199V-16.1693ZM890.463 125.729C890.463 126.569 890.118 127.36 889.97 128.15C889.97 127.36 890.266 126.569 890.414 125.828L890.463 125.729ZM878.222 121.776C879.435 122.813 880.889 123.528 882.45 123.856C884.011 124.184 885.629 124.115 887.156 123.654C888.148 124.444 889.224 125.124 890.364 125.68C889.427 129.385 888.538 133.14 887.403 136.747C885.543 142.136 882.916 147.228 879.604 151.866C880.099 149.729 880.298 147.535 880.196 145.344C880.17 144.966 880.17 144.586 880.196 144.208C880.343 141.703 880.126 139.19 879.554 136.747C878.159 132.373 876.511 128.084 874.618 123.901C875.354 123.937 876.085 123.76 876.724 123.392C877.363 123.024 877.883 122.481 878.222 121.826V121.776ZM874.273 123.852L875.31 128.298L872.99 123.802L874.273 123.852ZM844.657 130.126H844.904C844.904 130.67 844.558 131.213 844.41 131.757C844.608 131.312 844.706 130.719 844.756 130.028L844.657 130.126ZM843.472 138.723C844.163 135.907 845.052 133.239 845.743 130.472C847.033 130.751 848.367 130.768 849.664 130.522C850.961 130.276 852.196 129.772 853.295 129.039C853.847 128.604 854.329 128.088 854.726 127.508C856.137 127.612 857.542 127.248 858.725 126.47C861.094 124.988 861.044 122.419 860.452 119.899C861.503 120 862.561 120 863.611 119.899C864.853 120.695 866.138 121.421 867.461 122.073C869.139 126.322 871.509 130.373 873.187 134.622C874.34 140.009 874.755 145.527 874.421 151.026C874.174 152.557 873.779 154.089 873.384 155.621C872.99 157.152 872.644 157.992 872.249 159.178C871.845 160.312 871.499 161.467 871.213 162.637C869.52 165.272 868.207 168.132 867.313 171.135C866.671 173.358 866.227 176.075 865.586 178.595C864.944 181.115 864.302 182.745 863.562 184.821C862.638 187.043 861.03 188.912 858.971 190.157L858.33 190.502C859.729 187.659 860.455 184.532 860.452 181.362C860.012 178.559 858.759 175.948 856.849 173.852C854.367 169.344 851.314 165.176 847.767 161.451L846.928 160.413C846.517 159.731 846.154 159.021 845.842 158.289C845.842 158.289 845.842 157.943 845.842 157.745C845.665 156.346 845.333 154.971 844.854 153.644C844.842 152.565 844.726 151.49 844.509 150.433C843.133 146.706 842.808 142.672 843.571 138.773L843.472 138.723ZM842.979 148.605L842.682 147.913C842.133 146.327 841.898 144.649 841.992 142.972C842.193 144.958 842.557 146.925 843.077 148.852L842.979 148.605ZM834.489 131.609L835.032 131.856C836.011 132.151 837.021 132.334 838.043 132.399C837.655 133.493 837.358 134.616 837.154 135.759C836.907 137.29 836.71 138.871 836.512 140.452C835.476 138.279 834.193 136.302 833.107 134.178C832.498 132.957 832.003 131.684 831.626 130.373C832.567 130.954 833.558 131.45 834.588 131.856L834.489 131.609ZM842.238 205.72L841.794 206.757C841.77 206.627 841.77 206.493 841.794 206.362C841.794 206.362 841.794 206.362 841.794 206.115C841.979 205.779 842.143 205.433 842.288 205.078C842.288 205.078 842.238 205.522 842.238 205.72ZM845.694 196.53C844.316 198.006 843.152 199.67 842.238 201.471C841.794 202.41 841.547 203.497 841.152 204.485C840.505 205.653 839.708 206.733 838.783 207.696C838.689 207.787 838.622 207.902 838.591 208.029C838.559 208.157 838.564 208.29 838.606 208.414C838.647 208.538 838.723 208.648 838.824 208.731C838.926 208.814 839.048 208.866 839.178 208.882C839.161 209.013 839.161 209.146 839.178 209.277L838.487 208.586C836.562 207.054 834.538 206.016 832.712 204.584C829.01 201.091 825.79 197.12 823.136 192.775C816.768 183.437 811.586 173.407 806.057 163.476C803.127 159.128 800.647 154.493 798.653 149.642C797.744 145.063 796.507 140.555 794.951 136.154C792.47 131.466 788.856 127.474 784.438 124.543C784.438 124.148 784.438 123.703 784.191 123.308C785.241 123.407 786.299 123.407 787.35 123.308C790.92 126.076 795.383 127.431 799.887 127.113C800.553 129.319 801.699 131.35 803.244 133.059C804.789 134.768 806.694 136.112 808.822 136.994C811.872 137.898 815.083 138.123 818.229 137.653C821.375 137.184 824.381 136.031 827.035 134.277C827.528 135.804 828.208 137.264 829.059 138.624C831.382 143.47 834.02 148.157 836.957 152.656C837.054 153.873 837.252 155.079 837.549 156.263C837.78 157.361 838.111 158.436 838.536 159.474C839.332 161.365 840.29 163.184 841.399 164.909C843.119 167.881 845.101 170.692 847.322 173.309C848.454 174.894 849.492 176.543 850.432 178.249C850.413 178.447 850.413 178.645 850.432 178.842C851.171 182.061 850.751 185.438 849.247 188.378C848.112 191.243 846.878 193.911 845.595 196.53H845.694ZM879.258 207.993C879.157 208.333 879.025 208.664 878.864 208.981C878.864 209.327 878.419 209.673 878.172 210.018C878.454 209.396 878.685 208.751 878.864 208.091C879.653 204.831 880.443 201.669 881.381 198.605C880.845 201.779 880.103 204.915 879.16 207.993H879.258ZM908.874 153.644C907.503 156.675 905.85 159.569 903.938 162.291C897.251 168.514 891.35 175.532 886.366 183.19C885.271 185.056 884.362 187.025 883.651 189.07C882.91 190.472 882.266 191.925 881.726 193.417C879.752 198.605 879.554 204.238 877.827 209.524C877.504 210.508 877.108 211.466 876.642 212.39C873.921 215.544 871.752 219.135 870.225 223.013C869.099 226.552 868.435 230.222 868.251 233.932C868.251 235.068 867.906 236.204 867.708 237.341C867.412 237.341 867.264 237.341 867.116 237.884C866.502 240.113 866.105 242.397 865.931 244.702C864.959 242.147 863.701 239.711 862.18 237.439L861.736 236.254C859.651 231.795 856.923 227.666 853.64 224.001C852.496 221.87 851.649 219.593 851.123 217.232C851.123 217.232 851.123 217.232 850.827 217.232C850.392 215.828 850.497 214.312 851.123 212.983C851.744 211.784 852.192 210.503 852.456 209.178C854.356 206.116 856.45 203.179 858.725 200.384C860.391 198.386 862.242 196.55 864.253 194.9C865.412 194.105 866.443 193.138 867.313 192.034C869.021 189.394 870.18 186.437 870.719 183.338C871.706 179.089 873.779 175.384 875.013 171.283C875.655 169.01 875.852 166.342 876.445 164.218C878.349 161.451 880.409 158.795 882.615 156.263C886.355 150.856 889.205 144.885 891.055 138.575C892.306 134.874 893.312 131.094 894.066 127.261C894.851 127.384 895.651 127.384 896.436 127.261C897.442 128.918 898.854 130.292 900.538 131.251C902.223 132.211 904.123 132.725 906.061 132.745C906.535 135.469 907.709 138.023 909.467 140.156C910.197 140.938 911.067 141.575 912.033 142.034C911.382 145.917 910.34 149.724 908.924 153.397L908.874 153.644ZM967.613 133.14C967.835 133.05 968.036 132.915 968.205 132.745C968.615 132.698 969.029 132.698 969.439 132.745C968.896 132.696 968.304 132.844 967.662 132.893L967.613 133.14Z" fill="#FAC265"/>
</g>
<defs>
<clipPath id="clip0_451_81">
<rect width="1157" height="382" fill="white"/>
</clipPath>
</defs>
</svg>
