<svg width="634" height="576" viewBox="0 0 634 576" fill="none" xmlns="http://www.w3.org/2000/svg">
<path fill-rule="evenodd" clip-rule="evenodd" d="M402.677 281.959C402.677 281.959 420.711 257.394 422.896 235.909C422.896 235.909 379.593 200.774 388.11 124.036C396.626 47.2981 476.858 -34.5802 573.061 15.2244C669.263 65.029 660.066 280.592 483.972 248.172C483.972 248.172 466.218 283.653 402.677 281.94V281.959Z" fill="#4E6E52"/>
<path fill-rule="evenodd" clip-rule="evenodd" d="M207.378 445.943C222.028 438.323 285.299 413.133 292.319 467.423C299.319 521.503 240.378 540.643 263.228 536.733C286.078 533.023 302.088 529.313 291.738 548.263C281.188 567.203 230.228 560.363 216.368 555.873C202.308 551.183 227.499 509.793 206.209 492.213C185.119 474.443 197.418 454.723 207.378 445.943Z" fill="#7D5A51"/>
<path fill-rule="evenodd" clip-rule="evenodd" d="M246.829 241.833C246.829 241.833 267.919 216.643 302.669 232.653C337.669 248.463 332.749 313.103 320.669 329.893C308.589 346.683 237.088 309.393 246.858 241.833H246.829Z" fill="#3E1C18"/>
<path fill-rule="evenodd" clip-rule="evenodd" d="M291.738 297.483C294.858 297.093 323.178 291.483 325.908 313.103C328.448 334.783 333.528 339.853 333.138 367.783C331.958 431.443 281.968 413.863 235.888 411.713L272.028 359.943C294.868 372.633 312.838 380.833 306.198 341.393C304.048 329.083 282.378 309.953 291.748 297.453L291.738 297.483Z" fill="#7D5A51"/>
<path fill-rule="evenodd" clip-rule="evenodd" d="M139.228 410.153L124.388 425.773C124.388 425.773 88.6582 453.943 75.0282 441.203C38.7082 407.033 107.248 347.273 38.8982 367.783C-0.541786 379.493 -17.3418 437.103 23.8982 476.783C64.8982 516.423 93.8082 510.783 131.098 461.943C168.388 413.103 139.298 410.193 139.298 410.193L139.228 410.153Z" fill="#3E1C18"/>
<path fill-rule="evenodd" clip-rule="evenodd" d="M292.318 274.833C292.318 274.833 289.788 218.003 223.028 213.943C156.028 209.843 125.198 226.243 107.628 276.433C86.7081 335.943 75.0281 516.383 140.788 534.943C174.188 544.313 225.928 545.683 247.018 533.943C287.828 511.493 276.508 468.143 270.258 444.513C256.198 392.963 310.678 357.613 292.318 274.823V274.833Z" fill="#7D5A51"/>
<path fill-rule="evenodd" clip-rule="evenodd" d="M167.738 540.403C197.618 544.303 231.208 542.933 247.018 533.953C287.828 511.503 276.508 468.153 270.258 444.523C265.178 426.163 268.898 409.963 274.748 392.973C282.168 372.273 262.058 358.413 240.378 358.973C199.568 360.533 154.848 362.683 150.558 410.333C146.258 455.433 112.868 507.333 167.738 540.383V540.403Z" fill="#EBE2CF"/>
<path fill-rule="evenodd" clip-rule="evenodd" d="M264.028 258.623C264.028 258.623 254.848 283.233 281.408 288.693C308.158 294.353 283.408 309.393 283.408 309.393L276.958 350.013C276.958 350.013 265.438 346.883 256.648 355.283C240.828 370.713 214.648 350.793 199.828 331.073C176.198 299.823 191.628 283.233 229.898 286.743C250.598 288.743 247.468 251.203 250.598 248.663C253.528 246.123 268.168 245.343 264.068 258.663L264.028 258.623Z" fill="#EBE2CF"/>
<path fill-rule="evenodd" clip-rule="evenodd" d="M166.768 222.693C166.768 222.693 136.888 190.283 111.888 204.693C86.8882 219.103 62.4882 260.943 73.0282 275.413C83.5682 290.063 144.888 253.353 155.818 244.953C166.758 236.363 168.898 228.553 166.758 222.693H166.768Z" fill="#3E1C18"/>
<path fill-rule="evenodd" clip-rule="evenodd" d="M223.788 279.323C206.988 267.413 170.478 251.013 159.148 251.983C148.018 252.763 151.728 258.043 155.828 260.773L160.128 263.503C160.128 263.503 144.898 260.183 133.958 264.873C123.028 269.363 129.078 275.613 139.818 275.413C150.758 275.023 164.418 275.613 164.418 275.613C164.418 275.613 144.898 281.273 145.288 288.303C145.678 295.533 155.288 292.993 180.628 287.303C206.018 281.443 223.788 279.303 223.788 279.303V279.323ZM124.198 283.623C120.878 284.203 118.528 286.743 119.118 289.473C119.508 292.013 122.638 293.573 125.948 292.993C129.258 292.413 131.418 289.863 131.028 287.133C130.448 284.593 127.318 283.033 124.198 283.623ZM138.258 244.943C137.795 245.017 137.351 245.182 136.952 245.429C136.553 245.675 136.207 245.999 135.933 246.38C135.66 246.761 135.465 247.193 135.359 247.65C135.254 248.107 135.24 248.58 135.318 249.043C135.494 249.967 136.02 250.787 136.785 251.333C137.551 251.879 138.498 252.108 139.428 251.973C140.378 251.779 141.214 251.222 141.76 250.421C142.305 249.62 142.516 248.637 142.348 247.683C142.26 247.234 142.084 246.808 141.83 246.427C141.577 246.047 141.251 245.72 140.871 245.466C140.491 245.211 140.065 245.034 139.617 244.944C139.168 244.855 138.707 244.854 138.258 244.943Z" fill="#B2DDF8"/>
<path fill-rule="evenodd" clip-rule="evenodd" d="M284.128 288.113C297.988 278.113 328.648 264.683 337.818 265.453C347.198 266.043 344.068 270.533 340.758 272.683L337.238 275.023C337.238 275.023 349.928 272.293 358.908 276.203C368.088 279.913 363.018 285.203 354.028 284.983C345.028 284.593 333.528 284.983 333.528 284.983C333.528 284.983 349.928 289.673 349.528 295.723C349.128 301.773 341.138 299.633 320.048 294.723C298.758 289.833 284.118 288.083 284.118 288.083L284.128 288.113ZM367.128 291.823C369.868 292.213 371.818 294.553 371.428 296.703C370.848 298.853 368.298 300.213 365.568 299.633C362.838 299.053 361.078 296.903 361.468 294.753C361.858 292.603 364.398 291.233 367.128 291.823ZM355.418 259.603C355.79 259.68 356.143 259.83 356.456 260.044C356.77 260.258 357.038 260.531 357.246 260.849C357.454 261.166 357.598 261.522 357.669 261.895C357.739 262.268 357.736 262.651 357.658 263.023C357.581 263.394 357.431 263.747 357.217 264.061C357.003 264.375 356.73 264.643 356.412 264.851C356.095 265.059 355.739 265.203 355.366 265.273C354.993 265.344 354.61 265.34 354.238 265.263C353.867 265.185 353.514 265.035 353.2 264.822C352.886 264.608 352.618 264.334 352.41 264.017C352.202 263.699 352.058 263.344 351.988 262.971C351.917 262.598 351.921 262.215 351.998 261.843C352.076 261.471 352.226 261.118 352.439 260.805C352.653 260.491 352.927 260.223 353.244 260.015C353.562 259.807 353.917 259.663 354.29 259.592C354.663 259.522 355.047 259.525 355.418 259.603Z" fill="#B2DDF8"/>
<path fill-rule="evenodd" clip-rule="evenodd" d="M261.858 287.133C261.858 287.133 301.858 291.433 310.288 308.613C318.688 325.613 305.608 351.773 286.658 352.553C267.708 353.333 246.828 341.813 244.478 334.003C242.328 326.193 250.538 290.453 261.858 287.133Z" fill="#EBE2CF"/>
<path fill-rule="evenodd" clip-rule="evenodd" d="M281.028 299.043C282.028 299.043 300.948 300.803 308.368 305.493C315.788 310.373 315.368 327.753 302.698 335.563C290.208 343.173 268.538 337.713 259.548 324.433C250.558 311.153 261.698 298.853 281.028 299.043Z" fill="#3E1C18"/>
<path fill-rule="evenodd" clip-rule="evenodd" d="M204.028 260.183C204.028 260.183 210.088 274.833 223.168 274.833C236.448 274.833 242.498 267.603 238.008 262.723C233.518 257.843 230.008 261.553 224.728 262.923C219.448 264.293 209.728 260.573 207.348 256.283C205.008 251.783 201.888 256.283 204.028 260.183Z" fill="#3E1C18"/>
<path fill-rule="evenodd" clip-rule="evenodd" d="M289.589 278.543C289.589 278.543 281.189 285.183 273.379 280.493C265.769 276.003 264.789 269.753 269.089 268.383C273.189 267.213 274.169 270.533 276.709 273.073C279.249 275.613 286.269 276.983 289.199 275.223C291.939 273.463 292.129 276.983 289.589 278.543Z" fill="#3E1C18"/>
<path fill-rule="evenodd" clip-rule="evenodd" d="M128.688 437.683C145.288 435.933 219.688 454.283 198.988 499.783C178.288 545.473 128.098 544.113 150.988 548.783C173.638 553.473 196.488 556.593 179.888 570.653C163.288 584.523 113.698 564.603 102.368 555.423C91.0382 546.053 125.598 512.853 112.128 488.643C98.8482 464.643 116.428 442.363 128.728 437.643L128.688 437.683Z" fill="#7D5A51"/>
<path d="M230.428 343.763C230.103 343.848 229.763 343.863 229.432 343.805C229.101 343.748 228.785 343.62 228.508 343.431C228.23 343.241 227.996 342.994 227.822 342.706C227.648 342.419 227.537 342.097 227.498 341.763C227.411 341.136 227.571 340.5 227.944 339.989C228.317 339.477 228.875 339.131 229.498 339.023C236.349 337.853 243.348 337.853 250.198 339.023C256.248 340.193 261.718 342.343 265.198 345.863C265.651 346.325 265.921 346.935 265.958 347.58C265.994 348.226 265.796 348.863 265.398 349.373C265.169 349.606 264.895 349.792 264.592 349.918C264.29 350.045 263.966 350.11 263.638 350.11C263.311 350.11 262.987 350.045 262.684 349.918C262.382 349.792 262.108 349.606 261.878 349.373C258.948 346.643 254.468 344.883 249.188 343.913C243 342.767 236.66 342.699 230.448 343.713L230.428 343.763Z" fill="#3E1C18"/>
<path fill-rule="evenodd" clip-rule="evenodd" d="M147.028 348.643C170.848 376.563 207.958 379.643 215.378 350.793C216.938 343.963 211.858 336.343 211.088 331.073C201.708 274.633 247.208 282.443 247.788 305.293C248.788 338.293 240.568 338.883 239.008 350.793C237.448 362.703 227.098 413.283 191.008 412.303C154.878 411.133 127.008 399.803 123.448 384.773C119.698 369.943 147.028 348.643 147.028 348.643Z" fill="#7D5A51"/>
<path d="M426.184 136.576L426.564 105.961H431.223L431.633 136.576H426.184ZM431.721 96.8203C431.721 97.6797 431.477 98.4121 430.988 99.0176C430.5 99.623 429.768 99.9258 428.791 99.9258C427.814 99.9258 427.072 99.623 426.564 99.0176C426.076 98.4121 425.832 97.6797 425.832 96.8203C425.832 95.9609 426.076 95.2383 426.564 94.6523C427.072 94.0469 427.814 93.7441 428.791 93.7441C429.768 93.7441 430.5 94.0469 430.988 94.6523C431.477 95.2383 431.721 95.9609 431.721 96.8203ZM468.254 83.3438V126H462.834L445.754 93.0996V126H440.363V83.3438H445.754L462.922 116.332V83.3438H468.254ZM475.783 111.674V108.656C475.783 106.195 476.096 104.037 476.721 102.182C477.346 100.307 478.215 98.7441 479.328 97.4941C480.441 96.2441 481.74 95.3066 483.225 94.6816C484.709 94.0371 486.301 93.7148 488 93.7148C489.738 93.7148 491.35 94.0371 492.834 94.6816C494.318 95.3066 495.617 96.2441 496.73 97.4941C497.863 98.7441 498.742 100.307 499.367 102.182C499.992 104.037 500.305 106.195 500.305 108.656V111.674C500.305 114.135 499.992 116.303 499.367 118.178C498.742 120.033 497.873 121.586 496.76 122.836C495.646 124.086 494.348 125.023 492.863 125.648C491.379 126.273 489.777 126.586 488.059 126.586C486.34 126.586 484.738 126.273 483.254 125.648C481.77 125.023 480.461 124.086 479.328 122.836C478.215 121.586 477.346 120.033 476.721 118.178C476.096 116.303 475.783 114.135 475.783 111.674ZM480.969 108.656V111.674C480.969 113.412 481.145 114.936 481.496 116.244C481.848 117.553 482.346 118.646 482.99 119.525C483.635 120.404 484.387 121.068 485.246 121.518C486.105 121.947 487.043 122.162 488.059 122.162C489.23 122.162 490.256 121.947 491.135 121.518C492.033 121.068 492.775 120.404 493.361 119.525C493.947 118.646 494.387 117.553 494.68 116.244C494.973 114.936 495.119 113.412 495.119 111.674V108.656C495.119 106.918 494.943 105.404 494.592 104.115C494.24 102.807 493.742 101.713 493.098 100.834C492.453 99.9355 491.691 99.2715 490.812 98.8418C489.953 98.3926 489.016 98.168 488 98.168C487.004 98.168 486.076 98.3926 485.217 98.8418C484.357 99.2715 483.605 99.9355 482.961 100.834C482.336 101.713 481.848 102.807 481.496 104.115C481.145 105.404 480.969 106.918 480.969 108.656ZM525.939 81V126H520.754V81H525.939ZM524.68 108.949L522.57 108.861C522.551 106.693 522.795 104.691 523.303 102.855C523.83 101 524.572 99.3887 525.529 98.0215C526.506 96.6543 527.668 95.5996 529.016 94.8574C530.363 94.0957 531.857 93.7148 533.498 93.7148C534.787 93.7148 535.959 93.9297 537.014 94.3594C538.068 94.7695 538.967 95.4336 539.709 96.3516C540.451 97.2695 541.018 98.4609 541.408 99.9258C541.818 101.371 542.023 103.139 542.023 105.229V126H536.838V105.17C536.838 103.51 536.652 102.182 536.281 101.186C535.93 100.17 535.383 99.4375 534.641 98.9883C533.918 98.5195 533 98.2852 531.887 98.2852C530.871 98.2852 529.924 98.5684 529.045 99.1348C528.166 99.7012 527.395 100.482 526.73 101.479C526.086 102.475 525.578 103.617 525.207 104.906C524.855 106.176 524.68 107.523 524.68 108.949ZM565.285 120.58V103.383C565.285 102.133 565.09 101.127 564.699 100.365C564.328 99.6035 563.762 99.0469 563 98.6953C562.258 98.3438 561.32 98.168 560.188 98.168C559.094 98.168 558.146 98.3926 557.346 98.8418C556.564 99.291 555.959 99.8867 555.529 100.629C555.119 101.371 554.914 102.191 554.914 103.09H549.729C549.729 101.957 549.973 100.834 550.461 99.7207C550.969 98.6074 551.691 97.6016 552.629 96.7031C553.566 95.7852 554.689 95.0625 555.998 94.5352C557.326 93.9883 558.811 93.7148 560.451 93.7148C562.404 93.7148 564.133 94.0371 565.637 94.6816C567.141 95.3066 568.322 96.332 569.182 97.7578C570.041 99.1836 570.471 101.078 570.471 103.441V119.086C570.471 120.141 570.549 121.264 570.705 122.455C570.881 123.646 571.125 124.672 571.438 125.531V126H566.076C565.822 125.375 565.627 124.545 565.49 123.51C565.354 122.455 565.285 121.479 565.285 120.58ZM566.105 106.781L566.164 110.59H562.561C561.33 110.59 560.207 110.727 559.191 111C558.195 111.273 557.336 111.674 556.613 112.201C555.891 112.709 555.334 113.344 554.943 114.105C554.572 114.867 554.387 115.736 554.387 116.713C554.387 117.982 554.562 118.998 554.914 119.76C555.266 120.502 555.793 121.039 556.496 121.371C557.199 121.703 558.088 121.869 559.162 121.869C560.471 121.869 561.623 121.566 562.619 120.961C563.615 120.355 564.387 119.623 564.934 118.764C565.5 117.904 565.764 117.104 565.725 116.361L566.867 118.793C566.789 119.555 566.535 120.385 566.105 121.283C565.695 122.162 565.119 123.012 564.377 123.832C563.635 124.633 562.756 125.297 561.74 125.824C560.744 126.332 559.621 126.586 558.371 126.586C556.535 126.586 554.924 126.234 553.537 125.531C552.17 124.828 551.105 123.793 550.344 122.426C549.582 121.059 549.201 119.369 549.201 117.357C549.201 115.834 549.465 114.428 549.992 113.139C550.52 111.85 551.301 110.736 552.336 109.799C553.371 108.842 554.67 108.1 556.232 107.572C557.814 107.045 559.641 106.781 561.711 106.781H566.105ZM585.412 122.719L592.473 94.3008H597.98L587.521 130.893C587.268 131.674 586.926 132.514 586.496 133.412C586.086 134.33 585.559 135.199 584.914 136.02C584.27 136.84 583.498 137.504 582.6 138.012C581.701 138.539 580.646 138.803 579.436 138.803C579.064 138.803 578.586 138.744 578 138.627C577.434 138.51 577.023 138.412 576.77 138.334V133.939C576.887 133.959 577.072 133.979 577.326 133.998C577.58 134.037 577.766 134.057 577.883 134.057C578.898 134.057 579.758 133.891 580.461 133.559C581.184 133.246 581.799 132.709 582.307 131.947C582.814 131.205 583.244 130.18 583.596 128.871L585.412 122.719ZM580.842 94.3008L587.141 118.91L588.488 124.623L584.797 126.615L575.188 94.3008H580.842ZM454.016 171.068V196H448.83V164.301H453.723L454.016 171.068ZM452.756 178.949L450.646 178.861C450.627 176.693 450.871 174.691 451.379 172.855C451.906 171 452.648 169.389 453.605 168.021C454.582 166.654 455.744 165.6 457.092 164.857C458.439 164.096 459.934 163.715 461.574 163.715C462.863 163.715 464.035 163.93 465.09 164.359C466.145 164.77 467.043 165.434 467.785 166.352C468.527 167.27 469.094 168.461 469.484 169.926C469.895 171.371 470.1 173.139 470.1 175.229V196H464.914V175.17C464.914 173.51 464.729 172.182 464.357 171.186C464.006 170.17 463.459 169.438 462.717 168.988C461.994 168.52 461.076 168.285 459.963 168.285C458.947 168.285 458 168.568 457.121 169.135C456.242 169.701 455.471 170.482 454.807 171.479C454.162 172.475 453.654 173.617 453.283 174.906C452.932 176.176 452.756 177.523 452.756 178.949ZM493.42 190.58V173.383C493.42 172.133 493.225 171.127 492.834 170.365C492.463 169.604 491.896 169.047 491.135 168.695C490.393 168.344 489.455 168.168 488.322 168.168C487.229 168.168 486.281 168.393 485.48 168.842C484.699 169.291 484.094 169.887 483.664 170.629C483.254 171.371 483.049 172.191 483.049 173.09H477.863C477.863 171.957 478.107 170.834 478.596 169.721C479.104 168.607 479.826 167.602 480.764 166.703C481.701 165.785 482.824 165.062 484.133 164.535C485.461 163.988 486.945 163.715 488.586 163.715C490.539 163.715 492.268 164.037 493.771 164.682C495.275 165.307 496.457 166.332 497.316 167.758C498.176 169.184 498.605 171.078 498.605 173.441V189.086C498.605 190.141 498.684 191.264 498.84 192.455C499.016 193.646 499.26 194.672 499.572 195.531V196H494.211C493.957 195.375 493.762 194.545 493.625 193.51C493.488 192.455 493.42 191.479 493.42 190.58ZM494.24 176.781L494.299 180.59H490.695C489.465 180.59 488.342 180.727 487.326 181C486.33 181.273 485.471 181.674 484.748 182.201C484.025 182.709 483.469 183.344 483.078 184.105C482.707 184.867 482.521 185.736 482.521 186.713C482.521 187.982 482.697 188.998 483.049 189.76C483.4 190.502 483.928 191.039 484.631 191.371C485.334 191.703 486.223 191.869 487.297 191.869C488.605 191.869 489.758 191.566 490.754 190.961C491.75 190.355 492.521 189.623 493.068 188.764C493.635 187.904 493.898 187.104 493.859 186.361L495.002 188.793C494.924 189.555 494.67 190.385 494.24 191.283C493.83 192.162 493.254 193.012 492.512 193.832C491.77 194.633 490.891 195.297 489.875 195.824C488.879 196.332 487.756 196.586 486.506 196.586C484.67 196.586 483.059 196.234 481.672 195.531C480.305 194.828 479.24 193.793 478.479 192.426C477.717 191.059 477.336 189.369 477.336 187.357C477.336 185.834 477.6 184.428 478.127 183.139C478.654 181.85 479.436 180.736 480.471 179.799C481.506 178.842 482.805 178.1 484.367 177.572C485.949 177.045 487.775 176.781 489.846 176.781H494.24ZM523.273 189.848V151H528.43V196H523.713L523.273 189.848ZM505.549 181.674V178.715C505.549 176.098 505.803 173.852 506.311 171.977C506.818 170.082 507.541 168.529 508.479 167.318C509.416 166.088 510.539 165.18 511.848 164.594C513.156 164.008 514.602 163.715 516.184 163.715C517.824 163.715 519.23 164.047 520.402 164.711C521.594 165.375 522.59 166.342 523.391 167.611C524.191 168.861 524.816 170.385 525.266 172.182C525.734 173.959 526.047 175.971 526.203 178.217V182.172C526.027 184.398 525.705 186.4 525.236 188.178C524.787 189.955 524.162 191.469 523.361 192.719C522.561 193.969 521.564 194.926 520.373 195.59C519.182 196.254 517.766 196.586 516.125 196.586C514.562 196.586 513.137 196.283 511.848 195.678C510.559 195.053 509.436 194.125 508.479 192.895C507.541 191.645 506.818 190.092 506.311 188.236C505.803 186.361 505.549 184.174 505.549 181.674ZM510.734 178.715V181.674C510.734 183.432 510.861 184.965 511.115 186.273C511.369 187.562 511.77 188.637 512.316 189.496C512.863 190.336 513.557 190.961 514.396 191.371C515.256 191.781 516.281 191.986 517.473 191.986C518.918 191.986 520.1 191.635 521.018 190.932C521.936 190.229 522.668 189.301 523.215 188.148C523.781 186.977 524.23 185.717 524.562 184.369V176.049C524.367 175.053 524.084 174.096 523.713 173.178C523.342 172.24 522.873 171.41 522.307 170.688C521.76 169.945 521.086 169.359 520.285 168.93C519.504 168.5 518.586 168.285 517.531 168.285C516.34 168.285 515.305 168.5 514.426 168.93C513.566 169.359 512.863 170.004 512.316 170.863C511.789 171.723 511.389 172.807 511.115 174.115C510.861 175.424 510.734 176.957 510.734 178.715ZM551.955 190.58V173.383C551.955 172.133 551.76 171.127 551.369 170.365C550.998 169.604 550.432 169.047 549.67 168.695C548.928 168.344 547.99 168.168 546.857 168.168C545.764 168.168 544.816 168.393 544.016 168.842C543.234 169.291 542.629 169.887 542.199 170.629C541.789 171.371 541.584 172.191 541.584 173.09H536.398C536.398 171.957 536.643 170.834 537.131 169.721C537.639 168.607 538.361 167.602 539.299 166.703C540.236 165.785 541.359 165.062 542.668 164.535C543.996 163.988 545.48 163.715 547.121 163.715C549.074 163.715 550.803 164.037 552.307 164.682C553.811 165.307 554.992 166.332 555.852 167.758C556.711 169.184 557.141 171.078 557.141 173.441V189.086C557.141 190.141 557.219 191.264 557.375 192.455C557.551 193.646 557.795 194.672 558.107 195.531V196H552.746C552.492 195.375 552.297 194.545 552.16 193.51C552.023 192.455 551.955 191.479 551.955 190.58ZM552.775 176.781L552.834 180.59H549.23C548 180.59 546.877 180.727 545.861 181C544.865 181.273 544.006 181.674 543.283 182.201C542.561 182.709 542.004 183.344 541.613 184.105C541.242 184.867 541.057 185.736 541.057 186.713C541.057 187.982 541.232 188.998 541.584 189.76C541.936 190.502 542.463 191.039 543.166 191.371C543.869 191.703 544.758 191.869 545.832 191.869C547.141 191.869 548.293 191.566 549.289 190.961C550.285 190.355 551.057 189.623 551.604 188.764C552.17 187.904 552.434 187.104 552.395 186.361L553.537 188.793C553.459 189.555 553.205 190.385 552.775 191.283C552.365 192.162 551.789 193.012 551.047 193.832C550.305 194.633 549.426 195.297 548.41 195.824C547.414 196.332 546.291 196.586 545.041 196.586C543.205 196.586 541.594 196.234 540.207 195.531C538.84 194.828 537.775 193.793 537.014 192.426C536.252 191.059 535.871 189.369 535.871 187.357C535.871 185.834 536.135 184.428 536.662 183.139C537.189 181.85 537.971 180.736 539.006 179.799C540.041 178.842 541.34 178.1 542.902 177.572C544.484 177.045 546.311 176.781 548.381 176.781H552.775ZM571.438 153.344L571.057 183.959H566.398L565.988 153.344H571.438ZM565.9 193.275C565.9 192.396 566.145 191.654 566.633 191.049C567.141 190.443 567.873 190.141 568.83 190.141C569.807 190.141 570.539 190.443 571.027 191.049C571.535 191.654 571.789 192.396 571.789 193.275C571.789 194.115 571.535 194.838 571.027 195.443C570.539 196.049 569.807 196.352 568.83 196.352C567.873 196.352 567.141 196.049 566.633 195.443C566.145 194.838 565.9 194.115 565.9 193.275Z" fill="white"/>
</svg>
