<svg width="1542" height="1120" viewBox="0 0 1542 1120" fill="none" xmlns="http://www.w3.org/2000/svg">
<g clip-path="url(#clip0_51_720)">
<path d="M158.297 1056.46C156.37 1058.83 153.886 1060.68 151.069 1061.86C148.251 1063.04 145.186 1063.5 142.146 1063.21C139.106 1062.91 136.186 1061.88 133.644 1060.18C131.102 1058.49 129.019 1056.19 127.578 1053.5C125.053 1048.67 121.593 1044.39 117.401 1040.91L116.265 1039.98C111.913 1036.43 106.901 1033.78 101.518 1032.18C97.201 1030.91 93.4921 1028.12 91.0815 1024.32C88.6709 1020.52 87.7228 1015.97 88.4137 1011.52C89.1046 1007.08 91.3874 1003.03 94.8373 1000.14C98.2873 997.256 102.669 995.719 107.168 995.82C115.456 995.907 123.551 993.318 130.25 988.437C138.053 982.826 148.822 978.993 159.529 987.733C170.121 996.396 168.483 1007.75 164.557 1016.55C161.191 1024.19 160.323 1032.7 162.078 1040.87C162.657 1043.58 162.619 1046.39 161.964 1049.09C161.31 1051.79 160.056 1054.31 158.297 1056.46Z" fill="#7D5A50" fill-opacity="0.75"/>
<path d="M127.325 978.413C133.339 971.056 133.303 961.077 127.244 956.124C121.185 951.172 111.398 953.121 105.384 960.477C99.37 967.834 99.4062 977.813 105.465 982.766C111.524 987.719 121.311 985.77 127.325 978.413Z" fill="#7D5A50" fill-opacity="0.75"/>
<path d="M171.657 966.286C177.671 958.929 177.634 948.95 171.576 943.997C165.517 939.044 155.73 940.993 149.716 948.35C143.702 955.707 143.738 965.686 149.797 970.639C155.856 975.592 165.643 973.643 171.657 966.286Z" fill="#7D5A50" fill-opacity="0.75"/>
<path d="M197.062 1035.42C203.076 1028.07 203.04 1018.09 196.981 1013.13C190.922 1008.18 181.136 1010.13 175.121 1017.49C169.107 1024.84 169.144 1034.82 175.202 1039.78C181.261 1044.73 191.048 1042.78 197.062 1035.42Z" fill="#7D5A50" fill-opacity="0.75"/>
<path d="M200.128 989.559C206.143 982.202 206.106 972.223 200.048 967.27C193.989 962.317 184.202 964.266 178.188 971.623C172.174 978.98 172.21 988.959 178.269 993.912C184.327 998.865 194.114 996.916 200.128 989.559Z" fill="#7D5A50" fill-opacity="0.75"/>
<path d="M320.595 1048.21C319.007 1050.15 317.041 1051.75 314.817 1052.91C312.593 1054.08 310.157 1054.77 307.655 1054.97C305.153 1055.16 302.638 1054.84 300.263 1054.03C297.887 1053.23 295.7 1051.95 293.833 1050.27C292.237 1048.84 290.905 1047.14 289.897 1045.25C287.369 1040.43 283.91 1036.15 279.72 1032.66L278.58 1031.73C274.228 1028.18 269.216 1025.53 263.833 1023.93C259.515 1022.66 255.806 1019.87 253.395 1016.07C250.984 1012.27 250.036 1007.72 250.727 1003.27C251.419 998.826 253.703 994.781 257.154 991.893C260.605 989.004 264.988 987.468 269.488 987.571C277.774 987.658 285.868 985.069 292.566 980.188C300.373 974.577 311.142 970.744 321.844 979.485C332.441 988.147 330.798 999.497 326.873 1008.3C323.506 1015.94 322.638 1024.45 324.393 1032.62C324.972 1035.33 324.93 1038.15 324.273 1040.85C323.615 1043.55 322.358 1046.06 320.595 1048.21Z" fill="#7D5A50" fill-opacity="0.75"/>
<path d="M289.621 970.166C295.635 962.809 295.598 952.83 289.54 947.878C283.481 942.925 273.694 944.874 267.68 952.231C261.666 959.588 261.702 969.567 267.761 974.519C273.82 979.472 283.607 977.523 289.621 970.166Z" fill="#7D5A50" fill-opacity="0.75"/>
<path d="M333.957 958.039C339.971 950.682 339.935 940.703 333.876 935.75C327.817 930.797 318.03 932.746 312.016 940.103C306.002 947.46 306.039 957.439 312.097 962.392C318.156 967.345 327.943 965.396 333.957 958.039Z" fill="#7D5A50" fill-opacity="0.75"/>
<path d="M359.362 1027.18C365.377 1019.82 365.34 1009.84 359.282 1004.89C353.223 999.934 343.436 1001.88 337.422 1009.24C331.408 1016.6 331.444 1026.58 337.503 1031.53C343.561 1036.48 353.348 1034.53 359.362 1027.18Z" fill="#7D5A50" fill-opacity="0.75"/>
<path d="M362.429 981.312C368.443 973.955 368.407 963.976 362.348 959.023C356.289 954.07 346.502 956.019 340.488 963.376C334.474 970.733 334.51 980.712 340.569 985.665C346.628 990.618 356.415 988.669 362.429 981.312Z" fill="#7D5A50" fill-opacity="0.75"/>
<path d="M177.019 1107.94C175.567 1109.73 173.82 1111.25 171.854 1112.46L157.707 1113.88C156.792 1113.46 155.935 1112.93 155.158 1112.29C149.1 1107.34 149.064 1097.36 155.076 1090C161.089 1082.65 170.879 1080.69 176.937 1085.65C182.996 1090.6 183.047 1100.59 177.019 1107.94Z" fill="#7D5A50" fill-opacity="0.75"/>
<path d="M221.352 1095.81C227.366 1088.45 227.33 1078.47 221.271 1073.52C215.212 1068.57 205.426 1070.52 199.411 1077.87C193.397 1085.23 193.434 1095.21 199.492 1100.16C205.551 1105.11 215.338 1103.16 221.352 1095.81Z" fill="#7D5A50" fill-opacity="0.75"/>
<path d="M254.04 1104.2L224.456 1107.17C225.244 1104.99 226.402 1102.95 227.878 1101.15C233.89 1093.79 243.676 1091.85 249.735 1096.8C251.999 1098.68 253.524 1101.3 254.04 1104.2Z" fill="#7D5A50" fill-opacity="0.75"/>
<path d="M269.71 873.914C267.782 876.282 265.299 878.138 262.481 879.315C259.663 880.493 256.598 880.956 253.558 880.664C250.518 880.371 247.598 879.333 245.056 877.639C242.515 875.946 240.431 873.651 238.99 870.959C236.465 866.129 233.006 861.849 228.813 858.367L227.677 857.434C223.325 853.885 218.313 851.235 212.93 849.636C208.613 848.367 204.904 845.572 202.494 841.773C200.083 837.973 199.135 833.427 199.826 828.981C200.517 824.535 202.8 820.491 206.25 817.602C209.699 814.713 214.081 813.176 218.58 813.277C226.868 813.364 234.963 810.775 241.663 805.894C249.465 800.283 260.234 796.45 270.941 805.19C281.533 813.853 279.895 825.202 275.97 834.008C272.603 841.649 271.735 850.159 273.49 858.322C274.07 861.038 274.031 863.85 273.376 866.549C272.722 869.248 271.469 871.765 269.71 873.914Z" fill="#7D5A50" fill-opacity="0.75"/>
<path d="M238.736 795.869C244.75 788.512 244.714 778.533 238.656 773.58C232.597 768.627 222.81 770.576 216.796 777.933C210.782 785.29 210.818 795.269 216.877 800.222C222.935 805.175 232.722 803.226 238.736 795.869Z" fill="#7D5A50" fill-opacity="0.75"/>
<path d="M283.073 783.741C289.087 776.384 289.051 766.405 282.992 761.452C276.933 756.499 267.146 758.448 261.132 765.805C255.118 773.162 255.154 783.141 261.213 788.094C267.272 793.047 277.059 791.098 283.073 783.741Z" fill="#7D5A50" fill-opacity="0.75"/>
<path d="M308.474 852.879C314.488 845.522 314.452 835.543 308.393 830.59C302.334 825.637 292.547 827.586 286.533 834.943C280.519 842.3 280.555 852.279 286.614 857.232C292.673 862.185 302.46 860.236 308.474 852.879Z" fill="#7D5A50" fill-opacity="0.75"/>
<path d="M311.54 807.015C317.554 799.658 317.518 789.679 311.459 784.726C305.401 779.773 295.614 781.722 289.599 789.079C283.585 796.436 283.622 806.415 289.68 811.368C295.739 816.321 305.526 814.372 311.54 807.015Z" fill="#7D5A50" fill-opacity="0.75"/>
<path d="M443.118 894.374C441.19 896.743 438.707 898.599 435.889 899.776C433.072 900.954 430.007 901.417 426.967 901.125C423.927 900.832 421.006 899.793 418.465 898.1C415.923 896.407 413.839 894.112 412.398 891.42C409.873 886.59 406.414 882.31 402.221 878.828L401.085 877.895C396.734 874.346 391.721 871.696 386.339 870.097C382.022 868.828 378.313 866.033 375.902 862.234C373.492 858.434 372.543 853.888 373.234 849.442C373.925 844.996 376.208 840.952 379.658 838.063C383.108 835.174 387.49 833.637 391.989 833.737C400.277 833.825 408.372 831.235 415.071 826.355C422.874 820.744 433.643 816.911 444.35 825.651C454.942 834.314 453.303 845.663 449.378 854.469C446.012 862.11 445.144 870.619 446.899 878.783C447.478 881.499 447.439 884.311 446.785 887.01C446.13 889.708 444.877 892.226 443.118 894.374Z" fill="#7D5A50" fill-opacity="0.75"/>
<path d="M412.143 816.331C418.157 808.974 418.121 798.995 412.062 794.042C406.003 789.089 396.216 791.038 390.202 798.395C384.188 805.752 384.224 815.731 390.283 820.684C396.342 825.637 406.129 823.688 412.143 816.331Z" fill="#7D5A50" fill-opacity="0.75"/>
<path d="M456.479 804.203C462.493 796.846 462.457 786.867 456.398 781.914C450.34 776.961 440.553 778.91 434.539 786.267C428.525 793.624 428.561 803.603 434.62 808.556C440.678 813.509 450.465 811.56 456.479 804.203Z" fill="#7D5A50" fill-opacity="0.75"/>
<path d="M481.885 873.34C487.899 865.983 487.863 856.004 481.804 851.051C475.745 846.099 465.958 848.048 459.944 855.404C453.93 862.761 453.966 872.74 460.025 877.693C466.084 882.646 475.871 880.697 481.885 873.34Z" fill="#7D5A50" fill-opacity="0.75"/>
<path d="M484.951 827.476C490.965 820.119 490.929 810.14 484.87 805.187C478.812 800.235 469.025 802.184 463.01 809.54C456.996 816.897 457.033 826.876 463.091 831.829C469.15 836.782 478.937 834.833 484.951 827.476Z" fill="#7D5A50" fill-opacity="0.75"/>
<path d="M397.471 691.071C395.883 693.013 393.917 694.614 391.693 695.775C389.469 696.936 387.033 697.634 384.531 697.827C382.029 698.02 379.515 697.703 377.139 696.896C374.763 696.089 372.576 694.809 370.709 693.132C369.113 691.703 367.781 690.004 366.773 688.114C364.245 683.286 360.787 679.006 356.597 675.522L355.456 674.589C351.104 671.041 346.092 668.391 340.709 666.791C336.392 665.523 332.682 662.728 330.271 658.928C327.86 655.128 326.912 650.581 327.603 646.134C328.295 641.687 330.579 637.643 334.03 634.754C337.481 631.865 341.864 630.329 346.364 630.432C354.65 630.519 362.744 627.93 369.442 623.049C377.249 617.438 388.018 613.605 398.72 622.346C409.317 631.008 407.674 642.358 403.749 651.163C400.382 658.805 399.515 667.314 401.269 675.478C401.848 678.195 401.807 681.008 401.149 683.708C400.491 686.407 399.234 688.924 397.471 691.071Z" fill="#7D5A50" fill-opacity="0.75"/>
<path d="M366.497 613.027C372.511 605.67 372.475 595.691 366.416 590.738C360.357 585.785 350.57 587.734 344.556 595.091C338.542 602.448 338.578 612.427 344.637 617.38C350.696 622.333 360.483 620.384 366.497 613.027Z" fill="#7D5A50" fill-opacity="0.75"/>
<path d="M410.834 600.904C416.848 593.547 416.811 583.568 410.753 578.615C404.694 573.662 394.907 575.611 388.893 582.968C382.879 590.325 382.915 600.304 388.974 605.257C395.033 610.21 404.82 608.261 410.834 600.904Z" fill="#7D5A50" fill-opacity="0.75"/>
<path d="M436.239 670.036C442.253 662.679 442.216 652.7 436.158 647.747C430.099 642.795 420.312 644.744 414.298 652.1C408.284 659.457 408.32 669.436 414.379 674.389C420.438 679.342 430.225 677.393 436.239 670.036Z" fill="#7D5A50" fill-opacity="0.75"/>
<path d="M439.305 624.177C445.32 616.82 445.283 606.841 439.225 601.888C433.166 596.935 423.379 598.884 417.365 606.241C411.351 613.598 411.387 623.577 417.446 628.53C423.504 633.483 433.291 631.534 439.305 624.177Z" fill="#7D5A50" fill-opacity="0.75"/>
<path d="M583.674 696.377C582.087 698.321 580.121 699.921 577.897 701.083C575.673 702.245 573.236 702.943 570.734 703.136C568.233 703.328 565.718 703.011 563.342 702.204C560.966 701.397 558.779 700.116 556.912 698.439C555.317 697.01 553.984 695.311 552.977 693.421C550.449 688.593 546.99 684.313 542.8 680.828L541.659 679.896C537.307 676.348 532.295 673.697 526.913 672.098C522.595 670.829 518.885 668.035 516.474 664.234C514.063 660.434 513.115 655.887 513.807 651.44C514.498 646.993 516.782 642.949 520.233 640.061C523.684 637.172 528.068 635.636 532.567 635.738C540.854 635.826 548.948 633.237 555.645 628.356C563.452 622.744 574.221 618.911 584.924 627.652C595.52 636.315 593.877 647.665 589.952 656.47C586.585 664.111 585.718 672.621 587.472 680.784C588.051 683.502 588.01 686.315 587.352 689.014C586.695 691.714 585.438 694.23 583.674 696.377Z" fill="#7D5A50" fill-opacity="0.75"/>
<path d="M552.701 618.335C558.716 610.978 558.679 600.999 552.621 596.046C546.562 591.093 536.775 593.042 530.761 600.399C524.747 607.756 524.783 617.735 530.842 622.688C536.9 627.641 546.687 625.692 552.701 618.335Z" fill="#7D5A50" fill-opacity="0.75"/>
<path d="M597.038 606.207C603.052 598.851 603.016 588.872 596.957 583.919C590.898 578.966 581.111 580.915 575.097 588.272C569.083 595.629 569.119 605.608 575.178 610.56C581.237 615.513 591.024 613.564 597.038 606.207Z" fill="#7D5A50" fill-opacity="0.75"/>
<path d="M622.443 675.344C628.457 667.987 628.421 658.008 622.362 653.056C616.304 648.103 606.517 650.052 600.503 657.409C594.489 664.766 594.525 674.745 600.584 679.697C606.642 684.65 616.429 682.701 622.443 675.344Z" fill="#7D5A50" fill-opacity="0.75"/>
<path d="M625.505 629.481C631.519 622.124 631.483 612.145 625.424 607.192C619.366 602.239 609.579 604.188 603.564 611.545C597.55 618.902 597.587 628.881 603.645 633.834C609.704 638.787 619.491 636.838 625.505 629.481Z" fill="#7D5A50" fill-opacity="0.75"/>
<path d="M527.585 515.88C525.51 517.291 523.17 518.267 520.708 518.748C518.245 519.229 515.71 519.206 513.257 518.679C510.803 518.153 508.482 517.134 506.433 515.685C504.385 514.236 502.652 512.386 501.338 510.248C500.214 508.424 499.419 506.417 498.989 504.318C497.94 498.97 495.84 493.882 492.811 489.352L491.986 488.137C488.827 483.499 484.779 479.534 480.077 476.47C476.318 474.018 473.575 470.288 472.355 465.968C471.136 461.649 471.523 457.035 473.445 452.979C475.367 448.923 478.693 445.701 482.808 443.91C486.922 442.119 491.547 441.879 495.825 443.235C503.747 445.673 512.243 445.491 520.053 442.717C529.132 439.568 540.545 438.941 548.32 450.374C556.018 461.68 551.218 472.104 544.974 479.428C539.572 485.796 536.319 493.708 535.679 502.034C535.454 504.801 534.61 507.482 533.209 509.878C531.807 512.275 529.885 514.326 527.585 515.88Z" fill="#7D5A50" fill-opacity="0.75"/>
<path d="M520.073 432.233C527.93 426.888 530.731 417.31 526.33 410.84C521.928 404.37 511.991 403.457 504.134 408.801C496.277 414.146 493.476 423.724 497.878 430.194C502.279 436.665 512.216 437.577 520.073 432.233Z" fill="#7D5A50" fill-opacity="0.75"/>
<path d="M566.019 433.206C573.875 427.862 576.677 418.284 572.275 411.813C567.874 405.343 557.936 404.43 550.08 409.775C542.223 415.119 539.422 424.697 543.823 431.167C548.225 437.638 558.162 438.551 566.019 433.206Z" fill="#7D5A50" fill-opacity="0.75"/>
<path d="M570.733 506.709C578.59 501.365 581.391 491.787 576.989 485.316C572.588 478.846 562.651 477.933 554.794 483.278C546.937 488.622 544.136 498.2 548.537 504.671C552.939 511.141 562.876 512.054 570.733 506.709Z" fill="#7D5A50" fill-opacity="0.75"/>
<path d="M586.706 463.611C594.563 458.266 597.364 448.688 592.963 442.218C588.561 435.748 578.624 434.835 570.767 440.179C562.91 445.524 560.109 455.102 564.511 461.572C568.912 468.043 578.849 468.955 586.706 463.611Z" fill="#7D5A50" fill-opacity="0.75"/>
<path d="M707.135 581.81C705.06 583.222 702.72 584.198 700.258 584.68C697.795 585.162 695.26 585.138 692.806 584.612C690.352 584.085 688.031 583.066 685.983 581.617C683.934 580.167 682.201 578.317 680.888 576.178C679.765 574.356 678.97 572.351 678.54 570.253C677.49 564.905 675.39 559.818 672.361 555.287L671.537 554.072C668.377 549.434 664.329 545.469 659.627 542.405C655.868 539.953 653.125 536.223 651.906 531.904C650.686 527.584 651.073 522.97 652.995 518.914C654.917 514.858 658.243 511.637 662.358 509.845C666.473 508.054 671.098 507.814 675.376 509.17C683.297 511.608 691.794 511.426 699.604 508.652C708.683 505.503 720.096 504.876 727.87 516.309C735.569 527.616 730.768 538.039 724.502 545.366C719.095 551.737 715.839 559.653 715.2 567.985C714.975 570.746 714.134 573.421 712.738 575.814C711.342 578.207 709.427 580.256 707.135 581.81Z" fill="#7D5A50" fill-opacity="0.75"/>
<path d="M699.619 498.155C707.476 492.811 710.277 483.233 705.875 476.762C701.474 470.292 691.537 469.379 683.68 474.724C675.823 480.068 673.022 489.646 677.423 496.117C681.825 502.587 691.762 503.5 699.619 498.155Z" fill="#7D5A50" fill-opacity="0.75"/>
<path d="M745.569 499.128C753.426 493.784 756.227 484.206 751.825 477.735C747.424 471.265 737.487 470.352 729.63 475.697C721.773 481.041 718.972 490.619 723.373 497.09C727.775 503.56 737.712 504.473 745.569 499.128Z" fill="#7D5A50" fill-opacity="0.75"/>
<path d="M750.279 572.632C758.135 567.287 760.936 557.709 756.535 551.239C752.134 544.769 742.196 543.856 734.34 549.2C726.483 554.545 723.682 564.123 728.083 570.593C732.484 577.064 742.422 577.976 750.279 572.632Z" fill="#7D5A50" fill-opacity="0.75"/>
<path d="M766.252 529.538C774.109 524.193 776.91 514.615 772.509 508.145C768.107 501.675 758.17 500.762 750.313 506.106C742.456 511.451 739.655 521.029 744.057 527.499C748.458 533.97 758.395 534.882 766.252 529.538Z" fill="#7D5A50" fill-opacity="0.75"/>
<path d="M1219.14 526.894C1216.42 528.273 1213.4 528.958 1210.35 528.891C1207.3 528.823 1204.31 528.003 1201.65 526.505C1199 525.006 1196.75 522.876 1195.11 520.301C1193.48 517.727 1192.5 514.788 1192.27 511.746C1191.92 506.308 1190.49 500.993 1188.08 496.11L1187.41 494.799C1184.87 489.791 1181.37 485.336 1177.09 481.693C1173.68 478.777 1171.44 474.724 1170.79 470.284C1170.14 465.845 1171.12 461.32 1173.55 457.546C1175.98 453.773 1179.69 451.007 1184 449.76C1188.31 448.513 1192.93 448.871 1196.99 450.766C1204.53 454.203 1212.98 455.116 1221.08 453.37C1230.5 451.405 1241.89 452.265 1248.13 464.604C1254.3 476.815 1248.2 486.519 1241.05 492.987C1234.87 498.606 1230.63 506.031 1228.91 514.204C1228.34 516.916 1227.16 519.465 1225.47 521.661C1223.78 523.858 1221.61 525.646 1219.14 526.894Z" fill="#7D5A50" fill-opacity="0.75"/>
<path d="M1222.45 442.918C1230.93 438.63 1234.95 429.493 1231.41 422.509C1227.88 415.526 1218.15 413.341 1209.67 417.629C1201.19 421.917 1197.17 431.055 1200.71 438.038C1204.24 445.021 1213.97 447.206 1222.45 442.918Z" fill="#7D5A50" fill-opacity="0.75"/>
<path d="M1267.9 449.806C1276.38 445.518 1280.39 436.38 1276.86 429.397C1273.32 422.413 1263.59 420.228 1255.11 424.517C1246.63 428.805 1242.62 437.942 1246.15 444.925C1249.68 451.909 1259.42 454.094 1267.9 449.806Z" fill="#7D5A50" fill-opacity="0.75"/>
<path d="M1263.1 523.295C1271.58 519.007 1275.59 509.87 1272.06 502.886C1268.53 495.903 1258.79 493.718 1250.31 498.006C1241.83 502.294 1237.82 511.431 1241.35 518.415C1244.88 525.398 1254.62 527.583 1263.1 523.295Z" fill="#7D5A50" fill-opacity="0.75"/>
<path d="M1284.49 482.617C1292.97 478.329 1296.98 469.192 1293.45 462.208C1289.92 455.225 1280.18 453.04 1271.7 457.328C1263.22 461.616 1259.21 470.753 1262.74 477.737C1266.27 484.72 1276.01 486.905 1284.49 482.617Z" fill="#7D5A50" fill-opacity="0.75"/>
<path d="M1377.56 395.323C1375.87 397.184 1373.83 398.686 1371.55 399.736C1369.27 400.786 1366.8 401.362 1364.3 401.431C1361.79 401.5 1359.29 401.059 1356.96 400.136C1354.63 399.212 1352.5 397.825 1350.72 396.058C1349.2 394.553 1347.95 392.791 1347.04 390.853C1344.75 385.906 1341.51 381.461 1337.5 377.772L1336.41 376.79C1332.23 373.03 1327.36 370.135 1322.06 368.272C1317.82 366.782 1314.27 363.805 1312.06 359.894C1309.85 355.982 1309.13 351.402 1310.04 347.002C1310.95 342.602 1313.43 338.682 1317.01 335.97C1320.59 333.257 1325.03 331.935 1329.51 332.25C1337.79 332.742 1346 330.554 1352.93 326.011C1361 320.793 1371.94 317.493 1382.21 326.761C1392.36 335.933 1390.16 347.192 1385.81 355.794C1382.07 363.26 1380.78 371.715 1382.12 379.957C1382.56 382.696 1382.38 385.5 1381.59 388.16C1380.8 390.82 1379.42 393.268 1377.56 395.323Z" fill="#7D5A50" fill-opacity="0.75"/>
<path d="M1350.52 315.909C1356.89 308.858 1357.34 298.889 1351.54 293.644C1345.73 288.398 1335.86 289.861 1329.49 296.912C1323.12 303.963 1322.66 313.932 1328.47 319.178C1334.27 324.424 1344.15 322.96 1350.52 315.909Z" fill="#7D5A50" fill-opacity="0.75"/>
<path d="M1395.39 305.982C1401.76 298.931 1402.22 288.962 1396.41 283.716C1390.61 278.47 1380.74 279.934 1374.37 286.985C1368 294.036 1367.54 304.004 1373.35 309.25C1379.15 314.496 1389.02 313.033 1395.39 305.982Z" fill="#7D5A50" fill-opacity="0.75"/>
<path d="M1417.36 376.289C1423.73 369.238 1424.18 359.269 1418.38 354.023C1412.57 348.778 1402.7 350.241 1396.33 357.292C1389.96 364.343 1389.5 374.311 1395.31 379.557C1401.12 384.803 1410.99 383.34 1417.36 376.289Z" fill="#7D5A50" fill-opacity="0.75"/>
<path d="M1422.68 330.632C1429.05 323.581 1429.51 313.612 1423.7 308.366C1417.9 303.12 1408.03 304.583 1401.66 311.634C1395.29 318.685 1394.83 328.654 1400.64 333.9C1406.44 339.146 1416.31 337.683 1422.68 330.632Z" fill="#7D5A50" fill-opacity="0.75"/>
<path d="M1300.89 245.646C1299.31 247.599 1297.36 249.212 1295.14 250.388C1292.93 251.564 1290.49 252.279 1287.99 252.488C1285.49 252.697 1282.98 252.397 1280.6 251.606C1278.21 250.815 1276.02 249.549 1274.14 247.885C1272.54 246.474 1271.19 244.791 1270.17 242.914C1267.62 238.101 1264.13 233.842 1259.92 230.383L1258.78 229.46C1254.4 225.94 1249.38 223.32 1243.98 221.752C1239.68 220.492 1235.98 217.717 1233.56 213.939C1231.15 210.161 1230.18 205.636 1230.84 201.201C1231.5 196.766 1233.75 192.72 1237.16 189.813C1240.58 186.905 1244.93 185.332 1249.41 185.384C1257.7 185.405 1265.78 182.75 1272.45 177.814C1280.22 172.156 1290.96 168.259 1301.72 176.945C1312.37 185.539 1310.79 196.9 1306.92 205.727C1303.6 213.39 1302.78 221.907 1304.59 230.063C1305.17 232.771 1305.15 235.578 1304.51 238.274C1303.87 240.971 1302.63 243.49 1300.89 245.646Z" fill="#7D5A50" fill-opacity="0.75"/>
<path d="M1269.46 167.796C1275.43 160.402 1275.33 150.424 1269.24 145.508C1263.15 140.592 1253.38 142.601 1247.41 149.994C1241.44 157.388 1241.54 167.366 1247.63 172.282C1253.72 177.198 1263.49 175.189 1269.46 167.796Z" fill="#7D5A50" fill-opacity="0.75"/>
<path d="M1313.72 155.399C1319.68 148.006 1319.59 138.027 1313.5 133.111C1307.41 128.196 1297.63 130.204 1291.67 137.598C1285.7 144.992 1285.79 154.97 1291.88 159.886C1297.97 164.802 1307.75 162.793 1313.72 155.399Z" fill="#7D5A50" fill-opacity="0.75"/>
<path d="M1339.54 224.377C1345.51 216.984 1345.41 207.005 1339.32 202.089C1333.24 197.174 1323.46 199.182 1317.49 206.576C1311.52 213.969 1311.62 223.948 1317.71 228.864C1323.8 233.779 1333.57 231.771 1339.54 224.377Z" fill="#7D5A50" fill-opacity="0.75"/>
<path d="M1342.33 178.495C1348.3 171.102 1348.2 161.123 1342.11 156.207C1336.02 151.292 1326.25 153.3 1320.28 160.694C1314.31 168.087 1314.41 178.066 1320.5 182.982C1326.58 187.898 1336.36 185.889 1342.33 178.495Z" fill="#7D5A50" fill-opacity="0.75"/>
<path d="M1383.92 120.397C1382.25 122.95 1379.98 125.052 1377.3 126.516C1374.63 127.98 1371.63 128.761 1368.58 128.79C1365.53 128.819 1362.52 128.095 1359.82 126.682C1357.11 125.268 1354.8 123.21 1353.08 120.689C1350.06 116.153 1346.17 112.26 1341.64 109.235L1340.42 108.432C1335.71 105.359 1330.45 103.251 1324.93 102.229C1320.51 101.406 1316.55 99.0126 1313.77 95.4913C1310.99 91.9699 1309.57 87.5596 1309.79 83.077C1310.01 78.5945 1311.85 74.3434 1314.96 71.111C1318.08 67.8786 1322.26 65.8839 1326.73 65.4962C1334.98 64.7099 1342.76 61.2818 1348.9 55.7215C1356.08 49.3235 1366.38 44.3785 1377.94 51.9546C1389.4 59.4528 1388.96 70.9143 1385.98 80.0811C1383.43 88.0345 1383.46 96.5878 1386.07 104.523C1386.92 107.16 1387.17 109.956 1386.8 112.703C1386.43 115.451 1385.45 118.08 1383.92 120.397Z" fill="#7D5A50" fill-opacity="0.75"/>
<path d="M1344.92 46.0509C1350.12 38.102 1349.04 28.1821 1342.49 23.8943C1335.95 19.6064 1326.42 22.5744 1321.21 30.5233C1316 38.4722 1317.09 48.392 1323.64 52.6798C1330.18 56.9676 1339.71 53.9998 1344.92 46.0509Z" fill="#7D5A50" fill-opacity="0.75"/>
<path d="M1387.73 29.3315C1382.52 37.2812 1372.99 40.2517 1366.45 35.965C1359.9 31.6782 1358.81 21.7571 1364.02 13.8074C1365.56 11.4193 1367.59 9.3854 1369.98 7.84014L1384.03 6.42865C1384.48 6.64492 1384.91 6.88869 1385.32 7.15853C1391.85 11.4692 1392.93 21.3775 1387.73 29.3315Z" fill="#7D5A50" fill-opacity="0.75"/>
<path d="M1420.27 95.4073C1425.48 87.4584 1424.39 77.5386 1417.84 73.2508C1411.3 68.963 1401.77 71.9308 1396.56 79.8797C1391.36 87.8286 1392.44 97.7484 1398.99 102.036C1405.54 106.324 1415.06 103.356 1420.27 95.4073Z" fill="#7D5A50" fill-opacity="0.75"/>
<path d="M1418.49 49.4763C1423.7 41.5274 1422.61 31.6076 1416.07 27.3198C1409.52 23.032 1399.99 25.9998 1394.79 33.9487C1389.58 41.8976 1390.67 51.8175 1397.21 56.1053C1403.76 60.3932 1413.29 57.4252 1418.49 49.4763Z" fill="#7D5A50" fill-opacity="0.75"/>
<path d="M1461.78 183.562L1469.74 262.846C1466.83 264.008 1463.68 264.415 1460.58 264.03C1457.47 263.645 1454.51 262.48 1451.98 260.644C1450.24 259.391 1448.74 257.843 1447.54 256.07C1444.52 251.534 1440.63 247.641 1436.1 244.616L1434.87 243.813C1430.17 240.74 1424.9 238.632 1419.38 237.611C1414.97 236.788 1411.01 234.394 1408.22 230.872C1405.44 227.351 1404.03 222.941 1404.25 218.458C1404.47 213.976 1406.3 209.725 1409.42 206.492C1412.53 203.26 1416.71 201.265 1421.18 200.877C1429.43 200.091 1437.21 196.663 1443.35 191.103C1448.23 186.761 1454.57 183.073 1461.78 183.562Z" fill="#7D5A50" fill-opacity="0.75"/>
<path d="M1439.38 181.447C1444.58 173.498 1443.5 163.578 1436.95 159.291C1430.4 155.003 1420.88 157.971 1415.67 165.92C1410.46 173.868 1411.55 183.788 1418.1 188.076C1424.64 192.364 1434.17 189.396 1439.38 181.447Z" fill="#7D5A50" fill-opacity="0.75"/>
<path d="M1458.34 149.399L1460.52 171.102C1454.36 166.701 1453.38 157.158 1458.34 149.399Z" fill="#7D5A50" fill-opacity="0.75"/>
<path d="M1163.21 378.602C1161.1 379.97 1158.74 380.897 1156.27 381.327C1153.8 381.757 1151.27 381.681 1148.82 381.104C1146.38 380.527 1144.08 379.461 1142.07 377.97C1140.05 376.479 1138.35 374.594 1137.08 372.43C1136 370.585 1135.24 368.563 1134.86 366.457C1133.92 361.096 1131.92 355.974 1128.99 351.387L1128.19 350.156C1125.13 345.453 1121.16 341.403 1116.51 338.243C1112.81 335.713 1110.15 331.927 1109.02 327.584C1107.89 323.242 1108.37 318.638 1110.38 314.624C1112.38 310.61 1115.77 307.458 1119.92 305.751C1124.07 304.045 1128.7 303.9 1132.95 305.342C1140.82 307.942 1149.31 307.936 1157.18 305.324C1166.32 302.352 1177.74 301.97 1185.3 313.56C1192.76 325.033 1187.75 335.348 1181.33 342.543C1175.8 348.799 1172.38 356.642 1171.57 364.954C1171.28 367.709 1170.38 370.366 1168.94 372.729C1167.49 375.091 1165.53 377.098 1163.21 378.602Z" fill="#7D5A50" fill-opacity="0.75"/>
<path d="M1157.45 294.927C1165.42 289.747 1168.42 280.229 1164.15 273.669C1159.89 267.108 1149.97 265.989 1142 271.17C1134.04 276.35 1131.04 285.867 1135.3 292.428C1139.57 298.988 1149.49 300.107 1157.45 294.927Z" fill="#7D5A50" fill-opacity="0.75"/>
<path d="M1203.38 296.853C1211.34 291.673 1214.34 282.155 1210.08 275.595C1205.81 269.034 1195.89 267.915 1187.93 273.095C1179.96 278.276 1176.96 287.793 1181.23 294.354C1185.49 300.914 1195.41 302.033 1203.38 296.853Z" fill="#7D5A50" fill-opacity="0.75"/>
<path d="M1206.56 370.445C1214.52 365.264 1217.52 355.747 1213.26 349.186C1208.99 342.626 1199.08 341.507 1191.11 346.687C1183.14 351.867 1180.14 361.385 1184.41 367.945C1188.68 374.506 1198.59 375.625 1206.56 370.445Z" fill="#7D5A50" fill-opacity="0.75"/>
<path d="M1223.42 327.682C1231.39 322.501 1234.39 312.984 1230.12 306.423C1225.86 299.863 1215.94 298.744 1207.97 303.924C1200.01 309.104 1197.01 318.622 1201.27 325.182C1205.54 331.743 1215.46 332.862 1223.42 327.682Z" fill="#7D5A50" fill-opacity="0.75"/>
<path d="M689.572 403.957C686.631 404.765 683.536 404.834 680.562 404.159C677.587 403.484 674.826 402.085 672.521 400.087C670.217 398.089 668.441 395.554 667.351 392.705C666.262 389.856 665.892 386.783 666.274 383.757C667.016 378.357 666.678 372.863 665.282 367.594L664.893 366.174C663.403 360.758 660.854 355.692 657.392 351.269C654.635 347.731 653.252 343.314 653.5 338.835C653.748 334.357 655.609 330.12 658.74 326.907C661.871 323.695 666.059 321.726 670.529 321.363C675 321 679.451 322.269 683.058 324.934C689.769 329.808 697.873 332.387 706.167 332.286C715.777 332.238 726.774 335.357 730.426 348.694C734.042 361.891 726.129 370.189 717.825 375.09C710.648 379.365 705.004 385.797 701.699 393.469C700.594 396.015 698.93 398.279 696.831 400.095C694.731 401.91 692.251 403.23 689.572 403.957Z" fill="#7D5A50" fill-opacity="0.75"/>
<path d="M709.557 322.45C718.722 319.94 724.476 311.787 722.409 304.239C720.342 296.692 711.237 292.608 702.072 295.117C692.907 297.627 687.153 305.78 689.22 313.328C691.287 320.876 700.392 324.96 709.557 322.45Z" fill="#7D5A50" fill-opacity="0.75"/>
<path d="M752.712 338.262C761.877 335.752 767.631 327.599 765.564 320.051C763.497 312.504 754.392 308.42 745.227 310.929C736.062 313.439 730.308 321.592 732.375 329.14C734.442 336.688 743.547 340.772 752.712 338.262Z" fill="#7D5A50" fill-opacity="0.75"/>
<path d="M733.353 409.325C742.517 406.816 748.271 398.662 746.204 391.115C744.138 383.567 735.032 379.483 725.868 381.993C716.703 384.503 710.949 392.656 713.016 400.204C715.083 407.751 724.188 411.835 733.353 409.325Z" fill="#7D5A50" fill-opacity="0.75"/>
<path d="M762.423 373.73C771.588 371.22 777.342 363.067 775.275 355.519C773.208 347.972 764.103 343.888 754.938 346.397C745.773 348.907 740.019 357.06 742.086 364.608C744.153 372.156 753.258 376.24 762.423 373.73Z" fill="#7D5A50" fill-opacity="0.75"/>
<path d="M853.907 509.413C851.487 510.076 848.957 510.242 846.471 509.899C843.985 509.557 841.595 508.713 839.444 507.421C837.293 506.128 835.427 504.412 833.959 502.377C832.49 500.342 831.449 498.03 830.9 495.582C830.427 493.493 830.325 491.338 830.6 489.214C831.338 483.813 830.999 478.32 829.604 473.051L829.215 471.636C827.726 466.22 825.176 461.154 821.714 456.731C818.957 453.193 817.575 448.776 817.822 444.297C818.07 439.819 819.932 435.582 823.062 432.369C826.193 429.157 830.381 427.188 834.852 426.825C839.322 426.462 843.773 427.731 847.381 430.396C854.092 435.269 862.196 437.848 870.489 437.748C880.103 437.7 891.1 440.814 894.752 454.151C898.369 467.348 890.451 475.651 882.152 480.551C874.977 484.824 869.336 491.255 866.034 498.925C864.928 501.47 863.264 503.734 861.165 505.55C859.066 507.365 856.585 508.685 853.907 509.413Z" fill="#7D5A50" fill-opacity="0.75"/>
<path d="M873.882 427.916C883.047 425.406 888.801 417.253 886.734 409.705C884.667 402.158 875.562 398.074 866.397 400.584C857.232 403.093 851.478 411.246 853.545 418.794C855.612 426.342 864.717 430.426 873.882 427.916Z" fill="#7D5A50" fill-opacity="0.75"/>
<path d="M917.042 443.731C926.206 441.222 931.96 433.068 929.893 425.521C927.827 417.973 918.721 413.889 909.557 416.399C900.392 418.909 894.638 427.062 896.705 434.61C898.772 442.157 907.877 446.241 917.042 443.731Z" fill="#7D5A50" fill-opacity="0.75"/>
<path d="M897.678 514.791C906.842 512.282 912.596 504.128 910.529 496.581C908.463 489.033 899.357 484.949 890.193 487.459C881.028 489.969 875.274 498.122 877.341 505.67C879.408 513.217 888.513 517.301 897.678 514.791Z" fill="#7D5A50" fill-opacity="0.75"/>
<path d="M926.757 479.194C935.921 476.684 941.675 468.531 939.608 460.984C937.541 453.436 928.436 449.352 919.272 451.862C910.107 454.372 904.353 462.525 906.42 470.072C908.487 477.62 917.592 481.704 926.757 479.194Z" fill="#7D5A50" fill-opacity="0.75"/>
<path d="M1021.2 549.042C1018.71 548.719 1016.31 547.893 1014.15 546.617C1011.99 545.34 1010.11 543.638 1008.63 541.614C1007.15 539.59 1006.09 537.287 1005.52 534.842C1004.95 532.398 1004.89 529.864 1005.33 527.394C1005.7 525.284 1006.44 523.256 1007.51 521.403C1010.28 516.705 1012.1 511.505 1012.84 506.103L1013.03 504.648C1013.75 499.079 1013.36 493.422 1011.88 488.004C1010.71 483.676 1011.14 479.068 1013.1 475.034C1015.06 471 1018.42 467.812 1022.54 466.06C1026.67 464.309 1031.3 464.111 1035.56 465.506C1039.82 466.9 1043.44 469.79 1045.73 473.643C1050.03 480.729 1056.5 486.239 1064.18 489.355C1073.05 493.028 1082.01 500.155 1080.21 513.864C1078.45 527.432 1067.94 532.027 1058.39 533.335C1050.12 534.503 1042.43 538.25 1036.42 544.042C1034.42 545.962 1032.01 547.408 1029.38 548.273C1026.74 549.139 1023.95 549.401 1021.2 549.042Z" fill="#7D5A50" fill-opacity="0.75"/>
<path d="M1089.97 469.69C1090.98 461.93 1084.16 454.644 1074.74 453.416C1065.32 452.188 1056.86 457.483 1055.85 465.243C1054.84 473.003 1061.66 480.289 1071.08 481.517C1080.5 482.745 1088.96 477.45 1089.97 469.69Z" fill="#7D5A50" fill-opacity="0.75"/>
<path d="M1123.66 500.956C1124.67 493.196 1117.85 485.91 1108.43 484.682C1099 483.454 1090.54 488.749 1089.53 496.509C1088.52 504.269 1095.34 511.555 1104.76 512.783C1114.19 514.011 1122.64 508.716 1123.66 500.956Z" fill="#7D5A50" fill-opacity="0.75"/>
<path d="M1078.33 558.999C1079.34 551.239 1072.52 543.953 1063.1 542.725C1053.67 541.497 1045.22 546.792 1044.2 554.552C1043.19 562.312 1050.01 569.598 1059.43 570.826C1068.86 572.054 1077.31 566.759 1078.33 558.999Z" fill="#7D5A50" fill-opacity="0.75"/>
<path d="M1118.9 537.417C1119.91 529.657 1113.1 522.371 1103.67 521.143C1094.25 519.915 1085.79 525.211 1084.78 532.971C1083.77 540.731 1090.59 548.017 1100.01 549.245C1109.43 550.473 1117.89 545.177 1118.9 537.417Z" fill="#7D5A50" fill-opacity="0.75"/>
<path d="M929.638 371.887C927.147 371.564 924.748 370.738 922.587 369.459C920.425 368.181 918.545 366.477 917.061 364.451C915.577 362.425 914.52 360.119 913.954 357.672C913.387 355.225 913.324 352.689 913.766 350.217C914.139 348.109 914.879 346.083 915.952 344.23C918.722 339.532 920.534 334.333 921.283 328.931L921.473 327.476C922.192 321.906 921.8 316.249 920.32 310.832C919.146 306.503 919.579 301.895 921.539 297.861C923.5 293.827 926.855 290.639 930.984 288.888C935.113 287.136 939.736 286.939 944 288.333C948.263 289.727 951.877 292.618 954.173 296.471C958.472 303.557 964.942 309.067 972.623 312.183C981.492 315.855 990.444 322.978 988.654 336.692C986.884 350.26 976.376 354.854 966.825 356.162C958.558 357.33 950.869 361.077 944.855 366.869C942.857 368.793 940.452 370.242 937.818 371.111C935.184 371.98 932.388 372.245 929.638 371.887Z" fill="#7D5A50" fill-opacity="0.75"/>
<path d="M998.418 292.552C999.429 284.792 992.61 277.506 983.188 276.278C973.765 275.05 965.307 280.346 964.296 288.105C963.284 295.865 970.103 303.151 979.526 304.379C988.948 305.607 997.407 300.312 998.418 292.552Z" fill="#7D5A50" fill-opacity="0.75"/>
<path d="M1032.1 323.814C1033.11 316.054 1026.29 308.768 1016.87 307.54C1007.45 306.312 998.991 311.607 997.98 319.367C996.969 327.127 1003.79 334.413 1013.21 335.641C1022.63 336.869 1031.09 331.574 1032.1 323.814Z" fill="#7D5A50" fill-opacity="0.75"/>
<path d="M986.773 381.862C987.785 374.102 980.966 366.816 971.543 365.588C962.121 364.36 953.662 369.655 952.651 377.415C951.64 385.175 958.459 392.461 967.881 393.689C977.304 394.917 985.762 389.622 986.773 381.862Z" fill="#7D5A50" fill-opacity="0.75"/>
<path d="M1027.35 360.279C1028.36 352.519 1021.54 345.233 1012.12 344.005C1002.69 342.777 994.235 348.072 993.223 355.832C992.212 363.592 999.031 370.878 1008.45 372.106C1017.88 373.334 1026.33 368.039 1027.35 360.279Z" fill="#7D5A50" fill-opacity="0.75"/>
</g>
<defs>
<clipPath id="clip0_51_720">
<rect width="1449.71" height="979.349" fill="white" transform="translate(0.935303 145.345) rotate(-5.73512)"/>
</clipPath>
</defs>
</svg>
