<svg width="941" height="382" viewBox="0 0 941 382" fill="none" xmlns="http://www.w3.org/2000/svg">
<path d="M4.733 181.376C6.86633 181.461 9.597 181.547 12.925 181.632C16.253 181.717 19.581 181.76 22.909 181.76C27.0903 181.76 31.0583 181.717 34.813 181.632C38.5677 181.547 41.213 181.504 42.749 181.504C54.1837 181.504 62.6743 183.851 68.221 188.544C73.853 193.237 76.669 199.296 76.669 206.72C76.669 209.792 76.1143 213.035 75.005 216.448C73.8957 219.776 71.9757 222.891 69.245 225.792C66.5143 228.608 62.7597 230.912 57.981 232.704C53.2877 234.496 47.2717 235.392 39.933 235.392H27.133V232.832H38.653C44.029 232.832 48.125 231.68 50.941 229.376C53.8423 227.072 55.7623 224.043 56.701 220.288C57.725 216.533 58.237 212.48 58.237 208.128C58.237 200.021 56.9143 193.963 54.269 189.952C51.6237 185.941 47.0583 183.936 40.573 183.936C37.0743 183.936 34.7703 184.661 33.661 186.112C32.637 187.563 32.125 190.507 32.125 194.944V257.92C32.125 261.163 32.4663 263.595 33.149 265.216C33.8317 266.837 35.1543 267.904 37.117 268.416C39.0797 268.928 41.8957 269.227 45.565 269.312V272C43.0903 271.829 39.8903 271.744 35.965 271.744C32.0397 271.659 27.9863 271.616 23.805 271.616C20.221 271.616 16.765 271.659 13.437 271.744C10.109 271.744 7.20767 271.829 4.733 272V269.44C7.549 269.269 9.63967 268.928 11.005 268.416C12.4557 267.904 13.3943 266.88 13.821 265.344C14.333 263.808 14.589 261.504 14.589 258.432V194.944C14.589 191.787 14.333 189.483 13.821 188.032C13.3943 186.496 12.4557 185.472 11.005 184.96C9.63967 184.363 7.549 184.021 4.733 183.936V181.376ZM113.584 204.032C121.093 204.032 126.981 206.293 131.248 210.816C135.515 215.339 137.648 222.549 137.648 232.448H94.512L94.384 230.016H122.8C122.971 225.835 122.715 221.995 122.032 218.496C121.349 214.912 120.24 212.053 118.704 209.92C117.253 207.787 115.333 206.72 112.944 206.72C109.701 206.72 106.885 208.64 104.496 212.48C102.107 216.235 100.613 222.421 100.016 231.04L100.528 231.808C100.357 232.917 100.229 234.112 100.144 235.392C100.144 236.672 100.144 237.952 100.144 239.232C100.144 245.12 100.997 249.984 102.704 253.824C104.411 257.664 106.629 260.48 109.36 262.272C112.091 264.064 114.907 264.96 117.808 264.96C119.771 264.96 121.776 264.661 123.824 264.064C125.872 263.467 127.877 262.357 129.84 260.736C131.803 259.115 133.595 256.811 135.216 253.824L137.648 254.848C136.709 257.835 135.131 260.821 132.912 263.808C130.779 266.709 128.005 269.099 124.592 270.976C121.179 272.853 117.168 273.792 112.56 273.792C106.757 273.792 101.637 272.512 97.2 269.952C92.7627 267.392 89.3067 263.595 86.832 258.56C84.3573 253.44 83.12 247.211 83.12 239.872C83.12 232.107 84.4 225.579 86.96 220.288C89.6053 214.997 93.232 210.987 97.84 208.256C102.448 205.44 107.696 204.032 113.584 204.032ZM178.721 204.032C181.878 204.032 184.78 204.416 187.425 205.184C190.156 205.867 192.502 206.848 194.465 208.128C196.513 209.408 198.134 211.029 199.329 212.992C200.524 214.869 201.121 216.96 201.121 219.264C201.121 222.08 200.268 224.341 198.561 226.048C196.854 227.755 194.721 228.608 192.161 228.608C189.516 228.608 187.34 227.84 185.633 226.304C184.012 224.768 183.201 222.72 183.201 220.16C183.201 217.685 183.926 215.637 185.377 214.016C186.828 212.395 188.577 211.328 190.625 210.816C189.857 209.707 188.662 208.811 187.041 208.128C185.42 207.36 183.628 206.976 181.665 206.976C179.105 206.976 176.801 207.659 174.753 209.024C172.705 210.304 170.913 212.267 169.377 214.912C167.926 217.472 166.774 220.672 165.921 224.512C165.153 228.267 164.769 232.619 164.769 237.568C164.769 244.48 165.58 249.941 167.201 253.952C168.908 257.963 171.084 260.821 173.729 262.528C176.374 264.149 179.19 264.96 182.177 264.96C183.969 264.96 185.889 264.619 187.937 263.936C189.985 263.253 191.99 262.101 193.953 260.48C196.001 258.859 197.836 256.555 199.457 253.568L201.889 254.464C200.95 257.451 199.414 260.437 197.281 263.424C195.233 266.411 192.545 268.885 189.217 270.848C185.889 272.811 181.836 273.792 177.057 273.792C171.596 273.792 166.646 272.555 162.209 270.08C157.772 267.52 154.23 263.68 151.585 258.56C149.025 253.44 147.745 247.083 147.745 239.488C147.745 231.979 149.068 225.621 151.713 220.416C154.358 215.125 158.028 211.072 162.721 208.256C167.5 205.44 172.833 204.032 178.721 204.032ZM241.334 204.032C248.843 204.032 254.731 206.293 258.998 210.816C263.265 215.339 265.398 222.549 265.398 232.448H222.262L222.134 230.016H250.55C250.721 225.835 250.465 221.995 249.782 218.496C249.099 214.912 247.99 212.053 246.454 209.92C245.003 207.787 243.083 206.72 240.694 206.72C237.451 206.72 234.635 208.64 232.246 212.48C229.857 216.235 228.363 222.421 227.766 231.04L228.278 231.808C228.107 232.917 227.979 234.112 227.894 235.392C227.894 236.672 227.894 237.952 227.894 239.232C227.894 245.12 228.747 249.984 230.454 253.824C232.161 257.664 234.379 260.48 237.11 262.272C239.841 264.064 242.657 264.96 245.558 264.96C247.521 264.96 249.526 264.661 251.574 264.064C253.622 263.467 255.627 262.357 257.59 260.736C259.553 259.115 261.345 256.811 262.966 253.824L265.398 254.848C264.459 257.835 262.881 260.821 260.662 263.808C258.529 266.709 255.755 269.099 252.342 270.976C248.929 272.853 244.918 273.792 240.31 273.792C234.507 273.792 229.387 272.512 224.95 269.952C220.513 267.392 217.057 263.595 214.582 258.56C212.107 253.44 210.87 247.211 210.87 239.872C210.87 232.107 212.15 225.579 214.71 220.288C217.355 214.997 220.982 210.987 225.59 208.256C230.198 205.44 235.446 204.032 241.334 204.032ZM298.151 204.032C301.735 204.032 304.807 204.544 307.367 205.568C309.927 206.592 311.804 207.488 312.999 208.256C315.9 210.389 317.65 209.024 318.247 204.16H321.063C320.892 206.635 320.764 209.579 320.679 212.992C320.594 216.32 320.551 220.8 320.551 226.432H317.735C317.308 223.275 316.498 220.203 315.303 217.216C314.108 214.229 312.359 211.755 310.055 209.792C307.751 207.744 304.722 206.72 300.967 206.72C298.322 206.72 296.103 207.488 294.311 209.024C292.604 210.56 291.751 212.736 291.751 215.552C291.751 218.112 292.519 220.373 294.055 222.336C295.591 224.213 297.554 226.005 299.943 227.712C302.418 229.333 304.978 231.125 307.623 233.088C310.695 235.136 313.426 237.227 315.815 239.36C318.204 241.408 320.124 243.712 321.575 246.272C323.026 248.747 323.751 251.691 323.751 255.104C323.751 259.029 322.642 262.4 320.423 265.216C318.29 267.947 315.431 270.08 311.847 271.616C308.348 273.067 304.466 273.792 300.199 273.792C297.895 273.792 295.804 273.579 293.927 273.152C292.05 272.725 290.386 272.171 288.935 271.488C287.826 270.891 286.802 270.336 285.863 269.824C285.01 269.312 284.114 268.885 283.175 268.544C282.322 268.117 281.554 268.288 280.871 269.056C280.274 269.824 279.804 271.104 279.463 272.896H276.647C276.818 270.165 276.946 266.837 277.031 262.912C277.116 258.987 277.159 253.781 277.159 247.296H279.975C280.572 251.989 281.468 256.128 282.663 259.712C283.943 263.211 285.778 265.984 288.167 268.032C290.556 269.995 293.628 270.976 297.383 270.976C299.004 270.976 300.54 270.635 301.991 269.952C303.527 269.269 304.764 268.203 305.703 266.752C306.727 265.301 307.239 263.339 307.239 260.864C307.239 257.109 305.959 253.995 303.399 251.52C300.839 249.045 297.639 246.4 293.799 243.584C290.898 241.451 288.167 239.36 285.607 237.312C283.132 235.264 281.084 232.96 279.463 230.4C277.927 227.84 277.159 224.811 277.159 221.312C277.159 217.472 278.14 214.315 280.103 211.84C282.066 209.28 284.626 207.36 287.783 206.08C291.026 204.715 294.482 204.032 298.151 204.032Z" fill="#FFF6EA"/>
<path d="M518.757 298.039L518.74 297.86C518.715 297.214 518.422 296.583 517.862 295.964C513.786 292.743 511.131 290.168 509.896 288.24C508.368 286.136 507.167 283.572 506.292 280.55C504.609 272.56 505.192 265.191 508.041 258.443C510.28 252.552 515.068 247.751 522.402 244.041C529.31 240.946 536.042 240.213 542.603 241.844C549.097 243.628 553.832 245.921 556.81 248.722C560.341 251.773 562.941 255.287 564.61 259.262C568.38 268.646 568.021 279.25 563.536 291.074C563.926 291.875 564.791 292.503 566.133 292.957C575.076 294.717 580.948 293.833 583.745 290.306C584.738 289.294 585.29 287.44 585.401 284.75L585.082 281.451C583.923 276.143 583.308 272.667 583.239 271.022C583.081 268.463 583.278 266.212 583.825 264.267C584.756 260.364 587.617 258.338 592.409 258.185C589.505 259.626 588.077 262.269 588.125 266.113C588.003 268.669 588.351 270.861 589.169 272.688C590.946 272.768 592.196 273.791 592.919 275.757C593.452 277.031 593.135 278.256 591.969 279.433L592.747 282.174C594.033 283.1 594.675 284.138 594.672 285.291C594.749 286.44 594.35 287.537 593.477 288.583C593.606 291.259 593.467 293.509 593.058 295.334C592.679 296.978 591.925 298.57 590.8 300.112C584.143 308.434 573.492 309.507 558.847 303.331C561.943 308.445 565.589 311.272 569.786 311.81C571.08 312.083 572.784 312.061 574.898 311.742L587.992 308.592C590.103 308.295 591.891 308.385 593.356 308.866C595.874 309.292 598.422 312.047 601 317.136C596.85 314.196 593.382 312.914 590.598 313.287C589.736 313.954 588.979 314.397 588.327 314.614C587.72 314.85 586.709 314.844 585.291 314.598L582.514 315.835C581.515 317.215 580.672 318.069 579.988 318.399C579.15 318.894 578 318.984 576.537 318.667L572.97 320.512C572.379 321.484 571.687 322.054 570.895 322.223C569.335 322.642 568.154 322.433 567.355 321.593C564.008 322.033 561.583 322.126 560.082 321.871C555.512 321.288 551.085 317.013 546.804 309.047C545.554 311.92 545.375 314.158 546.265 315.764C546.605 316.597 547.434 317.641 548.754 318.896L554.06 322.541C555.168 323.501 555.93 324.354 556.347 325.097C558.256 328.399 559.18 331.531 559.122 334.49C559.161 337.898 557.717 341.07 554.792 344.011C552.47 345.946 549.628 346.469 546.264 345.581L544.051 345.001C546.639 344.374 548.485 343.139 549.586 341.295C549.179 339.339 549.051 338.055 549.201 337.445C549.233 336.591 549.831 335.833 550.996 335.172L550.762 334.401C550.595 333.804 550.119 332.998 549.336 331.983C548.026 331.759 547.119 331.284 546.61 330.556C546.053 329.866 545.8 328.902 545.853 327.666C544.687 326.707 543.597 326.036 542.587 325.654L540.098 325.268C539.449 324.947 538.906 324.498 538.467 323.926C538.051 323.328 537.838 322.609 537.829 321.771C536.252 319.382 535.292 317.644 534.951 316.553C534.529 315.445 534.342 313.887 534.392 311.879C530.606 317.814 527.19 320.989 524.143 321.402C522.68 321.876 520.808 322.042 518.528 321.9C517.441 322.652 516.498 323.027 515.696 323.025C514.634 323.111 513.54 322.518 512.416 321.248L510.494 321.039C509.515 320.941 508.5 320.906 507.448 320.933C506.372 322.085 505.386 322.644 504.488 322.611C503.741 322.728 502.8 322.426 501.663 321.703C499.553 325.296 500.973 328.819 505.924 332.269C504.826 332.156 503.737 332.006 502.656 331.818C498.479 330.961 495.758 329.181 494.492 326.478C493.212 322.641 493.776 319.379 496.185 316.692C498.39 314.334 500.418 312.91 502.269 312.417C503.295 312.094 504.54 311.915 506.003 311.88C513.666 312.256 517.55 312.267 517.655 311.915C519.034 311.811 520.781 310.729 522.894 308.667C518.389 309.593 515.544 309.974 514.357 309.809C514.381 310.025 511.653 309.486 506.17 308.193C505.223 307.814 504.537 306.853 504.111 305.31C502.639 304.661 501.511 303.719 500.727 302.485C499.37 302.263 498.405 301.835 497.833 301.2C497.216 300.612 496.834 299.566 496.688 298.064L494.765 296.544C492.957 297.039 491.636 297.048 490.8 296.569C490.067 296.315 489.46 295.535 488.978 294.23C486.426 294.202 484.652 294.68 483.655 295.664C481.558 297.723 480.818 300.431 481.436 303.792L480.413 302.246C478.63 298.735 478.535 295.517 480.126 292.594C481.896 289.683 484.929 287.904 489.222 287.256C492.235 286.972 494.876 287.458 497.149 288.714L500.784 290.921L507.925 296.093C509.232 296.968 510.513 297.626 511.772 298.07C513.442 298.703 515.771 298.692 518.757 298.039Z" fill="#394C38"/>
<path d="M354.061 307.367L352.622 307.759L348.013 308.936C346.854 309.199 345.941 309.346 345.274 309.377C344.055 309.461 343.346 309.113 343.145 308.33C342.976 307.723 343.433 306.492 344.515 304.638C345.794 302.432 347.908 299.344 350.86 295.376C351.432 294.497 351.738 293.804 351.778 293.296C351.878 292.684 351.632 291.798 351.038 290.639C349.909 288.321 348.245 285.296 346.042 281.566C345.785 281.09 345.588 280.658 345.45 280.27C345.019 278.852 345.347 277.987 346.432 277.675C347.045 277.523 348.053 277.589 349.456 277.872C351.555 278.269 355.11 279.066 360.12 280.264C361.282 280.41 362.09 280.407 362.544 280.255C363.257 280.192 364.451 279.516 366.128 278.227C367.208 277.406 369.063 275.724 371.691 273.181C372.265 272.662 372.819 272.222 373.355 271.862C374.433 271.169 375.33 270.962 376.046 271.24C376.936 271.577 377.453 272.322 377.595 273.476C377.646 273.948 377.664 274.414 377.647 274.874C377.354 279.633 377.253 282.607 377.345 283.798C377.426 285.387 377.685 286.477 378.119 287.07C378.557 287.711 379.201 288.248 380.052 288.68C386.241 291.408 389.621 293.006 390.192 293.475C391.347 294.2 391.974 294.843 392.071 295.405C392.326 296.649 391.672 297.592 390.11 298.235C388.591 299.008 384.789 299.93 378.706 301C377.546 301.398 376.825 301.868 376.54 302.41C376.027 303.018 375.64 304.292 375.379 306.231L375.098 309.267L374.638 317.72C374.485 318.806 373.994 319.536 373.163 319.909C372.159 320.303 371.094 319.765 369.967 318.297C368.553 316.608 366.37 313.244 363.418 308.204C362.96 307.514 362.494 307.018 362.018 306.715C361.389 306.338 360.652 306.194 359.808 306.284C358.769 306.352 356.854 306.713 354.061 307.367Z" fill="#FFF6EA"/>
<path d="M660.453 108.651L659.877 109.361L658.004 111.598C657.522 112.144 657.12 112.544 656.799 112.798C656.223 113.277 655.744 113.358 655.364 113.04C655.063 112.798 654.849 112.022 654.724 110.711C654.57 109.155 654.517 106.861 654.565 103.829C654.535 103.186 654.439 102.732 654.277 102.465C654.108 102.124 653.668 101.771 652.957 101.407C651.565 100.657 649.653 99.7482 647.221 98.6802C646.922 98.5351 646.669 98.3907 646.462 98.2471C645.74 97.6958 645.593 97.1478 646.021 96.6036C646.272 96.3086 646.797 95.9802 647.597 95.6184C648.784 95.0643 650.839 94.1881 653.762 92.9899C654.392 92.6464 654.794 92.3555 654.965 92.1175C655.297 91.8305 655.65 91.0661 656.023 89.8241C656.266 89.0288 656.587 87.5275 656.985 85.3203C657.085 84.8562 657.203 84.4386 657.34 84.0675C657.629 83.3366 658.001 82.9119 658.457 82.7938C659.021 82.6428 659.545 82.8289 660.029 83.3523C660.224 83.5689 660.399 83.7945 660.556 84.0295C662.114 86.5031 663.129 88.02 663.601 88.5801C664.211 89.3414 664.73 89.7917 665.159 89.9313C665.606 90.0935 666.119 90.1299 666.698 90.0405C670.755 89.1817 673.01 88.7666 673.462 88.7953C674.297 88.7427 674.839 88.8383 675.089 89.0827C675.661 89.6111 675.674 90.3147 675.126 91.1939C674.647 92.1232 673.085 93.9436 670.44 96.655C670.005 97.2682 669.814 97.7606 669.867 98.1325C669.829 98.6191 670.093 99.3917 670.657 100.45L671.605 102.062L674.403 106.435C674.716 107.03 674.733 107.569 674.453 108.052C674.095 108.608 673.372 108.722 672.285 108.394C670.977 108.06 668.685 107.168 665.411 105.716C664.935 105.537 664.525 105.457 664.18 105.476C663.732 105.514 663.314 105.706 662.926 106.053C662.433 106.459 661.609 107.325 660.453 108.651Z" fill="#FFF6EA"/>
<path d="M792.264 259.299L791.757 259.333L790.14 259.415C789.736 259.424 789.422 259.412 789.197 259.377C788.784 259.323 788.571 259.159 788.557 258.884C788.542 258.671 788.777 258.291 789.263 257.745C789.838 257.095 790.752 256.208 792.004 255.083C792.254 254.828 792.403 254.617 792.45 254.45C792.525 254.253 792.503 253.941 792.383 253.514C792.162 252.665 791.811 251.544 791.327 250.151C791.274 249.974 791.237 249.817 791.217 249.678C791.169 249.176 791.336 248.91 791.719 248.879C791.934 248.869 792.266 248.959 792.715 249.148C793.389 249.422 794.521 249.928 796.112 250.665C796.49 250.792 796.759 250.845 796.921 250.825C797.163 250.852 797.607 250.707 798.254 250.39C798.669 250.189 799.401 249.753 800.449 249.081C800.676 248.947 800.891 248.838 801.093 248.753C801.5 248.595 801.813 248.586 802.033 248.727C802.308 248.9 802.43 249.183 802.399 249.578C802.385 249.739 802.359 249.895 802.323 250.048C801.904 251.615 801.67 252.601 801.62 253.005C801.54 253.54 801.553 253.921 801.658 254.149C801.761 254.392 801.94 254.614 802.195 254.816C804.076 256.143 805.096 256.904 805.255 257.099C805.591 257.418 805.757 257.675 805.751 257.869C805.752 258.302 805.471 258.572 804.906 258.681C804.347 258.837 803.017 258.888 800.915 258.835C800.502 258.89 800.229 258.998 800.098 259.16C799.885 259.328 799.671 259.727 799.453 260.356L799.155 261.35L798.431 264.14C798.307 264.492 798.094 264.702 797.792 264.771C797.43 264.834 797.111 264.583 796.834 264.017C796.476 263.359 795.975 262.089 795.329 260.209C795.223 259.948 795.101 259.751 794.963 259.617C794.778 259.449 794.542 259.352 794.254 259.325C793.903 259.278 793.24 259.269 792.264 259.299Z" fill="#FFF6EA"/>
<path d="M675.23 363.631C675.958 364.249 676.65 364.832 677.414 365.378C679.408 367.046 681.726 368.285 684.221 369.017C686.769 369.55 689.374 369.757 691.974 369.636C698.016 369.636 704.095 369.308 710.173 368.944H710.865L727.899 367.78C730.52 367.998 733.141 368.289 735.761 368.581C738.382 368.872 741.185 369.199 743.915 369.418C746.785 369.805 749.688 369.903 752.578 369.709C755.179 369.315 757.737 368.681 760.221 367.816C763.024 366.906 765.863 366.178 768.702 365.378L770.158 364.977L771.978 368.107C773.604 368.829 775.269 369.461 776.965 370H777.293L791.852 368.908H793.053L793.672 368.362L794.327 367.78C794.91 367.27 796.074 366.615 796.402 365.96C796.863 364.603 797.06 363.17 796.984 361.738V361.52L796.22 360.864L794.946 359.7L791.852 356.97C790.952 355.911 789.911 354.981 788.758 354.204L788.54 353.986L785.591 353.658C783.881 350.382 782.607 346.925 780.75 343.722C780.284 342.886 779.761 342.084 779.185 341.32C778.938 341.011 778.67 340.72 778.384 340.446C778.062 340.032 777.709 339.643 777.329 339.281C777.247 339.218 777.174 339.145 777.11 339.063C776.455 338.481 775.764 337.971 775.072 337.462L773.798 336.624L773.361 336.333L772.634 335.824L771.796 335.351H771.614L766.045 332.075L765.572 331.857L763.534 330.692C761.413 329.13 759.201 327.696 756.909 326.397L755.126 325.524L752.25 324.104L750.03 323.194C749.974 323.187 749.923 323.161 749.884 323.122C749.844 323.082 749.819 323.031 749.811 322.976L748.064 322.175C748.024 322.139 747.972 322.12 747.919 322.12C747.865 322.12 747.813 322.139 747.773 322.175C747.106 321.815 746.378 321.581 745.626 321.484C744.352 321.484 743.078 321.484 741.767 321.484C740.457 321.484 739.001 321.484 737.654 321.484C734.815 321.484 732.012 321.92 729.21 322.284H727.936C723.256 308.157 716.509 294.8 707.916 282.649C707.443 281.957 706.97 281.266 706.46 280.611C704.822 278.354 703.039 276.279 701.328 274.132C700.6 273.222 699.836 272.312 699.071 271.439L697.652 269.764L697.361 269.401C693.43 264.924 689.244 260.702 684.912 256.625L684.73 256.443C681.818 253.714 678.797 251.057 675.74 248.473C674.539 247.49 673.337 246.507 672.1 245.561C663.735 238.941 654.903 232.932 645.674 227.581L644.328 226.78C640.36 224.487 636.32 222.304 632.243 220.229C631.078 219.61 629.914 219.064 628.603 218.482C627.257 217.827 625.91 217.099 624.563 216.48L624.199 216.298C609.203 209.274 593.224 203.96 577.499 198.1L573.314 196.462L571.967 195.953C571.954 195.759 571.954 195.564 571.967 195.37C571.889 195.12 571.828 194.865 571.785 194.606C571.494 193.478 571.202 192.386 570.875 191.221L570.438 189.802C570.147 188.819 569.856 187.873 569.528 186.89C569.2 185.907 569.2 185.834 569.018 185.288L568.509 183.869C566.997 179.673 565.222 175.576 563.195 171.603L560.028 171.13L560.574 168.801C556.846 160.587 551.484 153.218 544.813 147.145L541.173 147.764L541.61 144.124L539.827 142.45C536.187 139.029 527.597 131.167 525.267 129.092L520.936 131.167L520.681 128.474C518.753 127.594 516.724 126.958 514.639 126.581H514.275H513.947C516.633 122.38 520.407 118.984 524.867 116.754L523.52 110.858L527.815 114.498L528.652 113.733C532.435 110.141 536.743 107.146 541.428 104.853L539.754 99.7206L543.394 101.977C547.651 99.8024 552.083 97.9883 556.643 96.5542L557.298 91.2039L558.754 94.0792C559.93 93.3899 561.145 92.77 562.394 92.223L564.359 91.3859H564.614L566.835 90.5852L569.528 89.748H569.71L572.294 89.0929H572.95L575.716 88.5833H576.007C577.026 88.5833 578.082 88.365 579.174 88.2922H579.865C580.739 88.2922 581.612 88.2922 582.45 88.2922H583.36C584.47 88.3291 585.576 88.4385 586.672 88.6198L586.453 88.3287L586.271 88.0738L585.907 87.6371L585.653 87.3094L584.852 86.436L584.379 85.9628L583.76 85.3441L583.105 84.7618L582.413 84.143L581.612 83.4879L580.52 82.6871C580.043 82.3184 579.545 81.9781 579.028 81.6681C578.678 81.4046 578.314 81.1615 577.936 80.9401L576.735 80.2122L575.57 78.72L574.223 77.992L572.695 77.3004L570.438 76.3178L568.327 75.5171L566.616 74.9711L564.614 74.3523L562.758 73.8429L562.03 73.6608C555.323 72.1008 548.46 71.3072 541.574 71.2951C537.097 73.9884 536.478 75.5535 536.478 75.5535L537.097 73.9885C530.857 75.2514 524.811 77.3318 519.116 80.1758L518.424 80.5762L518.133 80.7581C517.478 81.1221 516.859 81.5225 516.277 81.9229C515.781 82.2697 515.307 82.6465 514.857 83.0511L514.493 83.3787C514.029 83.8001 513.591 84.2498 513.183 84.7253C512.846 85.151 512.542 85.6011 512.273 86.072L512.091 86.4724C511.828 86.9657 511.632 87.4921 511.508 88.0374L510.052 85.9992L501.062 93.2785L501.499 90.5488V90.0392H497.167L501.317 88.1102L505.939 66.8547L501.462 65.3989L507.723 65.5809C507.723 65.5809 507.723 65.2534 508.087 64.671C508.107 64.5505 508.107 64.4275 508.087 64.307L508.487 63.4334C511.361 56.7037 515.159 50.4073 519.771 44.7258L516.641 42.2509L520.572 43.9251C520.572 43.9251 528.616 30.5312 533.166 27.4375L530.836 23.6158L534.221 26.0544C534.221 26.0544 540.773 8.40216 548.781 6C537.086 7.1041 525.558 9.5465 514.42 13.2793L514.93 16.2274L512.819 15.1355C512.819 15.1355 497.131 24.1618 492.508 30.8951C492.217 31.805 491.999 32.6058 491.78 33.3337C491.78 33.3337 491.78 33.5157 491.78 33.6613C491.78 33.8068 491.489 34.6803 491.416 35.1171V35.4083C491.416 35.8087 491.234 36.1726 491.161 36.5002C491.175 36.7548 491.175 37.0099 491.161 37.2645C491.154 37.337 491.154 37.4104 491.161 37.4829L488.941 33.8433C483.717 39.4034 479.745 46.0183 477.293 53.2425C478.28 54.7904 478.891 56.548 479.077 58.3744L475.619 55.1715C474.474 57.0439 473.661 59.1004 473.217 61.2498C473.217 61.6865 472.998 62.196 472.889 62.7419V63.3243C472.78 63.7805 472.695 64.2422 472.634 64.7073V65.3261C472.634 65.9813 472.634 66.6728 472.416 67.4007C472.198 68.1287 472.416 67.8374 472.416 68.0922C472.416 68.3469 472.416 69.1841 472.416 69.8028C472.397 70.118 472.397 70.434 472.416 70.7491C472.416 71.3679 472.416 72.0594 472.416 72.7146V73.4424C472.416 74.3645 472.416 75.3108 472.416 76.2814C472.416 76.6453 472.416 77.0093 472.416 77.3369C472.416 77.6644 472.416 78.174 472.416 78.5743C466.337 69.8392 458.148 60.5582 458.148 60.5582L451.669 61.6865L453.27 59.2479C451.27 56.4051 448.72 53.992 445.772 52.1507L441.95 53.5336L444.17 49.3118C437.565 45.0832 430.108 42.3617 422.331 41.3409L418.291 45.7449C418.566 44.0166 418.931 42.3036 419.383 40.613C393.904 40.0306 377.67 50.076 370.026 59.6846H369.771H369.99C368.887 61.0686 367.901 62.5418 367.041 64.0887C375.615 61.9022 384.621 62.0782 393.103 64.5982L399.109 61.7228L397.07 64.9621L412.431 71.8047L420.912 67.4371C419.681 69.0763 418.343 70.6326 416.908 72.0958C422.555 75.6513 428.01 79.5026 433.251 83.6335L442.715 78.4288C442.715 78.4288 443.151 79.8847 438.383 84.9074C438.88 84.868 439.379 84.868 439.875 84.9074L440.895 85.1258H441.259L442.023 85.4169H442.387L442.969 85.7081H443.297L443.734 85.9992H443.952L444.28 86.254H444.462V86.436L449.23 84.2158L445.59 88.365C450.831 90.9127 458.366 100.995 460.15 103.615V103.833L460.368 104.125L464.481 103.215L462.916 105.908C467.502 107.873 474.382 115.59 479.15 121.413L478.021 120.649H477.839C477.148 120.175 476.383 119.739 475.583 119.302L475.219 119.084C473.409 118.136 471.55 117.285 469.65 116.536L469.176 116.354C468.121 115.99 467.029 115.589 465.828 115.262H465.646C464.481 114.934 463.28 114.607 462.006 114.316H461.678C460.332 114.024 458.948 113.733 457.492 113.515C449.55 112.357 441.499 112.138 433.506 112.86L433.906 116.863L430.485 114.17C430.485 114.17 421.166 115.553 403.95 127.309L407.59 132.004L400.965 128.619C400.965 128.619 385.204 139.247 379.817 143.178L381.346 148.055L377.488 146.417C374.83 148.52 372.391 150.885 370.208 153.478C369.298 154.57 368.352 155.735 367.405 157.118L367.223 157.372C366.313 158.646 365.403 159.993 364.493 161.485C364.455 161.594 364.392 161.694 364.311 161.776C363.438 163.305 362.564 164.907 361.764 166.617V166.836C360.899 168.661 360.134 170.532 359.47 172.441C359.894 172.941 360.215 173.52 360.415 174.144C360.615 174.769 360.69 175.427 360.635 176.08C360.597 176.356 360.469 176.612 360.271 176.808L359.834 177.136H359.434H359.143C355.551 185.406 354.26 194.493 355.406 203.437C356.553 212.381 360.095 220.848 365.658 227.945C368.253 218.636 373.104 210.11 379.781 203.123L376.723 198.136L380.181 199.92L388.699 186.126L386.114 182.158L389.754 182.85L404.714 166.872L405.26 166.29L402.385 159.192L407.189 163.633C409.144 161.359 411.411 159.374 413.923 157.736L413.595 154.279L416.325 156.099C416.325 156.099 429.101 145.18 436.163 142.596L436.417 137.682L438.456 139.939C442.792 137.696 447.463 136.172 452.287 135.425L453.489 135.243C454.515 135.115 455.548 135.042 456.582 135.025L458.038 131.022L459.385 133.715C459.385 133.715 461.933 133.387 465.537 133.06C464.881 133.278 464.226 133.569 463.535 133.86L462.879 134.152L461.824 134.661C454.661 138.624 449.053 144.898 445.918 152.459H448.829L444.316 155.698L445.481 157.736C442.191 165.372 439.832 173.376 438.456 181.576L442.678 182.086L439.038 184.924H440.967C440.379 185.403 439.895 185.998 439.548 186.672C439.379 186.958 439.245 187.264 439.147 187.581C438.987 187.972 438.853 188.373 438.747 188.783V189.219L438.529 190.275V190.93V192.167C438.529 192.386 438.529 192.604 438.529 192.859C438.492 193.574 438.492 194.291 438.529 195.006C438.511 195.237 438.511 195.468 438.529 195.698C438.529 196.28 438.529 196.935 438.529 197.59C438.529 198.246 438.529 198.282 438.529 198.646L438.856 200.684L439.075 201.776C439.293 202.759 439.511 203.778 439.803 204.87V205.234H442.059L439.657 210.402L442.278 211.057C444.761 224.137 449.359 236.726 455.891 248.327C459.531 225.143 464.117 220.702 464.117 220.702L461.933 218.118L464.918 218.773L468.813 202.613L466.155 201.63L471.288 198.355L474.09 190.675L470.632 188.237L476.529 189.51L485.41 164.87L481.771 159.993L487.23 163.16L491.38 153.442C494.726 162.646 499.846 171.104 506.449 178.337L507.941 179.865C521.417 193.094 537.034 203.948 554.131 211.967C560.792 215.279 567.563 218.373 574.369 221.357C574.369 221.758 574.66 222.158 574.769 222.558V222.158C574.769 222.158 574.769 221.83 574.769 221.612L576.444 222.34L580.375 224.051L580.884 224.269C589.547 227.909 598.319 232.021 606.946 236.389L610.04 237.954C618.194 242.141 626.128 246.745 633.808 251.748L634.209 252.003C635.992 253.168 637.849 254.332 639.45 255.643C640.724 256.516 641.962 257.353 643.09 258.263C647.312 261.369 651.377 264.608 655.284 267.981C656.303 268.818 657.286 269.692 658.268 270.602L659.251 271.548C660.962 273.149 662.636 274.751 664.274 276.389C665.002 277.116 665.766 277.844 666.458 278.609C668.86 281.12 671.263 283.85 673.738 286.762L676.868 290.656C679.489 294.041 682 297.608 684.439 301.284L684.621 301.575C689.12 308.419 693.017 315.641 696.269 323.158C696.815 324.541 697.433 325.888 697.943 327.271C699.414 331.192 700.63 335.204 701.583 339.281C700.127 339.791 698.671 340.264 697.215 340.701H697.033C695.279 340.719 693.532 340.939 691.828 341.356C691.211 341.5 690.603 341.682 690.008 341.902L689.244 342.193H688.843L685.859 343.249C683.929 343.904 682.219 344.668 680.217 345.36C679.584 345.564 678.964 345.807 678.36 346.088C677.917 346.197 677.506 346.409 677.159 346.706C674.638 348.865 671.962 350.836 669.152 352.603C669.124 352.587 669.093 352.578 669.061 352.578C669.029 352.578 668.997 352.587 668.97 352.603C668.541 353.38 668.351 354.266 668.424 355.15C668.613 356.037 668.978 356.877 669.497 357.621C670.016 358.365 670.678 358.997 671.445 359.482C672.464 360.282 673.447 361.156 674.466 361.993L675.23 363.631ZM515.476 163.16C514.493 162.213 513.51 161.231 512.564 160.211L511.727 159.229C510.699 158.135 509.739 156.981 508.851 155.771L508.342 155.08C507.868 154.424 507.432 153.733 506.995 153.078C508.888 149.001 508.924 148.965 508.924 148.965L509.179 155.771L514.748 160.139L518.388 155.225L517.332 160.976C522.72 165.859 527.858 171.009 532.729 176.408C527.128 172.835 521.832 168.806 516.895 164.361L515.476 163.16ZM485.156 125.307C485.738 126.545 486.138 127.418 486.393 128.037C486.648 128.656 486.393 128.729 486.393 129.092C486.138 128.729 485.811 128.365 485.483 127.964H485.301L485.156 125.307ZM482.862 131.968H482.535H484.719C484.683 132.282 484.683 132.6 484.719 132.914L483.154 132.113L482.862 131.968ZM538.007 179.829L539.863 178.664L539.353 180.63L538.007 179.829ZM472.489 81.7408V82.7963H471.47L472.489 81.7408Z" fill="#FAC265"/>
<path d="M799.861 131.526L797.217 130.967C764.559 123.306 744.036 125.131 735.647 136.44C732.478 140.856 732.443 144.86 735.542 148.452C737.699 151.254 740.613 154.024 744.28 156.76C745.696 157.811 747.13 158.767 748.583 159.625C754.876 162.89 758.045 164.71 758.089 165.082C758.921 165.599 759.771 166.765 760.638 168.582C762.459 174.929 760.486 180.639 754.72 185.711C756.689 185.606 758.709 185.133 760.782 184.291C768.669 180.073 773.416 177.812 775.025 177.505C778.475 176.509 780.265 176.501 780.391 177.48C777.349 183.589 775.778 187.427 775.679 188.995C775.469 190.084 775.373 191.153 775.396 192.2C776.008 197.931 776.148 201.672 775.815 203.421C775.175 208.329 774.381 211.126 773.431 211.815C771.994 213.166 769.271 212.341 765.264 209.338C762.835 207.759 758.481 203.285 752.204 195.916C755.08 203.797 756.458 209.418 756.34 212.781C756.398 216.319 755.139 218.709 752.562 219.953C747.594 221.892 736.501 219.033 719.284 211.373C719.48 217.603 723.7 223.941 731.942 230.388C729.156 229.998 727.168 229.672 725.979 229.41C721.998 228.733 718.081 227.051 714.23 224.364C708.643 220.231 703.291 214.824 698.177 208.136C693.274 206.331 689.502 204.316 686.858 202.09C685.698 201.073 684.655 199.922 683.727 198.639L678.099 189.453C677.617 188.67 676.848 187.69 675.794 186.514C672.372 183.241 669.038 181.02 665.79 179.857L669.817 178.346C665.963 178.423 664.511 177.964 665.461 176.968C665.761 176.594 666.17 176.323 666.688 176.155C668.968 176.001 670.622 175.648 671.651 175.094C672.839 174.56 674.133 173.689 675.535 172.484C675.789 172.642 680.032 167.906 688.265 158.275L693.242 153.098C696.918 149.469 701.181 145.894 706.03 142.374C716.437 134.987 725.43 130.144 733.015 127.844C742.459 124.8 752.775 123.607 763.963 124.266C771.111 124.505 783.077 126.923 799.861 131.526Z" fill="#394C38"/>
</svg>
