<svg width="1157" height="382" viewBox="0 0 1157 382" fill="none" xmlns="http://www.w3.org/2000/svg">
<g clip-path="url(#clip0_521_52)">
<path d="M842.35 318.036H822.548C823.158 316.342 823.976 314.719 824.987 313.231C826.187 311.464 827.671 309.883 829.388 308.615C830.949 307.453 832.699 306.589 834.575 306.047C836.615 306.188 838.619 306.934 840.657 307.28C844.959 308.011 849.545 306.868 852.999 304.203C851.991 304.311 851.002 303.944 850.035 303.639C848.603 303.188 847.131 302.865 845.643 302.674C843.039 302.339 840.352 302.385 837.772 302.882C836.9 303.05 836.128 303.273 835.387 303.763C834.947 304.056 834.499 304.351 834.124 304.728C834.065 304.788 833.893 305.052 833.714 305.329C833.033 305.54 832.359 305.787 831.711 306.083C830.68 306.551 829.699 307.123 828.78 307.78C826.939 309.093 825.345 310.735 824.046 312.579C822.863 314.26 821.919 316.101 821.229 318.037H817.235C817.194 317.888 817.151 317.738 817.11 317.588C817.308 316.892 817.452 316.199 817.584 315.526C817.799 314.396 818.008 313.338 818.326 312.286C818.948 310.185 819.881 308.172 821.076 306.325C821.673 305.402 822.337 304.521 823.061 303.691C823.782 302.86 824.574 302.096 825.405 301.319C825.61 301.126 825.816 300.933 826.022 300.736C828.86 302.612 832.676 302.77 835.917 301.641C839.428 300.417 842.341 297.883 844.764 295.063C845.59 294.102 846.373 293.097 847.015 292.003C848.947 288.708 849.496 284.802 849.861 281C846.938 281.005 844.082 281.807 841.27 282.603C836.21 284.034 830.992 285.546 826.929 288.885C823.93 291.349 821.708 295.158 824.066 298.866C824.318 299.263 824.633 299.615 824.98 299.934C824.826 300.074 824.671 300.213 824.516 300.353C823.671 301.106 822.808 301.898 822.021 302.764C821.233 303.626 820.507 304.546 819.849 305.512C818.968 306.808 818.211 308.189 817.59 309.631C817.64 309.438 817.692 309.246 817.738 309.052C818.015 307.888 818.209 306.681 818.233 305.45C818.26 304.223 818.106 302.969 817.763 301.795C817.429 300.616 816.95 299.501 816.402 298.441L815.673 297.073C816.016 293.978 816.862 290.918 818.534 288.336C818.643 288.35 818.757 288.35 818.881 288.317C819.176 288.237 819.361 287.955 819.541 287.708C820.319 286.635 821.456 285.879 822.622 285.248C827.032 282.859 832.339 281.822 835.792 278.184C838.735 275.085 839.778 270.496 839.184 266.264C838.963 267.144 838.275 267.847 837.489 268.299C836.702 268.75 835.813 268.986 834.939 269.23C832.451 269.924 829.992 270.721 827.571 271.619C826.281 272.097 824.993 272.608 823.831 273.344C821.719 274.682 820.111 276.722 819.02 278.973C818.104 280.864 817.428 282.998 817.137 285.082C817.067 285.581 817.199 286.642 817.563 287.421C817.552 287.438 817.54 287.453 817.529 287.469C817.028 288.214 816.583 288.994 816.194 289.801C815.815 290.611 815.491 291.444 815.215 292.291C814.922 293.214 814.694 294.152 814.512 295.098C814.219 294.669 813.893 294.25 813.508 293.866C813.397 293.754 813.266 293.637 813.158 293.539L812.835 293.254L812.198 292.679C811.354 291.907 810.545 291.106 809.794 290.261C809.307 289.713 808.847 289.141 808.418 288.549C808.578 288.311 808.704 288.115 808.735 288.04C809.022 287.342 809.161 286.591 809.301 285.851C809.535 284.61 809.4 283.473 809.138 282.237C808.363 278.579 806.938 275.031 805.06 271.803C803.986 269.957 802.75 268.205 801.367 266.577C800.433 265.475 799.404 264.381 798.988 263C797.405 269.003 798.441 275.649 801.777 280.884C802.959 282.74 804.423 284.446 805.636 286.275C806.043 287.189 806.533 288.06 807.086 288.884C807.24 289.237 807.381 289.596 807.501 289.965C807.494 289.945 807.555 289.839 807.652 289.688C808.019 290.184 808.406 290.663 808.808 291.124C809.587 292.022 810.42 292.864 811.279 293.668L811.926 294.266L812.253 294.56C812.358 294.658 812.443 294.735 812.535 294.83C812.895 295.197 813.214 295.628 813.506 296.09C813.744 296.466 813.964 296.866 814.181 297.273C814.173 297.345 814.161 297.416 814.153 297.488C813.778 301.007 814.01 304.511 814.243 307.949C814.261 308.21 814.279 308.47 814.297 308.731C813.687 307.382 812.981 306.082 812.195 304.837C810.567 302.253 808.603 299.914 806.476 297.769C805.859 297.146 805.224 296.542 804.582 295.948C804.626 294.937 803.838 293.589 803.424 292.837C802.414 291.001 801.243 289.254 799.928 287.623C799.001 286.473 797.993 285.372 796.799 284.502C795.789 283.768 794.663 283.21 793.53 282.687C791.745 281.863 789.909 281.11 787.978 280.74C784.354 280.046 780.625 280.734 777 281.421C779.287 282.57 780.373 285.155 781.726 287.327C784.426 291.66 788.851 294.882 793.802 296.122C796.37 296.765 799.03 296.886 801.666 296.88C802.199 296.879 803.088 297.026 803.741 296.899C804.351 297.484 804.952 298.076 805.534 298.686C807.573 300.815 809.431 303.113 810.944 305.613C811.702 306.861 812.375 308.157 812.943 309.493C813.514 310.828 813.953 312.216 814.344 313.636C814.391 313.809 814.437 313.983 814.482 314.157C814.36 314.526 814.239 314.897 814.124 315.271C813.846 316.17 813.606 317.1 813.421 318.037H812.388C812.116 316.565 811.688 315.122 811.088 313.748C810.636 312.713 810.089 311.717 809.445 310.786C809.04 310.2 808.589 309.641 808.114 309.111C808.103 308.781 808.09 308.465 808.07 308.384C807.943 307.868 807.711 307.385 807.482 306.908C807.099 306.107 806.551 305.518 805.889 304.926C803.93 303.174 801.649 301.754 799.243 300.704C797.868 300.103 796.44 299.623 794.98 299.274C793.994 299.038 792.956 298.846 792.146 298.235C793.741 302.296 797.088 305.634 801.154 307.218C803.08 307.968 805.182 308.358 807.004 309.285C808.336 310.713 809.393 312.354 810.136 314.154C810.655 315.4 811.029 316.706 811.266 318.037H787.65C785.561 318.037 783.933 319.848 784.153 321.925L790.33 362.854C790.519 364.643 792.028 366.001 793.827 366.001H836.173C837.972 366.001 839.481 364.643 839.67 362.854L845.847 321.925C846.068 319.847 844.439 318.036 842.35 318.036ZM816.233 308.684C816.163 308.964 816.087 309.244 816.008 309.523C815.961 308.956 815.914 308.39 815.867 307.826C815.644 305.154 815.434 302.493 815.496 299.86C815.84 300.62 816.132 301.396 816.346 302.186C816.95 304.296 816.785 306.509 816.233 308.684Z" fill="#FAC265"/>
</g>
<path d="M470.338 57H386V141.338H470.338V57Z" fill="#FAC265"/>
<path d="M560.956 57H476.618V141.338H560.956V57Z" fill="#FAC265"/>
<path d="M470.338 147.686H386V232.024H470.338V147.686Z" fill="#FAC265"/>
<path d="M560.956 147.686H476.618V232.024H560.956V147.686Z" fill="#FAC265"/>
<path d="M88.128 183.376C87.7867 187.301 87.5307 191.141 87.36 194.896C87.2747 198.565 87.232 201.381 87.232 203.344C87.232 205.307 87.2747 207.141 87.36 208.848C87.4453 210.555 87.5307 212.048 87.616 213.328H84.672C83.4773 206.501 82.0267 201.168 80.32 197.328C78.6133 193.403 76.352 190.587 73.536 188.88C70.8053 187.173 67.1787 186.32 62.656 186.32H58.56V259.28C58.56 262.779 58.8587 265.381 59.456 267.088C60.1387 268.795 61.4613 269.947 63.424 270.544C65.3867 271.056 68.2453 271.355 72 271.44V274C69.44 273.829 66.112 273.744 62.016 273.744C57.92 273.659 53.7387 273.616 49.472 273.616C45.0347 273.616 40.8533 273.659 36.928 273.744C33.088 273.744 29.9733 273.829 27.584 274V271.44C31.2533 271.355 34.0693 271.056 36.032 270.544C37.9947 269.947 39.3173 268.795 40 267.088C40.6827 265.381 41.024 262.779 41.024 259.28V186.32H36.8C32.3627 186.32 28.736 187.173 25.92 188.88C23.104 190.587 20.8427 193.403 19.136 197.328C17.4293 201.168 16.0213 206.501 14.912 213.328H11.968C12.1387 212.048 12.224 210.555 12.224 208.848C12.3093 207.141 12.352 205.307 12.352 203.344C12.352 201.381 12.2667 198.565 12.096 194.896C12.0107 191.141 11.7973 187.301 11.456 183.376C15.2107 183.461 19.3493 183.547 23.872 183.632C28.3947 183.717 32.9173 183.76 37.44 183.76C41.9627 183.76 46.1013 183.76 49.856 183.76C53.5253 183.76 57.6213 183.76 62.144 183.76C66.6667 183.76 71.1893 183.717 75.712 183.632C80.2347 183.547 84.3733 183.461 88.128 183.376ZM110.7 175.184C113.772 175.184 116.289 176.037 118.252 177.744C120.215 179.451 121.196 181.712 121.196 184.528C121.196 187.344 120.215 189.605 118.252 191.312C116.289 193.019 113.772 193.872 110.7 193.872C107.628 193.872 105.111 193.019 103.148 191.312C101.185 189.605 100.204 187.344 100.204 184.528C100.204 181.712 101.185 179.451 103.148 177.744C105.111 176.037 107.628 175.184 110.7 175.184ZM119.66 206.416V262.096C119.66 265.68 120.3 268.112 121.58 269.392C122.945 270.672 125.207 271.312 128.364 271.312V274C126.828 273.915 124.481 273.829 121.324 273.744C118.167 273.573 114.967 273.488 111.724 273.488C108.567 273.488 105.367 273.573 102.124 273.744C98.8813 273.829 96.4493 273.915 94.828 274V271.312C97.9853 271.312 100.204 270.672 101.484 269.392C102.849 268.112 103.532 265.68 103.532 262.096V221.904C103.532 217.979 102.892 215.12 101.612 213.328C100.417 211.451 98.156 210.512 94.828 210.512V207.824C97.5587 208.08 100.204 208.208 102.764 208.208C105.921 208.208 108.908 208.08 111.724 207.824C114.625 207.483 117.271 207.013 119.66 206.416ZM166.459 206.032C173.968 206.032 179.856 208.293 184.123 212.816C188.39 217.339 190.523 224.549 190.523 234.448H147.387L147.259 232.016H175.675C175.846 227.835 175.59 223.995 174.907 220.496C174.224 216.912 173.115 214.053 171.579 211.92C170.128 209.787 168.208 208.72 165.819 208.72C162.576 208.72 159.76 210.64 157.371 214.48C154.982 218.235 153.488 224.421 152.891 233.04L153.403 233.808C153.232 234.917 153.104 236.112 153.019 237.392C153.019 238.672 153.019 239.952 153.019 241.232C153.019 247.12 153.872 251.984 155.579 255.824C157.286 259.664 159.504 262.48 162.235 264.272C164.966 266.064 167.782 266.96 170.683 266.96C172.646 266.96 174.651 266.661 176.699 266.064C178.747 265.467 180.752 264.357 182.715 262.736C184.678 261.115 186.47 258.811 188.091 255.824L190.523 256.848C189.584 259.835 188.006 262.821 185.787 265.808C183.654 268.709 180.88 271.099 177.467 272.976C174.054 274.853 170.043 275.792 165.435 275.792C159.632 275.792 154.512 274.512 150.075 271.952C145.638 269.392 142.182 265.595 139.707 260.56C137.232 255.44 135.995 249.211 135.995 241.872C135.995 234.107 137.275 227.579 139.835 222.288C142.48 216.997 146.107 212.987 150.715 210.256C155.323 207.44 160.571 206.032 166.459 206.032ZM244.28 206.032C247.864 206.032 250.723 206.501 252.856 207.44C255.075 208.379 256.867 209.573 258.232 211.024C259.768 212.645 260.835 214.736 261.432 217.296C262.115 219.856 262.456 223.312 262.456 227.664V262.096C262.456 265.68 263.096 268.112 264.376 269.392C265.741 270.672 268.003 271.312 271.16 271.312V274C269.624 273.915 267.235 273.829 263.992 273.744C260.835 273.573 257.763 273.488 254.776 273.488C251.619 273.488 248.547 273.573 245.56 273.744C242.573 273.829 240.355 273.915 238.904 274V271.312C241.635 271.312 243.555 270.672 244.664 269.392C245.773 268.112 246.328 265.68 246.328 262.096V223.312C246.328 221.008 246.115 218.96 245.688 217.168C245.261 215.291 244.408 213.84 243.128 212.816C241.848 211.707 240.013 211.152 237.624 211.152C234.808 211.152 232.291 211.92 230.072 213.456C227.939 214.992 226.232 217.125 224.952 219.856C223.757 222.501 223.16 225.488 223.16 228.816V262.096C223.16 265.68 223.715 268.112 224.824 269.392C225.933 270.672 227.853 271.312 230.584 271.312V274C229.133 273.915 226.957 273.829 224.056 273.744C221.155 273.573 218.211 273.488 215.224 273.488C212.067 273.488 208.867 273.573 205.624 273.744C202.381 273.829 199.949 273.915 198.328 274V271.312C201.485 271.312 203.704 270.672 204.984 269.392C206.349 268.112 207.032 265.68 207.032 262.096V221.776C207.032 217.936 206.392 215.12 205.112 213.328C203.917 211.451 201.656 210.512 198.328 210.512V207.824C201.059 208.08 203.704 208.208 206.264 208.208C209.421 208.208 212.408 208.08 215.224 207.824C218.125 207.483 220.771 207.013 223.16 206.416V219.216C225.293 214.352 228.237 210.939 231.992 208.976C235.747 207.013 239.843 206.032 244.28 206.032ZM337.515 173.776V260.048C337.515 263.888 338.155 266.747 339.435 268.624C340.715 270.416 342.976 271.312 346.219 271.312V274C343.574 273.744 340.928 273.616 338.283 273.616C335.126 273.616 332.139 273.744 329.323 274C326.507 274.256 323.862 274.725 321.387 275.408V189.136C321.387 185.296 320.747 182.48 319.467 180.688C318.272 178.811 316.011 177.872 312.683 177.872V175.184C315.414 175.44 318.059 175.568 320.619 175.568C323.862 175.568 326.891 175.44 329.707 175.184C332.523 174.843 335.126 174.373 337.515 173.776ZM306.923 206.032C310.678 206.032 314.048 206.757 317.035 208.208C320.022 209.659 322.24 212.091 323.691 215.504L322.155 216.784C320.96 214.309 319.339 212.475 317.291 211.28C315.243 210.085 312.939 209.488 310.379 209.488C305.771 209.488 302.059 212.091 299.243 217.296C296.512 222.416 295.147 230.309 295.147 240.976C295.147 248.144 295.702 253.947 296.811 258.384C297.92 262.736 299.499 265.893 301.547 267.856C303.68 269.819 306.198 270.8 309.099 270.8C312.171 270.8 314.944 269.563 317.419 267.088C319.894 264.528 321.344 260.901 321.771 256.208L322.667 259.792C321.558 264.997 319.467 268.965 316.395 271.696C313.323 274.427 309.27 275.792 304.235 275.792C299.115 275.792 294.55 274.555 290.539 272.08C286.614 269.52 283.542 265.68 281.323 260.56C279.19 255.355 278.123 248.784 278.123 240.848C278.123 233.083 279.403 226.64 281.963 221.52C284.523 216.315 287.979 212.432 292.331 209.872C296.683 207.312 301.547 206.032 306.923 206.032ZM369.745 274.896C366.076 274.896 362.961 274.213 360.401 272.848C357.841 271.397 355.921 269.477 354.641 267.088C353.361 264.613 352.721 261.883 352.721 258.896C352.721 255.227 353.574 252.24 355.281 249.936C356.988 247.547 359.164 245.669 361.809 244.304C364.54 242.853 367.398 241.659 370.385 240.72C373.372 239.696 376.188 238.757 378.833 237.904C381.478 236.965 383.654 235.899 385.361 234.704C387.068 233.509 387.921 231.931 387.921 229.968V220.624C387.921 217.893 387.494 215.675 386.641 213.968C385.873 212.176 384.678 210.853 383.057 210C381.521 209.061 379.558 208.592 377.169 208.592C375.377 208.592 373.5 208.848 371.537 209.36C369.574 209.872 367.953 210.853 366.673 212.304C368.892 212.901 370.598 214.011 371.793 215.632C373.073 217.253 373.713 219.216 373.713 221.52C373.713 224.165 372.817 226.256 371.025 227.792C369.318 229.243 367.142 229.968 364.497 229.968C361.681 229.968 359.548 229.072 358.097 227.28C356.646 225.488 355.921 223.397 355.921 221.008C355.921 218.619 356.518 216.656 357.713 215.12C358.908 213.499 360.572 212.048 362.705 210.768C364.838 209.317 367.569 208.165 370.897 207.312C374.225 206.459 377.852 206.032 381.777 206.032C385.532 206.032 388.86 206.459 391.761 207.312C394.662 208.08 397.137 209.488 399.185 211.536C401.233 213.499 402.556 215.931 403.153 218.832C403.75 221.733 404.049 225.275 404.049 229.456V264.528C404.049 266.661 404.305 268.197 404.817 269.136C405.329 269.989 406.14 270.416 407.249 270.416C408.102 270.416 408.913 270.203 409.681 269.776C410.449 269.349 411.302 268.752 412.241 267.984L413.649 270.16C411.772 271.611 409.809 272.763 407.761 273.616C405.713 274.469 403.238 274.896 400.337 274.896C397.35 274.896 394.961 274.469 393.169 273.616C391.462 272.763 390.182 271.525 389.329 269.904C388.561 268.283 388.134 266.363 388.049 264.144C386.001 267.557 383.484 270.203 380.497 272.08C377.51 273.957 373.926 274.896 369.745 274.896ZM377.425 267.728C379.473 267.728 381.35 267.173 383.057 266.064C384.849 264.955 386.47 263.291 387.921 261.072V235.216C387.068 236.496 385.83 237.648 384.209 238.672C382.673 239.696 381.009 240.72 379.217 241.744C377.425 242.768 375.718 243.963 374.097 245.328C372.561 246.608 371.238 248.229 370.129 250.192C369.105 252.069 368.593 254.501 368.593 257.488C368.593 260.816 369.404 263.376 371.025 265.168C372.646 266.875 374.78 267.728 377.425 267.728Z" fill="#FFF6EA"/>
<path d="M617.427 254.855C617.427 254.855 617.061 254.184 617.671 253.451C618.281 252.719 619.441 252.963 621.089 252.78C622.737 252.597 623.713 252.475 624.629 251.742C625.545 251.01 628.779 250.826 630.244 251.254C631.709 251.681 632.502 252.414 632.502 252.414C632.502 252.414 633.784 249.912 634.333 248.264C634.882 246.616 635.371 245.761 635.737 246.067C636.103 246.372 636.164 250.034 636.347 251.743C636.347 251.743 638.178 249.668 638.849 249.607C639.52 249.546 639.093 254.917 639.154 256.748C639.215 258.579 638.884 260.593 639.232 261.631C639.581 262.669 640.679 264.072 641.839 267.429C642.999 270.786 643.731 273.777 645.013 275.303C646.295 276.829 648.187 278.599 648.98 281.284C649.773 283.97 649.651 287.204 651.177 289.768C652.703 292.331 653.13 293.491 654.351 296.482C655.572 299.473 657.22 303.318 658.867 306.431C660.515 309.544 661.858 312.596 664.177 316.746C666.496 320.896 669.731 328.099 671.562 334.873C671.562 334.873 676.262 339.084 680.107 341.282C683.952 343.479 687.187 345.677 693.168 344.7C699.149 343.723 702.079 338.23 703.971 335.362C705.863 332.493 707.999 329.197 710.258 330.418C712.516 331.639 712.516 336.46 706.352 344.151C700.188 351.842 691.826 354.405 685.112 352.94C678.398 351.475 672.417 349.217 672.417 349.217C672.417 349.217 672.661 351.231 672.783 353.917C672.905 356.603 672.234 357.518 672.173 358.739C672.112 359.96 672.539 360.997 670.586 362.096C668.633 363.195 669.06 363.439 665.581 364.415C662.102 365.392 655.266 366.002 653.252 365.941C653.252 365.941 652.52 366.316 650.811 365.945C650.811 365.945 648.675 366.307 648.736 364.232C648.736 364.232 647.699 364.598 646.722 363.011C645.745 361.424 647.515 360.142 647.76 359.715C648.004 359.288 648.92 358.372 648.92 358.372C648.92 358.372 645.746 359.898 641.657 355.015C637.568 350.132 637.14 343.479 637.201 339.085C637.201 339.085 636.469 336.644 634.76 334.385C633.051 332.127 629.694 326.878 628.412 323.277C627.13 319.676 624.384 314.366 623.468 310.093C622.553 305.821 621.698 302.769 621.027 301.914C620.356 301.059 618.403 299.839 617.975 299.534C617.548 299.229 616.083 301.243 614.313 302.464C612.543 303.685 610.407 304.539 608.942 302.891C607.477 301.243 608.515 298.924 609.247 297.947C609.979 296.97 610.834 296.116 610.834 296.116C610.834 296.116 608.087 295.139 606.317 293.614C604.547 292.088 604.364 290.135 604.486 289.219C604.486 289.219 603.816 287.571 604.456 286.35C605.096 285.129 606.378 285.129 607.294 285.496C608.21 285.862 608.698 287.937 609.369 288.975C610.04 290.013 612.177 290.135 613.458 290.806C614.74 291.477 616.51 291.6 616.754 291.6C616.998 291.6 618.585 290.379 619.623 289.891C620.661 289.403 621.637 289.952 621.637 289.952C621.637 289.952 621.332 285.863 621.759 283.665C622.186 281.468 624.261 279.331 624.506 277.561C624.75 275.791 624.811 273.655 624.14 271.885C623.469 270.115 621.699 267.49 620.722 265.354C619.745 263.218 618.83 262.791 617.731 261.57C616.632 260.349 616.205 259.495 616.266 258.396C616.327 257.297 616.51 256.504 616.632 255.955C616.755 255.405 617.427 254.855 617.427 254.855Z" fill="#394C38"/>
<path d="M611.868 181.305C615.77 181.305 618.934 178.141 618.934 174.239C618.934 170.336 615.77 167.173 611.868 167.173C607.965 167.173 604.802 170.336 604.802 174.239C604.802 178.141 607.965 181.305 611.868 181.305Z" fill="#FFF6EA"/>
<path d="M603.791 188.331C603.791 188.331 604.071 185.121 602.251 184.421C600.431 183.721 598.471 185.541 598.471 185.541C598.471 185.541 597.491 186.241 595.251 187.211C593.021 188.191 592.461 190.011 591.061 191.971C589.741 193.811 585.971 197.381 585.501 197.811C585.751 197.451 587.601 194.961 588.121 193.791C588.681 192.531 588.401 191.131 588.121 189.451C587.841 187.771 587.561 186.651 586.441 186.381C585.321 186.101 584.761 186.381 583.781 187.351C582.801 188.331 582.381 188.891 581.261 191.551C580.151 194.211 578.611 194.771 577.071 196.311C575.531 197.851 574.691 198.971 571.191 200.361C567.701 201.761 564.901 204.841 564.901 204.841C564.901 204.841 563.501 201.061 561.261 197.991C559.021 194.911 556.501 193.931 554.411 192.391C552.311 190.851 551.611 188.191 551.541 185.401C551.481 182.601 552.451 179.801 553.711 178.681C554.961 177.561 557.201 177.281 558.741 176.861C560.281 176.441 562.381 177.141 563.641 176.161C564.901 175.181 565.461 173.231 565.461 173.231C568.531 170.431 568.531 169.031 568.531 169.031C568.531 169.031 569.511 168.051 569.651 166.091C569.791 164.131 568.531 164.271 565.741 163.291C562.941 162.311 560.141 161.191 558.321 159.101C556.501 157.001 554.541 153.501 552.871 152.101C552.681 151.941 552.451 151.801 552.201 151.681C552.091 151.681 551.991 151.661 551.881 151.651C551.523 151.597 551.183 151.547 550.851 151.501C550.422 150.092 549.833 148.982 549.833 148.982C546.855 146.148 544.368 147.263 541.141 148.59C540.16 148.993 539.357 149.675 538.698 150.491C538.084 150.506 537.456 150.538 536.826 150.597L536.386 148.634C532.833 143.239 526.812 145.448 526.812 145.448C526.812 145.448 521.673 150.451 520.648 152.188C519.623 153.925 521.183 156.845 521.06 160.328C520.937 163.811 520.59 165.675 522.993 165.947C523.669 166.023 524.309 165.824 524.891 165.447C524.037 168.451 523.04 172.941 522.651 177.701C522.091 184.561 522.231 188.471 521.251 191.411C520.271 194.351 515.091 201.201 512.581 204.421C510.061 207.641 505.861 217.291 498.451 226.521C491.031 235.761 485.441 248.631 478.581 257.721C472.456 265.849 470.246 270.168 469.846 270.994C466.327 269.079 462.824 264.963 461.952 260.351C460.85 254.517 460.1 243.433 466.681 234.965C473.262 226.497 479.736 223.638 480.79 221.333C481.845 219.028 472.461 220.72 463.561 231.57C454.661 242.42 455.472 258.206 457.558 265.474C459.544 272.396 463.754 278.023 466.991 280.694C466.823 280.931 466.648 281.184 466.46 281.471C467.18 283.021 462.7 287.891 463.75 293.811C464.87 300.111 464.73 305.851 465.01 311.161C465.29 316.481 460.82 325.431 458.86 332.151C456.9 338.861 453.82 340.821 452.42 343.621C451.02 346.411 453.4 349.211 455.5 352.851C457.6 356.491 459.42 362.501 461.38 363.061C463.33 363.621 467.81 364.461 469.77 362.781C471.73 361.101 472.01 358.731 472.01 358.731C472.01 358.731 473.55 354.811 471.59 353.271C469.63 351.731 467.81 352.991 467.81 352.991C465.71 352.431 465.15 354.391 465.15 354.391C465.15 354.391 464.17 353.971 463.33 352.151C462.49 350.331 461.65 344.741 463.33 340.681C465.01 336.621 469.35 328.511 472.71 323.191C476.06 317.881 479.14 312.841 480.26 310.741C481.38 308.641 481.66 306.261 481.66 306.261C483.9 307.241 486.28 307.661 488.37 311.861C490.47 316.061 494.81 319.831 495.65 323.191C496.49 326.551 495.09 332.981 493.55 337.461C492.01 341.941 488.23 350.471 487.4 352.851C486.56 355.231 486.42 357.331 488.79 359.421C491.17 361.521 498.03 368.101 500.55 370.901C503.06 373.691 504.88 374.951 507.54 375.371C510.2 375.791 513.98 374.531 514.95 373.411C515.93 372.301 515.65 369.221 515.51 367.401C515.37 365.581 513.56 365.481 513.56 365.481C512.3 363.991 510.76 364.741 510.76 364.741C509.08 363.481 506.98 365.021 505.58 365.441C504.18 365.861 500.97 363.201 498.87 359.841C496.77 356.491 497.61 353.831 498.87 348.371C500.13 342.921 504.46 340.401 506.47 334.941C508.47 329.491 509.08 325.291 509.78 321.371C510.48 317.461 511.88 312.701 511.74 308.081C511.6 303.471 511.46 303.891 510.2 297.871C508.94 291.861 506.98 285.281 506.56 281.501C506.14 277.731 507.12 274.931 509.08 270.731C511.04 266.531 516.07 261.221 522.09 257.721C528.1 254.221 538.18 251.431 546.85 241.911C555.52 232.401 556.08 225.131 556.78 224.711C557.48 224.291 559.44 224.571 561.54 225.411C563.64 226.251 567.42 229.181 570.07 227.221C572.73 225.271 574.41 221.771 574.97 220.511C575.53 219.251 577.63 217.011 582.24 212.401C586.86 207.781 591.76 201.201 593.86 199.531C595.95 197.851 598.75 196.731 599.87 196.171C600.99 195.611 602.95 193.931 603.8 192.111C604.661 190.291 603.791 188.331 603.791 188.331Z" fill="#394C38"/>
<g clip-path="url(#clip1_521_52)">
<path d="M780.652 151.479V110H733.623V151.479H708.965V110H661.937V151.479H628V167.197H814.589V151.479H780.652Z" fill="#FAC265"/>
</g>
<path d="M930.756 267C896.649 267 869 269.373 869 272.3C869 272.646 869.4 272.985 870.139 273.313L869 361.133C869 364.06 896.649 366.433 930.756 366.433C964.863 366.433 992.512 364.06 992.512 361.133V272.301C992.512 269.373 964.863 267 930.756 267Z" fill="#FAC265"/>
<path d="M931.5 262C904.162 262 882 239.949 882 212.748V156.252C882 129.051 904.162 107 931.5 107C958.838 107 981 129.051 981 156.252V212.747C981.001 239.949 958.839 262 931.5 262Z" fill="#FAC265"/>
<defs>
<clipPath id="clip0_521_52">
<rect width="76" height="103" fill="white" transform="translate(777 263)"/>
</clipPath>
<clipPath id="clip1_521_52">
<rect width="186.589" height="57.197" fill="white" transform="translate(628 110)"/>
</clipPath>
</defs>
</svg>
