<svg width="1593" height="615" viewBox="0 0 1593 615" fill="none" xmlns="http://www.w3.org/2000/svg">
<path d="M132.071 292.502C131.538 298.636 131.138 304.636 130.871 310.502C130.738 316.236 130.671 320.636 130.671 323.702C130.671 326.769 130.738 329.636 130.871 332.302C131.005 334.969 131.138 337.302 131.271 339.302H126.671C124.805 328.636 122.538 320.302 119.871 314.302C117.205 308.169 113.671 303.769 109.271 301.102C105.005 298.436 99.338 297.102 92.2713 297.102H85.8713V411.102C85.8713 416.569 86.338 420.636 87.2713 423.302C88.338 425.969 90.4047 427.769 93.4713 428.702C96.538 429.502 101.005 429.969 106.871 430.102V434.102C102.871 433.836 97.6713 433.702 91.2713 433.702C84.8713 433.569 78.338 433.502 71.6713 433.502C64.738 433.502 58.2047 433.569 52.0713 433.702C46.0713 433.702 41.2047 433.836 37.4713 434.102V430.102C43.2047 429.969 47.6047 429.502 50.6713 428.702C53.738 427.769 55.8047 425.969 56.8713 423.302C57.938 420.636 58.4713 416.569 58.4713 411.102V297.102H51.8713C44.938 297.102 39.2713 298.436 34.8713 301.102C30.4713 303.769 26.938 308.169 24.2713 314.302C21.6047 320.302 19.4047 328.636 17.6713 339.302H13.0713C13.338 337.302 13.4713 334.969 13.4713 332.302C13.6047 329.636 13.6713 326.769 13.6713 323.702C13.6713 320.636 13.538 316.236 13.2713 310.502C13.138 304.636 12.8047 298.636 12.2713 292.502C18.138 292.636 24.6047 292.769 31.6713 292.902C38.738 293.036 45.8047 293.102 52.8713 293.102C59.938 293.102 66.4047 293.102 72.2713 293.102C78.0047 293.102 84.4047 293.102 91.4713 293.102C98.538 293.102 105.605 293.036 112.671 292.902C119.738 292.769 126.205 292.636 132.071 292.502ZM167.34 279.702C172.14 279.702 176.073 281.036 179.14 283.702C182.207 286.369 183.74 289.902 183.74 294.302C183.74 298.702 182.207 302.236 179.14 304.902C176.073 307.569 172.14 308.902 167.34 308.902C162.54 308.902 158.607 307.569 155.54 304.902C152.473 302.236 150.94 298.702 150.94 294.302C150.94 289.902 152.473 286.369 155.54 283.702C158.607 281.036 162.54 279.702 167.34 279.702ZM181.34 328.502V415.502C181.34 421.102 182.34 424.902 184.34 426.902C186.473 428.902 190.007 429.902 194.94 429.902V434.102C192.54 433.969 188.873 433.836 183.94 433.702C179.007 433.436 174.007 433.302 168.94 433.302C164.007 433.302 159.007 433.436 153.94 433.702C148.873 433.836 145.073 433.969 142.54 434.102V429.902C147.473 429.902 150.94 428.902 152.94 426.902C155.073 424.902 156.14 421.102 156.14 415.502V352.702C156.14 346.569 155.14 342.102 153.14 339.302C151.273 336.369 147.74 334.902 142.54 334.902V330.702C146.807 331.102 150.94 331.302 154.94 331.302C159.873 331.302 164.54 331.102 168.94 330.702C173.473 330.169 177.607 329.436 181.34 328.502ZM254.464 327.902C266.197 327.902 275.397 331.436 282.064 338.502C288.73 345.569 292.064 356.836 292.064 372.302H224.664L224.464 368.502H268.864C269.13 361.969 268.73 355.969 267.664 350.502C266.597 344.902 264.864 340.436 262.464 337.102C260.197 333.769 257.197 332.102 253.464 332.102C248.397 332.102 243.997 335.102 240.264 341.102C236.53 346.969 234.197 356.636 233.264 370.102L234.064 371.302C233.797 373.036 233.597 374.902 233.464 376.902C233.464 378.902 233.464 380.902 233.464 382.902C233.464 392.102 234.797 399.702 237.464 405.702C240.13 411.702 243.597 416.102 247.864 418.902C252.13 421.702 256.53 423.102 261.064 423.102C264.13 423.102 267.264 422.636 270.464 421.702C273.664 420.769 276.797 419.036 279.864 416.502C282.93 413.969 285.73 410.369 288.264 405.702L292.064 407.302C290.597 411.969 288.13 416.636 284.664 421.302C281.33 425.836 276.997 429.569 271.664 432.502C266.33 435.436 260.064 436.902 252.864 436.902C243.797 436.902 235.797 434.902 228.864 430.902C221.93 426.902 216.53 420.969 212.664 413.102C208.797 405.102 206.864 395.369 206.864 383.902C206.864 371.769 208.864 361.569 212.864 353.302C216.997 345.036 222.664 338.769 229.864 334.502C237.064 330.102 245.264 327.902 254.464 327.902ZM376.059 327.902C381.659 327.902 386.125 328.636 389.459 330.102C392.925 331.569 395.725 333.436 397.859 335.702C400.259 338.236 401.925 341.502 402.859 345.502C403.925 349.502 404.459 354.902 404.459 361.702V415.502C404.459 421.102 405.459 424.902 407.459 426.902C409.592 428.902 413.125 429.902 418.059 429.902V434.102C415.659 433.969 411.925 433.836 406.859 433.702C401.925 433.436 397.125 433.302 392.459 433.302C387.525 433.302 382.725 433.436 378.059 433.702C373.392 433.836 369.925 433.969 367.659 434.102V429.902C371.925 429.902 374.925 428.902 376.659 426.902C378.392 424.902 379.259 421.102 379.259 415.502V354.902C379.259 351.302 378.925 348.102 378.259 345.302C377.592 342.369 376.259 340.102 374.259 338.502C372.259 336.769 369.392 335.902 365.659 335.902C361.259 335.902 357.325 337.102 353.859 339.502C350.525 341.902 347.859 345.236 345.859 349.502C343.992 353.636 343.059 358.302 343.059 363.502V415.502C343.059 421.102 343.925 424.902 345.659 426.902C347.392 428.902 350.392 429.902 354.659 429.902V434.102C352.392 433.969 348.992 433.836 344.459 433.702C339.925 433.436 335.325 433.302 330.659 433.302C325.725 433.302 320.725 433.436 315.659 433.702C310.592 433.836 306.792 433.969 304.259 434.102V429.902C309.192 429.902 312.659 428.902 314.659 426.902C316.792 424.902 317.859 421.102 317.859 415.502V352.502C317.859 346.502 316.859 342.102 314.859 339.302C312.992 336.369 309.459 334.902 304.259 334.902V330.702C308.525 331.102 312.659 331.302 316.659 331.302C321.592 331.302 326.259 331.102 330.659 330.702C335.192 330.169 339.325 329.436 343.059 328.502V348.502C346.392 340.902 350.992 335.569 356.859 332.502C362.725 329.436 369.125 327.902 376.059 327.902ZM521.739 277.502V412.302C521.739 418.302 522.739 422.769 524.739 425.702C526.739 428.502 530.272 429.902 535.339 429.902V434.102C531.205 433.702 527.072 433.502 522.939 433.502C518.005 433.502 513.339 433.702 508.939 434.102C504.539 434.502 500.405 435.236 496.539 436.302V301.502C496.539 295.502 495.539 291.102 493.539 288.302C491.672 285.369 488.139 283.902 482.939 283.902V279.702C487.205 280.102 491.339 280.302 495.339 280.302C500.405 280.302 505.139 280.102 509.539 279.702C513.939 279.169 518.005 278.436 521.739 277.502ZM473.939 327.902C479.805 327.902 485.072 329.036 489.739 331.302C494.405 333.569 497.872 337.369 500.139 342.702L497.739 344.702C495.872 340.836 493.339 337.969 490.139 336.102C486.939 334.236 483.339 333.302 479.339 333.302C472.139 333.302 466.339 337.369 461.939 345.502C457.672 353.502 455.539 365.836 455.539 382.502C455.539 393.702 456.405 402.769 458.139 409.702C459.872 416.502 462.339 421.436 465.539 424.502C468.872 427.569 472.805 429.102 477.339 429.102C482.139 429.102 486.472 427.169 490.339 423.302C494.205 419.302 496.472 413.636 497.139 406.302L498.539 411.902C496.805 420.036 493.539 426.236 488.739 430.502C483.939 434.769 477.605 436.902 469.739 436.902C461.739 436.902 454.605 434.969 448.339 431.102C442.205 427.102 437.405 421.102 433.939 413.102C430.605 404.969 428.939 394.702 428.939 382.302C428.939 370.169 430.939 360.102 434.939 352.102C438.939 343.969 444.339 337.902 451.139 333.902C457.939 329.902 465.539 327.902 473.939 327.902ZM572.098 435.502C566.365 435.502 561.498 434.436 557.498 432.302C553.498 430.036 550.498 427.036 548.498 423.302C546.498 419.436 545.498 415.169 545.498 410.502C545.498 404.769 546.831 400.102 549.498 396.502C552.165 392.769 555.565 389.836 559.698 387.702C563.965 385.436 568.431 383.569 573.098 382.102C577.765 380.502 582.165 379.036 586.298 377.702C590.431 376.236 593.831 374.569 596.498 372.702C599.165 370.836 600.498 368.369 600.498 365.302V350.702C600.498 346.436 599.831 342.969 598.498 340.302C597.298 337.502 595.431 335.436 592.898 334.102C590.498 332.636 587.431 331.902 583.698 331.902C580.898 331.902 577.965 332.302 574.898 333.102C571.831 333.902 569.298 335.436 567.298 337.702C570.765 338.636 573.431 340.369 575.298 342.902C577.298 345.436 578.298 348.502 578.298 352.102C578.298 356.236 576.898 359.502 574.098 361.902C571.431 364.169 568.031 365.302 563.898 365.302C559.498 365.302 556.165 363.902 553.898 361.102C551.631 358.302 550.498 355.036 550.498 351.302C550.498 347.569 551.431 344.502 553.298 342.102C555.165 339.569 557.765 337.302 561.098 335.302C564.431 333.036 568.698 331.236 573.898 329.902C579.098 328.569 584.765 327.902 590.898 327.902C596.765 327.902 601.965 328.569 606.498 329.902C611.031 331.102 614.898 333.302 618.098 336.502C621.298 339.569 623.365 343.369 624.298 347.902C625.231 352.436 625.698 357.969 625.698 364.502V419.302C625.698 422.636 626.098 425.036 626.898 426.502C627.698 427.836 628.965 428.502 630.698 428.502C632.031 428.502 633.298 428.169 634.498 427.502C635.698 426.836 637.031 425.902 638.498 424.702L640.698 428.102C637.765 430.369 634.698 432.169 631.498 433.502C628.298 434.836 624.431 435.502 619.898 435.502C615.231 435.502 611.498 434.836 608.698 433.502C606.031 432.169 604.031 430.236 602.698 427.702C601.498 425.169 600.831 422.169 600.698 418.702C597.498 424.036 593.565 428.169 588.898 431.102C584.231 434.036 578.631 435.502 572.098 435.502ZM584.098 424.302C587.298 424.302 590.231 423.436 592.898 421.702C595.698 419.969 598.231 417.369 600.498 413.902V373.502C599.165 375.502 597.231 377.302 594.698 378.902C592.298 380.502 589.698 382.102 586.898 383.702C584.098 385.302 581.431 387.169 578.898 389.302C576.498 391.302 574.431 393.836 572.698 396.902C571.098 399.836 570.298 403.636 570.298 408.302C570.298 413.502 571.565 417.502 574.098 420.302C576.631 422.969 579.965 424.302 584.098 424.302Z" fill="#FFF6EA"/>
<path d="M1032.45 293.383C1084.27 283.602 1144.02 255.197 1141.33 230.203C1138.65 205.21 1074.37 192.313 1021.89 195.388C1040.01 145.274 1046.4 78.8207 1023.64 68.9948C1000.88 59.1688 956.98 109.211 932.863 156.961C899.181 116.467 845.712 78.5401 825.6 93.9156C805.488 109.291 825.841 172.163 854.308 216.489C802.485 226.27 742.686 254.656 745.419 279.669C748.152 304.682 812.379 317.559 864.868 314.484C846.681 364.739 840.351 431.051 863.115 440.877C885.879 450.703 929.794 400.614 953.891 352.911C987.573 393.405 1041 431.312 1061.15 415.956C1081.31 400.601 1060.87 337.804 1032.45 293.383Z" fill="#FAC265"/>
<path d="M1214.47 331.621L1205.41 321.567C1205.41 321.567 1198.42 307.588 1197.08 305.806L1195.72 304C1195.72 304 1192.45 307.169 1194.55 316.232C1195.77 322.291 1195.86 328.523 1194.82 334.615C1194.82 334.615 1180.95 346.578 1180.77 347.743C1180.67 348.587 1180.67 349.439 1180.77 350.283C1179.59 351.941 1178.87 353.877 1178.68 355.898C1178.6 358.799 1178.68 364.95 1178.68 364.95C1177.54 365.714 1176.6 366.756 1175.97 367.978C1175.33 369.2 1175.02 370.563 1175.06 371.939C1175.15 376.739 1180.31 378.195 1180.31 378.195C1180.31 378.195 1180.31 385.441 1190.37 386.617C1190.37 386.617 1175.34 391.056 1172.25 397.486L1175.34 395.762L1170.35 403.556L1172.53 402.647C1172.53 402.647 1165.64 415.228 1163.65 420.307C1161.65 425.386 1161.61 432.784 1161.61 432.784H1159.28C1159.28 432.784 1136.89 421.729 1131.37 420.377C1126.19 419.036 1121.11 417.343 1116.16 415.31C1112.97 412.995 1109.46 411.166 1105.74 409.881C1101.3 408.611 1094.77 405.443 1089.06 405.617C1083.35 405.792 1081 412.234 1081 413.318C1081 414.401 1082.36 419.026 1085.17 419.655C1086.62 420.033 1088.12 420.186 1089.61 420.109C1089.61 420.109 1094.27 422.742 1097.22 421.565L1111.21 429.72L1110.48 430.454L1115.91 432.784L1163.12 467.289L1164.94 468.373L1164.39 471.634L1167.7 467.604L1167.11 470.318L1168.83 468.967L1170.56 473.359L1172.1 470.19L1172.87 472.403L1173.59 470.691L1175.63 473.359C1175.63 473.359 1183.5 472.194 1185.23 468.326L1197.92 493.559H1200.06L1198.07 495.888L1199.89 496.797L1196.39 533.388L1188.83 572.576C1188.83 572.576 1185.25 571.679 1183.89 572.169C1182.53 572.658 1178.06 580.603 1178.14 582.094C1178.23 583.585 1180.23 587.161 1181.49 587.476C1182.75 587.79 1199.53 587.709 1199.53 587.709C1199.53 587.709 1205.68 579.741 1206.14 578.11C1206.59 576.479 1208.68 566.787 1208.68 566.787L1209.59 567.87L1213.48 552.202L1215.81 551.479L1214.45 550.396L1215.81 549.755L1224.06 528.472V518.418L1226.51 530.068C1226.51 530.068 1222.02 547.052 1222.7 548.404C1223.37 549.755 1231.26 564.165 1231.26 564.165C1231.26 564.165 1219.61 561.113 1219.36 561.043C1219.12 560.973 1212.78 563.082 1212.78 563.082C1212.78 563.082 1209.92 571.027 1210.19 573.403C1210.46 575.78 1213.31 576.898 1213.31 576.898L1220.92 577.096C1220.92 577.096 1214 582.665 1213.79 583.212C1213.58 583.76 1214.06 590.61 1214.06 590.61C1214.06 590.61 1218.01 594.419 1219.23 594.419H1235.68C1235.68 594.419 1291.39 591.087 1295.2 590.819C1296.19 590.834 1297.16 590.557 1297.99 590.025C1298.82 589.492 1299.47 588.727 1299.87 587.825L1311.01 587.895C1311.01 587.895 1342.4 588.175 1352.06 590.481C1361.72 592.788 1385.36 598.636 1385.36 598.636C1385.36 598.636 1372.04 599.172 1366.33 598.636C1360.62 598.1 1348.25 594.629 1340.91 598.869C1333.57 603.109 1338.74 609.633 1351.65 611.264C1364.57 612.895 1404.39 617.088 1412.4 612.895C1420.42 608.701 1416.06 597.541 1416.06 597.541L1418.79 600.127C1415.94 595.172 1412.15 590.819 1407.64 587.313L1410.36 587.581C1410.36 587.581 1400.17 581.197 1374.89 576.444C1349.61 571.691 1328.14 568.557 1322.69 563.536C1317.25 558.515 1318.35 550.081 1324.61 539.888C1330.86 529.695 1331.94 499.546 1325.69 476.446L1328.68 479.94L1321.93 459.577L1324.11 461.348C1324.11 461.348 1317.86 435.801 1301.18 423.126L1304.99 423.301C1298.54 418.958 1291.83 415.028 1284.88 411.535C1273.63 405.92 1262.95 400.632 1254.58 399.012C1246.21 397.393 1239.17 394.69 1239.72 390.695L1241.5 388.726L1241.57 387.165L1245.79 388.598L1244.63 385.266L1247.27 387.596L1246.53 383.053L1247.95 384.218L1246.78 374.024L1249.23 376.261L1245.73 366.079L1246.62 358.67C1249.14 355.315 1251 351.512 1252.1 347.464C1253.89 340.8 1260.69 332.657 1259.18 323.14C1259.18 323.14 1242.33 335.372 1238.53 335.64C1234.73 335.908 1228.74 336.047 1228.74 336.047C1224.45 333.356 1219.53 331.83 1214.47 331.621Z" fill="#394C38"/>
<path d="M797.335 444.336C793.915 433.823 787.105 426.578 771.877 431.398C768.134 432.624 764.536 434.245 761.146 436.234C762.032 432.422 762.496 428.528 762.532 424.618C762.532 408.878 753.451 404.711 742.233 404.711C731.015 404.711 721.935 408.878 721.935 424.618C721.967 428.275 722.382 431.919 723.173 435.493C719.994 433.606 716.625 432.049 713.119 430.847C697.995 425.779 691.008 432.909 687.455 443.363C683.903 453.817 684.92 463.691 700.059 468.7C703.781 469.957 707.632 470.809 711.542 471.241C708.543 473.772 705.826 476.61 703.435 479.706C693.912 492.353 698.688 501.036 707.68 507.613C716.672 514.191 726.504 516.18 736.027 503.533C738.363 500.367 740.34 496.959 741.924 493.369C743.44 496.951 745.348 500.359 747.614 503.533C756.915 516.34 766.777 514.51 775.887 508.092C784.997 501.675 789.965 493.021 780.604 480.287C778.273 477.147 775.605 474.265 772.644 471.691C776.576 471.366 780.461 470.621 784.23 469.47C799.458 464.649 800.711 454.848 797.335 444.336Z" fill="#FFF6EA"/>
<path d="M1592.37 285.993C1592.36 283.342 1591.83 280.718 1590.79 278.28C1589.75 275.842 1588.23 273.639 1586.32 271.803C1584.41 269.968 1582.15 268.539 1579.67 267.601C1577.2 266.663 1574.56 266.236 1571.91 266.345L1546.13 267.472L1569.01 255.499C1571.35 254.265 1573.41 252.57 1575.08 250.516C1576.75 248.463 1577.99 246.093 1578.72 243.549C1579.45 241.005 1579.67 238.339 1579.35 235.711C1579.03 233.083 1578.18 230.547 1576.86 228.254C1575.53 225.954 1573.76 223.947 1571.64 222.353C1569.52 220.759 1567.1 219.611 1564.53 218.979C1561.95 218.348 1559.28 218.245 1556.67 218.677C1554.05 219.11 1551.55 220.068 1549.32 221.495L1527.53 235.354L1541.39 213.557C1543.99 209.041 1544.7 203.675 1543.35 198.639C1542 193.603 1538.71 189.31 1534.2 186.705C1529.69 184.099 1524.33 183.395 1519.31 184.746C1514.28 186.097 1509.99 189.393 1507.39 193.909L1495.44 216.832L1496.56 191.001C1496.68 188.35 1496.25 185.703 1495.32 183.221C1494.38 180.738 1492.96 178.47 1491.13 176.554C1489.29 174.637 1487.09 173.112 1484.66 172.07C1482.22 171.028 1479.6 170.49 1476.95 170.489C1474.3 170.49 1471.68 171.028 1469.24 172.07C1466.81 173.112 1464.61 174.637 1462.77 176.554C1460.94 178.47 1459.51 180.738 1458.58 183.221C1457.64 185.703 1457.22 188.35 1457.33 191.001L1458.46 216.832L1446.51 193.909C1445.22 191.673 1443.5 189.713 1441.46 188.14C1439.41 186.568 1437.08 185.415 1434.59 184.746C1432.1 184.077 1429.51 183.905 1426.95 184.241C1424.4 184.578 1421.93 185.415 1419.7 186.705C1417.47 187.995 1415.51 189.713 1413.94 191.76C1412.37 193.808 1411.22 196.145 1410.55 198.639C1409.88 201.132 1409.71 203.733 1410.05 206.293C1410.38 208.853 1411.22 211.321 1412.51 213.557L1426.34 235.354L1404.58 221.495C1402.35 220.068 1399.85 219.11 1397.23 218.677C1394.62 218.245 1391.94 218.348 1389.37 218.979C1386.8 219.611 1384.38 220.759 1382.26 222.353C1380.14 223.947 1378.36 225.954 1377.04 228.254C1375.72 230.546 1374.87 233.082 1374.54 235.711C1374.22 238.34 1374.43 241.007 1375.17 243.552C1375.9 246.097 1377.14 248.468 1378.81 250.521C1380.48 252.574 1382.55 254.267 1384.89 255.499L1407.77 267.472L1381.98 266.345C1379.32 266.207 1376.66 266.614 1374.16 267.539C1371.66 268.464 1369.38 269.889 1367.45 271.727C1365.51 273.565 1363.98 275.778 1362.92 278.23C1361.87 280.683 1361.33 283.324 1361.33 285.993C1361.33 288.662 1361.87 291.304 1362.92 293.756C1363.98 296.209 1365.51 298.421 1367.45 300.26C1369.38 302.098 1371.66 303.523 1374.16 304.448C1376.66 305.373 1379.32 305.779 1381.98 305.641L1407.77 304.515L1384.89 316.487C1382.66 317.777 1380.7 319.495 1379.13 321.543C1377.56 323.591 1376.41 325.928 1375.74 328.421C1375.07 330.915 1374.9 333.516 1375.24 336.075C1375.57 338.635 1376.41 341.103 1377.7 343.34C1378.98 345.576 1380.7 347.536 1382.74 349.108C1384.79 350.681 1387.12 351.834 1389.61 352.503C1392.1 353.172 1394.7 353.343 1397.25 353.007C1399.81 352.671 1402.27 351.834 1404.5 350.544L1426.26 336.659L1412.43 358.482C1411.14 360.718 1410.3 363.186 1409.97 365.746C1409.63 368.306 1409.8 370.907 1410.47 373.4C1411.14 375.894 1412.29 378.231 1413.86 380.279C1415.43 382.326 1417.39 384.044 1419.62 385.334C1421.85 386.624 1424.32 387.461 1426.87 387.798C1429.43 388.134 1432.02 387.962 1434.51 387.293C1437 386.624 1439.34 385.471 1441.38 383.899C1443.42 382.326 1445.14 380.366 1446.43 378.13L1458.38 355.207L1457.26 381.038C1457.15 383.687 1457.57 386.331 1458.51 388.81C1459.45 391.29 1460.87 393.555 1462.7 395.468C1464.54 397.382 1466.74 398.905 1469.17 399.945C1471.6 400.986 1474.22 401.523 1476.87 401.524C1479.52 401.523 1482.14 400.986 1484.57 399.945C1487.01 398.905 1489.2 397.382 1491.04 395.468C1492.87 393.555 1494.3 391.29 1495.23 388.81C1496.17 386.331 1496.6 383.687 1496.49 381.038L1495.36 355.207L1507.31 378.13C1508.6 380.366 1510.32 382.326 1512.36 383.899C1514.41 385.471 1516.74 386.624 1519.23 387.293C1521.72 387.962 1524.31 388.134 1526.87 387.798C1529.42 387.461 1531.89 386.624 1534.12 385.334C1536.35 384.044 1538.31 382.326 1539.88 380.279C1541.45 378.231 1542.6 375.894 1543.27 373.4C1543.94 370.907 1544.11 368.306 1543.77 365.746C1543.44 363.186 1542.6 360.718 1541.31 358.482L1527.45 336.659L1549.24 350.544C1551.47 351.834 1553.93 352.671 1556.49 353.007C1559.05 353.343 1561.64 353.172 1564.13 352.503C1566.62 351.834 1568.95 350.681 1571 349.108C1573.04 347.536 1574.76 345.576 1576.05 343.34C1577.33 341.103 1578.17 338.635 1578.51 336.075C1578.84 333.516 1578.67 330.915 1578 328.421C1577.33 325.928 1576.18 323.591 1574.61 321.543C1573.04 319.495 1571.09 317.777 1568.85 316.487L1545.97 304.515L1571.76 305.641C1574.41 305.773 1577.07 305.362 1579.56 304.434C1582.06 303.506 1584.34 302.08 1586.27 300.242C1588.19 298.405 1589.73 296.194 1590.78 293.745C1591.82 291.296 1592.37 288.658 1592.37 285.993Z" fill="#FFF6EA"/>
</svg>
