<svg width="34" height="24" viewBox="0 0 34 24" fill="none" xmlns="http://www.w3.org/2000/svg">
<rect x="0.5" y="0.5" width="33" height="23" rx="3.5" fill="white" stroke="#D9D9D9"/>
<path d="M18.5727 7.7624L19.8125 8.94942C19.8298 8.9662 19.8559 8.97878 19.8602 9.00395L19.8255 9.0375C19.6825 9.17592 19.5307 9.32272 19.379 9.46114L17.3373 11.4115C17.3069 11.4451 17.2896 11.4787 17.2896 11.5206V13.9198C17.2896 13.9408 17.2853 13.966 17.3069 13.9953C19.0669 12.3301 20.8139 10.6691 22.5608 9.00395C22.5435 8.97459 22.5175 8.95781 22.5045 8.93684L18.2129 4.85986C17.9225 4.58302 17.6321 4.31458 17.3503 4.03775C17.3329 4.02097 17.3286 4.00419 17.2983 4.00839V6.46632C17.2983 6.51246 17.3156 6.54182 17.346 6.57118C17.7404 6.96965 18.1522 7.36393 18.5727 7.7624ZM12.4779 17.8164C12.4215 17.8164 12.3608 17.8206 12.3088 17.8206C12.2741 17.8164 12.2568 17.8374 12.2395 17.8668C12.1918 17.9674 12.1354 18.0639 12.0704 18.1478C11.9924 18.2527 11.9013 18.3365 11.7843 18.4037C11.6542 18.4792 11.5242 18.5169 11.3768 18.5085C11.1384 18.4917 10.9563 18.3953 10.8436 18.1813C10.8176 18.1352 10.7959 18.0807 10.7829 18.0303C10.7309 17.8542 10.7266 17.678 10.7353 17.506C10.7569 17.267 10.8089 17.0321 10.8783 16.8014C10.9347 16.6252 11.0083 16.4616 11.095 16.2939C11.1514 16.189 11.2251 16.0925 11.3118 16.0128C11.4202 15.9122 11.5372 15.8534 11.6889 15.8325C11.897 15.8115 12.0661 15.8786 12.1918 16.038C12.2265 16.0841 12.2525 16.1345 12.2741 16.1764C12.3175 16.2645 12.3435 16.3568 12.3565 16.4449C12.3825 16.5749 12.3912 16.7091 12.3998 16.8391C12.3998 16.8853 12.4042 16.8853 12.4475 16.8895C12.4909 16.8937 12.5256 16.8979 12.5602 16.9062C12.5862 16.9062 12.5949 16.902 12.6036 16.8769C12.6036 16.8685 12.6079 16.8601 12.6079 16.8517C12.6686 16.5078 12.7336 16.1596 12.7943 15.8157C12.7987 15.7863 12.8203 15.7486 12.7987 15.7276C12.777 15.7066 12.7293 15.7234 12.699 15.7192H12.6643C12.6383 15.7192 12.6166 15.7276 12.6036 15.7486C12.5559 15.8073 12.4995 15.8618 12.4475 15.9247C12.4302 15.9415 12.4259 15.9541 12.3998 15.9583L12.3955 15.9541C12.3912 15.9457 12.3782 15.9373 12.3782 15.9289C12.2915 15.8031 12.1744 15.7234 12.0314 15.6731C11.9057 15.6269 11.7843 15.6144 11.6542 15.6186C11.3811 15.6227 11.1254 15.6982 10.8956 15.8367C10.5965 16.017 10.3798 16.2603 10.2194 16.5665C10.1024 16.8014 10.0287 17.053 10.007 17.3131C9.98965 17.527 10.0027 17.7367 10.0677 17.9423C10.1674 18.2485 10.3581 18.4792 10.6529 18.6176C10.9217 18.7476 11.2121 18.777 11.5025 18.7266C11.8146 18.6805 12.0487 18.5253 12.2351 18.2862C12.3392 18.1562 12.4129 18.0052 12.4692 17.8542C12.4779 17.8542 12.4822 17.8374 12.4779 17.8164ZM15.8548 13.2319C16.1148 13.4752 16.3619 13.7185 16.622 13.9576C16.6394 13.9743 16.648 13.9911 16.674 13.9869C16.6784 13.9785 16.6784 13.9701 16.6784 13.9618V11.5164C16.6784 11.4829 16.6697 11.4493 16.6437 11.4325C16.6264 11.4241 16.622 11.4115 16.6134 11.4032C15.7941 10.6272 14.9791 9.84283 14.1598 9.06267C14.1381 9.04589 14.1121 9.02911 14.1035 9.00395C14.1208 8.97039 14.1511 8.94942 14.1815 8.92425L16.635 6.57538C16.6697 6.54182 16.6827 6.50827 16.6827 6.46632V4.06711C16.6827 4.05033 16.687 4.02517 16.6654 4C14.9271 5.6568 13.1931 7.29682 11.4548 8.94942L11.4115 8.99136C11.4115 8.99556 11.4072 8.99556 11.4072 8.99975V9.02073C11.4245 9.0375 11.4548 9.05428 11.4765 9.07525C12.9374 10.4594 14.3982 11.8478 15.8548 13.2319ZM24 17.6445C23.9436 17.6277 23.8916 17.6193 23.8353 17.6025C23.8179 17.5983 23.8093 17.6025 23.8006 17.6193C23.7833 17.6403 23.7789 17.6654 23.7659 17.6864C23.6879 17.8248 23.6012 17.9632 23.4928 18.0807C23.4105 18.1772 23.3151 18.2568 23.2067 18.324C23.0897 18.3995 22.9553 18.4498 22.8122 18.4624C22.6952 18.4792 22.5782 18.4666 22.4655 18.454C22.4438 18.454 22.4221 18.4456 22.4048 18.4372C22.3571 18.4204 22.3354 18.3911 22.3311 18.3491C22.3267 18.303 22.3311 18.2527 22.3397 18.2149C22.3484 18.1604 22.3614 18.11 22.3744 18.0555C22.5348 17.4263 22.6909 16.793 22.8469 16.1638C22.8643 16.1177 22.8686 16.0799 22.8946 16.0338C22.9163 15.9877 22.9553 15.9583 23.0073 15.9373C23.0377 15.9289 23.068 15.9206 23.107 15.9206C23.159 15.9164 23.2154 15.9164 23.2674 15.9122C23.2847 15.9122 23.2934 15.9122 23.2977 15.8954C23.3151 15.8283 23.3281 15.7696 23.3454 15.7066C23.3498 15.6982 23.3411 15.6899 23.3281 15.6899C23.3021 15.6857 23.2804 15.6857 23.2501 15.6857H21.8846C21.8629 15.6857 21.8499 15.7024 21.8412 15.7192C21.8239 15.7696 21.8196 15.8199 21.8065 15.8702C21.8022 15.9038 21.8022 15.9164 21.8412 15.9164C21.9019 15.9206 21.9713 15.9206 22.032 15.9247C22.058 15.9247 22.084 15.9289 22.11 15.9415C22.1577 15.9583 22.188 15.9877 22.188 16.038C22.188 16.0632 22.1837 16.0925 22.1793 16.1219C22.162 16.1974 22.149 16.2729 22.1317 16.3484C21.9756 16.9775 21.8152 17.6109 21.6548 18.2401C21.6462 18.282 21.6332 18.3156 21.6201 18.3533C21.5941 18.4204 21.5421 18.4582 21.4684 18.4624C21.3601 18.4708 21.2604 18.4708 21.152 18.4624C21.1173 18.4582 21.0783 18.4582 21.0436 18.4456C20.9873 18.4246 20.9439 18.3911 20.9266 18.3407C20.9179 18.3156 20.9092 18.2904 20.9049 18.2652C20.8789 18.1436 20.8572 18.0303 20.8312 17.9087C20.7705 17.5815 20.7012 17.2586 20.6405 16.9314C20.5624 16.5413 20.4844 16.1512 20.4151 15.7612C20.4107 15.715 20.4064 15.6773 20.389 15.6353C20.3414 15.6144 20.298 15.6269 20.2547 15.6269C20.1463 15.6269 20.1723 15.6186 20.1203 15.7024C19.6911 16.47 19.2663 17.2292 18.8372 17.9926C18.8025 18.0597 18.7591 18.1226 18.7201 18.1813C18.6724 18.2359 18.6334 18.2946 18.5771 18.3407C18.5034 18.3995 18.4383 18.4456 18.343 18.454C18.3343 18.4582 18.3213 18.4582 18.3126 18.4624C18.304 18.4666 18.2953 18.4792 18.2953 18.4792C18.278 18.5463 18.2649 18.605 18.2476 18.6679C18.2476 18.6763 18.2519 18.6847 18.2649 18.6847H19.3053C19.314 18.6847 19.3227 18.6805 19.327 18.6679C19.3357 18.6385 19.3487 18.6008 19.353 18.5714C19.3617 18.5379 19.379 18.5001 19.3747 18.4666C19.3443 18.4456 19.3053 18.4582 19.2706 18.4498C19.2446 18.4456 19.223 18.4456 19.1926 18.4414C19.1709 18.4414 19.1449 18.433 19.1233 18.4246C19.0452 18.3995 19.0062 18.3491 19.0105 18.2527C19.0149 18.2107 19.0279 18.1813 19.0366 18.1478C19.0929 18.0178 19.1709 17.8919 19.2316 17.7661C19.2403 17.7493 19.2533 17.7409 19.275 17.7409H20.1159C20.142 17.7409 20.1506 17.7577 20.1593 17.7745C20.1636 17.7829 20.1636 17.7913 20.1636 17.7913L20.233 18.1604C20.2417 18.2107 20.2503 18.261 20.2503 18.3072C20.2503 18.3659 20.22 18.4204 20.142 18.4372C20.1073 18.4414 20.0683 18.4456 20.0336 18.4456H19.9209C19.8992 18.4456 19.8905 18.454 19.8862 18.4708C19.8775 18.5043 19.8645 18.5421 19.8602 18.5756C19.8559 18.605 19.8298 18.6427 19.8428 18.6595C19.8645 18.6889 19.9035 18.6763 19.9339 18.6763H23.7009C23.7356 18.6763 23.7442 18.6721 23.7486 18.6343L23.8396 18.2652C23.9003 18.0723 23.9523 17.8584 24 17.6445ZM20.0509 17.5228H19.457C19.4397 17.5228 19.4267 17.527 19.405 17.506L19.9209 16.5539C19.9209 16.5497 19.9295 16.5497 19.9382 16.5455C19.9469 16.5749 19.9556 16.6042 19.9556 16.6336C20.0032 16.9104 20.0596 17.1789 20.1073 17.4557C20.1116 17.5186 20.1116 17.5228 20.0509 17.5228ZM18.2693 17.699C18.2259 17.5396 18.1349 17.4138 17.9918 17.3257C17.9355 17.2921 17.8748 17.2586 17.8054 17.2418C17.7231 17.2166 17.6364 17.1957 17.5454 17.1747C17.528 17.1663 17.5193 17.1705 17.4977 17.1579C17.515 17.1579 17.528 17.1621 17.5454 17.1495L17.6147 17.1327C17.6927 17.1244 17.7751 17.1034 17.8488 17.0824C17.9788 17.0405 18.0959 16.9859 18.1956 16.9062C18.3126 16.8098 18.3907 16.6923 18.421 16.5413C18.4383 16.4574 18.4383 16.3694 18.4253 16.2855C18.3993 16.0506 18.2736 15.8786 18.0525 15.7779C17.9832 15.7486 17.9182 15.7318 17.8488 15.7108C17.7057 15.6773 17.5497 15.6689 17.398 15.6689H16.1018C16.0802 15.6689 16.0672 15.6773 16.0585 15.6982C16.0412 15.7528 16.0325 15.8031 16.0151 15.8576C16.0108 15.8786 16.0195 15.887 16.0412 15.887C16.1018 15.8912 16.1712 15.8912 16.2319 15.8954C16.2622 15.8954 16.2882 15.8996 16.3186 15.9122C16.3663 15.9289 16.3923 15.9583 16.3966 16.0086C16.3966 16.0254 16.3966 16.0506 16.3923 16.0632C16.3749 16.1387 16.3619 16.2142 16.3446 16.2897C16.2579 16.642 16.1755 16.9901 16.0845 17.3425C16.0065 17.6361 15.9284 17.9339 15.8591 18.2275C15.8417 18.2694 15.8331 18.3072 15.8114 18.3491C15.7897 18.3953 15.7507 18.4246 15.6944 18.433C15.5686 18.454 15.4473 18.4498 15.3216 18.4288C15.2435 18.412 15.1872 18.3701 15.1612 18.2946C15.1525 18.2652 15.1438 18.2401 15.1395 18.2107L15.0701 17.8919C15.0094 17.5648 14.9401 17.2418 14.8794 16.9146C14.81 16.5833 14.7494 16.2561 14.6843 15.9247C14.667 15.8367 14.6497 15.7402 14.6323 15.6479C14.628 15.6144 14.615 15.606 14.5846 15.606H14.4763C14.3852 15.606 14.3982 15.5976 14.3592 15.6773L13.5616 17.0992C13.3969 17.4012 13.2321 17.6948 13.0631 17.9884C13.0111 18.0891 12.9547 18.1772 12.8767 18.2652C12.7943 18.3659 12.6946 18.4372 12.5559 18.454C12.5342 18.4582 12.5256 18.475 12.5212 18.4959L12.4779 18.6511V18.6595C12.4779 18.6763 12.4822 18.6847 12.4995 18.6847H13.5226C13.5313 18.6847 13.5399 18.6805 13.5443 18.6679C13.5486 18.6511 13.5529 18.6385 13.5616 18.6218C13.5659 18.605 13.5703 18.5798 13.5789 18.5672C13.5833 18.5505 13.5963 18.5379 13.5963 18.5211C13.5963 18.5043 13.6136 18.4875 13.5963 18.4708C13.5443 18.4624 13.4879 18.454 13.4315 18.454C13.3969 18.4498 13.3622 18.4372 13.3318 18.4288C13.2798 18.4078 13.2495 18.3617 13.2451 18.303C13.2408 18.2568 13.2495 18.2149 13.2668 18.173C13.3275 18.0429 13.4012 17.9171 13.4706 17.7871C13.4792 17.7703 13.4922 17.7661 13.5139 17.7661H14.3722C14.3939 17.7661 14.4026 17.7829 14.4069 17.7997L14.4763 18.1688C14.4936 18.2233 14.4936 18.2778 14.4936 18.3323C14.4893 18.4037 14.4589 18.4372 14.3896 18.454C14.3549 18.4624 14.3115 18.4708 14.2769 18.4708H14.1641C14.1468 18.4708 14.1381 18.475 14.1338 18.4917L14.0905 18.6721C14.0861 18.6889 14.0948 18.6973 14.1121 18.6973H17.1379C17.2896 18.6973 17.437 18.6805 17.5844 18.6511C17.7188 18.626 17.8531 18.5756 17.9658 18.5043C18.1002 18.4204 18.2043 18.2988 18.2563 18.1436C18.304 17.9926 18.3083 17.8458 18.2693 17.699ZM14.3202 17.5186H13.6526C13.6353 17.5186 13.6353 17.5019 13.6353 17.4977C13.6396 17.4809 13.6526 17.4725 13.6526 17.4641C13.813 17.1705 13.9734 16.8769 14.1295 16.5833C14.1468 16.5665 14.1468 16.5539 14.1641 16.5413C14.1685 16.5581 14.1728 16.5707 14.1815 16.5875C14.2292 16.8433 14.2725 17.0992 14.3159 17.355C14.3245 17.4012 14.3332 17.4431 14.3419 17.4851C14.3505 17.506 14.3419 17.5186 14.3202 17.5186ZM16.8431 17.0321C16.8431 17.0153 16.8474 17.0027 16.8518 16.9859C16.9255 16.7049 16.9862 16.4197 17.0598 16.1387C17.0685 16.0967 17.0815 16.0632 17.1032 16.0254C17.1292 15.9583 17.1812 15.9247 17.2549 15.9206C17.3329 15.9122 17.411 15.9164 17.4803 15.9373C17.6147 15.9709 17.7404 16.059 17.7534 16.2561C17.7621 16.4071 17.7448 16.5497 17.6841 16.6881C17.593 16.923 17.4153 17.0447 17.1552 17.0614C17.1379 17.0614 17.1119 17.0656 17.0989 17.0656H17.0208V17.0572H16.8561C16.8431 17.0614 16.8388 17.053 16.8431 17.0321ZM17.5193 18.0723C17.437 18.2988 17.2679 18.4246 17.0208 18.4582C16.8951 18.4792 16.7737 18.475 16.648 18.4582C16.5353 18.4414 16.4963 18.4037 16.518 18.2946C16.5353 18.2149 16.5527 18.1352 16.57 18.0513L16.7391 17.3592C16.7434 17.3425 16.7477 17.3299 16.7564 17.3131C16.7607 17.2921 16.7737 17.2837 16.7998 17.2837C16.8604 17.2795 16.9255 17.2754 16.9862 17.2754C17.0642 17.2754 17.1465 17.2754 17.2246 17.2921C17.2462 17.2963 17.2723 17.3005 17.2983 17.3089C17.4587 17.355 17.5454 17.4641 17.567 17.6193C17.593 17.7661 17.5714 17.9213 17.5193 18.0723ZM12.9547 20.9119C13.0067 20.9077 13.0457 20.9035 13.0674 20.8909C13.1108 20.87 13.1281 20.8364 13.1281 20.7819V19.813C13.1281 19.7626 13.1064 19.7291 13.0718 19.7081C13.0501 19.6997 13.0111 19.6871 12.9547 19.683V19.6326H13.6006C13.8607 19.6326 14.0601 19.6997 14.1945 19.8298C14.3202 19.9514 14.3809 20.1066 14.3809 20.3037C14.3809 20.4841 14.3202 20.6351 14.1945 20.7525C14.0558 20.8909 13.865 20.9623 13.6223 20.9623H12.9547V20.9119ZM13.4966 20.87C13.5139 20.8909 13.5443 20.8951 13.5833 20.8951C13.709 20.8951 13.8087 20.8532 13.8954 20.7693C13.9777 20.6896 14.0124 20.5302 14.0124 20.2953C14.0124 20.1569 13.9908 20.0353 13.9431 19.9346C13.8694 19.7752 13.7567 19.6955 13.5876 19.6955C13.5313 19.6955 13.4966 19.7039 13.4792 19.7291C13.4706 19.7459 13.4619 19.771 13.4619 19.8088V20.7735C13.4706 20.8196 13.4836 20.849 13.4966 20.87ZM14.4849 20.9623V20.9119C14.5456 20.9119 14.589 20.9035 14.615 20.8867C14.6583 20.8658 14.6713 20.828 14.6713 20.7735V19.8214C14.6713 19.7668 14.6497 19.7249 14.6106 19.7081C14.5846 19.6997 14.5413 19.6871 14.4806 19.683V19.6326H15.6944V20.0269H15.6423C15.6163 19.9011 15.5686 19.813 15.508 19.7668C15.4473 19.7207 15.3259 19.6955 15.1568 19.6955C15.0961 19.6955 15.0528 19.6997 15.0311 19.7165C15.0138 19.7249 15.0051 19.7501 15.0051 19.792V20.2492C15.1222 20.2492 15.2089 20.2282 15.2479 20.1905C15.2912 20.1485 15.3259 20.0688 15.3476 19.9598H15.3996V20.6267H15.3476C15.3302 20.5176 15.2999 20.4379 15.2565 20.3918C15.2089 20.3457 15.1265 20.3205 15.0094 20.3205V20.7945C15.0094 20.8364 15.0181 20.8658 15.0441 20.8784C15.0658 20.8951 15.1178 20.9035 15.1828 20.9035C15.3172 20.9035 15.4256 20.8784 15.5123 20.828C15.5947 20.7777 15.6727 20.6896 15.7377 20.5512H15.7941L15.7074 20.9623H14.4849ZM15.8938 20.9119C15.9501 20.9119 15.9935 20.9035 16.0195 20.8909C16.0628 20.87 16.0802 20.8322 16.0802 20.7777V19.8256C16.0802 19.771 16.0585 19.7291 16.0238 19.7123C15.9978 19.7039 15.9545 19.6913 15.8938 19.6871V19.6368H16.544C16.6697 19.6368 16.7781 19.6536 16.8604 19.6788C17.0165 19.7291 17.0945 19.8256 17.0945 19.9556C17.0945 20.0353 17.0642 20.1024 17.0035 20.1527C16.9428 20.2031 16.8691 20.2324 16.7954 20.2408V20.2618C16.8734 20.2786 16.9385 20.3037 16.9992 20.3331C17.1119 20.4002 17.1682 20.4883 17.1682 20.6099C17.1682 20.719 17.1162 20.8071 17.0078 20.8742C16.8995 20.9413 16.7564 20.9748 16.5787 20.9748H15.9024V20.9119H15.8938ZM16.6784 20.1695C16.7261 20.1276 16.7477 20.0604 16.7477 19.9598C16.7477 19.8843 16.7304 19.8214 16.7044 19.771C16.674 19.7207 16.6177 19.6955 16.5353 19.6955C16.4876 19.6955 16.4616 19.6997 16.4443 19.7165C16.427 19.7333 16.4183 19.7585 16.4183 19.792V20.2324C16.544 20.2282 16.6307 20.2114 16.6784 20.1695ZM16.4313 20.8574C16.4486 20.8868 16.4833 20.8993 16.531 20.8993C16.6307 20.8993 16.7001 20.8742 16.7434 20.8238C16.7868 20.7735 16.8041 20.698 16.8041 20.6099C16.8041 20.4715 16.7564 20.3792 16.6697 20.3289C16.6177 20.2995 16.531 20.2869 16.4183 20.2869V20.7777C16.414 20.8154 16.4183 20.8406 16.4313 20.8574ZM17.2983 20.9119C17.359 20.9119 17.4023 20.9035 17.4283 20.8909C17.4717 20.87 17.489 20.8322 17.489 20.7693V19.8214C17.489 19.7626 17.4673 19.7249 17.4283 19.7081C17.4023 19.6997 17.359 19.6871 17.2939 19.6871V19.6368H18.0352V19.6871C17.9658 19.6913 17.9225 19.6955 17.9008 19.7081C17.8575 19.7291 17.8401 19.7668 17.8401 19.8214V20.7735C17.8401 20.828 17.8575 20.8616 17.8921 20.8826C17.9225 20.9035 17.9745 20.9119 18.0439 20.9119V20.9623H17.3026L17.2983 20.9119ZM18.1436 19.6326H19.418V20.0269H19.3573C19.3357 19.8885 19.2793 19.7878 19.1883 19.7375C19.1363 19.7081 19.0539 19.6913 18.9499 19.6913V20.7274C18.9499 20.7987 18.9672 20.849 18.9932 20.8742C19.0192 20.8993 19.0756 20.9077 19.1623 20.9077V20.9581H18.4123V20.9119C18.4947 20.9119 18.5511 20.9035 18.5771 20.8784C18.6031 20.8532 18.6204 20.8071 18.6204 20.7316V19.6955C18.5164 19.6997 18.4383 19.7165 18.382 19.7417C18.278 19.792 18.2216 19.8885 18.2129 20.0311H18.1522V19.6326H18.1436ZM20.8095 19.7962C20.9526 19.9262 21.0263 20.0982 21.0263 20.3037C21.0263 20.5093 20.9526 20.677 20.8095 20.8113C20.6708 20.9413 20.4887 21 20.2763 21C20.0509 21 19.8689 20.9287 19.7215 20.7903C19.5871 20.6603 19.5264 20.5009 19.5264 20.3079C19.5264 20.1024 19.5958 19.9346 19.7345 19.7962C19.8732 19.662 20.0553 19.5949 20.2763 19.5949C20.4887 19.6033 20.6665 19.6704 20.8095 19.7962ZM20.6058 20.677C20.6361 20.5806 20.6535 20.4589 20.6535 20.3079C20.6535 20.0982 20.6231 19.943 20.5538 19.834C20.4844 19.7291 20.3934 19.6746 20.2807 19.6746C20.1203 19.6746 20.0119 19.7626 19.9556 19.9388C19.9252 20.0353 19.9079 20.1527 19.9079 20.3037C19.9079 20.4589 19.9252 20.5806 19.9556 20.6728C20.0119 20.849 20.1203 20.9329 20.2807 20.9329C20.4324 20.9371 20.5408 20.849 20.6058 20.677Z" fill="#6EBB1F"/>
</svg>
