<svg width="34" height="24" viewBox="0 0 34 24" fill="none" xmlns="http://www.w3.org/2000/svg">
<rect x="0.5" y="0.5" width="33" height="23" rx="3.5" fill="#0E4595" stroke="#D9D9D9"/>
<path d="M18.0821 17.9062C18.0821 18.1188 18.0362 18.3148 17.9403 18.49C17.8486 18.6651 17.7235 18.7986 17.5692 18.8945C17.4608 18.9612 17.3399 19.0071 17.2106 19.0404C17.0771 19.0696 16.902 19.0863 16.6852 19.0863H16.0889V16.7261H16.6768C16.9062 16.7261 17.0897 16.7427 17.2273 16.7761C17.3649 16.8095 17.4775 16.8553 17.5734 16.9137C17.736 17.0138 17.8611 17.1472 17.9487 17.314C18.0362 17.4808 18.0821 17.6768 18.0821 17.9062ZM17.7527 17.902C17.7527 17.7185 17.7193 17.5601 17.6568 17.435C17.5942 17.3099 17.4941 17.2098 17.369 17.1347C17.2773 17.0805 17.1772 17.0472 17.073 17.0263C16.9687 17.0055 16.8436 16.9971 16.6977 16.9971H16.4016V18.8194H16.6977C16.8478 18.8194 16.9812 18.8069 17.0938 18.786C17.2064 18.7652 17.3107 18.7235 17.4024 18.6609C17.5192 18.5859 17.6067 18.4858 17.6651 18.3649C17.7235 18.2356 17.7527 18.0855 17.7527 17.902V17.902ZM20.0462 18.2273H18.741C18.741 18.3357 18.7577 18.4316 18.791 18.5108C18.8244 18.5901 18.8702 18.6568 18.9245 18.711C18.9787 18.761 19.0454 18.7986 19.1204 18.8236C19.1955 18.8486 19.2789 18.8611 19.3706 18.8611C19.4916 18.8611 19.6125 18.8361 19.7334 18.7902C19.8544 18.7402 19.9419 18.6943 19.9961 18.6484H20.0128V18.9737C19.9128 19.0154 19.8085 19.0529 19.7042 19.0779C19.6 19.103 19.4916 19.1196 19.3748 19.1196C19.0829 19.1196 18.8536 19.0404 18.6868 18.882C18.52 18.7235 18.4407 18.4983 18.4407 18.2064C18.4407 17.9187 18.52 17.6893 18.6784 17.5184C18.8369 17.3474 19.0454 17.264 19.3039 17.264C19.5416 17.264 19.7251 17.3349 19.8544 17.4725C19.9836 17.6101 20.0504 17.8103 20.0504 18.0646V18.2273H20.0462V18.2273ZM19.7543 18.0021C19.7543 17.8478 19.7126 17.7269 19.6375 17.6393C19.5583 17.5517 19.4415 17.51 19.2831 17.51C19.1246 17.51 18.9953 17.5559 18.9036 17.6518C18.8119 17.7477 18.7535 17.8645 18.741 18.0021H19.7543V18.0021ZM19.7918 16.4258L19.3581 17.018H19.1204L19.404 16.4258H19.7918V16.4258ZM22.0561 18.1856C22.0561 18.3315 22.0353 18.465 21.9936 18.5859C21.9519 18.7026 21.8977 18.8027 21.8268 18.882C21.7517 18.9654 21.6683 19.0279 21.5808 19.0696C21.489 19.1113 21.3931 19.1322 21.2847 19.1322C21.1846 19.1322 21.097 19.1196 21.022 19.0946C20.9469 19.0696 20.8719 19.0404 20.801 18.9987L20.7801 19.0821H20.5007V16.6176H20.7968V17.4975C20.8802 17.4308 20.9678 17.3724 21.0637 17.3307C21.1596 17.2848 21.2638 17.264 21.3806 17.264C21.5891 17.264 21.7559 17.3432 21.8768 17.5059C21.9936 17.6643 22.0561 17.8937 22.0561 18.1856V18.1856ZM21.7476 18.1939C21.7476 17.9812 21.7142 17.8228 21.6433 17.7144C21.5724 17.6059 21.4598 17.5517 21.3055 17.5517C21.218 17.5517 21.1304 17.5684 21.0428 17.6059C20.9553 17.6435 20.8719 17.6935 20.7968 17.7519V18.7652C20.8802 18.8027 20.9553 18.8277 21.0136 18.8444C21.0762 18.8611 21.1429 18.8653 21.2221 18.8653C21.3889 18.8653 21.514 18.8111 21.6099 18.7026C21.7017 18.5942 21.7476 18.4233 21.7476 18.1939V18.1939ZM22.8401 17.018H22.5023V16.7094H22.8401V17.018ZM22.8192 19.0821H22.5232V17.314H22.8192V19.0821ZM24.3288 19.0654C24.2746 19.0821 24.212 19.0905 24.1453 19.103C24.0786 19.1113 24.0202 19.1155 23.9702 19.1155C23.7909 19.1155 23.6532 19.0654 23.5573 18.9695C23.4614 18.8736 23.4156 18.7152 23.4156 18.5025V17.5601H23.2154V17.3099H23.4156V16.8011H23.7116V17.3099H24.3246V17.5601H23.7116V18.3649C23.7116 18.4566 23.7158 18.5317 23.72 18.5817C23.7241 18.6318 23.7408 18.6818 23.7658 18.7277C23.7909 18.7694 23.82 18.8027 23.8617 18.8194C23.9034 18.8403 23.966 18.8486 24.0494 18.8486C24.0994 18.8486 24.1495 18.8403 24.1995 18.8277C24.2537 18.8152 24.2913 18.8027 24.3121 18.7902H24.3288V19.0654V19.0654ZM26.197 18.1981C26.197 18.4858 26.1219 18.7152 25.9759 18.882C25.83 19.0488 25.6298 19.1322 25.3838 19.1322C25.1336 19.1322 24.9334 19.0488 24.7875 18.882C24.6415 18.7152 24.5665 18.4858 24.5665 18.1981C24.5665 17.9103 24.6415 17.681 24.7875 17.5142C24.9334 17.3474 25.1336 17.264 25.3838 17.264C25.634 17.264 25.83 17.3474 25.9759 17.5142C26.1219 17.681 26.197 17.9103 26.197 18.1981ZM25.8884 18.1981C25.8884 17.9687 25.8425 17.7978 25.7549 17.6852C25.6632 17.5726 25.5423 17.5184 25.3796 17.5184C25.217 17.5184 25.0919 17.5726 25.0043 17.6852C24.9168 17.7978 24.8709 17.9687 24.8709 18.1981C24.8709 18.4191 24.9168 18.5901 25.0043 18.7026C25.0961 18.8152 25.2212 18.8736 25.3796 18.8736C25.5381 18.8736 25.6632 18.8152 25.7508 18.7026C25.8425 18.5901 25.8884 18.4233 25.8884 18.1981V18.1981ZM11.6645 5.14595L9.47522 10.6754L8.59118 5.97578C8.48693 5.45036 8.07827 5.14595 7.62374 5.14595H4.05004L4 5.37947C4.73392 5.53793 5.56792 5.79647 6.07249 6.07169C6.38107 6.23849 6.46864 6.38444 6.57289 6.78476L8.24924 13.265H10.4677L13.8704 5.14595H11.6645V5.14595ZM14.7711 5.14595L13.0322 13.265H15.1339L16.8728 5.14595H14.7711ZM26.8183 7.34354L27.4563 10.3918H25.7132L26.8183 7.34354ZM26.5097 5.14595C26.1052 5.14595 25.7674 5.37947 25.6173 5.74226L22.4648 13.2691H24.6707L25.1086 12.0557H27.8024L28.0568 13.2691H30L28.3028 5.15012H26.5097V5.14595ZM17.4441 7.68131C17.4316 8.85309 18.4866 9.50361 19.2831 9.89142C20.1004 10.2876 20.3756 10.5461 20.3715 10.9006C20.3673 11.4468 19.7168 11.6845 19.1121 11.697C18.0571 11.7137 17.4441 11.4135 16.9562 11.1841L16.5767 12.9647C17.0688 13.1899 17.9737 13.3859 18.9119 13.3942C21.1179 13.3942 22.5607 12.3059 22.569 10.617C22.5774 8.47362 19.6042 8.35686 19.625 7.39775C19.6334 7.10585 19.9086 6.79727 20.5174 6.71804C20.8176 6.68051 21.6475 6.64715 22.5899 7.08083L22.961 5.35862C22.4565 5.17514 21.8059 5 20.997 5C18.9161 5 17.4566 6.10088 17.4441 7.68131" fill="white"/>
</svg>
