<svg width="34" height="24" viewBox="0 0 34 24" fill="none" xmlns="http://www.w3.org/2000/svg">
<rect x="0.5" y="0.5" width="33" height="23" rx="3.5" fill="url(#paint0_linear)" stroke="#D9D9D9"/>
<path d="M9.47596 9.03407C9.26444 8.26022 9.06324 7.51217 8.85688 6.75895C8.65568 6.03153 8.72791 5.88708 9.45533 5.70136C13.2472 4.73147 17.0339 3.76673 20.8258 2.802C20.9599 2.76589 21.0889 2.72461 21.223 2.70398C21.6357 2.63691 21.8679 2.7762 21.9762 3.17861C22.1568 3.84928 22.3219 4.52511 22.487 5.20093C22.5901 5.61881 22.5901 5.61366 22.9874 5.45889C23.9934 5.0668 25.0252 4.85012 26.1086 5.06164C27.3416 5.29896 28.2135 6.2998 28.198 7.54828C28.1877 8.20863 27.9142 8.80192 27.4499 9.28686C27.3777 9.35909 27.3055 9.43132 27.2332 9.5087C27.2281 9.51386 27.2281 9.52418 27.2178 9.57061C27.6511 9.47259 28.069 9.37973 28.492 9.28686C28.5694 9.27139 28.6417 9.25075 28.719 9.24559C28.9512 9.24043 29.0544 9.37973 28.9718 9.5964C28.9357 9.68927 28.8738 9.77697 28.8119 9.85951L20.2531 21.1577C19.9178 21.6014 19.7011 21.6478 19.1388 21.4105C15.5894 19.8886 12.0606 18.3306 8.53702 16.7468C7.7219 16.3805 6.90678 16.0194 6.09166 15.6582C5.97816 15.6066 5.8337 15.586 5.81823 15.4209C5.80275 15.2558 5.93173 15.2042 6.05038 15.1526C6.20515 15.0907 6.12261 14.9824 6.09681 14.8947C5.76148 13.5895 5.4313 12.2842 5.09597 10.979C5.03406 10.7365 4.98247 10.4941 4.90509 10.2568C4.83802 10.0659 4.90508 10.0143 5.08049 9.97301C6.11745 9.7357 7.15441 9.49838 8.18621 9.24559C8.60409 9.14757 9.02197 9.05471 9.47596 9.03407Z" fill="#FEFEFE"/>
<path d="M6.61269 15.3848C7.04604 15.2713 7.42265 15.1733 7.79926 15.0752C8.86201 14.8018 9.92477 14.5284 10.9927 14.255C11.1165 14.224 11.2352 14.2085 11.2094 14.0331C11.1887 13.899 11.2919 13.8835 11.3796 13.8577C11.7253 13.7649 12.0761 13.6668 12.4217 13.5791C12.7313 13.5017 12.9221 13.3212 12.9428 12.9962C12.9479 12.8775 12.9995 12.8362 13.1027 12.8104C13.4845 12.7124 13.8662 12.6041 14.2429 12.5009C14.3512 12.4699 14.4337 12.4699 14.4956 12.5938C14.6143 12.8362 14.831 12.9188 15.0786 12.862C15.6925 12.7279 16.3013 12.5834 16.9049 12.4287C16.9978 12.4029 17.0906 12.3255 17.1474 12.2481C17.2557 12.0882 17.3847 12.0624 17.5652 12.0933C18.5919 12.2533 19.5257 12.0056 20.3666 11.4072C20.4749 11.3298 20.5575 11.2524 20.6968 11.3762C20.7845 11.4536 20.9083 11.4175 21.0166 11.3917C21.3468 11.304 21.6821 11.2215 22.0123 11.1338C22.4457 11.0203 22.4921 10.9532 22.4457 10.5095C22.4405 10.4631 22.4457 10.4115 22.4457 10.3444C22.75 10.5095 23.0596 10.6127 23.3898 10.6179C23.5445 10.6179 23.5394 10.7417 23.5548 10.8345C23.5858 10.9893 23.6374 11.0203 23.7973 10.979C25.2212 10.5972 26.6502 10.2309 28.0793 9.85434C28.1464 9.83886 28.2083 9.8079 28.2857 9.8337C28.296 9.93172 28.2186 9.98331 28.1722 10.0452C25.3811 13.7184 22.5901 17.3916 19.8043 21.07C19.7011 21.2093 19.6237 21.2196 19.4689 21.1525C15.2489 19.2644 11.0236 17.3813 6.80357 15.4983C6.7623 15.4673 6.71587 15.4364 6.61269 15.3848Z" fill="#EA008A"/>
<path d="M11.2712 10.4322C11.3486 10.0401 11.457 9.65318 11.4982 9.2611C11.5344 8.88449 11.6891 8.71424 12.0657 8.6575C12.4939 8.59043 12.917 8.45629 13.3348 8.33764C13.5309 8.28089 13.6547 8.32732 13.7888 8.48725C14.346 9.12696 14.9238 9.7512 15.5326 10.427C15.4707 10.004 15.4552 9.64287 15.5068 9.28173C15.6048 8.59043 15.9608 8.06421 16.5489 7.70824C17.6117 7.06336 18.7621 6.78994 20.0003 6.99114C20.4955 7.07368 20.8979 7.32131 21.1817 7.74435C21.2694 7.87849 21.3003 7.95587 21.094 8.0023C20.6039 8.12096 20.1138 8.26025 19.6288 8.39439C19.5514 8.41502 19.4999 8.4305 19.4225 8.35827C19.0355 8.01262 18.4474 7.97135 17.9831 8.23446C17.5497 8.48209 17.3434 8.96188 17.4414 9.49841C17.5755 10.2258 18.0811 10.5973 18.8137 10.4735C19.1594 10.4167 19.5153 10.3548 19.732 10.0195C19.7784 9.94725 19.8507 9.85438 19.8042 9.78216C19.7526 9.70477 19.6495 9.77184 19.5669 9.78216C19.3657 9.81827 19.1181 9.97304 18.9839 9.87502C18.855 9.78216 18.855 9.50357 18.8034 9.30753C18.7157 8.97219 18.7157 8.97219 19.0665 8.88965C19.7939 8.7194 20.5213 8.54916 21.2488 8.38407C21.3623 8.35827 21.4242 8.3428 21.4242 8.19319C21.4242 7.19234 21.8678 6.44428 22.7655 5.99029C23.8283 5.45891 24.9426 5.19581 26.1292 5.47955C27.0578 5.70139 27.6046 6.31015 27.7181 7.24909C27.8316 8.16223 27.5066 8.93608 26.7225 9.44682C25.995 9.92661 25.1438 10.0917 24.2977 10.2258C23.8695 10.2981 23.4413 10.3084 23.0131 10.2362C22.6107 10.1639 22.2651 9.98852 21.9813 9.69961C21.9297 9.64802 21.9039 9.56032 21.7904 9.56548C21.8782 9.90597 21.9555 10.2413 22.0484 10.5766C22.0742 10.6747 22.0845 10.7314 21.9607 10.7572C21.6099 10.8398 21.2642 10.9326 20.9186 11.0306C20.8102 11.0616 20.7844 11.01 20.7586 10.9275C20.738 10.8552 20.7483 10.7727 20.6813 10.7159C19.8094 11.6652 18.1276 11.9799 16.487 11.464C16.6624 11.6652 16.7965 11.8303 16.9616 12.016C16.4045 12.1605 15.8731 12.2998 15.3365 12.439C15.2798 12.4545 15.2179 12.4597 15.1611 12.4855C14.9496 12.5783 14.7845 12.5371 14.6659 12.3307C14.5833 12.1811 14.4647 12.1553 14.2996 12.2069C13.8404 12.3462 13.3761 12.4752 12.9066 12.5835C12.7106 12.6299 12.6229 12.7125 12.6384 12.9085C12.6539 13.0684 12.5868 13.1458 12.4165 13.1871C11.8387 13.3212 11.2712 13.476 10.6522 13.6359C10.7708 13.0014 10.8843 12.4029 11.003 11.7993C10.9669 11.7942 10.9411 11.789 10.9359 11.7942C10.4561 12.4029 9.7287 12.501 9.04771 12.7022C8.84135 12.7641 8.63499 12.8157 8.42348 12.8621C8.27386 12.893 8.22743 12.9498 8.26871 13.1097C8.35641 13.4038 8.41832 13.7082 8.50086 14.0074C8.53181 14.126 8.52149 14.1879 8.37704 14.2241C7.82503 14.353 7.27817 14.4872 6.73132 14.6419C6.5456 14.6935 6.55592 14.5852 6.53012 14.482C6.26185 13.4347 5.99358 12.3875 5.73048 11.3402C5.66341 11.0822 5.6015 10.8243 5.52927 10.5663C5.49832 10.4477 5.50348 10.3754 5.64277 10.3445C6.69521 10.1072 7.72701 9.76668 8.79492 9.59127C9.25407 9.51389 9.71838 9.49841 10.1775 9.59643C10.6728 9.69445 11.0546 9.93693 11.2712 10.4322Z" fill="#005DA8"/>
<path d="M15.0476 9.29202C14.6865 8.89478 14.3512 8.52333 14.0262 8.15188C13.8507 7.95068 13.6547 7.87845 13.3864 7.95584C12.8086 8.12093 12.2257 8.27054 11.6479 8.42531C11.4157 8.48722 11.2712 8.61103 11.2403 8.85866C11.2197 9.03923 11.1732 9.21463 11.1423 9.39004C11.1216 9.50354 11.0804 9.53965 10.9772 9.46227C10.7141 9.27654 10.4097 9.18368 10.1002 9.11145C9.96602 9.0805 9.91958 9.01859 9.88863 8.89478C9.67711 8.07965 9.46559 7.26453 9.2386 6.45457C9.18701 6.27916 9.23344 6.24305 9.39337 6.20178C13.015 5.27316 16.6418 4.34454 20.2634 3.41076C20.6194 3.31789 20.9805 3.23019 21.3313 3.12701C21.4706 3.08574 21.5325 3.12185 21.5686 3.26115C21.7698 4.06079 21.9813 4.85528 22.1877 5.65492C22.2238 5.79937 22.2083 5.91803 22.069 6.01089C21.7027 6.25337 21.4396 6.59386 21.2436 6.98079C21.2023 7.05817 21.1817 7.14072 21.0579 7.05817C20.1602 6.43393 19.1697 6.46489 18.1585 6.68156C17.7406 6.77443 17.3228 6.88792 16.9255 7.05301C15.9814 7.45026 15.3314 8.11061 15.1044 9.13209C15.0889 9.17336 15.0734 9.21463 15.0476 9.29202Z" fill="#EA008A"/>
<path d="M16.7243 17.0408C16.6005 16.9996 16.5799 16.8706 16.5179 16.7829C16.4715 16.7519 16.4664 16.6952 16.4251 16.6384C16.2652 16.8861 16.1207 17.1285 15.8989 17.304C15.7802 17.3968 15.6616 17.5206 15.4913 17.3968C15.3056 17.2833 15.254 17.1182 15.3159 16.9119C15.5326 16.1587 15.9453 15.5344 16.5437 15.0288C16.7707 14.8328 17.0287 14.8947 17.2763 14.8947C17.364 14.8947 17.4569 14.9566 17.4466 15.0804C17.4311 15.3848 17.2196 15.6118 17.137 15.8852C17.1112 15.9729 17.0493 16.0503 17.0338 16.169C17.1473 16.1329 17.1938 16.009 17.297 15.9832C17.5085 15.7924 17.6839 15.5808 17.8283 15.3384C18.143 14.8122 18.5661 14.3994 19.1594 14.1982C19.4328 14.1054 19.5308 14.1724 19.5979 14.4459C19.6495 14.7502 19.4173 14.8792 19.2419 15.0443C19.1594 15.1217 19.0562 15.163 18.9478 15.1888C18.8808 15.1991 18.8137 15.1991 18.7518 15.1681C18.6589 15.0856 18.7208 15.0134 18.7673 14.9463C18.8343 14.8586 18.9066 14.776 18.9582 14.678C18.5403 14.9721 18.2875 15.3848 18.1688 15.8749C18.1482 15.9626 18.1172 16.071 18.2772 16.071C18.5248 16.009 18.7208 15.8594 18.9014 15.6892C19.1439 15.4622 19.3502 15.1991 19.6185 15.003C19.8455 14.8018 20.0158 14.5594 20.1241 14.2756C20.2015 14.0693 20.3614 13.9764 20.5729 13.9558C20.7019 13.9454 20.7174 14.0073 20.6967 14.1105C20.6709 14.3375 20.5213 14.5129 20.4491 14.7245C20.3924 14.8844 20.3305 15.0443 20.3098 15.2146C20.2995 15.2971 20.2582 15.4054 20.3872 15.4519C20.769 15.1423 21.0785 14.7657 21.4138 14.4098C21.4809 14.3375 21.4912 14.2395 21.517 14.1518C21.8369 13.0839 22.4198 12.1965 23.2917 11.5001C23.5651 11.2782 23.7663 11.3505 23.8128 11.6755C23.8644 11.8303 23.7767 11.9592 23.7148 12.083C23.3588 12.7795 22.9203 13.4244 22.4095 14.0125C22.2857 14.157 22.1567 14.2963 22.0587 14.4562C21.9607 14.6161 21.8782 14.7915 22.0432 14.9721C22.2806 14.8689 22.4456 14.6832 22.6107 14.5026C22.9048 14.1879 23.1834 13.8629 23.4723 13.5482C23.5136 13.5018 23.5445 13.4037 23.6219 13.4347C23.7406 13.4863 23.6477 13.5792 23.6374 13.6565C23.6477 13.7184 23.6271 13.7752 23.5909 13.8268C23.2401 14.353 22.9048 14.8895 22.4405 15.3229C22.2444 15.5086 22.0226 15.6531 21.7337 15.5035C21.6202 15.4261 21.5531 15.3126 21.4758 15.2042C21.4138 15.1681 21.3726 15.0701 21.2849 15.1991C21.1198 15.4364 20.9444 15.6685 20.7174 15.8543C20.5317 16.0039 20.3408 16.1587 20.0725 16.0452C19.7836 15.942 19.7217 15.715 19.7526 15.4416V15.4158C19.7423 15.4106 19.732 15.4106 19.7217 15.4054C19.3864 15.9317 18.953 16.3444 18.401 16.6281C18.2411 16.7107 18.0811 16.7519 17.9109 16.6488C17.8387 16.5765 17.7664 16.5095 17.6942 16.4372C17.6013 16.3444 17.5343 16.3237 17.4466 16.463C17.3279 16.6436 17.1989 16.8138 17.039 16.9583C16.9461 17.0099 16.8636 17.1131 16.7243 17.0408ZM14.5988 15.132C14.8774 15.0804 15.1457 14.9618 15.4397 14.9721C15.6151 14.9772 15.7544 15.0288 15.8421 15.1836C15.8576 15.3229 15.7441 15.3538 15.6564 15.39C15.1921 15.5705 14.7484 15.8027 14.2893 15.9884C13.9746 16.1174 13.763 16.3186 13.6599 16.6539C13.5464 17.0202 13.3813 17.371 13.309 17.7579C13.2729 17.9437 13.2007 17.9591 12.9582 17.8663C12.8138 17.7992 12.7777 17.6857 12.7777 17.5361C12.7828 17.1956 12.8551 16.8706 13.0047 16.5714C13.0821 16.4166 13.1078 16.3031 12.9479 16.1793C12.8344 16.0916 12.8138 15.9471 12.9737 15.8955C13.6083 15.6892 13.7992 15.0959 14.1345 14.6264C14.1139 14.5387 14.1809 14.4871 14.2274 14.4098C13.7785 14.6058 13.34 14.7967 12.8809 14.9308C12.7519 14.9669 12.6177 15.0391 12.4888 14.9308C12.205 14.7399 12.1947 14.6367 12.4578 14.4304C12.5816 14.3272 12.7158 14.2137 12.8654 14.1621C14.0158 13.7804 15.0786 13.1148 16.3219 13.0168C16.6418 12.991 16.9719 12.9962 17.2041 13.2902C17.1525 13.445 17.0029 13.4399 16.8894 13.476C16.2806 13.6617 15.677 13.8629 15.0837 14.0796C14.9496 14.126 14.8722 14.1879 14.8464 14.3427C14.8206 14.5232 14.6865 14.6625 14.5936 14.8173C14.5317 14.9257 14.4389 15.0237 14.4028 15.1475C14.4698 15.1578 14.5317 15.1062 14.5988 15.132Z" fill="#FEFEFE"/>
<path d="M12.9531 17.856C13.144 17.9075 13.2317 17.8817 13.2678 17.6393C13.34 17.1646 13.5464 16.7261 13.7373 16.2876C13.7992 16.138 13.954 16.0761 14.0933 16.009C14.5988 15.782 15.1096 15.5602 15.6152 15.328C15.6977 15.2919 15.8061 15.2919 15.8422 15.1784C16.0485 15.3538 16.0485 15.3693 15.8215 15.4725C15.2747 15.7201 14.7278 15.9678 14.1861 16.2102C14.0056 16.2928 13.8869 16.4218 13.825 16.6178C13.6754 17.0615 13.4432 17.4793 13.4174 17.9591C13.4123 18.0365 13.371 18.0778 13.2988 18.0468C13.175 18.0056 13.015 18.0107 12.9531 17.856ZM22.033 14.9514C21.873 14.9772 21.8834 14.8534 21.873 14.7554C21.8524 14.5387 21.9762 14.3839 22.1104 14.2343C22.6933 13.5791 23.2195 12.8878 23.6168 12.1037C23.689 11.9592 23.7458 11.8044 23.8077 11.6548C23.8386 11.6394 23.8438 11.562 23.9057 11.6084C23.9779 11.66 23.9831 11.7219 23.9573 11.8096C23.8438 12.1914 23.6426 12.5319 23.4362 12.8672C23.0854 13.4295 22.683 13.9506 22.2342 14.4355C22.1 14.5851 22.0123 14.7502 22.033 14.9514Z" fill="#A4017D"/>
<path d="M14.5988 15.132C14.4905 15.1785 14.3821 15.23 14.2067 15.3074C14.4079 14.9773 14.5782 14.709 14.7432 14.4356C14.7897 14.3582 14.8619 14.2963 14.8 14.1828C14.7226 14.0486 14.8825 14.0796 14.9238 14.0589C15.6203 13.7804 16.3425 13.5585 17.0596 13.3315C17.1061 13.3161 17.1525 13.2954 17.1989 13.2748C17.2454 13.3212 17.3537 13.3161 17.3485 13.3986C17.3485 13.5018 17.235 13.4863 17.168 13.5069C16.5283 13.7236 15.8885 13.93 15.2488 14.1518C15.1199 14.1982 14.9083 14.1879 14.9806 14.4459C14.996 14.5129 14.8877 14.6213 14.8309 14.7038C14.7484 14.8483 14.6504 14.9773 14.5988 15.132Z" fill="#A5027D"/>
<path d="M21.7286 15.4828C22.0381 15.5292 22.2754 15.3951 22.4818 15.1784C22.9255 14.709 23.266 14.1621 23.6323 13.6359C23.6942 13.6256 23.7251 13.5121 23.8025 13.5843C23.8644 13.6462 23.8283 13.7133 23.7922 13.77C23.4053 14.3685 23.0287 14.9824 22.4921 15.4673C22.2239 15.7098 21.935 15.7046 21.7286 15.4828Z" fill="#A5017D"/>
<path d="M17.0235 14.6419C16.8636 14.6367 16.8378 14.5439 16.9255 14.4407C17.1628 14.1466 17.3589 13.8319 17.4775 13.4656C17.5343 13.2851 17.7252 13.3367 17.9006 13.5791C17.9676 13.6462 17.9676 13.7288 17.947 13.8165C17.8748 14.1363 17.3589 14.5955 17.0235 14.6419Z" fill="#FEFCFD"/>
<path d="M19.6134 14.9927C19.2368 15.457 18.8653 15.9265 18.2669 16.1225C18.143 15.8698 18.2978 15.6634 18.4062 15.4622C18.4784 15.3229 18.5197 15.1269 18.7363 15.1217C18.8034 15.1269 18.8705 15.1269 18.9375 15.132C19.0407 15.2662 19.1439 15.1784 19.2522 15.1372C19.3812 15.0856 19.4534 14.936 19.6082 14.9308C19.6082 14.9463 19.6134 14.9721 19.6134 14.9927Z" fill="#EA018B"/>
<path d="M17.9057 16.6281C18.2308 16.6745 18.4836 16.5198 18.726 16.3392C19.0252 16.1174 19.2729 15.8543 19.5154 15.5757C19.5721 15.5086 19.6134 15.4106 19.7114 15.39C19.7475 15.6376 19.634 15.813 19.4638 15.9781C19.211 16.2257 18.9633 16.4733 18.6641 16.6591C18.3649 16.8396 18.0812 16.8242 17.9057 16.6281Z" fill="#A5037E"/>
<path d="M20.0674 16.0194C20.3408 16.0245 20.5575 15.911 20.7484 15.715C20.9754 15.4828 21.1663 15.2197 21.3881 14.9411C21.4191 15.034 21.4449 15.1114 21.4655 15.1836C21.2798 15.4622 21.0734 15.7201 20.8258 15.9471C20.6607 16.1019 20.475 16.1845 20.2428 16.1638C20.1499 16.1535 20.0829 16.1277 20.0674 16.0194Z" fill="#A5027E"/>
<path d="M12.4888 14.9205C12.9428 14.8947 13.3349 14.6832 13.7476 14.5284C13.9385 14.4562 14.119 14.3736 14.346 14.3324C14.2738 14.4252 14.2016 14.5181 14.1345 14.611C13.7321 14.7554 13.3297 14.8999 12.9273 15.0392C12.7519 15.1011 12.5868 15.1217 12.4888 14.9205Z" fill="#A5037E"/>
<path d="M17.0236 14.6419C17.2815 14.5026 17.524 14.3478 17.7149 14.1208C17.8439 13.9661 17.9367 13.7958 17.8954 13.5843C18.107 13.7339 18.0966 13.9248 17.9883 14.126C17.8181 14.4458 17.5188 14.6161 17.2145 14.7812C17.0752 14.8534 17.0391 14.7605 17.0236 14.6419Z" fill="#A6037E"/>
<path d="M20.3821 15.4364C20.2479 15.5448 20.2066 15.4828 20.2221 15.3435C20.2686 14.8844 20.4646 14.4872 20.6916 14.1002C20.8825 14.0899 20.8876 14.1725 20.8102 14.3169C20.6297 14.6729 20.444 15.034 20.3821 15.4364Z" fill="#A6047F"/>
<path d="M15.4861 17.3917C15.677 17.4329 15.8111 17.3298 15.9298 17.2008C16.131 16.9841 16.2858 16.7313 16.4405 16.4682C16.5179 16.5765 16.5076 16.6797 16.5179 16.7777C16.3786 16.9686 16.2445 17.1647 16.0949 17.3555C15.8937 17.6135 15.6925 17.6187 15.4861 17.3917Z" fill="#A5037E"/>
<path d="M20.6452 13.543C20.4801 13.4966 20.4956 13.3728 20.5317 13.2541C20.5988 13.0478 20.7226 12.8827 20.9289 12.8208C21.0476 12.7847 21.0992 12.9033 21.1404 13.0013C21.1095 13.3418 20.9289 13.543 20.6452 13.543Z" fill="#FDFAFC"/>
<path d="M17.2918 15.9781C17.2093 16.1225 17.0906 16.2257 16.91 16.3547C17.0339 15.8646 17.2505 15.4725 17.4414 15.0753C17.6375 15.0856 17.6065 15.1939 17.5497 15.3177C17.4569 15.5344 17.3382 15.7408 17.2918 15.9781Z" fill="#A70580"/>
<path d="M16.7243 17.0408C16.9513 17.0047 17.0597 16.819 17.1886 16.6642C17.3279 16.5043 17.4517 16.3341 17.6065 16.138C17.6426 16.2515 17.6684 16.3341 17.6942 16.4218C17.4775 16.6126 17.3486 16.8809 17.1319 17.077C16.9668 17.2162 16.843 17.2524 16.7243 17.0408Z" fill="#A5037E"/>
<path d="M19.6082 14.9257C19.4741 15.0907 19.2987 15.2094 19.0975 15.2713C19.0098 15.2971 18.8447 15.3435 18.9376 15.132C19.2523 14.9927 19.4999 14.7864 19.5928 14.4355C19.7217 14.4098 19.7785 14.4562 19.7475 14.58C19.7166 14.6987 19.6547 14.8122 19.6082 14.9257Z" fill="#AA0480"/>
<path d="M20.6451 13.543C20.9237 13.4657 21.0321 13.2335 21.1404 13.0013C21.1507 12.9962 21.1559 12.991 21.1662 12.991C21.29 13.0375 21.3003 13.1303 21.2591 13.2335C21.1817 13.4244 21.0785 13.5998 20.8721 13.6772C20.7586 13.7236 20.6864 13.6514 20.6451 13.543Z" fill="#A7057F"/>
<path d="M25.7526 7.83719C25.7526 8.49238 25.216 8.97217 24.4886 8.96701C23.8231 8.96185 23.364 8.44079 23.364 7.69273C23.364 7.0427 23.8592 6.59903 24.5918 6.59903C25.2625 6.58871 25.7526 7.11493 25.7526 7.83719Z" fill="#FEFEFE"/>
<path d="M8.80523 10.6953C9.08898 10.6901 9.26954 10.8088 9.32113 11.0203C9.36756 11.2163 9.23343 11.4382 8.97548 11.5259C8.68657 11.6239 8.3822 11.691 8.08813 11.7684C8.01075 11.789 7.954 11.7838 7.93852 11.691C7.93336 11.6652 7.91788 11.6445 7.91273 11.6188C7.87661 11.3866 7.65478 11.0513 7.78375 10.9532C8.02106 10.783 8.37704 10.7727 8.68142 10.7004C8.71753 10.6901 8.7588 10.6953 8.80523 10.6953Z" fill="#FDFEFE"/>
<path d="M12.9737 9.92657C13.3194 10.3702 13.6238 10.7623 13.9488 11.1854C13.5567 11.2782 13.1956 11.3659 12.7932 11.464C12.8551 10.9635 12.9118 10.4786 12.9737 9.92657Z" fill="#FDFDFE"/>
<path d="M18.7364 15.1217C18.4526 15.3951 18.2979 15.7305 18.2669 16.1225C18.0451 16.2206 18.076 16.0348 18.0915 15.9368C18.205 15.328 18.5145 14.8483 19.0769 14.5026C19.0769 14.7967 18.7725 14.8844 18.7364 15.1217Z" fill="#A5047F"/>
<path d="M16.8482 15.3023C16.5438 15.8182 16.2394 16.3341 15.8164 16.7674C15.966 16.138 16.2859 15.6376 16.8482 15.3023Z" fill="#A70680"/>
<path d="M23.1731 12.1501C22.8636 12.8414 22.4147 13.5018 22.1877 13.5843C22.4405 13.0375 22.7346 12.5371 23.1112 12.0882C23.1628 12.0727 23.1937 12.0882 23.1731 12.1501Z" fill="#A60881"/>
<path d="M23.1731 12.1501C23.1524 12.1295 23.1318 12.1088 23.1112 12.083C23.137 12.0314 23.1731 11.9489 23.2247 11.9953C23.2814 12.0366 23.2195 12.1037 23.1731 12.1501Z" fill="#B0258F"/>
<defs>
<linearGradient id="paint0_linear" x1="17" y1="0" x2="17" y2="24" gradientUnits="userSpaceOnUse">
<stop stop-color="#FFDE01"/>
<stop offset="1" stop-color="#E3C201"/>
</linearGradient>
</defs>
</svg>
