<svg width="964" height="1410" viewBox="0 0 964 1410" fill="none" xmlns="http://www.w3.org/2000/svg">
<g clip-path="url(#clip0_106_2)">
<path d="M907.631 1345.88C909.76 1347.98 911.332 1350.56 912.207 1353.4C913.083 1356.23 913.235 1359.24 912.65 1362.15C912.065 1365.06 910.761 1367.79 908.854 1370.08C906.948 1372.37 904.497 1374.16 901.72 1375.3C896.745 1377.27 892.216 1380.2 888.397 1383.91L887.372 1384.92C883.472 1388.78 880.385 1393.37 878.291 1398.42C876.625 1402.47 873.526 1405.78 869.57 1407.75C865.615 1409.71 861.073 1410.18 856.79 1409.08C852.506 1407.98 848.773 1405.38 846.285 1401.77C843.797 1398.15 842.723 1393.77 843.264 1389.43C844.164 1381.42 842.426 1373.34 838.307 1366.39C833.583 1358.31 830.89 1347.52 840.497 1338.02C850.015 1328.62 860.961 1331.31 869.193 1335.96C876.34 1339.95 884.583 1341.62 892.745 1340.71C895.459 1340.42 898.207 1340.73 900.784 1341.62C903.361 1342.52 905.701 1343.97 907.631 1345.88Z" fill="#7D5A50"/>
<path d="M828.21 1368.25C821.602 1361.72 811.832 1360.79 806.39 1366.16C800.947 1371.54 801.892 1381.19 808.501 1387.72C815.11 1394.25 824.879 1395.18 830.322 1389.81C835.764 1384.43 834.819 1374.78 828.21 1368.25Z" fill="#7D5A50"/>
<path d="M820.699 1324.21C814.09 1317.68 804.321 1316.75 798.878 1322.12C793.436 1327.5 794.381 1337.15 800.99 1343.68C807.599 1350.21 817.368 1351.14 822.811 1345.77C828.253 1340.39 827.308 1330.74 820.699 1324.21Z" fill="#7D5A50"/>
<path d="M890.857 1306.36C884.248 1299.83 874.479 1298.9 869.036 1304.28C863.594 1309.65 864.539 1319.3 871.148 1325.83C877.756 1332.36 887.526 1333.3 892.968 1327.92C898.411 1322.54 897.466 1312.89 890.857 1306.36Z" fill="#7D5A50"/>
<path d="M846.274 1298.94C839.665 1292.42 829.895 1291.48 824.453 1296.86C819.01 1302.23 819.956 1311.89 826.564 1318.41C833.173 1324.94 842.943 1325.88 848.385 1320.5C853.828 1315.12 852.882 1305.47 846.274 1298.94Z" fill="#7D5A50"/>
<path d="M915.512 1188.17C917.257 1189.89 918.63 1191.95 919.548 1194.21C920.466 1196.48 920.91 1198.9 920.852 1201.34C920.795 1203.77 920.238 1206.18 919.215 1208.39C918.192 1210.61 916.723 1212.6 914.899 1214.24C913.344 1215.65 911.551 1216.77 909.602 1217.56C904.628 1219.54 900.1 1222.47 896.278 1226.18L895.253 1227.19C891.353 1231.05 888.267 1235.64 886.173 1240.69C884.506 1244.74 881.407 1248.06 877.451 1250.02C873.495 1251.98 868.952 1252.46 864.668 1251.36C860.384 1250.26 856.65 1247.65 854.163 1244.04C851.675 1240.42 850.603 1236.03 851.145 1231.69C852.045 1223.69 850.307 1215.61 846.189 1208.66C841.464 1200.57 838.772 1189.79 848.378 1180.29C857.897 1170.89 868.843 1173.58 877.074 1178.23C884.222 1182.22 892.464 1183.89 900.626 1182.98C903.342 1182.69 906.091 1183 908.668 1183.9C911.245 1184.8 913.584 1186.26 915.512 1188.17Z" fill="#7D5A50"/>
<path d="M836.091 1210.54C829.483 1204.01 819.713 1203.08 814.271 1208.45C808.828 1213.83 809.773 1223.48 816.382 1230.01C822.991 1236.54 832.76 1237.47 838.203 1232.1C843.645 1226.72 842.7 1217.07 836.091 1210.54Z" fill="#7D5A50"/>
<path d="M828.58 1166.5C821.971 1159.97 812.202 1159.03 806.759 1164.41C801.317 1169.79 802.262 1179.44 808.871 1185.97C815.48 1192.5 825.249 1193.43 830.692 1188.05C836.134 1182.68 835.189 1173.03 828.58 1166.5Z" fill="#7D5A50"/>
<path d="M898.738 1148.65C892.129 1142.12 882.36 1141.18 876.917 1146.56C871.475 1151.94 872.42 1161.59 879.029 1168.12C885.637 1174.65 895.407 1175.58 900.849 1170.2C906.292 1164.83 905.347 1155.18 898.738 1148.65Z" fill="#7D5A50"/>
<path d="M854.155 1141.23C847.546 1134.7 837.776 1133.77 832.334 1139.14C826.891 1144.52 827.837 1154.17 834.445 1160.7C841.054 1167.23 850.824 1168.16 856.266 1162.79C861.709 1157.41 860.763 1147.76 854.155 1141.23Z" fill="#7D5A50"/>
<path d="M739.937 1220.44C742.066 1222.54 743.638 1225.12 744.513 1227.96C745.389 1230.79 745.541 1233.8 744.956 1236.71C744.371 1239.62 743.067 1242.35 741.16 1244.64C739.254 1246.93 736.803 1248.72 734.026 1249.86C729.051 1251.83 724.522 1254.76 720.703 1258.47L719.678 1259.48C715.778 1263.34 712.691 1267.93 710.597 1272.98C708.931 1277.03 705.832 1280.35 701.876 1282.31C697.921 1284.27 693.379 1284.74 689.095 1283.64C684.812 1282.54 681.079 1279.94 678.591 1276.33C676.103 1272.71 675.029 1268.33 675.57 1263.99C676.47 1255.98 674.731 1247.91 670.613 1240.95C665.889 1232.87 663.196 1222.08 672.803 1212.58C682.321 1203.18 693.267 1205.87 701.499 1210.52C708.646 1214.51 716.889 1216.18 725.05 1215.27C727.765 1214.98 730.513 1215.29 733.09 1216.18C735.667 1217.08 738.007 1218.53 739.937 1220.44Z" fill="#7D5A50"/>
<path d="M660.515 1242.81C653.906 1236.28 644.137 1235.35 638.694 1240.72C633.252 1246.1 634.197 1255.75 640.806 1262.28C647.414 1268.81 657.184 1269.74 662.626 1264.37C668.069 1258.99 667.124 1249.34 660.515 1242.81Z" fill="#7D5A50"/>
<path d="M653.004 1198.77C646.395 1192.24 636.626 1191.31 631.183 1196.68C625.741 1202.06 626.686 1211.71 633.295 1218.24C639.903 1224.77 649.673 1225.7 655.115 1220.32C660.558 1214.95 659.613 1205.3 653.004 1198.77Z" fill="#7D5A50"/>
<path d="M723.161 1180.92C716.553 1174.39 706.783 1173.46 701.341 1178.84C695.898 1184.21 696.843 1193.87 703.452 1200.39C710.061 1206.92 719.83 1207.86 725.273 1202.48C730.716 1197.1 729.77 1187.45 723.161 1180.92Z" fill="#7D5A50"/>
<path d="M678.578 1173.51C671.97 1166.98 662.2 1166.04 656.758 1171.42C651.315 1176.8 652.26 1186.45 658.869 1192.98C665.478 1199.5 675.247 1200.44 680.69 1195.06C686.132 1189.69 685.187 1180.03 678.578 1173.51Z" fill="#7D5A50"/>
<path d="M777.005 1054.78C779.133 1056.87 780.705 1059.45 781.581 1062.29C782.457 1065.13 782.609 1068.14 782.024 1071.05C781.439 1073.96 780.135 1076.68 778.228 1078.97C776.321 1081.27 773.871 1083.06 771.094 1084.19C766.119 1086.16 761.59 1089.09 757.77 1092.81L756.746 1093.81C752.846 1097.68 749.759 1102.27 747.665 1107.31C745.999 1111.37 742.9 1114.68 738.944 1116.64C734.989 1118.6 730.447 1119.08 726.163 1117.98C721.88 1116.88 718.147 1114.28 715.659 1110.66C713.17 1107.05 712.097 1102.66 712.638 1098.32C713.538 1090.32 711.799 1082.24 707.681 1075.29C702.957 1067.2 700.264 1056.42 709.87 1046.91C719.389 1037.51 730.335 1040.2 738.567 1044.85C745.714 1048.85 753.956 1050.51 762.118 1049.61C764.833 1049.31 767.581 1049.62 770.158 1050.52C772.735 1051.41 775.075 1052.87 777.005 1054.78Z" fill="#7D5A50"/>
<path d="M697.583 1077.15C690.975 1070.62 681.205 1069.68 675.763 1075.06C670.32 1080.44 671.265 1090.09 677.874 1096.62C684.483 1103.15 694.252 1104.08 699.695 1098.7C705.138 1093.33 704.192 1083.67 697.583 1077.15Z" fill="#7D5A50"/>
<path d="M690.072 1033.1C683.464 1026.57 673.694 1025.64 668.252 1031.02C662.809 1036.39 663.755 1046.05 670.363 1052.57C676.972 1059.1 686.741 1060.04 692.184 1054.66C697.627 1049.28 696.681 1039.63 690.072 1033.1Z" fill="#7D5A50"/>
<path d="M760.23 1015.25C753.621 1008.73 743.852 1007.79 738.409 1013.17C732.967 1018.55 733.912 1028.2 740.521 1034.73C747.13 1041.25 756.899 1042.19 762.342 1036.81C767.784 1031.43 766.839 1021.78 760.23 1015.25Z" fill="#7D5A50"/>
<path d="M715.647 1007.84C709.038 1001.31 699.269 1000.37 693.826 1005.75C688.384 1011.13 689.329 1020.78 695.938 1027.31C702.546 1033.84 712.316 1034.77 717.758 1029.39C723.201 1024.02 722.256 1014.37 715.647 1007.84Z" fill="#7D5A50"/>
<path d="M573.557 1079.17C575.302 1080.89 576.674 1082.95 577.592 1085.21C578.51 1087.47 578.954 1089.9 578.897 1092.34C578.839 1094.77 578.282 1097.17 577.259 1099.39C576.236 1101.61 574.768 1103.6 572.944 1105.24C571.388 1106.65 569.595 1107.77 567.646 1108.56C562.672 1110.54 558.144 1113.46 554.322 1117.18L553.298 1118.19C549.397 1122.05 546.311 1126.64 544.217 1131.69C542.551 1135.74 539.451 1139.06 535.495 1141.02C531.539 1142.98 526.996 1143.45 522.712 1142.35C518.428 1141.25 514.695 1138.65 512.207 1135.04C509.719 1131.42 508.647 1127.03 509.189 1122.69C510.089 1114.69 508.351 1106.61 504.233 1099.66C499.508 1091.57 496.816 1080.79 506.422 1071.29C515.941 1061.88 526.887 1064.57 535.118 1069.22C542.266 1073.22 550.508 1074.89 558.67 1073.98C561.386 1073.69 564.135 1074 566.712 1074.9C569.289 1075.8 571.629 1077.26 573.557 1079.17Z" fill="#7D5A50"/>
<path d="M494.135 1101.54C487.526 1095.01 477.757 1094.07 472.314 1099.45C466.872 1104.83 467.817 1114.48 474.426 1121.01C481.034 1127.54 490.804 1128.47 496.246 1123.09C501.689 1117.72 500.744 1108.07 494.135 1101.54Z" fill="#7D5A50"/>
<path d="M486.628 1057.49C480.02 1050.97 470.25 1050.03 464.808 1055.41C459.365 1060.78 460.31 1070.44 466.919 1076.96C473.528 1083.49 483.297 1084.43 488.74 1079.05C494.182 1073.67 493.237 1064.02 486.628 1057.49Z" fill="#7D5A50"/>
<path d="M556.782 1039.65C550.173 1033.12 540.403 1032.18 534.961 1037.56C529.518 1042.94 530.464 1052.59 537.072 1059.12C543.681 1065.64 553.451 1066.58 558.893 1061.2C564.336 1055.83 563.39 1046.17 556.782 1039.65Z" fill="#7D5A50"/>
<path d="M512.203 1032.23C505.594 1025.7 495.825 1024.76 490.382 1030.14C484.939 1035.52 485.885 1045.17 492.493 1051.7C499.102 1058.23 508.872 1059.16 514.314 1053.78C519.757 1048.41 518.811 1038.76 512.203 1032.23Z" fill="#7D5A50"/>
<path d="M597.051 899.661C598.797 901.384 600.17 903.44 601.088 905.703C602.007 907.966 602.45 910.39 602.393 912.827C602.336 915.265 601.779 917.665 600.755 919.884C599.731 922.103 598.263 924.093 596.438 925.735C594.883 927.139 593.089 928.262 591.14 929.052C586.167 931.028 581.639 933.956 577.817 937.669L576.792 938.681C572.892 942.544 569.805 947.132 567.711 952.181C566.045 956.232 562.946 959.547 558.99 961.509C555.034 963.471 550.491 963.946 546.207 962.846C541.923 961.746 538.189 959.145 535.702 955.528C533.214 951.911 532.141 947.524 532.684 943.184C533.584 935.181 531.846 927.104 527.727 920.155C523.003 912.062 520.31 901.278 529.917 891.78C539.435 882.376 550.381 885.067 558.613 889.716C565.76 893.713 574.003 895.378 582.165 894.474C584.881 894.179 587.63 894.492 590.207 895.39C592.784 896.288 595.123 897.747 597.051 899.661Z" fill="#7D5A50"/>
<path d="M517.631 922.028C511.023 915.499 501.253 914.565 495.811 919.942C490.368 925.318 491.313 934.97 497.922 941.499C504.531 948.027 514.3 948.961 519.743 943.585C525.185 938.208 524.24 928.556 517.631 922.028Z" fill="#7D5A50"/>
<path d="M510.12 877.985C503.512 871.456 493.742 870.523 488.3 875.899C482.857 881.276 483.802 890.927 490.411 897.456C497.02 903.985 506.789 904.919 512.232 899.542C517.674 894.165 516.729 884.514 510.12 877.985Z" fill="#7D5A50"/>
<path d="M580.278 860.136C573.669 853.607 563.9 852.673 558.457 858.05C553.015 863.427 553.96 873.078 560.569 879.607C567.177 886.136 576.947 887.07 582.389 881.693C587.832 876.316 586.887 866.665 580.278 860.136Z" fill="#7D5A50"/>
<path d="M535.695 852.723C529.086 846.194 519.317 845.26 513.874 850.637C508.432 856.013 509.377 865.665 515.986 872.194C522.594 878.722 532.364 879.656 537.806 874.279C543.249 868.903 542.304 859.251 535.695 852.723Z" fill="#7D5A50"/>
<path d="M414.895 936.362C416.072 938.505 416.797 940.862 417.026 943.29C417.255 945.718 416.983 948.166 416.227 950.487C415.47 952.808 414.245 954.953 412.626 956.793C411.006 958.633 409.026 960.129 406.804 961.191C404.909 962.101 402.866 962.674 400.77 962.886C395.433 963.381 390.248 964.917 385.516 967.406L384.246 968.086C379.397 970.69 375.118 974.219 371.658 978.467C368.889 981.863 364.968 984.153 360.622 984.912C356.275 985.672 351.797 984.85 348.017 982.598C344.237 980.346 341.41 976.817 340.062 972.665C338.713 968.513 338.933 964.019 340.681 960.014C343.845 952.592 344.502 944.36 342.555 936.54C340.365 927.456 340.873 916.361 352.826 909.955C364.648 903.61 374.377 909.263 380.932 916.011C386.633 921.852 394.055 925.765 402.141 927.192C404.827 927.679 407.367 928.755 409.575 930.343C411.783 931.93 413.601 933.987 414.895 936.362Z" fill="#7D5A50"/>
<path d="M332.296 935.503C327.838 927.388 318.74 923.75 311.975 927.377C305.211 931.004 303.341 940.523 307.799 948.638C312.257 956.753 321.355 960.391 328.12 956.764C334.885 953.137 336.755 943.618 332.296 935.503Z" fill="#7D5A50"/>
<path d="M337.765 891.177C333.307 883.062 324.209 879.423 317.444 883.051C310.679 886.678 308.809 896.196 313.267 904.311C317.725 912.426 326.823 916.065 333.588 912.437C340.353 908.81 342.223 899.292 337.765 891.177Z" fill="#7D5A50"/>
<path d="M410.162 893.756C405.704 885.641 396.605 882.003 389.841 885.63C383.076 889.257 381.206 898.776 385.664 906.891C390.122 915.006 399.22 918.644 405.985 915.017C412.75 911.39 414.62 901.871 410.162 893.756Z" fill="#7D5A50"/>
<path d="M369.554 874.128C365.095 866.013 355.997 862.375 349.233 866.002C342.468 869.629 340.598 879.148 345.056 887.263C349.514 895.378 358.612 899.016 365.377 895.389C372.142 891.762 374.012 882.243 369.554 874.128Z" fill="#7D5A50"/>
<path d="M497.065 769.174C498.243 771.317 498.969 773.673 499.198 776.101C499.427 778.529 499.155 780.978 498.399 783.299C497.642 785.62 496.417 787.765 494.797 789.605C493.177 791.445 491.196 792.941 488.974 794.002C487.08 794.911 485.039 795.485 482.945 795.698C477.607 796.193 472.423 797.729 467.69 800.218L466.421 800.897C461.571 803.501 457.293 807.03 453.833 811.278C451.064 814.674 447.143 816.964 442.796 817.724C438.449 818.483 433.971 817.661 430.191 815.409C426.411 813.157 423.585 809.629 422.236 805.476C420.887 801.324 421.107 796.83 422.855 792.825C426.02 785.404 426.677 777.171 424.729 769.351C422.54 760.268 423.048 749.173 435.001 742.767C446.823 736.421 456.552 742.074 463.106 748.844C468.81 754.69 476.237 758.607 484.328 760.034C487.008 760.519 489.544 761.592 491.748 763.174C493.952 764.756 495.769 766.806 497.065 769.174Z" fill="#7D5A50"/>
<path d="M414.458 768.317C410 760.202 400.902 756.564 394.137 760.191C387.372 763.818 385.502 773.337 389.961 781.452C394.419 789.567 403.517 793.205 410.282 789.578C417.047 785.951 418.916 776.432 414.458 768.317Z" fill="#7D5A50"/>
<path d="M419.927 723.987C415.468 715.872 406.37 712.234 399.606 715.861C392.841 719.488 390.971 729.007 395.429 737.122C399.887 745.237 408.985 748.875 415.75 745.248C422.515 741.621 424.385 732.102 419.927 723.987Z" fill="#7D5A50"/>
<path d="M492.324 726.571C487.865 718.456 478.767 714.818 472.002 718.445C465.238 722.072 463.368 731.59 467.826 739.705C472.284 747.82 481.382 751.459 488.147 747.832C494.912 744.204 496.782 734.686 492.324 726.571Z" fill="#7D5A50"/>
<path d="M451.72 706.943C447.262 698.828 438.164 695.19 431.399 698.817C424.634 702.444 422.764 711.963 427.222 720.078C431.68 728.192 440.778 731.831 447.543 728.204C454.308 724.576 456.178 715.058 451.72 706.943Z" fill="#7D5A50"/>
<path d="M493.646 268.831C494.727 271.596 495.102 274.582 494.735 277.524C494.369 280.466 493.274 283.274 491.546 285.697C489.818 288.121 487.512 290.086 484.832 291.419C482.152 292.751 479.18 293.409 476.18 293.335C470.824 293.147 465.482 294.01 460.466 295.874L459.117 296.389C453.967 298.358 449.263 301.316 445.277 305.092C442.088 308.106 437.902 309.876 433.493 310.075C429.084 310.275 424.752 308.889 421.298 306.175C417.843 303.462 415.501 299.603 414.705 295.315C413.909 291.027 414.712 286.599 416.966 282.85C421.071 275.894 422.796 267.815 421.883 259.813C420.885 250.522 422.846 239.587 435.535 234.755C448.092 229.971 456.989 236.814 462.616 244.358C467.508 250.875 474.357 255.7 482.187 258.147C484.785 258.967 487.164 260.352 489.147 262.202C491.13 264.051 492.667 266.316 493.646 268.831Z" fill="#7D5A50"/>
<path d="M411.789 257.472C408.426 248.857 399.878 244.092 392.697 246.828C385.515 249.564 382.42 258.766 385.783 267.38C389.146 275.995 397.694 280.76 404.875 278.024C412.057 275.288 415.152 266.087 411.789 257.472Z" fill="#7D5A50"/>
<path d="M422.996 214.207C419.633 205.593 411.085 200.827 403.903 203.563C396.722 206.3 393.626 215.501 396.99 224.116C400.353 232.73 408.901 237.496 416.082 234.76C423.263 232.024 426.359 222.822 422.996 214.207Z" fill="#7D5A50"/>
<path d="M494.445 225.98C491.081 217.365 482.533 212.599 475.352 215.336C468.171 218.072 465.075 227.273 468.438 235.888C471.801 244.503 480.349 249.268 487.531 246.532C494.712 243.796 497.808 234.594 494.445 225.98Z" fill="#7D5A50"/>
<path d="M456.737 201.351C453.374 192.737 444.826 187.971 437.645 190.707C430.463 193.444 427.368 202.645 430.731 211.26C434.094 219.875 442.642 224.64 449.824 221.904C457.005 219.168 460.1 209.966 456.737 201.351Z" fill="#7D5A50"/>
<path d="M380.454 102.897C382.111 104.704 383.38 106.825 384.183 109.13C384.987 111.435 385.309 113.878 385.129 116.309C384.95 118.741 384.273 121.111 383.14 123.277C382.007 125.443 380.441 127.36 378.537 128.911C376.914 130.238 375.067 131.272 373.081 131.964C368.015 133.697 363.346 136.402 359.342 139.923L358.273 140.879C354.184 144.549 350.871 148.983 348.527 153.925C346.652 157.878 343.39 161.026 339.344 162.783C335.299 164.54 330.746 164.788 326.53 163.48C322.313 162.173 318.721 159.398 316.418 155.673C314.115 151.947 313.258 147.522 314.007 143.219C315.302 135.268 313.968 127.117 310.202 119.974C305.89 111.665 303.735 100.765 313.815 91.7417C323.789 82.8139 334.59 86.0363 342.581 91.0799C349.52 95.4212 357.668 97.4889 365.865 96.9885C368.59 96.8295 371.316 97.2779 373.841 98.3007C376.367 99.3234 378.627 100.894 380.454 102.897Z" fill="#7D5A50"/>
<path d="M300.079 121.328C293.805 114.485 284.094 113.076 278.389 118.18C272.685 123.285 273.146 132.971 279.421 139.814C285.695 146.657 295.406 148.067 301.111 142.962C306.815 137.857 306.353 128.171 300.079 121.328Z" fill="#7D5A50"/>
<path d="M294.775 76.9753C288.501 70.1322 278.79 68.7228 273.085 73.8275C267.381 78.9323 267.842 88.618 274.117 95.4612C280.391 102.304 290.102 103.714 295.807 98.6089C301.511 93.5041 301.049 83.8185 294.775 76.9753Z" fill="#7D5A50"/>
<path d="M365.739 62.5668C359.465 55.7236 349.754 54.3143 344.05 59.4191C338.345 64.5238 338.807 74.2094 345.081 81.0526C351.355 87.8958 361.066 89.3051 366.771 84.2003C372.476 79.0956 372.014 69.4099 365.739 62.5668Z" fill="#7D5A50"/>
<path d="M321.581 52.9845C315.306 46.1413 305.595 44.732 299.891 49.8367C294.186 54.9414 294.648 64.6272 300.922 71.4703C307.197 78.3135 316.907 79.7228 322.612 74.618C328.317 69.5133 327.855 59.8276 321.581 52.9845Z" fill="#7D5A50"/>
<path d="M226.439 162.485C228.195 164.197 229.582 166.244 230.515 168.501C231.448 170.758 231.908 173.179 231.867 175.617C231.826 178.054 231.285 180.459 230.277 182.684C229.269 184.909 227.814 186.909 226.001 188.563C224.462 189.977 222.684 191.112 220.747 191.916C215.785 193.919 211.275 196.874 207.476 200.61L206.46 201.626C202.585 205.514 199.527 210.122 197.462 215.182C195.806 219.221 192.726 222.53 188.791 224.499C184.857 226.468 180.333 226.962 176.058 225.892C171.783 224.821 168.044 222.257 165.534 218.674C163.024 215.091 161.912 210.732 162.404 206.402C163.24 198.387 161.435 190.32 157.259 183.399C152.487 175.336 149.728 164.57 159.287 155.011C168.744 145.551 179.708 148.176 187.965 152.774C195.139 156.73 203.393 158.348 211.552 157.398C214.26 157.092 217.004 157.39 219.58 158.27C222.157 159.15 224.501 160.591 226.439 162.485Z" fill="#7D5A50"/>
<path d="M147.162 185.312C140.513 178.823 130.738 177.948 125.329 183.358C119.92 188.767 120.925 198.413 127.574 204.901C134.223 211.39 143.998 212.265 149.407 206.856C154.816 201.446 153.811 191.801 147.162 185.312Z" fill="#7D5A50"/>
<path d="M139.38 141.322C132.731 134.833 122.956 133.958 117.547 139.367C112.138 144.777 113.143 154.422 119.792 160.911C126.441 167.4 136.216 168.275 141.625 162.865C147.034 157.456 146.029 147.81 139.38 141.322Z" fill="#7D5A50"/>
<path d="M209.423 123.051C202.774 116.562 192.999 115.687 187.59 121.097C182.181 126.506 183.186 136.152 189.835 142.64C196.484 149.129 206.259 150.004 211.668 144.595C217.077 139.185 216.072 129.54 209.423 123.051Z" fill="#7D5A50"/>
<path d="M164.795 115.901C158.147 109.412 148.371 108.537 142.962 113.947C137.553 119.356 138.558 129.002 145.207 135.49C151.856 141.979 161.631 142.854 167.04 137.445C172.449 132.035 171.444 122.39 164.795 115.901Z" fill="#7D5A50"/>
<path d="M112.026 70.0451C114.36 71.9071 116.194 74.3093 117.364 77.039C118.533 79.7686 119.003 82.7412 118.732 85.6932C118.46 88.6452 117.456 91.4855 115.807 93.9621C114.158 96.4387 111.916 98.4752 109.28 99.891C104.545 102.371 100.353 105.752 96.9463 109.84L96.04 110.947C92.5705 115.194 89.9898 120.08 88.4478 125.321C87.2087 129.506 84.4763 133.106 80.7567 135.454C77.0371 137.802 72.5822 138.739 68.2169 138.092C63.8517 137.444 59.8719 135.255 57.0146 131.932C54.1572 128.608 52.6158 124.374 52.6759 120.013C52.7174 111.959 50.1269 104.107 45.2895 97.6244C39.7333 90.0678 35.9065 79.6261 44.4576 69.18C52.9211 58.8378 64.0949 60.3733 72.7729 64.1451C80.3064 67.3768 88.6801 68.1776 96.7011 66.4333C99.3662 65.8634 102.127 65.8921 104.779 66.5172C107.432 67.1424 109.908 68.348 112.026 70.0451Z" fill="#7D5A50"/>
<path d="M35.4339 100.538C28.1665 94.7321 18.3517 94.8189 13.5121 100.732C8.67238 106.644 10.6405 116.144 17.9079 121.949C25.1753 127.755 34.99 127.668 39.8297 121.755C44.6693 115.843 42.7013 106.343 35.4339 100.538Z" fill="#7D5A50"/>
<path d="M23.279 57.5271C30.5472 63.3319 32.5175 72.835 27.6793 78.7436C22.8411 84.6522 13.0247 84.7431 5.75647 78.9383C3.57086 77.2154 1.78007 75.0541 0.50235 72.5971L0.50235 58.8724C0.75758 58.4647 1.03835 58.0732 1.34301 57.7002C6.20307 51.8089 16.0064 51.7223 23.279 57.5271Z" fill="#7D5A50"/>
<path d="M91.1425 32.4786C83.8751 26.673 74.0604 26.7599 69.2207 32.6725C64.3811 38.5852 66.3491 48.0846 73.6165 53.8902C80.8839 59.6958 90.6986 59.6089 95.5383 53.6963C100.378 47.7836 98.4099 38.2842 91.1425 32.4786Z" fill="#7D5A50"/>
<path d="M46.0176 29.7371C38.7502 23.9315 28.9355 24.0183 24.0958 29.931C19.2562 35.8437 21.2242 45.3431 28.4916 51.1487C35.759 56.9543 45.5738 56.8675 50.4135 50.9548C55.2531 45.0422 53.285 35.5426 46.0176 29.7371Z" fill="#7D5A50"/>
<path d="M343.023 308.509C344.155 310.676 344.83 313.046 345.008 315.478C345.186 317.909 344.863 320.351 344.058 322.656C343.254 324.961 341.984 327.08 340.327 328.886C338.669 330.693 336.658 332.148 334.415 333.164C332.503 334.035 330.45 334.567 328.351 334.735C323.012 335.125 317.804 336.556 313.026 338.943L311.744 339.596C306.839 342.106 302.486 345.55 298.937 349.731C296.097 353.068 292.129 355.276 287.769 355.945C283.408 356.615 278.95 355.701 275.219 353.374C271.487 351.046 268.736 347.461 267.474 343.284C266.212 339.107 266.524 334.619 268.353 330.651C271.671 323.295 272.5 315.079 270.718 307.22C268.708 298.093 269.457 287.011 281.541 280.835C293.503 274.736 303.105 280.584 309.515 287.487C315.094 293.443 322.433 297.508 330.488 299.101C333.157 299.642 335.669 300.768 337.839 302.397C340.008 304.025 341.78 306.114 343.023 308.509Z" fill="#7D5A50"/>
<path d="M260.569 305.947C256.283 297.742 247.263 293.918 240.424 297.406C233.584 300.893 231.514 310.372 235.801 318.576C240.087 326.781 249.107 330.605 255.947 327.118C262.786 323.63 264.856 314.152 260.569 305.947Z" fill="#7D5A50"/>
<path d="M266.968 261.733C262.681 253.529 253.662 249.705 246.822 253.192C239.983 256.68 237.913 266.158 242.2 274.363C246.486 282.567 255.506 286.391 262.345 282.904C269.185 279.416 271.255 269.938 266.968 261.733Z" fill="#7D5A50"/>
<path d="M339.301 265.803C335.014 257.598 325.995 253.774 319.155 257.262C312.315 260.749 310.246 270.228 314.532 278.432C318.819 286.637 327.838 290.461 334.678 286.974C341.518 283.486 343.587 274.008 339.301 265.803Z" fill="#7D5A50"/>
<path d="M299.109 245.346C294.822 237.142 285.802 233.318 278.963 236.805C272.123 240.293 270.053 249.771 274.34 257.976C278.627 266.18 287.646 270.004 294.486 266.517C301.325 263.029 303.395 253.551 299.109 245.346Z" fill="#7D5A50"/>
<path d="M321.284 768.884C321.785 771.806 321.549 774.805 320.596 777.615C319.643 780.425 318.003 782.959 315.821 784.993C313.64 787.027 310.983 788.498 308.089 789.275C305.194 790.052 302.149 790.111 299.226 789.447C294.013 788.206 288.604 787.999 283.31 788.837L281.883 789.075C276.436 789.99 271.227 791.963 266.558 794.88C262.825 797.202 258.366 798.11 254.008 797.436C249.649 796.761 245.686 794.55 242.85 791.211C240.014 787.873 238.498 783.633 238.582 779.275C238.667 774.917 240.346 770.737 243.309 767.508C248.738 761.494 252.058 753.909 252.775 745.881C253.672 736.586 257.806 726.256 271.217 724.02C284.488 721.805 291.83 730.262 295.81 738.766C299.288 746.12 305.029 752.201 312.212 756.141C314.595 757.457 316.647 759.286 318.218 761.491C319.788 763.697 320.836 766.224 321.284 768.884Z" fill="#7D5A50"/>
<path d="M243.482 741.648C241.927 732.544 234.513 726.189 226.923 727.455C219.334 728.72 214.442 737.127 215.998 746.231C217.553 755.335 224.967 761.69 232.556 760.424C240.146 759.159 245.037 750.753 243.482 741.648Z" fill="#7D5A50"/>
<path d="M263.198 701.461C261.643 692.357 254.229 686.002 246.639 687.267C239.05 688.533 234.158 696.939 235.714 706.044C237.269 715.148 244.682 721.503 252.272 720.237C259.862 718.972 264.753 710.565 263.198 701.461Z" fill="#7D5A50"/>
<path d="M330.841 727.078C329.285 717.974 321.872 711.619 314.282 712.884C306.693 714.15 301.801 722.556 303.357 731.661C304.912 740.765 312.325 747.12 319.915 745.854C327.505 744.589 332.396 736.182 330.841 727.078Z" fill="#7D5A50"/>
<path d="M298.863 695.516C297.307 686.412 289.894 680.057 282.304 681.323C274.715 682.588 269.823 690.995 271.378 700.099C272.934 709.203 280.347 715.558 287.937 714.292C295.527 713.027 300.418 704.621 298.863 695.516Z" fill="#7D5A50"/>
<path d="M440.64 620.243C441.052 622.647 440.965 625.109 440.385 627.479C439.806 629.849 438.745 632.079 437.269 634.033C435.792 635.986 433.929 637.624 431.794 638.846C429.658 640.068 427.293 640.85 424.843 641.144C422.753 641.398 420.633 641.287 418.582 640.815C413.369 639.577 407.96 639.371 402.666 640.209L401.243 640.447C395.797 641.362 390.588 643.335 385.919 646.252C382.185 648.574 377.727 649.482 373.368 648.807C369.01 648.133 365.046 645.922 362.21 642.583C359.374 639.245 357.858 635.004 357.943 630.647C358.027 626.289 359.706 622.109 362.669 618.88C368.098 612.865 371.418 605.28 372.135 597.253C373.033 587.953 377.162 577.624 390.573 575.387C403.844 573.173 411.191 581.633 415.171 590.133C418.648 597.484 424.386 603.563 431.568 607.5C433.95 608.817 436.002 610.645 437.573 612.851C439.143 615.057 440.191 617.583 440.64 620.243Z" fill="#7D5A50"/>
<path d="M362.847 593.018C361.291 583.914 353.878 577.559 346.288 578.824C338.699 580.09 333.807 588.496 335.362 597.601C336.918 606.705 344.331 613.06 351.921 611.794C359.511 610.529 364.402 602.122 362.847 593.018Z" fill="#7D5A50"/>
<path d="M382.566 552.826C381.011 543.722 373.598 537.367 366.008 538.633C358.418 539.898 353.527 548.305 355.082 557.409C356.637 566.513 364.051 572.868 371.641 571.602C379.23 570.337 384.122 561.931 382.566 552.826Z" fill="#7D5A50"/>
<path d="M450.206 578.448C448.65 569.343 441.237 562.989 433.647 564.254C426.058 565.52 421.166 573.926 422.721 583.03C424.277 592.135 431.69 598.489 439.28 597.224C446.87 595.958 451.761 587.552 450.206 578.448Z" fill="#7D5A50"/>
<path d="M418.227 546.877C416.671 537.773 409.258 531.418 401.668 532.684C394.079 533.949 389.187 542.356 390.742 551.46C392.298 560.564 399.711 566.919 407.301 565.653C414.891 564.388 419.782 555.982 418.227 546.877Z" fill="#7D5A50"/>
<path d="M495.866 462.354C495.304 464.728 494.261 466.965 492.799 468.93C491.337 470.894 489.487 472.545 487.361 473.783C485.235 475.021 482.876 475.82 480.428 476.131C477.98 476.442 475.494 476.259 473.12 475.594C471.092 475.03 469.18 474.118 467.471 472.899C463.147 469.765 458.236 467.508 453.023 466.26L451.617 465.935C446.237 464.699 440.663 464.528 435.215 465.433C430.864 466.149 426.397 465.283 422.642 462.996C418.886 460.709 416.096 457.155 414.788 452.993C413.48 448.831 413.741 444.342 415.525 440.355C417.308 436.369 420.492 433.156 424.488 431.31C431.846 427.841 437.874 422.121 441.678 414.998C446.144 406.78 453.999 398.817 467.239 401.879C480.344 404.907 483.807 415.513 484.149 424.873C484.479 432.98 487.39 440.777 492.468 447.154C494.15 449.275 495.328 451.741 495.917 454.372C496.505 457.003 496.487 459.731 495.866 462.354Z" fill="#7D5A50"/>
<path d="M424.967 388.157C417.472 386.426 409.672 392.311 407.544 401.302C405.416 410.292 409.767 418.984 417.262 420.715C424.756 422.447 432.557 416.562 434.685 407.571C436.813 398.58 432.462 389.889 424.967 388.157Z" fill="#7D5A50"/>
<path d="M458.876 358.627C451.382 356.896 443.581 362.781 441.453 371.771C439.325 380.762 443.676 389.454 451.171 391.185C458.666 392.916 466.466 387.031 468.594 378.04C470.722 369.05 466.371 360.358 458.876 358.627Z" fill="#7D5A50"/>
<path d="M511.225 408.087C503.73 406.356 495.929 412.241 493.801 421.232C491.674 430.222 496.024 438.914 503.519 440.645C511.014 442.376 518.815 436.491 520.943 427.501C523.07 418.51 518.72 409.818 511.225 408.087Z" fill="#7D5A50"/>
<path d="M494.092 366.762C486.597 365.031 478.797 370.916 476.669 379.906C474.541 388.897 478.892 397.589 486.387 399.32C493.881 401.051 501.682 395.166 503.81 386.175C505.938 377.185 501.587 368.493 494.092 366.762Z" fill="#7D5A50"/>
<path d="M313.495 533.672C312.933 536.049 311.889 538.288 310.426 540.254C308.962 542.22 307.11 543.872 304.981 545.11C302.853 546.348 300.492 547.146 298.041 547.456C295.591 547.766 293.103 547.581 290.727 546.913C288.701 546.348 286.791 545.435 285.083 544.218C280.758 541.084 275.847 538.827 270.634 537.578L269.229 537.254C263.849 536.018 258.274 535.847 252.827 536.752C248.476 537.467 244.009 536.601 240.254 534.314C236.498 532.027 233.708 528.474 232.4 524.312C231.092 520.15 231.353 515.66 233.136 511.674C234.92 507.688 238.104 504.474 242.1 502.628C249.457 499.16 255.486 493.44 259.29 486.317C263.756 478.099 271.606 470.135 284.851 473.198C297.956 476.226 301.419 486.832 301.761 496.192C302.091 504.299 305.002 512.096 310.08 518.473C311.766 520.591 312.948 523.057 313.539 525.688C314.13 528.319 314.115 531.048 313.495 533.672Z" fill="#7D5A50"/>
<path d="M242.614 459.472C235.119 457.741 227.319 463.626 225.191 472.616C223.063 481.607 227.414 490.299 234.909 492.03C242.403 493.761 250.204 487.876 252.332 478.885C254.46 469.895 250.109 461.203 242.614 459.472Z" fill="#7D5A50"/>
<path d="M276.519 429.941C269.024 428.21 261.224 434.095 259.096 443.085C256.968 452.076 261.319 460.768 268.814 462.499C276.308 464.23 284.109 458.345 286.237 449.355C288.365 440.364 284.014 431.672 276.519 429.941Z" fill="#7D5A50"/>
<path d="M328.872 479.401C321.377 477.67 313.576 483.555 311.449 492.546C309.321 501.536 313.671 510.228 321.166 511.959C328.661 513.691 336.462 507.806 338.59 498.815C340.717 489.824 336.367 481.133 328.872 479.401Z" fill="#7D5A50"/>
<path d="M311.738 438.08C304.243 436.349 296.443 442.234 294.315 451.225C292.187 460.215 296.538 468.907 304.032 470.638C311.527 472.369 319.328 466.485 321.456 457.494C323.584 448.503 319.233 439.811 311.738 438.08Z" fill="#7D5A50"/>
</g>
<defs>
<clipPath id="clip0_106_2">
<rect width="1408.64" height="963.256" fill="white" transform="matrix(0 -1 1 0 0.511261 1409.55)"/>
</clipPath>
</defs>
</svg>
