<svg width="34" height="24" viewBox="0 0 34 24" fill="none" xmlns="http://www.w3.org/2000/svg">
<rect x="0.5" y="0.5" width="33" height="23" rx="3.5" fill="white" stroke="#D9D9D9"/>
<path fill-rule="evenodd" clip-rule="evenodd" d="M16.7705 4.0583C16.7711 4.04203 16.7718 4.0226 16.7568 4C15.5818 5.15708 14.4067 6.31018 13.2317 7.46328C12.6442 8.0398 12.0567 8.61632 11.4693 9.19334L11.4289 9.2337C11.4289 9.23594 11.4278 9.23706 11.4267 9.23818C11.4255 9.23931 11.4244 9.24043 11.4244 9.24267V9.26509C11.4424 9.27855 11.4693 9.30097 11.4917 9.32339C12.4785 10.2894 13.4634 11.2574 14.4476 12.2247C14.9439 12.7124 15.44 13.2 15.9361 13.6871C16.0224 13.7719 16.1083 13.8568 16.1941 13.9416C16.3665 14.112 16.5382 14.2817 16.7119 14.4495C16.7143 14.4518 16.7167 14.4545 16.7191 14.4572C16.7305 14.47 16.7436 14.4845 16.7657 14.4809C16.7702 14.4719 16.7702 14.4629 16.7702 14.4539V11.8887C16.7702 11.8528 16.7613 11.8214 16.7344 11.799C16.7252 11.7928 16.7181 11.7846 16.7116 11.7772C16.7086 11.7737 16.7058 11.7704 16.703 11.7676C15.8733 10.9514 15.0436 10.1306 14.2139 9.30994C14.1915 9.292 14.1691 9.27406 14.1556 9.24715C14.1691 9.22025 14.1901 9.2009 14.2111 9.18156C14.2181 9.17512 14.2251 9.16867 14.2319 9.16194L16.7209 6.69982C16.7568 6.66394 16.7702 6.63255 16.7702 6.58321V4.06727C16.7702 4.0644 16.7703 4.06141 16.7705 4.0583ZM17.3844 14.4247C17.3838 14.4436 17.3831 14.4636 17.3981 14.4898C19.151 12.7721 20.8953 11.0588 22.6351 9.34976L22.7305 9.25612C22.7202 9.23224 22.7022 9.21614 22.6863 9.20191C22.6813 9.19744 22.6764 9.19314 22.6722 9.18885L18.313 4.9104C18.017 4.62339 17.7255 4.33638 17.434 4.04937L17.434 4.04933C17.4311 4.04651 17.4285 4.04328 17.4258 4.04C17.4158 4.02764 17.405 4.0144 17.3802 4.01794V4.06727V6.59218C17.3802 6.63703 17.3936 6.66842 17.425 6.69982C17.8464 7.11222 18.2677 7.5291 18.6891 7.94599L18.6897 7.94658L19.9499 9.19334C19.9539 9.19735 19.9582 9.20114 19.9624 9.2049C19.977 9.21797 19.9913 9.23075 19.9948 9.25164L19.9589 9.28752C19.8109 9.43551 19.6584 9.58799 19.5059 9.73599L17.434 11.781C17.4026 11.8169 17.3846 11.8483 17.3846 11.8976V14.4136C17.3846 14.4173 17.3845 14.421 17.3844 14.4247ZM17.9183 17.8848C17.8331 17.8579 17.7434 17.8354 17.6582 17.8175C17.6523 17.8135 17.6463 17.8122 17.64 17.8108C17.632 17.809 17.6234 17.8071 17.6134 17.7996C17.6171 17.7996 17.6207 17.7998 17.6241 17.7999C17.6369 17.8007 17.6476 17.8012 17.6582 17.7906L17.7255 17.7771C17.8062 17.7682 17.8869 17.7457 17.9632 17.7233C18.0932 17.683 18.2143 17.6247 18.3175 17.5394C18.4386 17.4408 18.5193 17.3152 18.5462 17.1582C18.5641 17.0686 18.5596 16.9789 18.5507 16.8892C18.5238 16.6425 18.3982 16.4631 18.174 16.36C18.1067 16.3286 18.0394 16.3106 17.9677 16.2927C17.8197 16.2568 17.6627 16.2523 17.5102 16.2523H16.1917C16.1693 16.2523 16.1558 16.2613 16.1513 16.2837C16.1446 16.3129 16.1379 16.3409 16.1312 16.3689C16.1244 16.397 16.1177 16.425 16.111 16.4541C16.1065 16.4766 16.1155 16.4855 16.1379 16.4855C16.1693 16.4878 16.2018 16.4889 16.2343 16.49C16.2668 16.4911 16.2993 16.4923 16.3307 16.4945C16.3621 16.4945 16.389 16.499 16.4204 16.508C16.4698 16.5214 16.4922 16.5573 16.4967 16.6066C16.4967 16.6246 16.4967 16.647 16.4922 16.6649C16.4832 16.7053 16.4754 16.7445 16.4675 16.7838C16.4597 16.823 16.4518 16.8623 16.4428 16.9026C16.398 17.0865 16.3543 17.2704 16.3105 17.4542C16.2668 17.6381 16.2231 17.822 16.1782 18.0059C16.1401 18.1606 16.1009 18.3153 16.0616 18.4701C16.0224 18.6248 15.9832 18.7795 15.945 18.9342C15.9424 18.9422 15.9397 18.9503 15.937 18.9586C15.9261 18.9921 15.9146 19.0274 15.9002 19.0598C15.8778 19.1091 15.8374 19.1405 15.7791 19.1495C15.6535 19.1719 15.528 19.1674 15.4024 19.145C15.3217 19.1315 15.2634 19.0822 15.2409 19.0015C15.2393 18.9957 15.2376 18.99 15.236 18.9845C15.2288 18.96 15.2222 18.9374 15.2185 18.9118L15.1512 18.5754C15.1198 18.405 15.0873 18.2346 15.0548 18.0642C15.0223 17.8938 14.9898 17.7233 14.9584 17.5529C14.9248 17.3802 14.8922 17.2065 14.8597 17.0327C14.8272 16.8589 14.7947 16.6851 14.7611 16.5124C14.7521 16.4653 14.7431 16.4171 14.7342 16.3689C14.7252 16.3207 14.7162 16.2725 14.7072 16.2254C14.7028 16.1895 14.6938 16.1851 14.6579 16.1851H14.5503C14.5032 16.1851 14.4841 16.1828 14.4712 16.1907C14.4583 16.1985 14.4516 16.2165 14.4292 16.2568L13.6219 17.7502C13.5213 17.9407 13.419 18.1294 13.317 18.3176C13.2509 18.4396 13.1849 18.5613 13.1196 18.6831C13.0658 18.7862 13.0075 18.8849 12.9313 18.9701C12.8461 19.0732 12.7474 19.1495 12.6084 19.1674C12.586 19.1719 12.577 19.1898 12.5725 19.2078L12.5321 19.3692V19.3782C12.5321 19.3961 12.5366 19.4051 12.5546 19.4051H13.595C13.604 19.4051 13.613 19.4006 13.6175 19.3872C13.6197 19.3782 13.6219 19.3703 13.6242 19.3625C13.6264 19.3547 13.6287 19.3468 13.6309 19.3378C13.6332 19.3289 13.6354 19.3188 13.6376 19.3087C13.6399 19.2986 13.6421 19.2885 13.6444 19.2795C13.646 19.273 13.6483 19.267 13.6504 19.2612C13.6542 19.2511 13.6578 19.2416 13.6578 19.2302C13.6578 19.2242 13.6593 19.2182 13.6608 19.2123C13.6638 19.2003 13.6668 19.1883 13.6578 19.1764C13.6078 19.1681 13.554 19.1636 13.5034 19.1594L13.4919 19.1584C13.456 19.154 13.4246 19.145 13.3932 19.1315C13.3394 19.1091 13.308 19.0643 13.3035 19.0015C13.299 18.9521 13.308 18.9073 13.3259 18.8624C13.3794 18.7441 13.4394 18.6322 13.5003 18.5185C13.5109 18.4987 13.5216 18.4788 13.5322 18.4588C13.5412 18.4454 13.5547 18.4364 13.5726 18.4364H14.4292C14.4516 18.4364 14.4606 18.4499 14.4651 18.4723L14.5323 18.8624C14.5458 18.9208 14.5503 18.9791 14.5503 19.0374C14.5458 19.1091 14.5144 19.145 14.4471 19.1629C14.4113 19.1719 14.3709 19.1764 14.3305 19.1764H14.2139C14.2005 19.1764 14.187 19.1809 14.1825 19.1988L14.1422 19.3872C14.1377 19.4051 14.1467 19.4141 14.1646 19.4141H17.2411C17.3936 19.4141 17.5461 19.3961 17.6941 19.3647C17.8331 19.3378 17.9677 19.2885 18.0843 19.2123C18.2233 19.1226 18.3264 18.997 18.3758 18.8355C18.4206 18.6786 18.4251 18.5261 18.3892 18.3691C18.3489 18.1987 18.2547 18.0687 18.1067 17.9745C18.0484 17.9386 17.9856 17.9072 17.9183 17.8848ZM24.0445 18.9835C24.0983 18.7638 24.1521 18.5395 24.2059 18.3108C24.1655 18.2984 24.1272 18.2902 24.088 18.2819C24.0708 18.2783 24.0534 18.2746 24.0355 18.2705C24.0176 18.266 24.0086 18.2705 23.9996 18.2839C23.9929 18.2951 23.9873 18.3063 23.9817 18.3176C23.9761 18.3288 23.9705 18.34 23.9638 18.3512C23.8875 18.4992 23.7978 18.6382 23.6857 18.7683C23.6005 18.8669 23.5063 18.9521 23.3987 19.0239C23.2776 19.1046 23.1431 19.154 22.9995 19.1719C22.8785 19.1854 22.7619 19.1764 22.6452 19.1629C22.6261 19.1629 22.6102 19.1564 22.592 19.1489C22.5889 19.1476 22.5857 19.1463 22.5825 19.145C22.5376 19.127 22.5152 19.0957 22.5107 19.0508C22.5062 19.0015 22.5107 18.9521 22.5197 18.9073C22.5286 18.849 22.5421 18.7952 22.5555 18.7414L22.5556 18.7414C22.6363 18.4094 22.7159 18.0786 22.7955 17.7479C22.8751 17.4171 22.9547 17.0864 23.0354 16.7546C23.0388 16.7434 23.0419 16.7322 23.045 16.721C23.0542 16.6873 23.0635 16.6537 23.0803 16.6201C23.1027 16.5707 23.1431 16.5394 23.1969 16.5214C23.2283 16.5124 23.2597 16.5035 23.2955 16.5035C23.3224 16.5012 23.3494 16.5001 23.3763 16.499C23.4032 16.4979 23.4301 16.4967 23.457 16.4945C23.4704 16.4945 23.4839 16.4945 23.4884 16.4766C23.4951 16.4429 23.503 16.4104 23.5108 16.3779C23.5187 16.3454 23.5265 16.3129 23.5332 16.2792C23.5377 16.2703 23.5287 16.2613 23.5198 16.2613C23.4929 16.2568 23.4704 16.2568 23.4435 16.2568H22.0577C22.0353 16.2568 22.0219 16.2703 22.0174 16.2927C22.0107 16.3196 22.0051 16.3454 21.9994 16.3712C21.9938 16.397 21.9882 16.4227 21.9815 16.4497C21.977 16.4855 21.977 16.4945 22.0174 16.4945C22.0488 16.4967 22.0813 16.4979 22.1138 16.499C22.1463 16.5001 22.1788 16.5012 22.2102 16.5035C22.2371 16.5035 22.264 16.508 22.291 16.5169C22.3403 16.5304 22.3672 16.5663 22.3672 16.6156C22.3672 16.6425 22.3627 16.6739 22.3582 16.7053C22.3469 16.7735 22.3323 16.8386 22.3172 16.9058C22.3144 16.9181 22.3117 16.9305 22.3089 16.943C22.1519 17.6067 21.9905 18.266 21.8245 18.9252C21.8156 18.9656 21.8021 19.006 21.7887 19.0463C21.7618 19.1136 21.7124 19.154 21.6362 19.1629C21.5285 19.1719 21.4254 19.1719 21.3178 19.1629C21.3088 19.1618 21.2998 19.161 21.2909 19.1601C21.2639 19.1576 21.237 19.1551 21.2101 19.145C21.1518 19.1226 21.1115 19.0867 21.089 19.0329C21.0801 19.006 21.0711 18.9791 21.0666 18.9521C21.0397 18.8266 21.0173 18.7055 20.9949 18.5799C20.9635 18.4095 20.931 18.2391 20.8985 18.0687C20.8659 17.8983 20.8334 17.7278 20.802 17.5574C20.7639 17.3534 20.7247 17.1482 20.6854 16.9431C20.6462 16.7379 20.6069 16.5327 20.5688 16.3286L20.5688 16.3286C20.5643 16.2837 20.5598 16.2389 20.5419 16.1985C20.5091 16.1821 20.474 16.1849 20.4399 16.1876C20.4274 16.1886 20.415 16.1895 20.4029 16.1895C20.349 16.1895 20.3277 16.1873 20.3137 16.1963C20.2997 16.2053 20.293 16.2255 20.2683 16.2703C20.0508 16.6717 19.8344 17.0719 19.618 17.4722C19.4017 17.8724 19.1853 18.2727 18.9678 18.6741C18.9319 18.7414 18.8915 18.8131 18.8467 18.8759C18.841 18.8833 18.8354 18.8907 18.8297 18.8981C18.7903 18.9498 18.7496 19.0032 18.6987 19.0463C18.6269 19.1091 18.5552 19.154 18.461 19.1674C18.4565 19.1697 18.4509 19.1708 18.4453 19.1719C18.4397 19.173 18.4341 19.1741 18.4296 19.1764C18.4206 19.1809 18.4116 19.1898 18.4116 19.1943C18.3937 19.2616 18.3803 19.3244 18.3668 19.3916C18.3668 19.4006 18.3713 19.4096 18.3803 19.4096H19.4342C19.4431 19.4096 19.4521 19.4051 19.4566 19.3916C19.4592 19.3826 19.4622 19.3731 19.4652 19.3635C19.4726 19.3399 19.4803 19.3153 19.4835 19.293C19.4861 19.2827 19.4894 19.2725 19.4927 19.2622C19.5009 19.2366 19.5091 19.211 19.5059 19.1854C19.485 19.1704 19.4622 19.1714 19.4386 19.1724C19.4268 19.1729 19.4148 19.1734 19.4028 19.1719C19.3893 19.1697 19.377 19.1685 19.3647 19.1674C19.3523 19.1663 19.34 19.1652 19.3265 19.1629C19.3116 19.1629 19.2966 19.1589 19.2817 19.155C19.2742 19.153 19.2667 19.151 19.2593 19.1495C19.1785 19.1226 19.1382 19.0687 19.1427 18.9701C19.1471 18.9297 19.1561 18.8983 19.1696 18.8624C19.2114 18.7627 19.2624 18.6676 19.3128 18.5738C19.3326 18.5369 19.3524 18.5001 19.3714 18.4633C19.3804 18.4454 19.3938 18.4364 19.4117 18.4364H20.2683C20.2952 18.4364 20.3042 18.4499 20.3087 18.4723C20.3132 18.4812 20.3132 18.4857 20.3132 18.4902L20.3805 18.8804C20.3811 18.8846 20.3818 18.8887 20.3825 18.8928C20.3908 18.9418 20.3984 18.9874 20.3984 19.0329C20.3984 19.0957 20.367 19.154 20.2863 19.1674C20.2504 19.1719 20.2145 19.1764 20.1786 19.1764H20.062C20.0396 19.1764 20.0306 19.1854 20.0262 19.2033C20.0232 19.2152 20.0197 19.2272 20.0162 19.2392C20.0092 19.2631 20.0022 19.287 19.9992 19.3109C19.9977 19.3217 19.9935 19.333 19.9895 19.344C19.9816 19.3653 19.974 19.3859 19.9858 19.4006C20.0023 19.4238 20.0286 19.4201 20.0539 19.4166C20.0629 19.4153 20.0717 19.4141 20.08 19.4141H23.901C23.9369 19.4141 23.9413 19.4096 23.9503 19.3737L24.0445 18.9835ZM12.5052 18.544C12.5097 18.5306 12.5142 18.5171 12.5052 18.4947C12.4755 18.4947 12.4446 18.4959 12.4143 18.497C12.3852 18.4981 12.3567 18.4992 12.3303 18.4992C12.2945 18.4947 12.2765 18.5126 12.2631 18.544C12.2182 18.6472 12.1599 18.7503 12.0882 18.84C12.0074 18.9477 11.9132 19.0374 11.8011 19.1091C11.6711 19.1898 11.5365 19.2302 11.384 19.2212C11.1419 19.2078 10.958 19.1001 10.8414 18.8804C10.8145 18.8311 10.7921 18.7772 10.7786 18.7234C10.7248 18.5395 10.7203 18.3557 10.7338 18.1718C10.7562 17.9207 10.8055 17.674 10.8818 17.4318C10.9401 17.2479 11.0118 17.073 11.1015 16.9026C11.1598 16.795 11.2316 16.6918 11.3213 16.6066C11.4289 16.5035 11.5545 16.4362 11.707 16.4183C11.9177 16.3958 12.0882 16.4631 12.2137 16.6335C12.2496 16.6829 12.2765 16.7322 12.2989 16.7815C12.3393 16.8757 12.3662 16.9699 12.3841 17.0641C12.4111 17.2031 12.42 17.3421 12.4245 17.4811C12.4245 17.526 12.429 17.5305 12.4694 17.535C12.4895 17.5372 12.5086 17.5394 12.5277 17.5417C12.5467 17.5439 12.5658 17.5462 12.586 17.5484C12.6129 17.5484 12.6218 17.5439 12.6263 17.517C12.6263 17.5125 12.6274 17.5081 12.6286 17.5036C12.6297 17.4991 12.6308 17.4946 12.6308 17.4901C12.6622 17.3085 12.6936 17.128 12.725 16.9474C12.7564 16.7669 12.7878 16.5864 12.8192 16.4048C12.8204 16.3959 12.8231 16.3867 12.8258 16.3774C12.8327 16.3539 12.8397 16.3299 12.8237 16.3106C12.8092 16.2962 12.7855 16.2985 12.762 16.3008C12.7491 16.302 12.7362 16.3033 12.725 16.3017H12.6981C12.6712 16.3017 12.6532 16.3106 12.6353 16.3331C12.6017 16.3758 12.566 16.4166 12.5296 16.458C12.5126 16.4774 12.4955 16.4969 12.4783 16.5169C12.475 16.5203 12.4719 16.5239 12.4688 16.5276C12.4595 16.5385 12.4503 16.5494 12.4335 16.5528L12.429 16.5483C12.4268 16.5438 12.4234 16.5394 12.42 16.5349C12.4167 16.5304 12.4133 16.5259 12.4111 16.5214C12.3214 16.3914 12.2048 16.3061 12.0612 16.2523C11.9357 16.2075 11.8101 16.1895 11.68 16.194C11.402 16.1985 11.1464 16.2792 10.9087 16.4272C10.6037 16.6156 10.384 16.8757 10.2225 17.1941C10.1014 17.4408 10.0297 17.7009 10.0072 17.9745C9.98929 18.1987 10.0027 18.4185 10.07 18.6337C10.1687 18.9521 10.3615 19.1943 10.662 19.3423C10.9356 19.4769 11.2271 19.5083 11.5231 19.4589C11.837 19.4096 12.0792 19.2481 12.2675 18.997C12.3707 18.858 12.4469 18.7055 12.5052 18.544ZM17.3308 17.9386C17.2501 17.9206 17.1694 17.9206 17.0887 17.9206C17.0259 17.9206 16.9631 17.9251 16.9003 17.9296C16.8779 17.9296 16.8644 17.9386 16.8599 17.961C16.8577 17.9699 16.8555 17.9778 16.8532 17.9856C16.851 17.9935 16.8487 18.0013 16.8465 18.0103L16.6716 18.7368C16.6656 18.7652 16.6591 18.7936 16.6526 18.822C16.6397 18.8789 16.6267 18.9357 16.6178 18.9925C16.5953 19.1091 16.6312 19.1539 16.7478 19.1674C16.8734 19.1853 16.999 19.1898 17.1245 19.1674C17.3712 19.1315 17.5416 19.0014 17.6268 18.7637C17.6806 18.6068 17.6986 18.4453 17.6762 18.2839C17.6537 18.1179 17.564 18.0058 17.4026 17.9565C17.3833 17.9488 17.3607 17.9444 17.3405 17.9404C17.3372 17.9398 17.334 17.9392 17.3308 17.9386ZM16.9586 17.7009H17.1245V17.7098H17.2008C17.2097 17.7098 17.2198 17.7087 17.2299 17.7076C17.24 17.7065 17.2501 17.7053 17.2591 17.7053C17.5192 17.6829 17.6986 17.5573 17.7928 17.3107C17.8511 17.1672 17.869 17.0147 17.86 16.8577C17.8466 16.6469 17.7165 16.5572 17.582 16.5214C17.5057 16.4989 17.4295 16.4945 17.3488 16.5034C17.277 16.5124 17.2232 16.5483 17.1963 16.6156C17.1784 16.6559 17.1649 16.6963 17.1559 16.7366C17.1201 16.8846 17.0853 17.0326 17.0505 17.1806C17.0158 17.3286 16.981 17.4766 16.9451 17.6246C16.9444 17.6277 16.9436 17.6306 16.9429 17.6335C16.9393 17.6473 16.9362 17.6591 16.9362 17.674C16.9317 17.6919 16.9407 17.7009 16.9586 17.7009ZM14.2296 17.1829C14.2274 17.175 14.2251 17.1672 14.2229 17.1582C14.2118 17.1638 14.2059 17.1727 14.1997 17.182C14.196 17.1877 14.1922 17.1934 14.187 17.1986C14.1063 17.3533 14.0256 17.5069 13.9448 17.6605C13.8641 17.8141 13.7834 17.9677 13.7027 18.1224C13.7013 18.1251 13.6995 18.1283 13.6976 18.1317C13.6932 18.1395 13.6879 18.1489 13.6847 18.1583C13.6803 18.1673 13.6847 18.1807 13.6982 18.1807H14.3754C14.3978 18.1807 14.4068 18.1718 14.4023 18.1493C14.3978 18.1269 14.3933 18.1034 14.3888 18.0798C14.3844 18.0563 14.3799 18.0327 14.3754 18.0103C14.353 17.8758 14.3294 17.7423 14.3059 17.6089C14.2823 17.4755 14.2588 17.3421 14.2364 17.2075C14.2341 17.1986 14.2319 17.1907 14.2296 17.1829ZM20.0576 17.1717L19.5328 18.1673C19.552 18.1864 19.5646 18.1859 19.5791 18.1854C19.5815 18.1853 19.584 18.1852 19.5867 18.1852H20.1921C20.2549 18.1852 20.2549 18.1807 20.2459 18.1179C20.2213 17.9744 20.1955 17.8309 20.1697 17.6874C20.1439 17.5439 20.1181 17.4004 20.0934 17.2569C20.089 17.2255 20.0845 17.1941 20.0755 17.1627C20.0721 17.1644 20.0686 17.1655 20.0657 17.1664C20.061 17.1678 20.0576 17.1689 20.0576 17.1717Z" fill="#002A5B"/>
</svg>
